<?xml version="1.0" encoding="utf-8"?>
<!-- Generator: Adobe Illustrator 23.0.1, SVG Export Plug-In . SVG Version: 6.00 Build 0)  -->
<svg version="1.1" xmlns="http://www.w3.org/2000/svg" xmlns:xlink="http://www.w3.org/1999/xlink" x="0px" y="0px"
	 viewBox="0 0 750 500" style="enable-background:new 0 0 750 500;" xml:space="preserve">
<style type="text/css">
	.st0{fill:#BDF3FF;}
	.st1{fill:#FFFFFF;}
	.st2{fill:#98E7F4;}
	.st3{fill:none;stroke:#FFFFFF;stroke-width:2.1537;stroke-linecap:round;stroke-linejoin:round;stroke-miterlimit:10;}
	.st4{fill:none;stroke:#FFFFFF;stroke-width:1.1376;stroke-linecap:round;stroke-linejoin:round;stroke-miterlimit:10;}
	.st5{opacity:0.3;fill:#ACE2F9;}
	.st6{opacity:0.5;fill:#ACE2F9;}
	.st7{fill:none;stroke:#98E7F4;stroke-width:0.6396;stroke-miterlimit:10;}
	.st8{fill:#00347F;}
	.st9{fill:#8ABFFF;}
	.st10{fill:#165E99;}
	.st11{fill:#083249;}
	.st12{fill:#7CD4F7;}
	.st13{fill:none;stroke:#7CD4F7;stroke-width:1.0019;stroke-linecap:round;stroke-linejoin:round;stroke-miterlimit:10;}
	.st14{font-family:'Montserrat-MediumItalic';}
	.st15{font-size:9.0094px;}
	.st16{fill:#4832B7;}
	.st17{fill:#CC7264;}
	.st18{fill:#0D053D;}
	.st19{fill:#318FFF;}
	.st20{fill:#006BFF;}
	.st21{fill:#DB8976;}
	.st22{fill:#27255E;}
	.st23{fill:#E8A38C;}
	.st24{fill:#FF8B6C;}
	.st25{fill:#1884EF;}
	.st26{fill:#F9765D;}
	.st27{fill:#E48873;}
	.st28{fill:none;stroke:#0D476D;stroke-linecap:round;stroke-linejoin:round;stroke-miterlimit:10;}
</style>
<g id="BACKGROUND">
</g>
<g id="OBJECTS">
	<g>
		<g>
			<path class="st0" d="M566.84,329.68h-40.37c-1.21,0-2.2-0.98-2.2-2.2v-24.06c0-1.21,0.98-2.2,2.2-2.2h40.37
				c1.21,0,2.2,0.98,2.2,2.2v24.06C569.04,328.69,568.06,329.68,566.84,329.68z"/>
			<path class="st1" d="M566.59,307.99h-39.33c-0.29,0-0.52-0.23-0.52-0.52v-3.9c0-0.29,0.23-0.52,0.52-0.52h39.33
				c0.29,0,0.52,0.23,0.52,0.52v3.9C567.12,307.76,566.88,307.99,566.59,307.99z"/>
			<path class="st1" d="M566.59,324.18h-39.33c-0.29,0-0.52-0.23-0.52-0.52v-1.05c0-0.29,0.23-0.52,0.52-0.52h39.33
				c0.29,0,0.52,0.23,0.52,0.52v1.05C567.12,323.94,566.88,324.18,566.59,324.18z"/>
			<path class="st1" d="M534.85,327.47h-7.58c-0.29,0-0.52-0.23-0.52-0.52v-1.05c0-0.29,0.23-0.52,0.52-0.52h7.58
				c0.29,0,0.52,0.23,0.52,0.52v1.05C535.37,327.24,535.14,327.47,534.85,327.47z"/>
			<path class="st1" d="M534.59,320.55h-7.32c-0.29,0-0.52-0.23-0.52-0.52v-3.9c0-0.29,0.23-0.52,0.52-0.52h7.32
				c0.29,0,0.52,0.23,0.52,0.52v3.9C535.11,320.32,534.88,320.55,534.59,320.55z"/>
			<path class="st1" d="M539.92,320.55h-3.66c-0.29,0-0.52-0.23-0.52-0.52v-3.9c0-0.29,0.23-0.52,0.52-0.52h3.66
				c0.29,0,0.52,0.23,0.52,0.52v3.9C540.44,320.32,540.21,320.55,539.92,320.55z"/>
			<path class="st1" d="M543.82,320.55h-2.17c-0.29,0-0.52-0.23-0.52-0.52v-3.9c0-0.29,0.23-0.52,0.52-0.52h2.17
				c0.29,0,0.52,0.23,0.52,0.52v3.9C544.34,320.32,544.11,320.55,543.82,320.55z"/>
		</g>
		<g>
			<g>
				<path class="st2" d="M363.82,314.56c-0.23-5.64-1.7-11.37-5.05-15.91c-1.04-1.4-2.95-2.78-4.35-1.74
					c-0.52,0.38-0.79,1-1.01,1.61c-1.72,4.77-1.3,10.05-0.31,15.02c0.14,0.69,0.28,1.38,0.44,2.07c-2.55-6.15-6.2-11.95-10.18-17.29
					c-1.76-2.37-3.68-4.75-6.29-6.12c-1.34-0.7-3.01-1.1-4.33-0.37c-1.94,1.07-2.04,3.81-1.61,5.98
					c2.02,10.29,9.58,18.16,15.91,26.7c-6.25-5.88-15.15-14.48-22.52-12.6c-0.36,0.09-5.96,2.6-1.48,7.44
					c5.33,5.76,20.51,11.08,23.75,18.91c-10.36-6.19-14.79-6.13-19.44-5.54c-3.58,0.45-8.54,5.31-5.3,8.85
					c2.24,2.44,6,2.67,9.3,2.32c3.6-0.39,7.16-1.27,10.78-1.37c3.62-0.1,7.47,0.69,10.11,3.18l9.83-14.32
					C363.11,325.82,364.05,320.2,363.82,314.56z"/>
			</g>
			<g>
				<path class="st2" d="M525.07,350.52c-7.61-7.87-24.3,2.69-32.41,9.18c8.87-8.25,18.97-15.48,23.37-26.58
					c0.93-2.34,1.39-5.43-0.56-7.03c-1.33-1.09-3.28-1-4.92-0.49c-3.21,0.99-5.85,3.26-8.31,5.54c-5.57,5.16-10.86,10.89-15,17.24
					c1.49-13.37,13.09-26.68,7.41-27.46c-7.27-0.99-16.62,16.53-18.17,22.05c-1.26-6.04-3.14-9.97-4.43-11.87
					c-1.01-1.49-2.65-2.93-4.4-2.51c-1.92,0.47-2.64,2.83-2.7,4.81c-0.33,10.83,8.44,20.42,7.96,31.24l9.53,17.68
					c3.47-2.23,7.94-2.32,11.98-1.45c4.04,0.87,7.83,2.59,11.78,3.77c3.62,1.08,13.93,2.39,16.95,0.12
					c4.37-3.28,2.12-9.01-4.09-11.01c-5.08-1.63-11.88-3.41-28.97,1.38c6-7.98,19.16-7.72,27.59-11.44
					C523.28,361.24,528.33,353.88,525.07,350.52z"/>
			</g>
			<g>
				<path class="st0" d="M536.89,388.91h-262.2c0.16-0.6,1.13-1.62,3.74-3.28c5.58-3.6,23.2-0.37,23.2-0.37s-4.1-1.64-4.08-3.77
					c0.02-2.12,1.63-3.98,3.55-4.87c1.94-0.87,4.14-0.94,6.26-0.82c4.31,0.25,8.58,1.21,12.59,2.82c-1.7-1.06-2.22-3.62-1.07-5.23
					c1.16-1.63,3.76-1.97,5.3-0.7c-2.71-3.66-9.06-22.12,3.8-29.28c16.12-8.97,30.53,0.62,33.14,6.02c1.32-5.3,7.4-9.34,11.41-10.31
					c19.12-4.6,33.08,11.82,33.26,12.1c0.18-0.28,0.38-0.56,0.58-0.84c2-2.66,6.04-7.46,9.07-8.87c8.53-3.98,14.47-4.66,23.62-2.39
					c4.01,0.99,10.09,5.01,11.41,10.31c2.61-5.4,14.85-12.78,30.97-3.81c12.86,7.16,8.68,23.41,5.97,27.07
					c1.54-1.27,4.14-0.93,5.3,0.7c1.15,1.62,0.64,4.18-1.07,5.23c4.01-1.62,8.28-2.57,12.59-2.82c2.12-0.12,4.32-0.05,6.26,0.82
					c1.93,0.88,3.53,2.75,3.55,4.87c0.02,2.13-4.08,3.77-4.08,3.77s17.62-3.23,23.2,0.37C535.76,387.3,536.73,388.31,536.89,388.91z
					"/>
			</g>
			<path class="st0" d="M475.35,379.53c0,0,17.18-26.83,27.23-12.22c8.79,12.77-23.02,18.98-23.02,18.98"/>
			<path class="st0" d="M500.48,381.9"/>
		</g>
		<g>
			<g>
				<path class="st2" d="M352.82,196.48c0.03,6.93-5.56,12.58-12.49,12.61c-6.93,0.03-12.58-5.56-12.61-12.49
					c-0.03-6.93,5.56-12.58,12.49-12.61C347.14,183.96,352.78,189.55,352.82,196.48z"/>
				<polyline class="st2" points="331.37,203.66 328.81,212.16 335.71,206.88 				"/>
				<polyline class="st3" points="334.75,197.15 339.71,201.92 346.27,192.98 				"/>
			</g>
			<g>
				<path class="st0" d="M519.58,257.77c-0.04,2.96-2.46,5.32-5.42,5.29c-2.96-0.04-5.32-2.46-5.29-5.42
					c0.04-2.96,2.46-5.32,5.42-5.29C517.25,252.38,519.62,254.81,519.58,257.77z"/>
				<polyline class="st4" points="511.87,257.92 513.95,259.99 516.82,256.23 				"/>
			</g>
			<path class="st0" d="M234.19,218.59c0,1.09-0.88,1.97-1.97,1.97s-1.97-0.88-1.97-1.97c0-1.09,0.88-1.97,1.97-1.97
				S234.19,217.5,234.19,218.59z"/>
			<path class="st0" d="M230.36,265.04c0,0.67-0.54,1.2-1.2,1.2c-0.67,0-1.2-0.54-1.2-1.2c0-0.67,0.54-1.2,1.2-1.2
				C229.83,263.84,230.36,264.38,230.36,265.04z"/>
			<path class="st0" d="M258.9,288.65c0,0.66-0.54,1.2-1.2,1.2c-0.67,0-1.2-0.54-1.2-1.2c0-0.67,0.54-1.2,1.2-1.2
				C258.36,287.44,258.9,287.98,258.9,288.65z"/>
			<path class="st0" d="M540.07,206.53c0,1.09-0.88,1.97-1.97,1.97c-1.09,0-1.97-0.88-1.97-1.97c0-1.09,0.88-1.97,1.97-1.97
				C539.19,204.56,540.07,205.44,540.07,206.53z"/>
			<path class="st2" d="M344.39,246.71c0,1.09-0.88,1.97-1.97,1.97c-1.09,0-1.97-0.88-1.97-1.97s0.88-1.97,1.97-1.97
				C343.51,244.74,344.39,245.62,344.39,246.71z"/>
			<g>
				<g>
					<path class="st0" d="M243.82,156.15c-0.35,0-0.63-0.28-0.63-0.63v-4.43c0-0.35,0.28-0.63,0.63-0.63c0.35,0,0.63,0.28,0.63,0.63
						v4.43C244.45,155.86,244.17,156.15,243.82,156.15z"/>
				</g>
				<g>
					<path class="st0" d="M246.04,153.93h-4.43c-0.35,0-0.63-0.28-0.63-0.63c0-0.35,0.28-0.63,0.63-0.63h4.43
						c0.35,0,0.63,0.28,0.63,0.63C246.67,153.65,246.39,153.93,246.04,153.93z"/>
				</g>
			</g>
			<g>
				<g>
					<path class="st0" d="M518.96,185.73c-0.35,0-0.63-0.28-0.63-0.63v-4.43c0-0.35,0.28-0.63,0.63-0.63c0.35,0,0.63,0.28,0.63,0.63
						v4.43C519.59,185.45,519.3,185.73,518.96,185.73z"/>
				</g>
				<g>
					<path class="st0" d="M521.17,183.52h-4.43c-0.35,0-0.63-0.28-0.63-0.63c0-0.35,0.28-0.63,0.63-0.63h4.43
						c0.35,0,0.63,0.28,0.63,0.63C521.8,183.23,521.52,183.52,521.17,183.52z"/>
				</g>
			</g>
			<g>
				<g>
					<path class="st0" d="M262.49,236.17c-0.35,0-0.63-0.28-0.63-0.63v-4.43c0-0.35,0.28-0.63,0.63-0.63c0.35,0,0.63,0.28,0.63,0.63
						v4.43C263.12,235.89,262.83,236.17,262.49,236.17z"/>
				</g>
				<g>
					<path class="st0" d="M264.7,233.95h-4.43c-0.35,0-0.63-0.28-0.63-0.63c0-0.35,0.28-0.63,0.63-0.63h4.43
						c0.35,0,0.63,0.28,0.63,0.63C265.33,233.67,265.05,233.95,264.7,233.95z"/>
				</g>
			</g>
			<g>
				<g>
					<path class="st2" d="M526.1,115.21c-0.35,0-0.63-0.28-0.63-0.63v-4.43c0-0.35,0.28-0.63,0.63-0.63c0.35,0,0.63,0.28,0.63,0.63
						v4.43C526.73,114.93,526.44,115.21,526.1,115.21z"/>
				</g>
				<g>
					<path class="st2" d="M528.31,113h-4.43c-0.35,0-0.63-0.28-0.63-0.63c0-0.35,0.28-0.63,0.63-0.63h4.43
						c0.35,0,0.63,0.28,0.63,0.63C528.94,112.72,528.66,113,528.31,113z"/>
				</g>
			</g>
			<g>
				<g>
					<path class="st0" d="M351.43,136.97c-0.35,0-0.63-0.28-0.63-0.63v-4.43c0-0.35,0.28-0.63,0.63-0.63s0.63,0.28,0.63,0.63v4.43
						C352.06,136.69,351.78,136.97,351.43,136.97z"/>
				</g>
				<g>
					<path class="st0" d="M353.65,134.76h-4.43c-0.35,0-0.63-0.28-0.63-0.63c0-0.35,0.28-0.63,0.63-0.63h4.43
						c0.35,0,0.63,0.28,0.63,0.63C354.27,134.48,353.99,134.76,353.65,134.76z"/>
				</g>
			</g>
			<path class="st5" d="M509.51,288.46c-0.03-0.14-0.06-0.3-0.1-0.44c-0.12-0.6-0.29-1.18-0.48-1.74c-0.44-1.29-1.05-2.5-1.8-3.61
				l1.76-1.75l-4.22-4.22l-0.08,0.08l-1.67,1.68c-1.72-1.17-3.68-1.99-5.8-2.4v-2.49h-5.96v2.49c-2.11,0.41-4.07,1.24-5.8,2.4
				l-1.75-1.76l-4.22,4.22l1.76,1.75c-1.17,1.72-1.99,3.68-2.4,5.8h-2.49v5.96h2.5c0.4,2.11,1.23,4.07,2.39,5.8l-1.76,1.75
				l4.22,4.22l1.75-1.76c1.72,1.17,3.68,1.99,5.8,2.39v2.5h5.96v-2.5c2.11-0.4,4.07-1.23,5.8-2.39l1.67,1.68l0.08,0.08l2.54-2.54
				l1.68-1.68l-1.68-1.67l-0.08-0.08c0.03-0.04,0.05-0.08,0.08-0.12c1.12-1.69,1.92-3.61,2.31-5.67h2.5v-5.96H509.51z
				 M494.14,301.39c-5.5,0-9.95-4.45-9.95-9.95c0-5.5,4.45-9.95,9.95-9.95c5.5,0,9.95,4.45,9.95,9.95
				C504.09,296.93,499.63,301.39,494.14,301.39z"/>
			<path class="st6" d="M248.98,381.09c-0.03-0.14-0.06-0.3-0.1-0.44c-0.12-0.6-0.29-1.18-0.48-1.74c-0.45-1.29-1.06-2.5-1.81-3.61
				l1.77-1.76l-4.22-4.21l-0.08,0.08l-1.68,1.68c-1.72-1.17-3.68-1.99-5.79-2.4v-2.49h-5.96v2.49c-2.11,0.41-4.07,1.23-5.8,2.4
				l-1.75-1.76l-4.22,4.21l1.77,1.76c-1.17,1.72-1.99,3.68-2.41,5.79h-2.48v5.96h2.49c0.12,0.64,0.28,1.26,0.48,1.87h6.21
				c-0.8-1.44-1.26-3.09-1.26-4.85c0-5.49,4.45-9.95,9.95-9.95s9.95,4.46,9.95,9.95c0,1.76-0.46,3.41-1.26,4.85h6.2
				c0.2-0.61,0.36-1.23,0.48-1.87h2.5v-5.96H248.98z"/>
			<g>
				<g>
					<path class="st2" d="M251.58,357.83c-10.19,0-18.47-8.29-18.47-18.47c0-10.19,8.29-18.47,18.47-18.47
						c10.19,0,18.47,8.29,18.47,18.47C270.05,349.54,261.77,357.83,251.58,357.83z M251.58,323.32c-8.84,0-16.03,7.19-16.03,16.03
						c0,8.84,7.19,16.03,16.03,16.03c8.84,0,16.03-7.19,16.03-16.03C267.61,330.52,260.42,323.32,251.58,323.32z"/>
				</g>
				<g>
					<path class="st2" d="M259.72,343.72c0-1.23-0.31-2.21-0.9-2.95c-0.62-0.76-1.39-1.33-2.29-1.72c-0.88-0.37-1.96-0.7-3.21-1
						v-5.96c0.92,0.11,1.83,0.35,2.73,0.69c0.85,0.33,1.76-0.06,2.1-0.88c0.17-0.41,0.16-0.88-0.01-1.28
						c-0.16-0.37-0.45-0.66-0.81-0.8c-1.15-0.46-2.51-0.75-4-0.89v-1.82c0-0.96-0.78-1.73-1.73-1.73c-0.96,0-1.73,0.78-1.73,1.73
						v1.89c-2.03,0.28-3.61,0.95-4.71,2.02c-1.14,1.12-1.69,2.43-1.69,4c0,1.24,0.3,2.24,0.89,2.98c0.62,0.76,1.4,1.34,2.32,1.73
						c0.88,0.38,1.96,0.72,3.19,1.03v5.88c-1.04-0.12-2.06-0.36-3.04-0.72c-0.35-0.13-0.69-0.27-1.01-0.42
						c-0.2-0.09-0.4-0.14-0.61-0.14c-0.18,0-0.36,0.03-0.53,0.1c-0.41,0.15-0.76,0.47-0.93,0.87c-0.37,0.8,0,1.76,0.8,2.14
						c0.45,0.2,0.94,0.4,1.47,0.57c1.22,0.4,2.52,0.64,3.85,0.74v1.81c0,0.96,0.78,1.73,1.73,1.73c0.96,0,1.73-0.78,1.73-1.73v-1.92
						c2.04-0.29,3.63-0.96,4.72-2.03C259.17,346.55,259.72,345.27,259.72,343.72z M248.19,336.33c-0.47-0.4-0.72-0.92-0.72-1.54
						s0.22-1.18,0.65-1.64c0.39-0.42,0.98-0.73,1.72-0.93v4.95C249.14,336.94,248.59,336.67,248.19,336.33z M255.03,345.66
						c-0.39,0.39-0.98,0.68-1.71,0.86v-4.87c0.72,0.25,1.27,0.55,1.67,0.89c0.46,0.4,0.7,0.92,0.7,1.54
						C255.69,344.69,255.47,345.22,255.03,345.66z"/>
				</g>
			</g>
			<g>
				<g>
					<path class="st0" d="M551.66,273.58c-6.26,0-11.36-5.1-11.36-11.36c0-6.26,5.1-11.36,11.36-11.36c6.26,0,11.36,5.1,11.36,11.36
						C563.02,268.49,557.93,273.58,551.66,273.58z M551.66,252.36c-5.44,0-9.86,4.42-9.86,9.86s4.42,9.86,9.86,9.86
						c5.44,0,9.86-4.42,9.86-9.86S557.1,252.36,551.66,252.36z"/>
				</g>
				<g>
					<path class="st0" d="M556.67,264.91c0-0.76-0.19-1.36-0.55-1.82c-0.38-0.46-0.85-0.82-1.41-1.05
						c-0.54-0.23-1.21-0.43-1.97-0.62v-3.67c0.56,0.07,1.13,0.21,1.68,0.43c0.52,0.2,1.08-0.04,1.29-0.54
						c0.1-0.25,0.1-0.54-0.01-0.79c-0.1-0.23-0.28-0.4-0.5-0.5c-0.71-0.28-1.54-0.46-2.46-0.55v-1.12c0-0.59-0.48-1.07-1.07-1.07
						c-0.59,0-1.07,0.48-1.07,1.07v1.16c-1.25,0.17-2.22,0.59-2.89,1.24c-0.7,0.69-1.04,1.49-1.04,2.46c0,0.76,0.19,1.38,0.55,1.83
						c0.38,0.46,0.86,0.82,1.42,1.06c0.54,0.23,1.2,0.44,1.96,0.63v3.62c-0.64-0.07-1.27-0.22-1.87-0.44
						c-0.21-0.08-0.42-0.17-0.62-0.26c-0.12-0.05-0.24-0.08-0.38-0.08c-0.11,0-0.22,0.02-0.32,0.06c-0.26,0.1-0.47,0.29-0.58,0.54
						c-0.23,0.49,0,1.08,0.49,1.31c0.28,0.13,0.58,0.25,0.9,0.35c0.75,0.25,1.55,0.39,2.37,0.45v1.12c0,0.59,0.48,1.07,1.07,1.07
						c0.59,0,1.07-0.48,1.07-1.07v-1.18c1.25-0.18,2.23-0.59,2.9-1.25C556.33,266.65,556.67,265.86,556.67,264.91z M549.58,260.36
						c-0.29-0.24-0.44-0.56-0.44-0.95c0-0.39,0.14-0.73,0.4-1.01c0.24-0.26,0.6-0.45,1.06-0.57v3.05
						C550.16,260.74,549.82,260.57,549.58,260.36z M553.78,266.1c-0.24,0.24-0.6,0.42-1.05,0.53v-3c0.44,0.16,0.78,0.34,1.03,0.55
						c0.28,0.24,0.43,0.57,0.43,0.95C554.19,265.5,554.05,265.83,553.78,266.1z"/>
				</g>
			</g>
			<g>
				<path class="st2" d="M301.06,130.67h-0.07v-2.75c0-3.13-2.55-5.68-5.68-5.68c-3.13,0-5.68,2.55-5.68,5.68v2.75h-0.09
					c-0.54,0-0.98,0.44-0.98,0.98v7.7c0,0.54,0.44,0.98,0.98,0.98h11.51c0.54,0,0.98-0.44,0.98-0.98v-7.7
					C302.04,131.11,301.6,130.67,301.06,130.67z M291.4,127.92c0-2.16,1.76-3.92,3.92-3.92c2.16,0,3.92,1.76,3.92,3.92v2.75h-7.84
					V127.92z M296.13,135.43l0.48,2.34c0.04,0.19-0.11,0.37-0.3,0.37h-1.97c-0.2,0-0.34-0.18-0.3-0.37l0.47-2.32
					c0.04-0.21-0.03-0.43-0.18-0.58c-0.3-0.31-0.46-0.75-0.37-1.23c0.11-0.54,0.55-0.99,1.1-1.09c0.87-0.15,1.63,0.51,1.63,1.36
					c0,0.36-0.14,0.69-0.37,0.94C296.16,135.01,296.09,135.22,296.13,135.43z"/>
				<path class="st7" d="M309.26,144.08h-27.9c-0.39,0-0.71-0.32-0.71-0.71v-24.16c0-0.39,0.32-0.71,0.71-0.71h27.9
					c0.39,0,0.71,0.32,0.71,0.71v24.16C309.97,143.76,309.65,144.08,309.26,144.08z"/>
			</g>
		</g>
		<g>
			<g>
				<path class="st8" d="M490.97,120.02l1.92,8.09h-83.97c-10.99,0-21.47,8.91-23.4,19.9l-36.25,205.6
					c-0.09,0.53-0.16,1.05-0.21,1.57l-2.31-1.79l-4.22-1.07c0,0,2.72,21.38,23.13,21.19h86.84c10.99,0,21.47-8.91,23.4-19.9
					L512.15,148c0.13-0.76,0.22-1.51,0.27-2.25l0,0C516.6,121.3,490.97,120.02,490.97,120.02z"/>
				<path class="st9" d="M445.74,365.31H358.9c-10.99,0-18.33-8.91-16.39-19.9l36.25-205.6c1.94-10.99,12.42-19.9,23.4-19.9h86.84
					c10.99,0,18.33,8.91,16.39,19.9l-36.25,205.6C467.2,356.4,456.73,365.31,445.74,365.31z"/>
				<path class="st10" d="M501.43,140.21L465.36,344.8c-1.63,9.26-10.46,16.76-19.72,16.76h-85.32c-9.26,0-15.44-7.51-13.81-16.76
					l36.07-204.59c1.67-9.5,10.73-17.2,20.23-17.2h6.83c1.89,0,3.38,1.18,3.71,2.96l1.28,6.79c0.31,1.61,1.65,2.69,3.37,2.69h49.68
					c1.72,0,3.44-1.07,4.32-2.69l3.67-6.78c0.96-1.78,2.86-2.96,4.76-2.96h6.83C496.76,123.02,503.11,130.71,501.43,140.21z"/>
				<g>
					<path class="st10" d="M455.95,130.56h-27.91c-1.06,0-1.76-0.86-1.58-1.92l0,0c0.19-1.06,1.2-1.92,2.25-1.92h27.91
						c1.06,0,1.76,0.86,1.58,1.92l0,0C458.02,129.7,457.01,130.56,455.95,130.56z"/>
					<path class="st10" d="M465.04,128.64c-0.19,1.06-1.2,1.92-2.25,1.92c-1.06,0-1.76-0.86-1.58-1.92c0.19-1.06,1.2-1.92,2.25-1.92
						C464.52,126.73,465.23,127.59,465.04,128.64z"/>
				</g>
				<g>
					<path class="st11" d="M505.65,168.01l0.05-0.28h-1.07c-1.26,0-2.46,1.02-2.68,2.28l-5.06,28.7c-0.22,1.26,0.62,2.28,1.88,2.28
						h1.07l0.05-0.28c0.78-0.38,1.41-1.13,1.56-2l5.06-28.7C506.66,169.15,506.3,168.4,505.65,168.01z"/>
					<path class="st9" d="M499.84,200.99L499.84,200.99c-1.26,0-2.1-1.02-1.88-2.28l5.06-28.7c0.22-1.26,1.42-2.28,2.68-2.28l0,0
						c1.26,0,2.1,1.02,1.88,2.28l-5.06,28.7C502.3,199.97,501.1,200.99,499.84,200.99z"/>
				</g>
			</g>
			<g>
				<path class="st1" d="M462.75,285.64h-93.47c-2.84,0-4.74-2.3-4.24-5.15l16.6-94.12c0.5-2.84,3.21-5.15,6.05-5.15h93.47
					c2.84,0,4.74,2.3,4.24,5.15l-16.6,94.12C468.3,283.33,465.59,285.64,462.75,285.64z"/>
				<path class="st1" d="M434.75,314.19l-1.85,10.47c-0.21,1.2-1.26,2.08-2.48,2.08H386.9c-1.57,0-2.75-1.41-2.48-2.96l1.71-9.72
					c0.21-1.2,1.26-2.08,2.48-2.08h44.29C434.07,311.99,434.95,313.04,434.75,314.19z"/>
				<path class="st1" d="M456.58,298.43L456.58,298.43c-0.17,0.98-1.02,1.69-2.01,1.69h-81.4c-1.27,0-2.24-1.15-2.01-2.4l0,0
					c0.17-0.98,1.02-1.69,2.01-1.69h81.4C455.84,296.03,456.8,297.18,456.58,298.43z"/>
				<path class="st12" d="M420.22,298.27L420.22,298.27c-0.1,0.55-0.57,0.95-1.13,0.95h-45.68c-0.71,0-1.26-0.65-1.13-1.35l0,0
					c0.1-0.55,0.57-0.95,1.13-0.95h45.68C419.8,296.92,420.34,297.57,420.22,298.27z"/>
				<g>
					<path class="st13" d="M467.37,186.7h7.91c2.54,0,4.25,2.06,3.8,4.61l-1.28,7.24"/>
					<path class="st13" d="M372.93,266.69l-1.56,8.86c-0.45,2.53,1.25,4.6,3.79,4.6h7.59"/>
					<path class="st13" d="M384.95,198.56l1.27-7.24c0.45-2.54,2.88-4.61,5.42-4.61h7.58"/>
					<path class="st13" d="M450.9,280.15h7.91c2.53,0,4.97-2.06,5.41-4.6l1.56-8.86"/>
				</g>
				<g>
					<path d="M456.56,247.84c0.01,0,0.01,0,0.02,0c0-0.01,0-0.01,0-0.02c-0.01,0-0.01,0-0.02,0
						C456.57,247.83,456.56,247.84,456.56,247.84z"/>
					<path d="M412.28,219.72c0.01,0,0.01,0,0.02,0c0-0.01,0-0.01,0-0.02c-0.01,0-0.01,0-0.02,0
						C412.28,219.71,412.28,219.71,412.28,219.72z"/>
					<path d="M419.9,229.16c0-0.01,0-0.01,0-0.02l0,0c-0.01,0-0.01,0-0.02,0c0,0.01,0,0.01,0,0.01
						C419.89,229.16,419.9,229.16,419.9,229.16z"/>
					<path d="M400.59,219.72c0-0.01,0-0.01,0-0.02c-0.01,0-0.01,0-0.02,0c0,0.01,0,0.01,0,0.02
						C400.58,219.72,400.58,219.72,400.59,219.72z"/>
					<path d="M427.46,226.7c0,0,0,0.01,0,0.01c0.01,0,0.01,0,0.02,0c0-0.01,0-0.01,0-0.01C427.47,226.7,427.47,226.7,427.46,226.7z"
						/>
					<path d="M431.99,201c0.01,0,0.01,0,0.02,0c0-0.01,0-0.01,0-0.02c-0.01,0-0.01,0-0.02,0C432,200.99,431.99,201,431.99,201z"/>
					<path d="M414.77,205.71c0-0.01,0-0.01,0-0.02c-0.01,0-0.01,0-0.02,0c0,0.01,0,0.01,0,0.02
						C414.76,205.71,414.76,205.71,414.77,205.71z"/>
					<path d="M413.96,210.29c-0.01,0-0.01,0-0.02,0c0,0.01,0,0.01,0,0.02c0.01,0,0.01,0,0.02,0
						C413.96,210.3,413.96,210.3,413.96,210.29z"/>
					<path d="M396.1,231.43c0.01,0,0.01,0,0.02,0c0-0.01,0-0.01,0-0.02c-0.01,0-0.01,0-0.02,0
						C396.1,231.42,396.1,231.42,396.1,231.43z"/>
					<path d="M391.31,245.53c0,0.01,0,0.01,0,0.02l0.02-0.02C391.32,245.53,391.32,245.53,391.31,245.53z"/>
					<path d="M391.8,229.13c0.01,0,0.01,0,0.02,0c0-0.01,0-0.01,0-0.02c-0.01,0-0.01,0-0.02,0
						C391.8,229.12,391.8,229.12,391.8,229.13z"/>
					<path d="M393.34,193.93c-0.97,5.48-1.92,10.91-2.88,16.34h16.33c0.97-5.47,1.93-10.91,2.89-16.34H393.34z M404.92,207.95
						h-11.64c0.67-3.85,1.35-7.72,2.05-11.64h11.64C406.29,200.2,405.61,204.05,404.92,207.95z"/>
					<path d="M382.57,254.98c-0.97,5.46-1.92,10.88-2.89,16.34h16.35c0.97-5.48,1.92-10.91,2.88-16.34H382.57z M394.17,268.92
						h-11.64c0.68-3.86,1.36-7.73,2.06-11.64h11.64C395.55,261.17,394.87,265.03,394.17,268.92z"/>
					<path d="M454.42,193.91c-0.97,5.48-1.93,10.91-2.89,16.34h16.34c0.97-5.47,1.92-10.9,2.89-16.34H454.42z M465.87,207.97h-11.64
						c0.68-3.86,1.36-7.74,2.06-11.65h11.64C467.24,200.23,466.55,204.09,465.87,207.97z"/>
					<path d="M448.83,198.6c0.01,0,0.01,0,0.02,0c0-0.01,0-0.01,0-0.01c-0.01,0-0.01,0-0.02,0
						C448.84,198.59,448.83,198.59,448.83,198.6z"/>
					<path d="M440.49,205.69c-0.01,0-0.01,0-0.02,0c0,0.01,0,0.01,0,0.02c0.01,0,0.01,0,0.02,0
						C440.49,205.7,440.49,205.7,440.49,205.69z"/>
					<path d="M448.01,203.28c0.28-1.6,0.56-3.14,0.83-4.68h-2.4c-0.14,0.77-0.27,1.55-0.41,2.36h-2.32c0.14-0.8,0.27-1.58,0.42-2.36
						h-2.42c-0.15,0.83-0.28,1.6-0.43,2.41h-2.24c-0.14,0.77-0.27,1.51-0.41,2.31h2.27c-0.15,0.83-0.28,1.6-0.42,2.38
						c0.78,0,1.58-0.01,2.36-0.02c-0.27,1.52-0.55,3.03-0.82,4.64h-2.35c-0.15,0.8-0.28,1.6-0.42,2.4h2.4
						c-0.14,0.8-0.27,1.55-0.4,2.3h2.3c-0.15,0.83-0.28,1.61-0.42,2.41h2.38c-0.14,0.76-0.26,1.5-0.41,2.3h2.31
						c0.97-5.46,1.93-10.91,2.9-16.42H448.01z M442.86,205.67c0.14-0.76,0.26-1.52,0.41-2.33h2.34c-0.14,0.77-0.28,1.56-0.42,2.34
						C444.42,205.68,443.63,205.67,442.86,205.67z M446.33,212.68h-2.35c0.41-2.32,0.82-4.65,1.24-6.98h2.34
						C447.14,208.04,446.73,210.35,446.33,212.68z"/>
					<path d="M441.25,215c0,0-0.01,0-0.01,0c0,0,0,0.01,0,0.01c0,0,0.01,0,0.01,0C441.25,215.01,441.25,215,441.25,215z"/>
					<path d="M411.04,266.63c-0.01,0-0.01,0-0.02,0c0,0.01,0,0.01,0,0.02L411.04,266.63z"/>
					<path d="M449.83,219.7c-0.01,0-0.01,0-0.02,0c0,0,0,0.01,0,0.01c0.01,0,0.01,0,0.02,0
						C449.83,219.71,449.83,219.71,449.83,219.7z"/>
					<path d="M454.75,231.43c0.01,0,0.01,0,0.02,0c0,0,0-0.01,0-0.01c-0.01,0-0.01,0-0.02,0
						C454.76,231.42,454.76,231.42,454.75,231.43z"/>
					<path d="M396.03,245.54c0-0.01,0-0.01,0-0.02c-0.01,0-0.01,0-0.02,0c0,0.01,0,0.01,0,0.02
						C396.02,245.54,396.03,245.54,396.03,245.54z"/>
					<path d="M391.31,245.54c0.01,0,0.01,0,0.01,0c0-0.01,0-0.01,0-0.02L391.31,245.54z"/>
					<path d="M393.61,245.54c0,0,0.01,0,0.01,0c0,0,0-0.01,0-0.01c0,0-0.01,0-0.01,0C393.61,245.53,393.61,245.54,393.61,245.54z"/>
					<path d="M431.71,268.98c0-0.01,0-0.01,0-0.02l0,0c-0.01,0-0.01,0-0.02,0c0,0.01,0,0.01,0,0.02
						C431.7,268.98,431.7,268.98,431.71,268.98z"/>
					<path d="M433.79,257.25c0.01,0,0.01,0,0.02,0c0-0.01,0-0.01,0-0.02c-0.01,0-0.01,0-0.02,0
						C433.79,257.24,433.79,257.25,433.79,257.25z"/>
					<path d="M432.56,264.22c0.41-2.36,0.82-4.66,1.23-6.97h-2.4c-0.27,1.56-0.55,3.1-0.83,4.72h-2.32c-0.14,0.8-0.27,1.53-0.4,2.27
						h-2.31c-0.28,1.61-0.56,3.15-0.83,4.7h-4.66c-0.14,0.8-0.28,1.58-0.42,2.38h9.29c0.15-0.8,0.27-1.55,0.42-2.35h2.36
						c0.13-0.76,0.26-1.53,0.41-2.34h2.3c0.14-0.81,0.27-1.58,0.42-2.41H432.56z M429.7,266.61h-2.26c0.15-0.78,0.28-1.57,0.42-2.36
						h2.25C429.97,265.05,429.84,265.81,429.7,266.61z"/>
					<path d="M410.3,217.4c0,0-0.01,0-0.01,0c0,0.01,0,0.01,0,0.02c0,0,0.01,0,0.01,0C410.29,217.41,410.29,217.41,410.3,217.4z"/>
					<path d="M398.17,219.7c0.83,0,1.62,0,2.41,0c0.27-1.55,0.55-3.11,0.83-4.71c1.57,0,3.06,0,4.57,0c0.14-0.78,0.27-1.52,0.4-2.25
						c-3.91,0-7.78,0-11.64,0c-0.28,1.57-0.55,3.09-0.82,4.68c0.8,0,1.57,0,2.33,0c-0.14,0.8-0.27,1.53-0.4,2.26
						c-1.57,0-3.09,0-4.62,0c-0.15,0.81-0.31,1.62-0.46,2.42c2.33,0,4.66,0,6.99,0C397.88,221.33,398.02,220.56,398.17,219.7z"/>
					<path d="M397.76,222.11c-0.01,0-0.01,0-0.02,0c0,0.01,0,0.01,0,0.02c0,0,0.01,0,0.01,0
						C397.76,222.12,397.76,222.11,397.76,222.11L397.76,222.11z"/>
					<path d="M424.88,200.99c0,0.01,0,0.01,0,0.02c0.01,0,0.01,0,0.02,0c0-0.01,0-0.01,0-0.02
						C424.89,200.99,424.89,200.99,424.88,200.99z"/>
					<path d="M416.02,198.58c-0.01,0-0.01,0-0.02,0c0,0.01,0,0.01,0,0.02c0.01,0,0.01,0,0.01,0
						C416.02,198.59,416.02,198.59,416.02,198.58z"/>
					<path d="M439.25,212.71L439.25,212.71c0,0,0-0.01,0-0.01c-0.01,0-0.01,0-0.02,0c0,0.01,0,0.01,0,0.02
						C439.24,212.71,439.24,212.71,439.25,212.71C439.25,212.71,439.25,212.71,439.25,212.71z"/>
					<path d="M443.11,217.42c0.01,0,0.01,0,0.02,0c0-0.01,0-0.01,0-0.02c-0.01,0-0.01,0-0.02,0
						C443.11,217.41,443.11,217.41,443.11,217.42z"/>
					<path d="M431.84,215.01c0-0.01,0-0.01,0-0.02c0,0-0.01,0-0.01,0c0,0.01,0,0.01,0,0.02
						C431.83,215.01,431.83,215.01,431.84,215.01z"/>
					<path d="M433.4,219.67c0.13-0.74,0.26-1.46,0.39-2.22c1.54,0,3.04,0,4.59,0c-0.27,1.53-0.54,3.05-0.82,4.64
						c0.81,0,1.59,0,2.4,0c-0.14,0.79-0.27,1.51-0.4,2.28c0.78,0,1.51,0,2.32,0c0.41-2.31,0.82-4.63,1.23-6.95c-0.74,0-1.48,0-2.3,0
						c0.15-0.83,0.29-1.62,0.42-2.41c-0.78,0-1.55,0-2.41,0c0.14-0.79,0.27-1.55,0.41-2.3c-0.75,0-1.5,0-2.31,0
						c-0.14,0.79-0.27,1.53-0.41,2.3c-1.6,0-3.14,0-4.68,0c-0.27,1.54-0.54,3.08-0.82,4.66
						C431.81,219.67,432.58,219.67,433.4,219.67z"/>
					<path d="M461.92,217.43c0.28-1.63,0.56-3.16,0.83-4.68h-11.68c-0.42,2.34-0.83,4.65-1.23,6.96h2.26
						c0.13-0.75,0.26-1.48,0.4-2.31h2.3c-0.27,1.57-0.53,3.15-0.81,4.72h-2.3c-0.15,0.82-0.27,1.56-0.4,2.3h-2.31
						c0.28-1.58,0.56-3.14,0.83-4.69h-2.39c-0.41,2.31-0.82,4.61-1.24,6.98h-2.26c-0.15,0.83-0.28,1.6-0.43,2.42h2.24
						c-0.27,1.57-0.55,3.1-0.83,4.71h2.42c0.14-0.77,0.27-1.55,0.43-2.41h2.3c0.1-0.59,0.22-1.17,0.32-1.76
						c0.05-0.2,0.08-0.41,0.11-0.63c0.27-1.53,0.55-3.07,0.82-4.6h2.3c0.15-0.82,0.27-1.56,0.4-2.3h2.39
						c-0.27,1.52-0.53,3.02-0.81,4.58h2.31c0.27-1.51,0.53-3.02,0.82-4.6h4.7c0.28-1.59,0.56-3.13,0.83-4.67H461.92z M454.82,217.38
						c0.14-0.77,0.27-1.55,0.41-2.35h2.43c-0.14,0.78-0.28,1.57-0.42,2.36C456.43,217.38,455.62,217.38,454.82,217.38z
						 M459.1,219.68h-2.25c0.14-0.77,0.27-1.52,0.4-2.27h2.25C459.36,218.18,459.24,218.91,459.1,219.68z"/>
					<path d="M447.42,219.71c0,0,0-0.01,0-0.01v0c-0.01,0-0.01,0-0.02,0c0,0,0,0.01,0,0.01
						C447.41,219.71,447.42,219.71,447.42,219.71z"/>
					<path d="M450.05,231.41c0,0.01,0,0.01,0,0.02c0.01,0,0.01,0,0.02,0c0-0.01,0-0.01,0-0.02
						C450.06,231.41,450.06,231.41,450.05,231.41z"/>
					<path d="M447.33,233.82c0,0.01,0,0.01,0,0.02c0.01,0,0.01,0,0.02,0c0-0.01,0-0.01,0-0.02
						C447.34,233.82,447.33,233.82,447.33,233.82z"/>
					<path d="M432.01,200.99c1.55,0,3.11,0,4.66,0c0.15-0.84,0.28-1.61,0.43-2.42c-0.8,0-1.56,0-2.33,0
						c0.14-0.77,0.27-1.51,0.41-2.31c1.58,0,3.11,0,4.63,0c0.15-0.82,0.28-1.58,0.41-2.34c-3.14,0-6.24,0-9.37,0
						c-0.14,0.81-0.28,1.59-0.42,2.36c0.78,0,1.55,0,2.41,0C432.56,197.88,432.29,199.43,432.01,200.99z"/>
					<path d="M430.44,196.28c-0.01,0-0.01,0-0.02,0c0,0.01,0,0.01,0,0.02c0.01,0,0.01,0,0.02,0
						C430.43,196.29,430.43,196.29,430.44,196.28z"/>
					<path d="M455.18,229.1c-0.14,0.81-0.27,1.56-0.41,2.31c1.55,0,3.11,0,4.72,0c0.14-0.8,0.27-1.53,0.41-2.32c0.79,0,1.53,0,2.3,0
						c0.14-0.82,0.28-1.58,0.42-2.39c0.81,0,1.59,0,2.34,0c0.14-0.79,0.27-1.53,0.4-2.25c-1.57,0-3.09,0-4.67,0
						c-0.13,0.77-0.26,1.5-0.4,2.27c-0.84,0-1.61,0-2.39,0c-0.14,0.77-0.27,1.55-0.42,2.38C456.71,229.1,455.98,229.1,455.18,229.1z
						"/>
					<path d="M457.9,226.72c0-0.01,0-0.01,0-0.01c-0.01,0-0.01,0-0.02,0c0,0,0,0.01,0,0.01
						C457.89,226.72,457.89,226.72,457.9,226.72z"/>
					<path d="M425.22,252.55c-0.27,1.54-0.54,3.08-0.83,4.69c0.81,0,1.6,0,2.39,0c0.13-0.74,0.26-1.48,0.4-2.25
						c0.77,0,1.51,0,2.31,0c-0.13,0.75-0.26,1.5-0.4,2.25c0.76,0,1.52,0,2.28,0c0.27-1.54,0.54-3.08,0.83-4.69
						C429.86,252.55,427.54,252.55,425.22,252.55z"/>
					<path d="M431.38,257.24c0,0.01,0,0.01,0,0.02c0.01,0,0.01,0,0.02,0c0-0.01,0-0.01,0-0.02
						C431.39,257.24,431.39,257.24,431.38,257.24z"/>
					<path d="M425.22,252.55c0-0.01,0-0.01,0-0.02c-0.01,0-0.01,0-0.02,0c0,0,0,0.01,0,0.02
						C425.21,252.55,425.22,252.55,425.22,252.55z"/>
					<path d="M444.15,198.58c0,0-0.01,0-0.01,0c0,0.01,0,0.01,0,0.02c0,0,0.01,0,0.01,0C444.14,198.59,444.15,198.59,444.15,198.58z
						"/>
					<path d="M446.83,196.28c0.83,0,1.62,0,2.41,0c0.14-0.79,0.28-1.58,0.42-2.36c-2.4,0-4.74,0-7.08,0
						c-0.14,0.8-0.27,1.56-0.42,2.38c0.8,0,1.57,0,2.38,0c-0.14,0.8-0.27,1.54-0.4,2.28c0.76,0,1.52,0,2.28,0
						C446.56,197.84,446.69,197.1,446.83,196.28z"/>
					<path d="M446.43,198.58c0,0,0,0.01,0,0.02c0.01,0,0.01,0,0.02,0c0-0.01,0-0.01,0-0.02
						C446.44,198.58,446.43,198.58,446.43,198.58z"/>
					<ellipse transform="matrix(0.7375 -0.6753 0.6753 0.7375 -50.1525 324.3873)" cx="392.23" cy="226.71" rx="0.01" ry="0.01"/>
					<path d="M390.75,222.12L390.75,222.12c0,0,0-0.01,0.01-0.01c-0.01,0-0.01,0-0.02,0c0,0.01,0,0.01,0,0.02
						C390.74,222.13,390.75,222.13,390.75,222.12C390.75,222.13,390.75,222.12,390.75,222.12z"/>
					<path d="M389.5,229.11c0,0,0,0.01,0,0.01c0.01,0,0.01,0,0.02,0c0,0,0-0.01,0-0.01C389.51,229.11,389.51,229.11,389.5,229.11z"
						/>
					<path d="M392.23,226.7c0.13-0.74,0.26-1.48,0.4-2.27c-0.75,0-1.49,0-2.3,0c0.14-0.81,0.27-1.56,0.41-2.31
						c-0.79,0-1.57,0-2.36,0c-0.42,2.36-0.82,4.66-1.23,6.99c0.81,0,1.59,0,2.36,0c0.14-0.78,0.27-1.55,0.42-2.41
						C390.72,226.7,391.47,226.7,392.23,226.7z"/>
					<path d="M391.2,219.67c0,0.01,0,0.01,0,0.02l0,0c0.01,0,0.01,0,0.02,0c0,0,0-0.01,0-0.01
						C391.21,219.67,391.21,219.67,391.2,219.67z"/>
					<path d="M390.03,212.74c-0.41,2.33-0.82,4.63-1.22,6.93c0.82,0,1.61,0,2.4,0c0.41-2.31,0.81-4.63,1.22-6.93
						C391.56,212.74,390.8,212.74,390.03,212.74z"/>
					<path d="M416.16,264.21c2.36,0,4.66,0,6.99,0c0.14-0.78,0.27-1.51,0.4-2.25c-2.33,0-4.66,0-6.99,0
						C416.43,262.71,416.29,263.46,416.16,264.21z"/>
					<path d="M416.55,261.94c0,0.01,0,0.01,0,0.02l0,0c0,0,0,0,0,0c0.01,0,0.01,0,0.02,0c0-0.01,0-0.01,0-0.02
						C416.56,261.94,416.55,261.94,416.55,261.94z"/>
					<path d="M423.55,261.96c0.01,0,0.01,0,0.02,0c0,0,0-0.01,0-0.01c-0.01,0-0.01,0-0.02,0
						C423.55,261.95,423.55,261.95,423.55,261.96z"/>
					<path d="M434.61,212.7c0.28-1.6,0.55-3.13,0.83-4.69c-0.81,0-1.59,0-2.36,0c-0.28,1.56-0.55,3.13-0.83,4.69
						C433.03,212.7,433.82,212.7,434.61,212.7z"/>
					<path d="M433.07,208.01c0,0,0-0.01,0-0.01c-0.01,0-0.01,0-0.02,0c0,0,0,0.01,0,0.01C433.06,208.01,433.07,208.01,433.07,208.01
						z"/>
					<path d="M439.66,210.29c0,0.01,0,0.01,0,0.02c0.01,0,0.01,0,0.02,0c0-0.01,0-0.01,0-0.02
						C439.67,210.29,439.67,210.29,439.66,210.29z"/>
					<path d="M438.22,205.71c-0.27,1.56-0.54,3.06-0.81,4.58c0.78,0,1.51,0,2.25,0c0.27-1.53,0.54-3.05,0.81-4.58
						C439.72,205.71,438.97,205.71,438.22,205.71z"/>
					<path d="M461.79,231.45c-0.14,0.8-0.28,1.57-0.41,2.34c0.81,0,1.58,0,2.35,0c0.14-0.8,0.27-1.55,0.41-2.34
						C463.32,231.45,462.57,231.45,461.79,231.45z"/>
					<path d="M458.53,249.94c-0.14,0.8-0.28,1.57-0.41,2.34c0.81,0,1.58,0,2.35,0c0.14-0.8,0.27-1.55,0.41-2.34
						C460.06,249.94,459.31,249.94,458.53,249.94z"/>
					<path d="M423.56,261.94c0.79,0,1.58,0,2.39,0c0.15-0.84,0.29-1.62,0.42-2.39c-0.77,0-1.55,0-2.39,0
						C423.84,260.37,423.7,261.15,423.56,261.94z"/>
					<path d="M426.38,259.55c0.01,0,0.01,0,0.02,0c0-0.01,0-0.01,0-0.02c-0.01,0-0.01,0-0.02,0
						C426.38,259.54,426.38,259.54,426.38,259.55z"/>
					<path d="M464.25,217.41c-0.01,0-0.01,0-0.02,0c0,0,0,0.01,0.01,0.01l-0.01-0.01c0,0.01,0,0.01,0,0.02c0.01,0,0.01,0,0.02,0
						C464.25,217.43,464.25,217.42,464.25,217.41z"/>
					<path d="M467.02,215.05c-0.81,0-1.58,0-2.35,0c-0.14,0.82-0.28,1.59-0.42,2.37c0.79,0,1.57,0,2.35,0
						C466.75,216.57,466.89,215.8,467.02,215.05z"/>
					<path d="M461.65,245.53c0.15-0.84,0.28-1.61,0.42-2.39c-0.81,0-1.59,0-2.36,0c-0.14,0.8-0.28,1.59-0.42,2.39
						C460.07,245.53,460.86,245.53,461.65,245.53z"/>
					<path d="M407.86,271.33c0.14-0.8,0.28-1.57,0.41-2.35c-0.82,0-1.61,0-2.39,0c-0.14,0.78-0.28,1.57-0.41,2.35
						C406.33,271.33,407.08,271.33,407.86,271.33z"/>
					<path d="M405.88,268.98c0-0.01,0-0.01,0-0.02l0,0c-0.01,0-0.01,0-0.02,0c0,0.01,0,0.01,0,0.02
						C405.87,268.98,405.87,268.98,405.88,268.98z"/>
					<path d="M412.86,269c0,0,0.01,0,0.01,0c0,0,0-0.01,0-0.01c0,0-0.01,0-0.01,0C412.86,268.99,412.86,268.99,412.86,269
						L412.86,269z"/>
					<path d="M414.86,271.33c0.14-0.8,0.28-1.57,0.41-2.33c-0.82,0-1.61,0-2.4,0c-0.14,0.77-0.27,1.54-0.41,2.33
						C413.31,271.33,414.08,271.33,414.86,271.33z"/>
					<path d="M420.03,268.93c0,0.01,0,0.01,0,0.02C420.03,268.95,420.04,268.94,420.03,268.93l0,0.02c0.01,0,0.01,0,0.02,0
						c0-0.01,0-0.01,0-0.02C420.05,268.93,420.04,268.93,420.03,268.93z"/>
					<path d="M418.04,266.7c-0.13,0.76-0.26,1.48-0.39,2.24c0.81,0,1.6,0,2.39,0c0.13-0.75,0.26-1.5,0.39-2.24
						C419.58,266.7,418.81,266.7,418.04,266.7z"/>
					<path d="M398.52,271.32c0.77,0,1.5,0,2.23,0c0.14-0.8,0.27-1.56,0.41-2.34c-0.75,0-1.47,0-2.23,0
						C398.79,269.79,398.66,270.56,398.52,271.32z"/>
					<path d="M459.27,245.54c0,0,0.01,0,0.01,0c0-0.01,0-0.01,0-0.02c0,0-0.01,0-0.01,0C459.27,245.53,459.27,245.54,459.27,245.54z
						"/>
					<path d="M456.58,247.82c0.75,0,1.5,0,2.28,0c0.14-0.8,0.27-1.54,0.4-2.28c-0.74,0-1.48,0-2.28,0
						C456.85,246.32,456.72,247.07,456.58,247.82z"/>
					<path d="M429.54,215c0.76,0,1.52,0,2.28,0c0.13-0.76,0.27-1.52,0.4-2.28c-0.74,0-1.48,0-2.28,0
						C429.81,213.49,429.68,214.24,429.54,215z"/>
					<path d="M429.54,215c-0.01,0-0.01,0-0.02,0c0,0.01,0,0.01,0,0.02c0.01,0,0.01,0,0.02,0C429.54,215.01,429.54,215,429.54,215z"
						/>
					<path d="M432.23,212.71c0.01,0,0.01,0,0.02,0c0-0.01,0-0.01,0-0.02c-0.01,0-0.01,0-0.02,0
						C432.23,212.7,432.23,212.71,432.23,212.71z"/>
					<path d="M459.7,243.12c0.13-0.75,0.27-1.5,0.4-2.28c-0.81,0-1.54,0-2.28,0c-0.13,0.74-0.26,1.47-0.4,2.28
						C458.2,243.12,458.95,243.12,459.7,243.12z"/>
					<path d="M459.71,243.13l-0.01,0.01c0.01,0,0.01,0,0.02,0C459.71,243.13,459.71,243.13,459.71,243.13
						C459.71,243.12,459.7,243.12,459.71,243.13c-0.01,0-0.01,0.01-0.01,0.01C459.69,243.14,459.7,243.13,459.71,243.13z"/>
					<path d="M457.82,240.84c0,0,0-0.01,0-0.01c-0.01,0-0.01,0-0.02,0c0,0,0,0.01,0,0.01C457.81,240.84,457.81,240.84,457.82,240.84
						z"/>
					<path d="M412.86,268.98c0.14-0.77,0.27-1.53,0.41-2.34c-0.77,0-1.5,0-2.24,0c-0.13,0.75-0.27,1.5-0.41,2.34
						C411.39,268.99,412.13,268.99,412.86,268.98z"/>
					<path d="M411.04,266.63c0,0-0.02,0.02-0.02,0.02c0.01,0,0.01,0,0.02,0C411.04,266.64,411.04,266.63,411.04,266.63z"/>
					<path d="M449.25,196.3c0-0.01,0-0.01,0-0.02c-0.01,0-0.01,0-0.02,0c0,0.01,0,0.01,0,0.02
						C449.24,196.3,449.25,196.3,449.25,196.3z"/>
					<path d="M451.1,198.58c0.14-0.79,0.27-1.53,0.4-2.28c-0.78,0-1.51,0-2.25,0c-0.13,0.76-0.27,1.52-0.4,2.28
						C449.6,198.58,450.35,198.58,451.1,198.58z"/>
					<path d="M426.8,257.25c0-0.01,0-0.01,0-0.02c0,0-0.01,0-0.02,0c0,0.01,0,0.01,0,0.02C426.79,257.25,426.79,257.25,426.8,257.25
						z"/>
					<path d="M426.4,259.53c0.75,0,1.49,0,2.28,0c0.14-0.79,0.27-1.53,0.4-2.28c-0.76,0-1.52,0-2.28,0
						C426.66,258.01,426.53,258.77,426.4,259.53z"/>
					<path d="M429.08,257.25c0,0,0.01,0,0.02,0c0-0.01,0-0.01,0-0.02c-0.01,0-0.01,0-0.02,0
						C429.08,257.24,429.08,257.25,429.08,257.25z"/>
					<path d="M432.94,222.14c-0.8,0-1.56,0-2.33,0c-0.13,0.76-0.26,1.49-0.4,2.25c0.79,0,1.54,0,2.33,0
						C432.68,223.61,432.81,222.88,432.94,222.14z"/>
					<path d="M414.43,193.93c-0.8,0-1.56,0-2.33,0c-0.13,0.76-0.26,1.49-0.4,2.25c0.79,0,1.54,0,2.33,0
						C414.17,195.39,414.3,194.66,414.43,193.93z"/>
					<path d="M419.31,259.51c0.82,0,1.58,0,2.35,0c0.27-1.53,0.53-3.03,0.8-4.53c-1.57,0-3.1,0-4.66,0
						c-0.14,0.78-0.27,1.52-0.4,2.26c0.75,0,1.5,0,2.31,0C419.57,258.05,419.44,258.79,419.31,259.51z"/>
					<path d="M417.4,257.25c-0.01,0-0.01,0-0.02,0c0,0,0,0,0.01,0.01l-0.01-0.01c0,0.01,0,0.01,0,0.02c0.01,0,0.01,0,0.02,0
						C417.39,257.26,417.39,257.25,417.4,257.25z"/>
					<path d="M421.48,233.81c0.13-0.76,0.69-3.92,0.82-4.65c-0.82,0-1.61,0-2.39,0c-0.13,0.75-0.69,3.92-0.82,4.65
						C419.95,233.81,420.71,233.81,421.48,233.81z"/>
					<path d="M404.27,198.61c-2.35,0-4.68,0-7.05,0c-0.42,2.38-0.83,4.71-1.24,7.04c2.38,0,4.71,0,7.05,0
						C403.45,203.29,403.86,200.97,404.27,198.61z"/>
					<path d="M385.24,266.62c2.37,0,4.69,0,7.04,0c0.41-2.35,0.82-4.68,1.24-7.04c-2.38,0-4.72,0-7.04,0
						C386.06,261.96,385.65,264.3,385.24,266.62z"/>
					<path d="M465.22,198.62c-2.36,0-4.7,0-7.04,0c-0.42,2.37-0.83,4.71-1.24,7.06c2.36,0,4.69,0,7.04,0
						C464.39,203.31,464.81,200.98,465.22,198.62z"/>
					<path d="M458.63,236.1c0.14-0.78,0.26-1.5,0.4-2.26h-4.66c0.13-0.81,0.25-1.61,0.39-2.41h-2.38c0.15-0.85,0.28-1.64,0.42-2.41
						h-2.32c-0.03,0.22-0.07,0.42-0.11,0.63c-0.1,0.61-0.2,1.19-0.31,1.76c0,0.01,0,0.01,0,0.02c-0.14,0.77-0.27,1.55-0.42,2.41
						h-2.31c-0.13,0.74-0.25,1.48-0.4,2.27h2.27c-0.28,1.58-0.55,3.1-0.83,4.69h2.31c-0.14,0.81-0.27,1.57-0.41,2.32h-6.98
						c0.26-1.52,0.53-3.03,0.8-4.56h-2.31c-0.27,1.55-0.55,3.05-0.81,4.56h-2.39c0.41-2.33,0.82-4.66,1.23-6.99h2.36
						c0.28-1.61,0.55-3.15,0.83-4.73h-4.66c0.27-1.53,0.55-3.08,0.83-4.71h-2.41c0.14-0.75,0.26-1.5,0.4-2.25h-2.32
						c-0.14,0.77-0.26,1.51-0.39,2.25c-2.33,0.01-4.67,0.01-7,0.02c-0.15,0.8-0.3,1.6-0.45,2.4h-2.38
						c-0.27,1.57-0.55,3.11-0.83,4.69h-2.28c-0.14,0.77-0.26,1.5-0.41,2.32c-2.38,0-4.7-0.02-7.02-0.02
						c-0.15,0.81-0.27,1.61-0.42,2.41h-2.4c0.14-0.77,0.27-1.55,0.42-2.41h2.4c0.41-2.3,0.81-4.6,1.23-6.97h4.57
						c0.14-0.8,0.27-1.58,0.42-2.44h7.15c0.14-0.74,0.26-1.47,0.41-2.27h-2.4c0.15-0.81,0.27-1.56,0.41-2.31h2.35
						c0.15-0.84,0.28-1.61,0.43-2.42h-2.36c0.14-0.74,0.26-1.48,0.41-2.27h2.39c0.15-0.84,0.28-1.63,0.43-2.42h-2.41
						c0.27-1.58,0.55-3.13,0.82-4.68h2.4c0.14-0.78,0.26-1.51,0.41-2.33h2.32c0.13-0.75,0.26-1.5,0.41-2.32h2.39
						c0.14-0.82,0.27-1.58,0.41-2.36h-4.64c0.13-0.77,0.24-1.53,0.36-2.31h-7.1c-0.13,0.74-0.25,1.48-0.4,2.27h2.38
						c-0.15,0.82-0.28,1.58-0.42,2.38h-4.66c0.14-0.75,0.27-1.52,0.42-2.38h-4.72c0.14-0.75,0.26-1.51,0.4-2.27
						c2.33-0.01,4.66-0.01,6.99-0.02c0.14-0.77,0.27-1.55,0.42-2.38h4.71c0.15-0.81,0.28-1.56,0.41-2.31h-4.7
						c0.15-0.85,0.28-1.6,0.42-2.38h-9.28c-0.28,1.57-0.55,3.11-0.82,4.66h2.27c-0.14,0.83-0.28,1.61-0.42,2.4h-2.28
						c0.14-0.8,0.27-1.59,0.41-2.39h-4.65c-0.84,4.74-1.66,9.41-2.5,14.14h2.26c-0.28,1.59-0.55,3.13-0.82,4.67h2.41
						c-0.15,0.8-0.27,1.55-0.41,2.3h2.3c0.42-2.35,0.83-4.67,1.24-6.99h2.4c0.16-0.85,0.3-1.64,0.43-2.41h2.27
						c0.15-0.77,0.27-1.51,0.41-2.27h2.26c-0.27,1.53-0.53,3.07-0.82,4.67h-2.23c-0.14,0.78-0.27,1.5-0.41,2.28h2.25
						c-0.15,0.82-0.28,1.58-0.42,2.4h2.42c-0.15,0.82-0.27,1.57-0.41,2.32h-2.36c-0.15,0.85-0.28,1.61-0.42,2.42h2.35
						c-0.13,0.74-0.26,1.48-0.4,2.26h-4.68c0.41-2.31,0.82-4.6,1.23-6.93h-2.31c-0.27,1.53-0.55,3.07-0.82,4.64h-4.72
						c0.14-0.8,0.27-1.58,0.41-2.38h-2.41c0.15-0.78,0.27-1.55,0.41-2.3h-6.98c-0.14,0.78-0.26,1.52-0.4,2.25
						c-0.77,0.02-1.55,0.03-2.32,0.06c-0.14,0.77-0.27,1.55-0.42,2.4h-2.41c-0.14,0.76-0.27,1.51-0.41,2.27h-2.27
						c-0.14,0.78-0.26,1.51-0.41,2.33h-2.42c-0.15,0.8-0.28,1.59-0.42,2.39h4.7c-0.15,0.8-0.27,1.55-0.41,2.3h4.66
						c-0.13,0.8-0.26,1.6-0.4,2.41h-2.3c-0.14,0.82-0.27,1.56-0.4,2.3h-2.41c0.27-1.58,0.55-3.14,0.83-4.68h-4.72
						c0.15-0.8,0.27-1.55,0.41-2.31h-2.28c-0.13,0.76-0.26,1.51-0.41,2.33h-2.38c-0.42,2.39-0.83,4.7-1.25,7.08h4.66
						c-0.14,0.76-0.27,1.51-0.41,2.32h-4.65c-0.69,3.93-1.38,7.8-2.06,11.66h2.38c0.41-2.34,0.82-4.64,1.23-6.99h4.68
						c0.14-0.77,0.27-1.55,0.42-2.35h2.32c-0.15,0.78-0.28,1.57-0.42,2.35h2.4c0.27-1.56,0.56-3.13,0.84-4.68h2.28
						c-0.14,0.75-0.27,1.5-0.41,2.31h2.3c-0.15,0.83-0.28,1.6-0.42,2.38c-1.52,0.01-3.06,0.01-4.58,0.02
						c-0.27,1.53-0.55,3.08-0.83,4.66h-2.42c0.27-1.56,0.55-3.11,0.83-4.66h-2.28c-0.28,1.56-0.56,3.1-0.84,4.72h-2.39
						c-0.14,0.78-0.26,1.5-0.4,2.28h14.1c-0.15,0.82-0.28,1.59-0.43,2.4h2.28v0.01h0.01c-0.14,0.75-0.26,1.51-0.41,2.32h-2.27
						c-0.56,3.15-1.1,6.24-1.66,9.4h4.68c-0.14,0.78-0.26,1.5-0.4,2.3h2.25c0.14-0.76,0.26-1.52,0.41-2.34h4.75
						c0.14-0.78,0.27-1.57,0.42-2.4h2.31c0.14-0.77,0.26-1.51,0.41-2.28h2.39c0.27-1.57,0.55-3.13,0.83-4.68h-2.4
						c-0.14,0.75-0.26,1.48-0.4,2.26h-2.3c-0.14,0.82-0.27,1.59-0.42,2.41h-2.3c-0.14,0.78-0.27,1.51-0.4,2.28h-4.74
						c0.13-0.74,0.26-1.49,0.39-2.24h2.26c0.28-1.58,0.56-3.11,0.84-4.72h-2.25c0.15-0.81,0.27-1.56,0.41-2.31h4.72
						c-0.15,0.78-0.27,1.52-0.4,2.25h2.28c0.28-1.58,0.56-3.13,0.83-4.66c3.9,0,7.8-0.01,11.69-0.01c0.13-0.74,0.26-1.48,0.4-2.28
						h-4.67c0.15-0.82,0.28-1.58,0.42-2.4h4.66c0.14-0.78,0.27-1.51,0.41-2.3h2.4c0.14-0.82,0.27-1.58,0.42-2.42h-4.65
						c0.14-0.74,0.26-1.48,0.41-2.28h4.65c0.14-0.78,0.26-1.5,0.4-2.3h-2.33c0.14-0.83,0.27-1.58,0.42-2.39h4.65
						c-0.14,0.75-0.27,1.52-0.41,2.34h2.26c-0.14,0.78-0.26,1.51-0.4,2.3h-2.22c-0.14,0.78-0.26,1.51-0.41,2.32h2.23
						c-0.14,0.82-0.27,1.58-0.42,2.4h-2.24c-0.14,0.78-0.26,1.51-0.41,2.3h2.25c-0.15,0.82-0.28,1.58-0.42,2.4h2.43
						c-0.42,2.38-0.83,4.71-1.24,7.02h2.32c-0.14,0.82-0.27,1.55-0.41,2.33h2.4c-0.28,1.57-0.56,3.11-0.83,4.67h4.68
						c0.14-0.74,0.26-1.48,0.4-2.25h4.61c-0.14,0.75-0.26,1.5-0.4,2.25h2.43c0.14-0.81,0.27-1.53,0.41-2.32h2.28
						c0.15-0.81,0.28-1.58,0.42-2.4h2.4c0.14-0.77,0.27-1.51,0.41-2.31h2.26c0.14-0.78,0.26-1.5,0.4-2.28h-2.27
						c0.42-2.41,0.84-4.75,1.25-7.09h-2.39c0.14-0.77,0.27-1.5,0.41-2.32h-4.72c0.15-0.8,0.28-1.59,0.42-2.39h4.68
						c0.14-0.76,0.26-1.5,0.41-2.32h2.42c0.14-0.75,0.26-1.5,0.41-2.31h2.27c0.15-0.83,0.27-1.58,0.42-2.41H458.63z M421.15,196.32
						h2.24c-0.13,0.75-0.26,1.47-0.39,2.23h-2.25C420.89,197.81,421.02,197.09,421.15,196.32z M413.22,201.01h2.36l-0.41,2.28h-2.36
						C412.95,202.53,413.08,201.8,413.22,201.01z M415.81,212.7h-2.3c0.15-0.82,0.28-1.6,0.42-2.4h-2.35
						c0.26-1.53,0.53-3.02,0.81-4.61h2.36c0.15-0.8,0.3-1.59,0.43-2.39h2.28c-0.14,0.77-0.27,1.55-0.42,2.41h-2.28
						c-0.27,1.52-0.53,3.06-0.81,4.58c0.76,0,1.52,0.01,2.28,0.01C416.1,211.1,415.96,211.9,415.81,212.7z M418.65,210.29h-2.4
						c0.14-0.74,0.26-1.48,0.4-2.25h2.4C418.91,208.79,418.78,209.54,418.65,210.29z M429.21,203.32h2.41
						c-0.14,0.77-0.27,1.55-0.42,2.35h-2.4C428.94,204.89,429.07,204.13,429.21,203.32z M426.1,208.03h2.24
						c-0.14,0.75-0.27,1.52-0.41,2.28h-2.24C425.82,209.52,425.96,208.79,426.1,208.03z M424.01,219.71h2.28
						c-0.15,0.81-0.28,1.6-0.42,2.4h-2.28C423.72,221.31,423.87,220.52,424.01,219.71z M388.32,236.11c0.13-0.74,0.26-1.48,0.4-2.25
						h2.25c-0.14,0.75-0.26,1.5-0.4,2.25H388.32z M392.53,238.52h-2.38c0.15-0.8,0.3-1.59,0.43-2.39h2.36
						C392.8,236.93,392.66,237.69,392.53,238.52z M411.44,224.45c-0.13,0.74-0.25,1.47-0.4,2.25h2.28
						c-0.15,0.82-0.27,1.57-0.42,2.39h-2.26c-0.14,0.8-0.26,1.53-0.4,2.3h-4.67c0.26-1.52,0.53-3.07,0.82-4.65h2.24
						c0.14-0.78,0.27-1.53,0.4-2.28H411.44z M409.02,224.43h-2.27c0.15-0.8,0.27-1.55,0.41-2.3h2.27
						C409.29,222.89,409.15,223.67,409.02,224.43z M402.91,219.69h4.65c-0.15,0.85-0.28,1.65-0.43,2.43h-4.65
						C402.63,221.29,402.78,220.49,402.91,219.69z M396.96,226.67c0.14-0.75,0.27-1.5,0.41-2.26h6.94c-0.13,0.77-0.26,1.49-0.4,2.26
						H396.96z M403.48,229.16c-0.13,0.74-0.25,1.45-0.39,2.23h-2.3c0.14-0.73,0.26-1.47,0.4-2.23H403.48z M396.86,240.83h-2.36
						c0.13-0.76,0.26-1.49,0.4-2.3h2.36C397.12,239.31,396.98,240.07,396.86,240.83z M397.28,238.52c0.14-0.8,0.27-1.59,0.42-2.39
						h2.28c-0.15,0.8-0.28,1.59-0.43,2.39H397.28z M399.81,250.2h-2.28c0.14-0.77,0.27-1.52,0.42-2.34h2.28
						C400.09,248.64,399.96,249.41,399.81,250.2z M404.81,261.97h-2.34c0.14-0.83,0.27-1.59,0.42-2.4h2.34
						C405.09,260.36,404.96,261.16,404.81,261.97z M408.77,252.53h-2.25c0.13-0.74,0.25-1.48,0.4-2.27h-2.41
						c0.15-0.84,0.28-1.64,0.42-2.42h4.66C409.31,249.43,409.04,250.97,408.77,252.53z M410.45,243.15h-2.31
						c-0.15,0.82-0.28,1.58-0.42,2.4h-2.4c-0.15,0.81-0.27,1.55-0.41,2.28c-1.56,0-3.1,0.01-4.66,0.02
						c0.13-0.77,0.25-1.55,0.38-2.31h2.36c0.28-1.63,0.56-3.16,0.83-4.73h-4.66c0.14-0.76,0.27-1.51,0.41-2.27h2.25
						c0.15-0.85,0.28-1.63,0.42-2.43h-2.25c0.14-0.76,0.27-1.52,0.41-2.27h9.38c-0.27,1.55-0.55,3.08-0.83,4.69h2.31
						C410.99,240.06,410.72,241.57,410.45,243.15z M416.2,250.22h-2.3c-0.14,0.81-0.27,1.57-0.4,2.32h-2.28
						c0.56-3.17,1.1-6.3,1.66-9.42h2.33c-0.27,1.57-0.55,3.1-0.83,4.73h2.24C416.47,248.61,416.33,249.39,416.2,250.22z
						 M418.99,247.82h-2.36c0.14-0.74,0.26-1.48,0.4-2.25h2.36C419.27,246.29,419.14,247.02,418.99,247.82z M419.83,243.1h-4.61
						c0.14-0.78,0.26-1.52,0.4-2.24h-2.34c0.14-0.77,0.27-1.55,0.41-2.32h6.96C420.37,240.07,420.11,241.57,419.83,243.1z
						 M430.88,233.78h-2.35c0.14-0.76,0.27-1.53,0.41-2.35h-2.31c0.14-0.78,0.27-1.53,0.41-2.28h4.66
						C431.43,230.68,431.17,232.21,430.88,233.78z M438.34,231.43c-0.14,0.8-0.27,1.59-0.42,2.39h-2.36
						c0.15-0.78,0.28-1.56,0.43-2.39H438.34z M434.06,229.08c0.14-0.78,0.27-1.57,0.42-2.35h2.28c-0.14,0.77-0.27,1.55-0.42,2.35
						H434.06z M438.9,254.91h-2.36c0.27-1.53,0.55-3.07,0.82-4.66h2.36C439.46,251.78,439.19,253.33,438.9,254.91z M447.38,259.51
						h-6.94c0.41-2.3,0.82-4.59,1.23-6.93h6.93C448.19,254.91,447.78,257.19,447.38,259.51z M452.47,257.2h-2.23
						c0.27-1.53,0.55-3.07,0.83-4.66h2.22C453.02,254.09,452.75,255.62,452.47,257.2z M451.84,247.82
						c-0.14,0.82-0.27,1.58-0.42,2.39h-4.66c0.14-0.77,0.27-1.55,0.41-2.34h-4.68c-0.14,0.76-0.27,1.53-0.42,2.36h-2.32
						c0.14-0.77,0.27-1.55,0.42-2.39h-4.68c0.27-1.59,0.55-3.11,0.83-4.7h2.26c-0.14,0.78-0.28,1.58-0.42,2.36h2.42
						c0.15-0.82,0.28-1.59,0.42-2.36h2.28c-0.14,0.78-0.28,1.58-0.42,2.41h7c-0.14,0.74-0.26,1.48-0.41,2.27H451.84z M451.96,233.85
						h2.39c-0.15,0.76-0.31,1.52-0.45,2.28c-0.77,0.01-1.53,0.01-2.34,0.01C451.69,235.36,451.81,234.63,451.96,233.85z
						 M455.78,238.5h-2.28c0.14-0.77,0.27-1.56,0.42-2.34h2.27C456.05,236.94,455.92,237.7,455.78,238.5z"/>
					<path d="M440.68,271.33c0.14-0.8,0.28-1.57,0.42-2.39c-0.8,0-1.56,0-2.37,0c0.14-0.78,0.27-1.51,0.4-2.24c-0.8,0-1.53,0-2.31,0
						c-0.13,0.76-0.26,1.48-0.4,2.29c-1.6,0-3.15,0-4.7,0c-0.14,0.79-0.28,1.57-0.41,2.35C434.5,271.33,437.59,271.33,440.68,271.33
						z"/>
					<path d="M446.12,266.68c0.01,0,0.01,0,0.02,0c0-0.01,0-0.01,0-0.02C446.14,266.66,446.12,266.68,446.12,266.68z"/>
					<path d="M456.37,261.97c-0.8,0-1.54,0-2.26,0c-0.14,0.78-0.27,1.5-0.4,2.25c1.55,0,3.08,0,4.64,0
						c0.28-1.58,0.55-3.12,0.82-4.65c-0.8,0-1.56,0-2.38,0C456.65,260.37,456.51,261.14,456.37,261.97z"/>
					<path d="M446.12,266.68c0,0,0.02-0.02,0.02-0.02c0,0-0.01,0-0.01,0C446.12,266.67,446.12,266.67,446.12,266.68z"/>
					<path d="M441.98,264.26c-0.14,0.79-0.28,1.58-0.42,2.41c1.56,0,3.07,0,4.57,0c0.15-0.8,0.29-1.61,0.44-2.41
						C445.03,264.26,443.5,264.26,441.98,264.26z"/>
					<path d="M446.56,264.26c0.01,0,0.01,0,0.02,0c0-0.01,0-0.01,0-0.02c0,0-0.01,0-0.02,0
						C446.56,264.24,446.56,264.25,446.56,264.26z"/>
					<path d="M441.97,264.24c0,0.01,0,0.01,0,0.02c0.01,0,0.01,0,0.02,0c0-0.01,0-0.01,0-0.02
						C441.98,264.24,441.97,264.24,441.97,264.24z"/>
					<path d="M443.06,271.32c0.77,0,1.5,0,2.25,0c0.14-0.82,0.28-1.59,0.42-2.36c-0.75,0-1.5,0-2.25,0
						C443.33,269.79,443.19,270.56,443.06,271.32z"/>
					<path d="M455.29,268.94c-1.01,0-2.05,0-2.46,0c0.14-0.8,0.27-1.53,0.4-2.26l0.44-2.47h-2.42l-0.44,2.47c-1.57,0-3.12,0-4.67,0
						c-0.13,0.75-0.26,1.5-0.39,2.26c1.55,0,3.11,0,4.72,0c-0.15,0.85-0.29,1.62-0.42,2.38c1.6,0,5.55,0,7.07,0
						c0.14-0.78,0.27-1.52,0.41-2.32c0-0.02,0.01-0.04,0.01-0.06c0.14-0.79,0.27-1.55,0.41-2.3c-0.75,0-1.5,0-2.25,0
						C455.55,267.45,455.42,268.2,455.29,268.94z"/>
					<path d="M445.72,268.95c0.01,0,0.01,0,0.02,0c0,0,0,0,0-0.01l0,0.01c0-0.01,0-0.01,0-0.02c-0.01,0-0.01,0-0.01,0
						C445.73,268.94,445.73,268.95,445.72,268.95z"/>
					<path d="M443.25,257.22c0.76,0,1.48,0,2.23,0c0.14-0.78,0.27-1.5,0.4-2.24c-0.76,0-1.49,0-2.23,0
						C443.51,255.75,443.38,256.48,443.25,257.22z"/>
				</g>
				<text transform="matrix(1 0 0 1 396.0191 322.3789)" class="st10 st14 st15">SCAN</text>
			</g>
		</g>
		<g>
			<path class="st16" d="M293.2,176.71c0,0-1.31-7.15-8.02-5.74c-4.74,0.99-7.15,6.03-4.62,10.22c2.95,4.87,8.86,2.66,8.86,2.66"/>
			<g>
				<g>
					<path class="st16" d="M285.23,181.96c-4.02,3.53-0.47,12.15,3.89,13.68c0.23,0.08,0.32-0.27,0.1-0.36
						c-4.03-1.55-7.35-9.66-3.74-13.07C285.66,182.06,285.4,181.81,285.23,181.96L285.23,181.96z"/>
				</g>
			</g>
			<path class="st17" d="M320.4,243.69l-1.81,5.96c-2.28,0-6.36-6.17-6.7-7.19c-2.43-7.29,0.95-11.07,0.95-11.07l7.45-3.52
				L320.4,243.69z"/>
			<g>
				<path class="st18" d="M296.5,292.79c1.31,2.58,6.92,30.65,8.34,34.07c0.2,0.49,2.92,2.93,3.58,3.72
					c0.31,0.37,0.63,0.68,0.97,0.94c4.43,3.66,10.13-1.03,10.25-5.96v-0.09c0.11-8.82-0.75-29.39-2.13-44.87
					c-0.58-6.52-1.87-12.21-2.23-15.62l-21.74-5.03C283.02,282.31,293.97,287.85,296.5,292.79z"/>
				<path class="st19" d="M277.05,376.27c0,0-5.29-0.03-6.06-4.05c0,0-2.39,1.27-3.84,3.87c-0.27,0.49-0.3,1.08-0.06,1.58
					c0.56,1.17,1.65,3.56,2.25,5.62c0.83,2.87,4.91,5.56,8.91,5.62h5.97c0,0,3.13-0.66-3.18-4.69
					C278.27,382.45,277.05,376.27,277.05,376.27z"/>
				<path class="st19" d="M311.93,381.53c0,0,1.37,0.87,4.76,0.61c0.54-0.04,2.48-0.37,3.27-0.61c0,0,13.41,5.06,13.48,6.3
					c0.07,1.24-1.64,1.07-1.64,1.07l-20.27,0.01C311.53,388.91,309.02,385.68,311.93,381.53z"/>
				<path class="st18" d="M304.85,344.18c0.96,7.69,4.55,20.13,5.68,27.7c0.94,6.24,0.96,10.37,0.96,10.37s5.64,0.59,8.48-0.72
					c0,0-0.12-46.14-0.32-55.97c-0.03-0.83-0.06-1.41-0.11-1.68c-0.65-3.83-7.43-0.46-10.92,1.56c-1.24,0.69-3.61,0.98-3.61,0.98
					s-0.03,0.26-0.09,0.73C304.62,329.83,303.85,336.16,304.85,344.18z"/>
				<path class="st18" d="M292.67,324.44c-1.07,4.31-15.56-0.14-15.12-3.98c0.5-4.39,0-15.2,0-26.77c0-2.72,0.27-12.38,0.4-13.98
					c0.42-4.98,1.54-7.83,2.75-10.47c1.37-2.99,1.96-4.66,1.96-4.66l18.85-1.1c0,0-0.74,15.17-2.89,30.22
					C296.46,308.76,293.94,319.37,292.67,324.44z"/>
				<path class="st18" d="M278.81,318.09c0,0-3.25,3.54-4.5,10.87c-0.93,5.45-1.77,20.35-3.18,32.01
					c-0.85,7.03-1.94,12.58-1.94,12.58s4.18,3.35,7.87,2.71c0,0,14.91-46.68,16.07-53.62C293.98,317.47,278.81,318.09,278.81,318.09
					z"/>
			</g>
			<path class="st19" d="M315.08,258.83c0,0,1.15,5.53,1.15,6.19s-0.22,1.28-0.58,1.36c-4.23,1.07-9.1,1.34-16.12,1.29
				c-9.92-0.07-18.11-1.15-18.64-1.88c-0.52-0.72,1.61-5.74,1.95-6.95c0,0,2.52-6.66-1.09-15.31c-1.07-2.57-2.23-6.03-3.26-9.75
				c-2.43-8.8-4.12-19.02-2.16-22.2c2.66-4.3,7.51-4.86,9.85-4.66l19.89,1.22c0,0,6.2,0.35,8.37,3.87
				c1.15,1.86,3.92,8.86,5.86,16.97c-3.51,1.22-7.48,2.64-7.48,2.64l0.23,9.36c0,0,0.43,6.27,0.96,10
				C314.29,252.94,315.08,258.83,315.08,258.83z"/>
			<path class="st20" d="M285.69,184.95c-1.08,0.35-1.36-0.87-1.36-0.87s-0.65-2.54,1.51-6.2c2.4-4.08,5.68-4.82,5.68-4.82
				s0.93-0.27,0.96,0.66"/>
			<path class="st21" d="M315.05,224.1c0,0-0.62,19.36,0.63,22.79c2.09,5.72,8.41,4.33,9.17-1.18c0.96-6.96-6.82-22.76-6.82-22.76"
				/>
			<path class="st22" d="M316.9,234.05h-8.13l5.13-14.46c0.17-0.48,0.62-0.8,1.13-0.8h6.42c0.42,0,0.71,0.41,0.57,0.81L316.9,234.05
				z"/>
			<polygon class="st22" points="321.91,218.99 322.69,219.79 321.94,219.83 			"/>
			<path class="st18" d="M317.7,234.87h-8.13l5.13-14.46c0.17-0.48,0.62-0.8,1.13-0.8h6.42c0.42,0,0.71,0.41,0.57,0.81L317.7,234.87
				z"/>
			<path class="st23" d="M310.2,230.74c0,0,1.02-1.03,1.5-1.85c0.64-1.09,0.88-2.52,0.02-2.82c-0.85-0.3-0.95,1.51-2.95,2.87
				c-1.01,0.68-2.72,4.2-2.72,4.2l-0.19,1.33"/>
			<path class="st23" d="M286.18,206.92c4.54,9.36,11.88,9.69,11.88,9.69c8.81,0.94,8.01-8.47,8.01-8.47l-2.45-0.55
				c-1.63-0.37-2.84-1.73-3.04-3.39c-0.02-0.12-0.03-0.24-0.04-0.37c-0.18-1.74-0.14-3.54-0.08-4.7c0.04-0.76,0.09-1.24,0.09-1.24
				l0.73-6.16c0,0-13.48-9.48-10.68-0.9c1.38,4.24,1.71,8.12,1.69,10.95c-0.02,2.64-2.04,4.83-4.67,5.04L286.18,206.92z"/>
			<path class="st21" d="M300.53,203.82c-0.18-1.74-0.14-3.54-0.08-4.7l-4.79-1.24C295.65,197.88,295.9,202.36,300.53,203.82z"/>
			<path class="st23" d="M308.74,181.41c0.9,4.84,0.51,17.85-4.81,19.92c-4.9,1.9-10.64-3.46-14.66-9.38
				c-4.02-5.92,0.53-13.93,5.89-15.36C300.52,175.17,307.57,175.1,308.74,181.41z"/>
			<path class="st23" d="M285.37,227.55l4.25,15.86c0,0-4.92,2.7-9.43,2.58l-4.72-15.46"/>
			<path class="st24" d="M286.42,231.46c0,0-3.39,2.34-9.65,3.33l-0.7-2.23l10.01-2.3L286.42,231.46z"/>
			<path class="st19" d="M288.05,221.59l1.74,8c0,0-6.88,3.2-15.54,3.75c0,0-3.01-21.47,5.57-24.95
				C279.81,208.4,284.51,207.58,288.05,221.59z"/>
			<path class="st23" d="M287.21,242.45c5.44-2.82,18.85-9.31,18.85-9.31l3,3.12c0,0-15.73,14.96-22.95,17.15
				c-4,1.21-6.86-10.54-6.86-10.54"/>
			<path class="st23" d="M307.34,237.68c1.33-0.9,5.56-0.83,7.97-2.04c-0.81-1.5-2.41-3.97-4.75-5.54
				c-0.47,0.12-0.86,0.24-1.11,0.33c-1.27,0.46-1.35,1.25-2.05,2.27c-0.71,1.02-1.35,1.15-1.35,1.15S305.76,238.74,307.34,237.68z"
				/>
			<path class="st23" d="M311.26,231.61l2.95-0.6c0,0,1.9-0.88,3.01-1.68c1.11-0.8,0.91-1.36,0-1.25c-0.57,0.07-3.72,1.37-3.72,1.37
				s-1.94,0.42-2.54,0.33c-0.59-0.09-0.41-0.56-0.41-0.56l-0.95,0.53l-0.24,0.83"/>
			<path class="st23" d="M312.82,232.59l3.57-0.44c0,0,2.67-1.24,3.24-1.31c0.91-0.11,1.11,0.45,0,1.25
				c-1.11,0.8-2.19,1.41-3.01,1.68c-0.72,0.23-2.95,0.6-2.95,0.6"/>
			<path class="st23" d="M313.14,234.25l2.79-0.14c0,0,2.51-0.92,3-0.97c0.79-0.09,0.96,0.39,0,1.09c-0.96,0.69-1.9,1.22-2.62,1.46
				c-0.62,0.2-3.27,0.7-3.27,0.7"/>
			<path class="st23" d="M311.92,231.16l3.66-0.6l2.28-1.13c0,0,1.59-1.11,2.26-0.9c0.59,0.18-0.18,1.2-0.97,1.86
				c-0.79,0.66-2.68,1.63-2.68,1.63l-3.92,0.95"/>
			<path class="st16" d="M305.67,180.83c0,0-0.19,5.91-6.74,8.03c-4.48,1.45-8.58,5.5-8.58,5.5s-2.59-2.94-3.83-7.03
				c-1.68-5.55-0.73-13.18,8.95-14.99c8.03-1.5,14.28,3.12,14.76,9.18c0.3,3.76-1.15,7.03-1.15,7.03S309.71,182.91,305.67,180.83z"
				/>
			<path class="st16" d="M293.3,193.48c0,0-1.05,0.38-0.94,2.65c0.13,2.59-0.1,4.82-0.1,4.82l-1.06-0.76c0,0-1.1-1.84-2.83-5.19
				c-3.41-2.13-4.9-7.44-2.94-11.85c2.17-4.87,6.85,5.7,6.85,5.7L293.3,193.48z"/>
			<path class="st25" d="M302,228.98c0,0-1.65,6.94-7.65,7.4C294.34,236.38,303.5,236.82,302,228.98z"/>
			<path class="st23" d="M295.39,191.11c0,0-0.25-3.31-3.02-2.4c-1.44,0.47-1.6,2.35-1.21,3.98c0.39,1.6,1.31,2.95,2.58,2.4"/>
			<g>
				<g>
					<path class="st16" d="M305.54,180.55c0.19,1.69-0.19,3.49-1.06,4.95c-1.63,2.73-4.67,3.46-7.65,3.59c-0.32,0.01-0.33,0.5,0,0.5
						c5.27,0.12,9.96-3.48,9.14-9.11C305.94,180.25,305.51,180.3,305.54,180.55L305.54,180.55z"/>
				</g>
			</g>
			<path class="st18" d="M306.68,191.62c-0.06,0.56,0.13,1.03,0.43,1.06c0.3,0.03,0.58-0.39,0.64-0.95
				c0.06-0.56-0.13-1.03-0.43-1.06C307.03,190.63,306.74,191.06,306.68,191.62z"/>
			<path class="st18" d="M301.37,191.19c-0.06,0.56,0.14,1.03,0.44,1.06c0.3,0.03,0.58-0.4,0.64-0.95c0.06-0.56-0.14-1.03-0.44-1.06
				C301.71,190.21,301.43,190.64,301.37,191.19z"/>
			<g>
				<g>
					<path class="st21" d="M304.6,193.2c0.04,0.46,0.17,0.9,0.18,1.36c0.02,0.75-0.45,0.96-1.14,0.97c-0.15,0-0.15,0.22,0,0.23
						c0.59,0.04,1.2-0.11,1.36-0.75c0.14-0.6-0.11-1.22-0.18-1.81C304.79,193.07,304.58,193.07,304.6,193.2L304.6,193.2z"/>
				</g>
			</g>
			<g>
				<g>
					<path class="st18" d="M306.69,190.15c0.12-0.19,0.3-0.35,0.51-0.43c0.39-0.15,0.57,0.09,0.7,0.44c0.06,0.17,0.32,0.1,0.27-0.08
						c-0.24-1.02-1.25-0.82-1.71-0.07C306.38,190.16,306.6,190.29,306.69,190.15L306.69,190.15z"/>
				</g>
			</g>
			<g>
				<g>
					<path class="st18" d="M301.37,189.77c0.12-0.19,0.3-0.36,0.52-0.46c0.39-0.17,0.58,0.04,0.72,0.41
						c0.06,0.17,0.32,0.1,0.27-0.08c-0.25-1.05-1.29-0.76-1.73-0.01C301.05,189.78,301.28,189.91,301.37,189.77L301.37,189.77z"/>
				</g>
			</g>
			<g>
				<g>
					<path class="st26" d="M304.23,198.01c-0.7-0.01-1.34-0.25-2.01-0.43c-0.18-0.05-0.3,0.22-0.13,0.31
						c0.63,0.34,1.43,0.48,2.14,0.44C304.43,198.31,304.44,198.01,304.23,198.01L304.23,198.01z"/>
				</g>
			</g>
			<g>
				<g>
					<path class="st21" d="M293.66,190.41c0.31,0.31,0.35,0.74,0.32,1.16c-0.03,0.51-0.28,0.76-0.6,1.11
						c-0.1,0.11,0.03,0.31,0.17,0.22c0.88-0.56,1.04-1.93,0.28-2.67C293.72,190.12,293.55,190.29,293.66,190.41L293.66,190.41z"/>
				</g>
			</g>
			<g>
				<g>
					<path class="st21" d="M293.03,191.12c0.51,0.05,0.75,0.51,0.91,0.93c0.05,0.14,0.31,0.14,0.29-0.04
						c-0.07-0.63-0.55-1.18-1.2-1.2C292.82,190.8,292.83,191.1,293.03,191.12L293.03,191.12z"/>
				</g>
			</g>
			<path class="st27" d="M298.62,192.92c-0.08,0.48,0.42,0.96,1.12,1.07c0.69,0.11,1.32-0.19,1.39-0.67
				c0.08-0.48-0.42-0.96-1.12-1.07C299.32,192.14,298.7,192.44,298.62,192.92z"/>
			<path class="st27" d="M306.44,193.95c-0.05,0.33,0.29,0.66,0.76,0.73c0.47,0.08,0.9-0.13,0.95-0.46
				c0.05-0.33-0.29-0.66-0.76-0.73C306.92,193.41,306.49,193.62,306.44,193.95z"/>
		</g>
		<line class="st28" x1="205.02" y1="388.91" x2="559.68" y2="388.91"/>
	</g>
</g>
</svg>
