<svg width="90" height="90" viewBox="0 0 90 90" fill="none" xmlns="http://www.w3.org/2000/svg">
<rect width="90" height="90" rx="15" fill="url(#paint0_linear)"/>
<rect x="5" y="9" width="81" height="81" rx="15" fill="url(#paint1_linear)"/>
<rect x="10" y="19" width="71" height="71" rx="15" fill="url(#paint2_linear)"/>
<path d="M24.9167 64.25H29.8333V39.6667C29.8333 39.0147 30.0923 38.3894 30.5534 37.9284C31.0144 37.4673 31.6397 37.2083 32.2917 37.2083H61.7917V32.2917C61.7917 31.6397 61.5327 31.0144 61.0716 30.5534C60.6106 30.0923 59.9853 29.8333 59.3333 29.8333H51.833C51.2135 24.3168 46.5746 20 40.8958 20C35.2171 20 30.5782 24.3168 29.9587 29.8333H22.4583C21.8063 29.8333 21.1811 30.0923 20.72 30.5534C20.259 31.0144 20 31.6397 20 32.2917V59.3333C20 60.6373 20.518 61.8879 21.4401 62.8099C22.3621 63.732 23.6127 64.25 24.9167 64.25ZM40.8958 24.9167C43.863 24.9167 46.3484 27.0308 46.9188 29.8333H34.8729C35.4433 27.0308 37.9286 24.9167 40.8958 24.9167Z" fill="white"/>
<path d="M66.7083 42.125H37.2083C36.5563 42.125 35.9311 42.384 35.47 42.845C35.009 43.3061 34.75 43.9313 34.75 44.5833V64.25C34.75 65.554 35.268 66.8046 36.1901 67.7266C37.1121 68.6487 38.3627 69.1667 39.6667 69.1667H64.25C65.554 69.1667 66.8046 68.6487 67.7266 67.7266C68.6487 66.8046 69.1667 65.554 69.1667 64.25V44.5833C69.1667 43.9313 68.9077 43.3061 68.4466 42.845C67.9856 42.384 67.3603 42.125 66.7083 42.125ZM51.9583 59.3333C45.1807 59.3333 39.6667 53.8193 39.6667 47.0417H44.5833C44.5833 51.1078 47.8923 54.4167 51.9583 54.4167C56.0244 54.4167 59.3333 51.1078 59.3333 47.0417H64.25C64.25 53.8193 58.736 59.3333 51.9583 59.3333Z" fill="white"/>
<defs>
<linearGradient id="paint0_linear" x1="45" y1="90" x2="45" y2="-46" gradientUnits="userSpaceOnUse">
<stop stop-color="#00A77B"/>
<stop offset="1" stop-color="#03FDBC" stop-opacity="0"/>
</linearGradient>
<linearGradient id="paint1_linear" x1="45.5" y1="90" x2="45.5" y2="-32.4" gradientUnits="userSpaceOnUse">
<stop stop-color="#00A77B"/>
<stop offset="1" stop-color="#03FDBC" stop-opacity="0"/>
</linearGradient>
<linearGradient id="paint2_linear" x1="45.5" y1="90" x2="45.5" y2="-17.2889" gradientUnits="userSpaceOnUse">
<stop stop-color="#00A77B"/>
<stop offset="1" stop-color="#03FDBC" stop-opacity="0"/>
</linearGradient>
</defs>
</svg>
