<?xml version="1.0" encoding="utf-8"?>
<!-- Generator: Adobe Illustrator 23.0.1, SVG Export Plug-In . SVG Version: 6.00 Build 0)  -->
<svg version="1.1" xmlns="http://www.w3.org/2000/svg" xmlns:xlink="http://www.w3.org/1999/xlink" x="0px" y="0px"
	 viewBox="0 0 750 500" style="enable-background:new 0 0 750 500;" xml:space="preserve">
<style type="text/css">
	.st0{fill:#E6F5FA;}
	.st1{fill:#90D3ED;}
	.st2{fill:none;stroke:#FFFFFF;stroke-width:1.2926;stroke-linecap:round;stroke-linejoin:round;stroke-miterlimit:10;}
	.st3{fill:none;stroke:#FFFFFF;stroke-width:1.2572;stroke-miterlimit:10;}
	.st4{fill:#0083C8;}
	.st5{fill:#FFFFFF;}
	.st6{fill:#FFCC05;}
	.st7{fill:#6FC7BF;}
	.st8{fill:#D97F48;}
	.st9{fill:#08101C;}
	.st10{fill:#111D36;}
	.st11{fill:none;stroke:#51A99F;stroke-width:1.3684;stroke-miterlimit:10;}
	.st12{fill:#006AB8;}
	.st13{fill:none;stroke:#005A94;stroke-width:1.3684;stroke-miterlimit:10;}
	.st14{fill:none;stroke:#111D36;stroke-width:1.0039;stroke-linecap:round;stroke-linejoin:round;stroke-miterlimit:10;}
	.st15{fill:none;stroke:#111D36;stroke-width:0.9876;stroke-linecap:round;stroke-linejoin:round;stroke-miterlimit:10;}
	.st16{fill:none;stroke:#6FC7BF;stroke-width:1.083;stroke-miterlimit:10;}
	.st17{fill:#F7A771;}
	.st18{fill:none;stroke:#111D36;stroke-width:1.0166;stroke-linecap:round;stroke-linejoin:round;stroke-miterlimit:10;}
	.st19{fill:none;stroke:#00678D;stroke-width:1.4581;stroke-miterlimit:10;}
	.st20{fill:none;stroke:#111D36;stroke-width:1.0334;stroke-linecap:round;stroke-linejoin:round;stroke-miterlimit:10;}
	.st21{fill:none;stroke:#EAB600;stroke-width:1.4581;stroke-miterlimit:10;}
	.st22{fill:none;stroke:#111D36;stroke-width:1.0303;stroke-linecap:round;stroke-linejoin:round;stroke-miterlimit:10;}
	.st23{fill:none;stroke:#111D36;stroke-width:1.0135;stroke-linecap:round;stroke-linejoin:round;stroke-miterlimit:10;}
	.st24{fill:none;stroke:#111D36;stroke-width:0.9847;stroke-linecap:round;stroke-linejoin:round;stroke-miterlimit:10;}
</style>
<g id="BACKGROUND">
</g>
<g id="OBJECTS">
	<g>
		<g>
			<path class="st0" d="M582.12,301.82c0-118.76-96.28-215.04-215.04-215.04s-215.04,96.28-215.04,215.04
				c0,49.86,16.97,95.75,45.45,132.22h339.18C565.15,397.57,582.12,351.67,582.12,301.82z"/>
		</g>
		<g>
			<g>
				<path class="st0" d="M661.47,347.3h-55.56c-2.03,0-3.67-1.64-3.67-3.67l0,0c0-2.03,1.64-3.67,3.67-3.67h55.56
					c2.03,0,3.67,1.64,3.67,3.67l0,0C665.14,345.66,663.5,347.3,661.47,347.3z"/>
				<path class="st0" d="M126.95,308.72h-61c-2.03,0-3.67-1.64-3.67-3.67l0,0c0-2.03,1.64-3.67,3.67-3.67h61
					c2.03,0,3.67,1.64,3.67,3.67l0,0C130.62,307.08,128.98,308.72,126.95,308.72z"/>
				<path class="st1" d="M673.36,392.27h-5.82c-1.53,0-2.77-1.24-2.77-2.77v-5.47c0-1.53,1.24-2.77,2.77-2.77h5.82
					c1.53,0,2.77,1.24,2.77,2.77v5.47C676.13,391.03,674.89,392.27,673.36,392.27z"/>
				<path class="st1" d="M111.44,364.71h-7.71c-2.03,0-3.67-1.64-3.67-3.67v-7.24c0-2.03,1.64-3.67,3.67-3.67h7.71
					c2.03,0,3.67,1.64,3.67,3.67v7.24C115.11,363.06,113.46,364.71,111.44,364.71z"/>
			</g>
			<g>
				<path class="st2" d="M478.48,60.91h26.41c1.35,0,2.45,1.11,2.45,2.48v12.95c0,1.37-1.1,2.48-2.45,2.48h-13.62l-8.1,6.94V79.2
					l-4.74-0.13c-1.33-0.03-2.4-1.13-2.4-2.48V63.4C476.03,62.03,477.13,60.91,478.48,60.91z"/>
				<path class="st3" d="M653.4,180.85c0,4.48-3.58,8.11-8,8.11s-8-3.63-8-8.11c0-4.48,3.58-8.11,8-8.11S653.4,176.36,653.4,180.85z
					"/>
				<path class="st3" d="M79.14,248.47c0,4.48-3.58,8.11-8,8.11c-4.42,0-8-3.63-8-8.11c0-4.48,3.58-8.11,8-8.11
					C75.56,240.35,79.14,243.99,79.14,248.47z"/>
			</g>
			<g>
				<g>
					<g>
						<path class="st4" d="M296.8,73.26c0.3,0.36,0.89,0.14,0.89-0.33l-0.03-9.75V47.41c0-1.93-1.56-3.49-3.49-3.49h-42.48
							c-1.93,0-3.49,1.56-3.49,3.49v17.12c0,1.93,1.56,3.49,3.49,3.49h40.62L296.8,73.26z"/>
						<g>
							<path class="st5" d="M264.93,56.1c0,1.17-0.94,2.13-2.12,2.13c-1.17,0-2.13-0.94-2.13-2.12c0-1.17,0.94-2.13,2.12-2.13
								C263.98,53.98,264.93,54.93,264.93,56.1z"/>
							<path class="st5" d="M274.04,56.07c0,1.17-0.94,2.13-2.12,2.13c-1.17,0-2.13-0.94-2.13-2.12c0-1.17,0.94-2.13,2.12-2.13
								C273.08,53.95,274.03,54.9,274.04,56.07z"/>
							<path class="st5" d="M283.14,56.04c0,1.17-0.94,2.13-2.12,2.13c-1.17,0-2.13-0.94-2.13-2.12c0-1.17,0.94-2.13,2.12-2.13
								S283.14,54.87,283.14,56.04z"/>
						</g>
					</g>
				</g>
				<g>
					<g>
						<g>
							<g>
								<g>
									<g>
										<path class="st4" d="M626.71,113.6h-49.68c-4.83,0-8.74-3.91-8.74-8.74V58.68c0-3.66,2.97-6.62,6.62-6.62h51.79
											c3.66,0,6.62,2.97,6.62,6.62v48.3C633.34,110.64,630.37,113.6,626.71,113.6z"/>
									</g>
								</g>
							</g>
						</g>
					</g>
					<g>
						<path class="st5" d="M615.67,87.86L611.81,84c-0.69-0.76-1.59-1.17-2.48-1.17c-0.9,0-1.79,0.41-2.48,1.1l-2.21,2.21
							c-0.14-0.07-0.28-0.14-0.41-0.21c-0.28-0.14-0.48-0.21-0.69-0.34c-2.07-1.31-3.93-3.03-5.72-5.24c-0.83-1.03-1.45-2-1.79-2.83
							c0.55-0.48,1.03-1.03,1.52-1.52c0.21-0.21,0.41-0.41,0.62-0.62c0.76-0.76,1.17-1.65,1.17-2.55c0-0.9-0.41-1.79-1.17-2.55
							l-1.93-1.93c-0.21-0.21-0.41-0.41-0.62-0.69c-0.41-0.41-0.9-0.9-1.31-1.31c-0.69-0.69-1.59-1.1-2.48-1.1
							c-0.9,0-1.72,0.34-2.48,1.1l-2.41,2.41c-0.9,0.9-1.45,2.07-1.59,3.38c-0.14,2.07,0.41,4,0.9,5.24c1.1,3.17,2.83,6,5.38,9.03
							c3.1,3.65,6.76,6.55,11.03,8.62c1.59,0.76,3.79,1.65,6.2,1.86c0.14,0,0.28,0,0.48,0c1.65,0,3.03-0.62,4.14-1.79
							c0,0,0,0,0.07-0.07c0.34-0.41,0.76-0.83,1.24-1.24c0.28-0.28,0.62-0.62,0.9-0.9C617.12,91.38,617.12,89.31,615.67,87.86z
							 M614.08,91.45c-0.28,0.28-0.55,0.55-0.83,0.83c-0.48,0.41-0.9,0.9-1.38,1.38c-0.69,0.69-1.45,1.03-2.48,1.03
							c-0.14,0-0.21,0-0.34,0c-2.07-0.14-4-0.97-5.38-1.65c-3.93-1.93-7.38-4.62-10.27-8.07c-2.34-2.83-3.93-5.51-5.03-8.34
							c-0.69-1.65-0.96-2.96-0.83-4.27c0.07-0.76,0.34-1.45,0.97-2l2.34-2.34c0.21-0.21,0.55-0.48,0.97-0.48
							c0.41,0,0.69,0.21,0.97,0.48c0.41,0.41,0.83,0.83,1.24,1.24c0.21,0.21,0.41,0.48,0.69,0.69l1.93,1.93
							c0.21,0.21,0.48,0.62,0.48,0.97c0,0.41-0.28,0.76-0.48,0.97c-0.21,0.21-0.41,0.41-0.62,0.62c-0.62,0.62-1.17,1.17-1.72,1.72
							c0,0,0,0-0.07,0.07c-0.69,0.69-0.55,1.31-0.41,1.72v0.07c0.48,1.24,1.24,2.34,2.27,3.72c1.93,2.41,4,4.27,6.27,5.72
							c0.28,0.21,0.62,0.34,0.9,0.48s0.48,0.21,0.69,0.34l0.07,0.07c0.69,0.34,1.38,0.21,1.93-0.34l2.41-2.41
							c0.21-0.21,0.55-0.48,0.97-0.48c0.34,0,0.69,0.28,0.9,0.48l3.86,3.86C614.7,90.07,614.7,90.76,614.08,91.45z"/>
					</g>
				</g>
				<g>
					<g>
						<g>
							<g>
								<g>
									<g>
										<g>
											<path class="st6" d="M147.46,161.33H91.78c-5.41,0-9.79-4.38-9.79-9.79V99.77c0-4.1,3.32-7.42,7.42-7.42h58.05
												c4.1,0,7.42,3.32,7.42,7.42v54.13C154.88,158,151.56,161.33,147.46,161.33z"/>
										</g>
									</g>
								</g>
							</g>
						</g>
					</g>
					<g>
						<path class="st5" d="M104.56,112.57c-7.62,7.62-7.62,20.13,0,27.75c7.62,7.62,20.13,7.62,27.75,0
							c7.62-7.62,7.62-20.13,0-27.75C124.69,104.95,112.18,104.95,104.56,112.57z M132.26,115.4h-6.25
							c-0.63-1.96-1.44-3.93-2.43-5.89C127.04,110.55,130.06,112.64,132.26,115.4z M111.23,125.3c0-2.54,0.3-5.07,0.93-7.61h12.55
							c0.63,2.54,0.93,5.07,0.93,7.61H111.23z M125.56,127.59c-0.17,2.54-0.63,5.07-1.35,7.61h-11.56
							c-0.72-2.54-1.18-5.07-1.35-7.61H125.56z M118.43,108.74c0.94,0,1.87,0.07,2.77,0.22c1.2,2.15,2.14,4.29,2.85,6.44h-11.23
							c0.7-2.15,1.64-4.29,2.85-6.44C116.57,108.82,117.49,108.74,118.43,108.74z M113.29,109.5c-1,1.96-1.8,3.93-2.43,5.89h-6.25
							C106.81,112.64,109.83,110.55,113.29,109.5z M103.05,117.69h7.16c-0.63,2.54-0.96,5.07-1,7.61h-8.43
							C100.95,122.54,101.75,119.96,103.05,117.69z M103.05,135.2c-1.29-2.27-2.1-4.85-2.28-7.61h8.47
							c0.12,2.54,0.53,5.07,1.19,7.61H103.05z M104.61,137.49h6.51c0.65,1.99,1.46,3.98,2.42,5.96
							C109.97,142.43,106.86,140.32,104.61,137.49z M118.43,144.15c-0.79,0-1.56-0.05-2.32-0.15c-1.08-2.17-2-4.33-2.74-6.5h10.13
							c-0.74,2.17-1.66,4.33-2.74,6.5C119.99,144.1,119.22,144.15,118.43,144.15z M123.34,143.46c0.96-1.99,1.77-3.98,2.42-5.96
							h6.51C130.01,140.32,126.9,142.43,123.34,143.46z M133.82,135.2h-7.39c0.67-2.54,1.07-5.07,1.19-7.61h8.47
							C135.92,130.35,135.12,132.93,133.82,135.2z M136.1,125.3h-8.43c-0.05-2.54-0.38-5.07-1-7.61h7.16
							C135.12,119.96,135.92,122.54,136.1,125.3z"/>
					</g>
				</g>
				<g>
					<g>
						<g>
							<g>
								<g>
									<g>
										<g>
											<g>
												<path class="st7" d="M682.81,300.42h-53.05c-5.15,0-9.33-4.18-9.33-9.33v-49.32c0-3.91,3.17-7.07,7.07-7.07h55.31
													c3.91,0,7.07,3.17,7.07,7.07v51.58C689.88,297.25,686.72,300.42,682.81,300.42z"/>
											</g>
										</g>
									</g>
								</g>
							</g>
						</g>
					</g>
					<g>
						<path class="st5" d="M663.29,262.18c0-4.66-3.78-8.43-8.43-8.43c-4.66,0-8.43,3.78-8.43,8.43c0,4.66,3.78,8.43,8.43,8.43
							C659.51,270.61,663.28,266.84,663.29,262.18z M648.53,262.18c0-3.49,2.83-6.33,6.33-6.33c3.49,0,6.33,2.83,6.33,6.33
							c0,3.49-2.83,6.33-6.33,6.33C651.36,268.5,648.53,265.67,648.53,262.18z"/>
						<g>
							<path class="st5" d="M654,287.05c0.34,0.47,1,0.57,1.47,0.23c0.09-0.06,0.16-0.14,0.23-0.23c0.09-0.12,0.49-0.67,1.1-1.53
								l6.22-9.63c2.89-4.93,5.53-10.36,5.53-13.71c0-7.57-6.14-13.71-13.71-13.71c-7.57,0-13.71,6.14-13.71,13.71
								c0,3.26,2.49,8.47,5.29,13.28l6.48,10.06C653.52,286.39,653.92,286.94,654,287.05z M654.85,250.59c6.4,0,11.6,5.19,11.6,11.6
								c0,5.04-7.71,16.96-11.6,22.44c-3.89-5.48-11.6-17.4-11.6-22.44C643.26,255.78,648.45,250.59,654.85,250.59z"/>
						</g>
					</g>
				</g>
			</g>
		</g>
	</g>
	<g>
		<g>
			<g>
				<g>
					<g>
						<g>
							<g>
								<path class="st8" d="M165.52,245.52l-4.26,10.23c0,0,24.52,17.56,44.81,27.65c6.4,3.18,13.83-2.05,13.44-9.18
									c0-0.07-0.01-0.15-0.01-0.22c-0.22-3.87-2.76-7.22-6.43-8.46C192.32,258.5,188.26,255.7,165.52,245.52z"/>
							</g>
							<path class="st8" d="M164.5,256.66c0,0-21.21,9.35-29.01-4.22l32.16-7.98L164.5,256.66z"/>
						</g>
						<g>
							<g>
								<path class="st8" d="M230.61,209.1c-10.14,17.37-22.37,42.23-29.09,61.17c-1.73,4.89,0.05,10.36,4.77,12.51
									c0.06,0.03,0.11,0.05,0.17,0.08c4.63,2.13,10.1,0.39,12.57-4.06c15.33-27.66,28.98-49.21,28.98-49.21L230.61,209.1z"/>
							</g>
							<path class="st7" d="M231.03,204.31c0,0-15.24,3.24-27.98,40.86l28.68,17.02l10.58-21L231.03,204.31z"/>
						</g>
					</g>
					<g>
						<g>
							<path class="st9" d="M216.93,252.71h-33.1v-5.3h33.1c1.46,0,2.65,1.19,2.65,2.65l0,0
								C219.58,251.52,218.39,252.71,216.93,252.71z"/>
						</g>
						<g>
							<path class="st10" d="M196.99,252.69h-75.42c-1.76,0-3.33-1.15-3.85-2.83l-13.36-44.68c-0.58-1.85,0.8-3.73,2.74-3.73h71.52
								c1.76,0,3.33,1.15,3.85,2.83L196.99,252.69z"/>
							<path class="st0" d="M153.46,225.3c0.56,3.11-1.5,6.08-4.61,6.64c-3.11,0.56-6.08-1.5-6.64-4.61
								c-0.56-3.11,1.5-6.08,4.61-6.64C149.93,220.13,152.9,222.2,153.46,225.3z"/>
						</g>
					</g>
				</g>
				<g>
					<g>
						<path class="st8" d="M298.73,257.87c0,0,18.2,65.72,25.63,122.88l12.5-2.37c0,0-3.88-83.76-16.48-135.58L298.73,257.87z"/>
						<path class="st8" d="M336.75,375.51c0,0,18.81,27.77-3.76,40.25c-1.49,0.82-3.36,0.49-4.46-0.81l-0.15-0.17
							c-1.21-1.43-1.08-3.52,0.24-4.86c3.21-3.25,7.52-9.99,0.65-18.78c0,0-3.61,0.92-3,8.08c0.16,1.84-1.38,3.4-3.22,3.22h0
							c-1.26-0.12-2.29-1.02-2.6-2.24c-1.18-4.72-3.14-16.43,4.41-22.72L336.75,375.51z"/>
					</g>
					<path class="st7" d="M301.09,204.31c0,0,11.64,3.39,24.06,42.72l-28.68,17.02l-6.65-22.86L301.09,204.31z"/>
				</g>
				<g>
					<path class="st7" d="M299.34,203.24l-21.61-8.6l-22.21,0.3l-22.29,8.17c-4.18,1.53-6.53,5.98-5.43,10.3l16.37,64.57h43.85
						l15.12-67.55C303.8,207.42,302.2,204.38,299.34,203.24z"/>
					<rect x="244.16" y="277.97" class="st10" width="43.85" height="7.02"/>
					<line class="st11" x1="237.61" y1="252.13" x2="230.09" y2="222.45"/>
					<line class="st11" x1="293.45" y1="253.67" x2="300.44" y2="222.45"/>
				</g>
			</g>
			<g>
				<path class="st12" d="M288.01,284.99h-43.85c0,0-21.25,5.38-35.47,104.91c-2.17,15.17-4.04,29.96-5.65,44.13h41.41l18.3-91.86
					l4,1.05l6.75,90.8h38.91l0.81-49.05C313.23,384.98,309.72,305.14,288.01,284.99z"/>
				<line class="st13" x1="266.75" y1="343.23" x2="253.13" y2="337.91"/>
			</g>
			<g>
				<path class="st10" d="M302.67,156.98c-1.94-7.36-2.65-6.04-9.17-20.69c-3.9-8.75-6.92-12.26-8.71-13.68l0,0
					c0,0-6.59-7.1-18.39-7.1c-11.26,0-17.78,6.74-17.78,6.74l0,0c-1.71,1.14-4.92,4.44-9.2,14.03c-6.53,14.64-7.23,13.32-9.17,20.69
					c-1.94,7.36,0.53,20.94,15.7,23.59c0,0-1.94-1.94-2.65-5.12c0,0,6.35,8.64,14.99,8.11h16.33c8.64,0.53,14.99-8.11,14.99-8.11
					c-0.71,3.18-2.65,5.12-2.65,5.12C302.14,177.93,304.61,164.34,302.67,156.98z"/>
				<path class="st8" d="M286.67,198.2l-8.94-3.56l-2.7-23.53c0,0-2.79,2.84-6.49,3.53c-3.7,0.69-7.28-1.48-7.33-1.5
					c-0.05-0.03-3.02-2.5-3.02-2.5l-2.68,24.3l-9.75,3.57c0,0,0.63,6.33,21.24,6.33C287.62,204.84,286.67,198.2,286.67,198.2z"/>
				<path class="st10" d="M256.5,171.48c0,0,5.66,10.93,12.4,9.37c7.04-1.63,7.01-10.88,7.01-10.88L256.5,171.48z"/>
				<g>
					<path class="st10" d="M290.7,140.06c0,13.39-10.42,24.24-23.27,24.24c-12.85,0-23.27-10.85-23.27-24.24s10.42-22.5,23.27-22.5
						C280.28,117.56,290.7,126.67,290.7,140.06z"/>
				</g>
				<path class="st8" d="M286.66,141.31c0,8.35-1.16,15.55-2.32,20.66c-1.14,5-4.33,8.5-8.84,11.32l-0.82,0.51
					c-4.78,2.98-10.94,3.05-15.79,0.18l0,0c-4.89-2.9-8.31-6.71-9.37-12.08c-1.92-9.77-2.13-20.59-2.13-20.59
					s-1.82-21.07,19.36-20.66C287.92,121.06,286.66,141.31,286.66,141.31z"/>
				<g>
					<path class="st8" d="M249.7,161.1c-3.73,3.22-11.59-9.54-7.97-12.98c3.61-3.44,6.17,2.16,6.17,2.16l0.73,4.03l1.09,5.43
						l0.28,1.22L249.7,161.1z"/>
					<g>
						<g>
							<path class="st14" d="M243.35,152.42c0,0,1.53-3.3,5.08,2.5"/>
						</g>
					</g>
				</g>
				<g>
					<path class="st8" d="M284.33,161.17c3.79,3.16,11.42-9.73,7.75-13.11c-3.67-3.38-6.13,2.26-6.13,2.26l-0.66,4.04l-1,5.44
						l-0.26,1.22L284.33,161.17z"/>
					<g>
						<g>
							<path class="st14" d="M290.53,152.39c0,0-1.58-3.28-5.04,2.58"/>
						</g>
					</g>
				</g>
				<path class="st10" d="M247.66,147.87c0,0,8.47-11.45,6.51-23.04c0,0-6.28,3.16-7.92,11.33
					C244.62,144.32,247.66,147.87,247.66,147.87z"/>
				<path class="st10" d="M287.02,148.09c0,0-10.18-12.45-8.22-24.05c0,0,6.82,3.94,8.46,12.1
					C288.89,144.32,287.02,148.09,287.02,148.09z"/>
				<path class="st10" d="M241.38,139.64h51.27c0,0-5.77-21.72-27.4-23.01C243.63,115.33,241.38,139.64,241.38,139.64z"/>
				<g>
					<g>
						<path class="st10" d="M259.59,149.49c0,1.08-0.87,1.95-1.95,1.95c-1.08,0-1.95-0.87-1.95-1.95c0-1.08,0.87-1.95,1.95-1.95
							C258.72,147.54,259.59,148.41,259.59,149.49z"/>
						<path class="st10" d="M277.67,149.49c0,1.08-0.87,1.95-1.95,1.95c-1.08,0-1.95-0.87-1.95-1.95c0-1.08,0.87-1.95,1.95-1.95
							C276.8,147.54,277.67,148.41,277.67,149.49z"/>
					</g>
					<path class="st15" d="M265.7,153.74l0,2.63c0,0.66,0.59,1.16,1.22,1.03l1.4-0.29"/>
					<path class="st10" d="M263.44,143.44l-11.83,1.42c0,0,0.95-3.14,5.78-3.68C262.23,140.65,263.44,143.44,263.44,143.44z"/>
					<path class="st10" d="M270.26,143.44l11.83,1.42c0,0-0.95-3.14-5.78-3.68C271.48,140.65,270.26,143.44,270.26,143.44z"/>
					<g>
						<circle class="st16" cx="255.72" cy="149.43" r="8.07"/>
						<circle class="st16" cx="278.59" cy="149.43" r="8.07"/>
						<path class="st16" d="M263.79,150.1c0,0,2.85-4.38,6.72,0"/>
					</g>
					<path class="st5" d="M260.71,161.1h12.88C273.59,161.1,267.56,168.3,260.71,161.1z"/>
				</g>
			</g>
		</g>
		<g>
			<g>
				<g>
					<g>
						<path class="st17" d="M540.35,225.29l29.4,25.45c5.56,4.81,6.25,13.19,1.54,18.85l0,0c-4.73,5.68-13.14,6.51-18.88,1.85
							l-29.13-23.61L540.35,225.29z"/>
						<path class="st4" d="M502.88,200.36c21.38,3.46,44.85,24.92,44.85,24.92l-19.41,27.77l-25.56-20.93L502.88,200.36z"/>
					</g>
					<g>
						<path class="st17" d="M571.39,197.38l-21.14,60.39c-2.36,6.68,1.38,13.96,8.17,15.95l0,0c7.16,2.09,14.52-2.6,15.65-9.98
							l10.84-64.13L571.39,197.38z"/>
						<path class="st17" d="M571.39,197.38c0,0-4.15-5.35-4.98-20.66c-0.05-0.96,0.5-1.85,1.36-2.26l0,0
							c1.27-0.6,2.78,0.03,3.25,1.36l2.1,6.39l11.79,17.41L571.39,197.38z"/>
						<path class="st17" d="M573.13,182.21l0.51-21.24c0.04-0.9,0.64-2.17,1.8-2.22l0,0c1.26-0.14,2.21,0.74,2.24,1.73l0.48,15.06
							l2.8-17.61c0.14-0.86,0.92-1.45,1.78-1.35l0,0c0.85,0.1,1.47,0.83,1.43,1.69l-0.91,19.11l3.83-15.7
							c0.21-0.85,0.99-1.43,1.87-1.37l0,0c1.03,0.07,1.79,0.98,1.68,2.01l-1.97,17.23l7.61-10.72c0.65-0.78,1.84-0.81,2.54-0.07l0,0
							c0.52,0.55,0.61,1.39,0.22,2.04l-6.4,12.98c0,0-0.4,8.08-7.72,15.86l-11.32-6.73L573.13,182.21z"/>
						<path class="st18" d="M573.13,182.21c0,0,8.01,0.03,8.16,7.22"/>
					</g>
				</g>
				<g>
					<path class="st4" d="M500.71,198.7l15.99,6.06c4.18,1.53,5.25,6.18,4.15,10.49l-7.39,91.5h-63.09l-4.86-94.48
						c-0.67-3,0.94-6.05,3.79-7.18l21.61-8.6L500.71,198.7z"/>
					<line class="st19" x1="518.46" y1="244.97" x2="519.93" y2="226.71"/>
				</g>
				<g>
					<path class="st17" d="M446.99,261.68c0,0-17.14,66.62-21.43,124.1l-12.61-1.68c0,0,1.85-83.85,11.6-136.28L446.99,261.68z"/>
					<path class="st4" d="M447.56,206.16c0,0-14.21,3.39-26.62,42.72l31.25,17.02l6.65-22.86L447.56,206.16z"/>
				</g>
			</g>
			<g>
				<path class="st17" d="M493.5,196.53l-1.24-22.67c0,0-4.19,2.92-8,3.63c-3.81,0.71-7.49-1.52-7.54-1.55
					c-0.05-0.03-4.43-2.58-4.43-2.58l-1.33,23.12l-0.04,0l-6.66,2.65c0,0,4.19,7.13,18.15,6.4c13.96-0.72,18.31-6.85,18.31-6.85
					L493.5,196.53z"/>
				<path class="st10" d="M471.39,174.23c0,0,6.17,11.25,13.51,9.64c7.66-1.68,7.95-11.49,7.95-11.49L471.39,174.23z"/>
				<path class="st17" d="M502.91,143.18c0,8.59-1.2,16.01-2.39,21.27c-1.17,5.15-4.46,8.75-9.1,11.65l-0.85,0.53
					c-4.92,3.07-11.27,3.14-16.26,0.18l0,0c-5.03-2.98-8.56-6.91-9.64-12.44c-1.97-10.06-2.19-21.19-2.19-21.19
					s-1.88-21.69,19.92-21.27C504.21,122.33,502.91,143.18,502.91,143.18z"/>
				<g>
					<path class="st17" d="M464.86,163.55c-3.84,3.32-11.93-9.82-8.21-13.36c3.72-3.54,6.35,2.22,6.35,2.22l0.75,4.15l1.12,5.59
						l0.29,1.25L464.86,163.55z"/>
					<g>
						<g>
							<path class="st20" d="M458.33,154.61c0,0,1.57-3.4,5.23,2.57"/>
						</g>
					</g>
				</g>
				<g>
					<path class="st17" d="M500.51,163.62c3.9,3.25,11.76-10.02,7.98-13.5c-3.78-3.48-6.31,2.33-6.31,2.33l-0.68,4.16l-1.03,5.6
						l-0.27,1.26L500.51,163.62z"/>
					<g>
						<g>
							<path class="st20" d="M506.9,154.58c0,0-1.63-3.37-5.18,2.66"/>
						</g>
					</g>
				</g>
				<g>
					<g>
						<path class="st10" d="M475.05,150.28c0,1.11-0.9,2.01-2.01,2.01c-1.11,0-2.01-0.9-2.01-2.01c0-1.11,0.9-2.01,2.01-2.01
							C474.15,148.27,475.05,149.17,475.05,150.28z"/>
						<path class="st10" d="M493.66,150.28c0,1.11-0.9,2.01-2.01,2.01c-1.11,0-2.01-0.9-2.01-2.01c0-1.11,0.9-2.01,2.01-2.01
							C492.76,148.27,493.66,149.17,493.66,150.28z"/>
					</g>
					<path class="st18" d="M481.34,153.34l0,4.03c0,0.68,0.61,1.2,1.26,1.06l1.44-0.3"/>
					<path class="st10" d="M485.46,142.91l11.6,3c0,0-0.53-3.25-5.27-4.44C487.04,140.29,485.46,142.91,485.46,142.91z"/>
					<path class="st10" d="M478.25,142.91l-11.6,3c0,0,0.53-3.25,5.27-4.44C476.67,140.29,478.25,142.91,478.25,142.91z"/>
					<g>
						<path class="st10" d="M481.38,164.34c0.43-0.28,0.74-0.71,0.87-1.2c0.27-1,0.39-2.6-1.54-2.78
							c-2.83-0.27-7.56,5.17-11.71,2.06C469.01,162.42,472.97,169.78,481.38,164.34z"/>
						<path class="st10" d="M482.96,164.34c-0.42-0.28-0.73-0.71-0.87-1.2c-0.27-1-0.39-2.6,1.53-2.78
							c2.82-0.27,7.53,5.17,11.66,2.06C495.28,162.42,491.33,169.78,482.96,164.34z"/>
					</g>
				</g>
				<path class="st10" d="M502.41,117.47c-7.13-5.04-20.69-0.35-28.2,2.92c0.22-2.38-1.25-3.89-1.25-3.89
					c-12.89,3.95-11.27,11.3-10.37,13.64c-2.53,2.66-6,9.29,0.59,23.2c0,0,3.68-11.88,2.11-21.33c6.11,2.77,22.7,9.39,33.24,5.17
					c0.36,8.11,3.51,16.15,3.51,16.15c3.99-10.2,3.43-16.34,1.84-19.95C505.7,131.22,511.05,123.59,502.41,117.47z"/>
			</g>
			<g>
				<path class="st12" d="M501.5,434.04h40.54c-14.97-63.99-26.72-108.22-26.72-108.22l-1.85-19.07h-30.78l1.39,66.98L501.5,434.04z
					"/>
				<g>
					<path class="st12" d="M484.08,373.73l-1.39-66.98h-32.31c-24.18,36.19-10.49,100.49-10.49,100.49l3.68,26.79h40.51V373.73z"/>
					<polyline class="st13" points="484.08,373.73 484.08,354.75 493.23,340.57 					"/>
				</g>
			</g>
		</g>
		<g>
			<g>
				<path class="st4" d="M359.63,411.79c0,0,10.89-54.06,17.3-68.8c0.58-1.34,2.52-1.16,2.9,0.24c1.54,5.62,3.58,22.17,2.67,70.89
					l0.02,19.91h38.23l5.63-47.93c0,0,8.52-66.8-19.22-104.74h-55.6c0,0-28.35,41.24-32.09,98.2c-0.83,12.67-2.26,32.03-3.99,54.46
					h39.39L359.63,411.79z"/>
				<line class="st19" x1="367.4" y1="337.91" x2="380.43" y2="343.23"/>
			</g>
			<g>
				<g>
					<polygon class="st6" points="367.25,175.94 340.51,183.29 351.57,274.57 407.68,274.57 418.74,182.89 389.1,175.54 					"/>
					<rect x="351.57" y="274.57" class="st10" width="55.6" height="6.8"/>
				</g>
				<g>
					<g>
						<path class="st17" d="M393.1,241.68c0,0,22.91-9.19,35.19-2.78l1.16,14.75l-37.42,4.7L393.1,241.68z"/>
						<path class="st6" d="M442.06,271.42c0,0-37.2,4.47-67.35-11.35l25.54-7.73l31.55-5.31L442.06,271.42z"/>
					</g>
					<g>
						<path class="st6" d="M416.93,182.61c0,0,14.45,0.92,23.66,29.53c9.79,30.4,10.5,54.33,3.7,58.35
							c-6.79,4.01-15.22-4.85-23.86-29.33c-8.64-24.48-12.63-37.66-12.63-37.66L416.93,182.61z"/>
						<line class="st21" x1="413.97" y1="222.45" x2="416.19" y2="204.01"/>
					</g>
				</g>
				<g>
					<g>
						<path class="st6" d="M340.51,183.29c0,0-14.45,0.92-23.66,29.53c-9.79,30.4-10.5,54.33-3.7,58.35
							c6.79,4.01,16.24-4.85,24.88-29.33c8.64-24.48,11.61-37.66,11.61-37.66L340.51,183.29z"/>
						<line class="st21" x1="345.04" y1="220.69" x2="343.03" y2="204.01"/>
					</g>
					<g>
						<path class="st17" d="M352.49,241.79c0,0-10.38-10.76-27.52-16.35c-0.75-0.24-1.58-0.07-2.17,0.45l0,0
							c-1.2,1.06-0.92,3.01,0.53,3.69l10.33,4.83l-13.56,0.9c-2.23,0.15-3.96,2.14-3.64,4.35c0.28,1.95,1.6,4.5,5.36,7.46
							L352.49,241.79z"/>
						<g>
							<g>
								<path class="st6" d="M321.82,247.12c0,0,49.13-9.69,72.44-9.6l9.3,22.99c0,0-72.72,18.23-90.41,10.65L321.82,247.12z"/>
								<path class="st21" d="M352.49,241.79c0,0,30.88-4.82,41.77-4.26l1.31,3.25"/>
								<polyline class="st21" points="351.12,270.91 403.56,260.52 395.57,240.78 								"/>
							</g>
						</g>
					</g>
				</g>
			</g>
			<g>
				<path class="st10" d="M353.81,136.51l-10.97,14.32c0,0,39.46,30.31,71.91-2.14l-11.58-14.13L353.81,136.51z"/>
				<path class="st17" d="M389.04,174.83l-2.77-21.99c0,0-2.86,2.92-6.66,3.62c-3.8,0.71-7.47-1.51-7.52-1.54
					c-0.05-0.03-3.1-2.57-3.1-2.57l-1.67,22.78c0,0.27-0.03,0.54-0.07,0.8l12.02,26.12l9.83-26.52
					C389.07,175.3,389.04,175.07,389.04,174.83z"/>
				<path class="st10" d="M367.25,153.22c0,0,5.81,12.27,12.73,10.66c7.22-1.68,7.19-12.22,7.19-12.22L367.25,153.22z"/>
				<g>
					<path class="st10" d="M402.35,120.97c0,13.74-10.69,24.88-23.88,24.88c-13.19,0-23.88-11.14-23.88-24.88
						c0-13.74,10.69-23.09,23.88-23.09C391.66,97.89,402.35,107.23,402.35,120.97z"/>
				</g>
				<path class="st17" d="M398.21,122.25c0,8.57-1.19,15.96-2.38,21.2c-1.16,5.14-4.44,8.73-9.07,11.62l-0.84,0.53
					c-4.9,3.06-11.23,3.13-16.21,0.18h0c-5.02-2.97-8.53-6.89-9.61-12.4c-1.97-10.02-2.18-21.13-2.18-21.13s-1.87-21.62,19.86-21.2
					C399.5,101.47,398.21,122.25,398.21,122.25z"/>
				<g>
					<path class="st17" d="M360.27,142.56c-3.83,3.31-11.89-9.79-8.18-13.32c3.71-3.53,6.33,2.21,6.33,2.21l0.75,4.14l1.12,5.57
						l0.29,1.25L360.27,142.56z"/>
					<g>
						<g>
							<path class="st22" d="M353.75,133.66c0,0,1.57-3.39,5.21,2.56"/>
						</g>
					</g>
				</g>
				<g>
					<path class="st17" d="M395.81,142.64c3.89,3.24,11.72-9.99,7.96-13.46c-3.77-3.47-6.29,2.32-6.29,2.32l-0.68,4.15l-1.02,5.59
						l-0.27,1.25L395.81,142.64z"/>
					<g>
						<g>
							<path class="st22" d="M402.18,133.62c0,0-1.63-3.36-5.17,2.65"/>
						</g>
					</g>
				</g>
				<path class="st10" d="M398.81,116.96c-1.3-6.49-5.78-10.36-7.74-11.79c-2.44-2.41-5.66-4.31-9.94-4.86c0,0-13.57-3.06-19.19,7.2
					c-1.94,1.82-4.28,4.86-5.2,9.44c-1.68,8.38,1.44,12.03,1.44,12.03s5.34-7.22,6.68-16.07c4.11,3.4,12.44,7.66,28.26,7.44
					c2.47,5.21,5.45,8.86,5.45,8.86S400.49,125.34,398.81,116.96z"/>
				<g>
					<g>
						<path class="st10" d="M370.43,130.65c0,1.11-0.9,2-2,2c-1.11,0-2-0.9-2-2c0-1.11,0.9-2,2-2
							C369.53,128.65,370.43,129.55,370.43,130.65z"/>
						<path class="st10" d="M388.98,130.65c0,1.11-0.9,2-2,2c-1.11,0-2-0.9-2-2c0-1.11,0.9-2,2-2
							C388.08,128.65,388.98,129.55,388.98,130.65z"/>
					</g>
					<path class="st23" d="M376.22,135.02l0,2.7c0,0.68,0.61,1.19,1.25,1.06l1.44-0.3"/>
					<path class="st10" d="M386.08,121.38c0,0-5.87-0.48-5.93,1.91c0,0,0,1.62,5.12,1.94c5.12,0.32,6.45-0.05,6.92-1.57
						C392.67,122.13,388.83,121.4,386.08,121.38z"/>
					<path class="st10" d="M368.54,121.38c0,0,5.87-0.48,5.93,1.91c0,0,0,1.62-5.12,1.94c-5.12,0.32-6.45-0.05-6.92-1.57
						C361.95,122.13,365.79,121.4,368.54,121.38z"/>
					<path class="st23" d="M383.01,140.86c0,0-2.11,3.38-7.54,2.43"/>
				</g>
			</g>
		</g>
		<line class="st24" x1="110.28" y1="434.04" x2="625.56" y2="434.04"/>
	</g>
</g>
<g id="DESIGNED_BY_FREEPIK">
</g>
</svg>
