<svg width="250" height="175" viewBox="0 0 250 175" fill="none" xmlns="http://www.w3.org/2000/svg">
<path d="M200.73 69.7421L200.622 130.895L127.383 173.885L127.49 112.839L200.73 69.7421Z" fill="#F5BC6F"/>
<path d="M127.49 112.839L127.382 173.885L53.6052 130.895L53.8203 69.7421L127.49 112.839Z" fill="#FFCF7A"/>
<path d="M200.725 69.7418L127.485 112.839L53.8157 69.7418L127.055 26.7516L200.725 69.7418Z" fill="#FCD495"/>
<path d="M162.122 90.9965L129.401 72.6624L159.183 55.2871L191.904 73.6211L162.122 90.9965Z" fill="#F1F2F2"/>
<path d="M175.632 79.243L174.253 78.7571L183.063 73.617L184.442 74.1029L175.632 79.243Z" fill="#6D6E71"/>
<path d="M172.095 77.4354L170.08 76.0296L179.681 70.4283L181.794 71.7764L172.095 77.4354Z" fill="#6D6E71"/>
<path d="M169.456 75.1035L167.432 73.703L176.25 68.5584L178.183 70.0115L169.456 75.1035Z" fill="#6D6E71"/>
<path d="M163.944 74.4476L161.896 73.0614L172.618 66.8062L174.573 68.2465L163.944 74.4476Z" fill="#6D6E71"/>
<path d="M162.144 71.626L160.211 70.1729L168.939 65.0809L170.962 66.4815L162.144 71.626Z" fill="#6D6E71"/>
<path d="M154.074 68.5913L152.027 67.2049L162.748 60.9498L164.703 62.39L154.074 68.5913Z" fill="#6D6E71"/>
<path d="M152.365 65.7173L150.342 64.3166L159.07 59.2245L161.093 60.6251L152.365 65.7173Z" fill="#6D6E71"/>
<path d="M162.458 86.9292L136.863 72.1805L137.666 71.7118L163.261 86.4605L162.458 86.9292Z" fill="#6D6E71"/>
<path d="M166.251 84.7157L139.751 70.4952L140.612 69.9931L167.112 84.2135L166.251 84.7157Z" fill="#6D6E71"/>
<path d="M170.102 82.4691L143.603 68.2485L144.463 67.7463L170.963 81.9668L170.102 82.4691Z" fill="#6D6E71"/>
<path d="M79.1891 131.074C78.2215 130.415 77.4196 129.535 76.848 128.503C76.2764 127.471 75.951 126.317 75.8982 125.134V120.382L82.5861 124.378V128.698C82.3738 131.29 80.8876 132.154 79.1891 131.074Z" fill="#CF9975"/>
<path d="M87.4755 132.745C87.235 132.615 86.9706 132.548 86.7027 132.548C86.4347 132.548 86.1704 132.615 85.9299 132.745C85.9299 128.668 88.8149 126.97 92.112 129.121C93.8383 130.381 95.2823 132.055 96.3353 134.016C97.3882 135.978 98.0227 138.176 98.1911 140.446C97.7756 139.613 97.1725 138.911 96.4395 138.407C95.4092 137.728 94.5849 138.407 94.1727 138.407C93.8542 137.052 93.0814 135.879 92.009 135.123C90.9787 134.444 90.1544 135.123 89.7422 135.123C89.1926 134.123 88.4101 133.302 87.4755 132.745Z" fill="#CF9975"/>
<path d="M63.6368 123.989L62.9077 119.956L59.6789 119.268L60.3038 120.054L59.2622 121.431C59.207 121.539 59.1782 121.656 59.1782 121.776C59.1782 121.895 59.207 122.013 59.2622 122.12L60.8246 125.956L63.0119 123.103L63.6368 123.989Z" fill="#CF9975"/>
<path d="M63.1912 123.726L61.4077 126.513L65.8663 129.299V125.352L63.1912 123.726Z" fill="#CF9975"/>
<path d="M69.1173 127.982V127.07L66.981 128.286L69.1173 132.339V131.427L71.068 132.643L72.5542 130.515L69.1173 127.982Z" fill="#CF9975"/>
<path d="M73.6688 129.299L71.6872 123.726L69.2102 124.042L70.3001 127.196L73.6688 129.299Z" fill="#CF9975"/>
<path d="M69.2531 119.199L68.0741 116.226C68.1576 116.014 68.1576 115.778 68.0741 115.566L64.7517 113.694L66.8953 119.419H66.2522L69.5747 122.611L70.3249 118.978L69.2531 119.199Z" fill="#CF9975"/>
<path d="M64.3297 113.694L62.5222 116.927L64.7816 120.382L65.8662 118.599L64.3297 113.694Z" fill="#CF9975"/>
<path d="M158.296 45.7007L168.414 51.6292L93.8189 94.7453L83.7007 88.8168L158.296 45.7007Z" fill="#CF9975"/>
<path d="M83.7007 112.112L93.7325 118.153V94.0985L83.7007 88.0574V112.112Z" fill="#CF9975"/>
<path fill-rule="evenodd" clip-rule="evenodd" d="M213 87.5C213 135.825 173.825 175 125.5 175C77.1751 175 38 135.825 38 87.5C38 39.1751 77.1751 0 125.5 0C173.825 0 213 39.1751 213 87.5ZM204.083 88.0573C204.083 131.15 169.15 166.083 126.057 166.083C104.257 166.083 84.544 157.142 70.3866 142.727L185.704 37.7537C197.171 51.3365 204.083 68.8898 204.083 88.0573ZM180.359 32.0279C166.313 18.4126 147.164 10.0318 126.057 10.0318C82.965 10.0318 48.0318 44.965 48.0318 88.0573C48.0318 106.531 54.4523 123.506 65.1836 136.871L180.359 32.0279Z" fill="#FF0000"/>
<path d="M86.8969 68.5137L79.2508 72.7033L87.7625 75.6468L83.7802 77.8289L62.9514 70.6261L75.5356 63.7306L79.0119 64.9327L70.41 69.6461L75.7888 71.5062L83.435 67.3165L86.8969 68.5137ZM103.697 63.0799L96.7146 66.9059L99.6788 69.1173L95.4442 71.4377L81.8102 60.2924L85.5005 58.2703L113.564 61.509L109.329 63.8293L103.697 63.0799ZM94.3136 65.1146L99.1455 62.4669L88.9198 61.1019L94.3136 65.1146ZM114.02 53.7925L114.352 55.7583L120.303 57.8163L116.321 59.9984L95.492 52.7955L99.4744 50.6134L108.916 53.8784L108.079 52.0229L106.151 46.9547L111.05 44.2707L113.442 51.232L132.078 51.3645L127.339 53.9612L114.02 53.7925ZM137.131 40.5278L129.485 44.7175L135.064 46.6468L144.038 41.7298L147.485 42.922L134.529 50.0212L113.7 42.8183L126.63 35.7337L130.106 36.9358L121.159 41.8383L126.123 43.5549L133.769 39.3652L137.131 40.5278Z" fill="#7C0000"/>
</svg>
