<svg width="250" height="175" viewBox="0 0 250 175" fill="none" xmlns="http://www.w3.org/2000/svg">
<path d="M203.529 114.039C187.284 152.242 144.01 173.642 106.483 167.87C100.377 166.93 83.6353 164.132 68.8136 150.929C40.2781 125.518 34.176 75.1978 57.1927 39.7381C73.9452 13.9252 103.974 -0.706176 132.508 0.0262437C138.654 0.183686 162.208 1.15542 182.91 18.2026C185.951 20.7065 192.657 26.6566 198.701 36.0962C212.894 58.2615 214.113 89.1427 203.529 114.039Z" fill="url(#paint0_linear)"/>
<path d="M79.0337 2.06487C73.6448 10.5799 44.3078 61.4173 87.1309 97.4771C87.1309 97.4771 115.069 68.9751 80.5099 2.12658C80.4403 1.99425 80.3372 1.8825 80.2108 1.80252C80.0843 1.72255 79.9391 1.67716 79.7896 1.67091C79.6401 1.66466 79.4915 1.69777 79.3589 1.76691C79.2262 1.83605 79.1141 1.9388 79.0337 2.06487V2.06487Z" fill="#91B3FA"/>
<path d="M80.1094 12.2096C79.605 15.3824 79.1686 18.5703 78.7587 21.7582C78.3488 24.9461 77.9806 28.1415 77.6438 31.3395C76.9748 37.7341 76.4495 44.1464 76.1216 50.5638C75.7937 56.9811 75.6632 63.411 75.8795 69.8296C75.977 73.0381 76.1939 76.2381 76.5302 79.4298C76.8714 82.6158 77.338 85.7904 78.0537 88.904C78.0744 89.0095 78.0533 89.1188 77.9947 89.2089C77.9362 89.2991 77.8448 89.3629 77.7399 89.387C77.6351 89.411 77.525 89.3934 77.4329 89.3378C77.3408 89.2822 77.274 89.1931 77.2466 89.0892V89.0892C76.5403 85.9259 76.0901 82.7203 75.7666 79.5091C75.4431 76.298 75.2527 73.0748 75.1739 69.8523C74.9967 63.4072 75.1739 56.9616 75.5358 50.5329C75.8978 44.1042 76.4703 37.6856 77.1791 31.2897C77.5335 28.0905 77.9253 24.8959 78.3545 21.7059C78.782 18.5149 79.2417 15.3308 79.7639 12.1542C79.7712 12.1084 79.7965 12.0673 79.8342 12.0401C79.8718 12.0129 79.9188 12.0017 79.9647 12.009C80.0106 12.0164 80.0517 12.0417 80.079 12.0793C80.1062 12.1169 80.1174 12.1638 80.1101 12.2096H80.1094Z" fill="#BDD0FB"/>
<path d="M41.6372 11.4559C38.5783 23.8409 23.725 96.6394 89.6242 122.83C89.6242 122.83 111.757 77.4183 43.4407 10.9389C43.3042 10.806 43.1351 10.7116 42.9503 10.6652C42.7655 10.6188 42.5718 10.6219 42.3886 10.6744C42.2055 10.7269 42.0395 10.8269 41.9076 10.9641C41.7756 11.1014 41.6823 11.271 41.6372 11.4559V11.4559Z" fill="#BDD0FB"/>
<path d="M46.9568 23.2288C47.438 27.4836 48.0982 31.7244 48.841 35.9458C49.5838 40.1671 50.437 44.3702 51.3898 48.5499C53.2992 56.9063 55.6046 65.1758 58.4441 73.2627C61.2836 81.3495 64.6635 89.25 68.8593 96.7102C69.9017 98.5787 71.0153 100.406 72.1743 102.202C73.3333 103.998 74.5553 105.752 75.8455 107.455C78.4011 110.875 81.2693 114.05 84.4132 116.939H84.4163C84.4973 117.013 84.5454 117.116 84.5502 117.226C84.555 117.335 84.516 117.442 84.4419 117.523C84.4051 117.563 84.3609 117.596 84.3116 117.618C84.2623 117.641 84.209 117.654 84.1547 117.657C84.045 117.662 83.9379 117.623 83.857 117.549V117.549C80.6876 114.611 77.7987 111.385 75.2275 107.913C73.9336 106.189 72.7075 104.417 71.5494 102.598C70.3904 100.783 69.2793 98.9377 68.237 97.0559C64.0506 89.529 60.7034 81.5718 57.8841 73.456C55.0648 65.3402 52.8023 57.0335 50.9295 48.6526C49.9946 44.4617 49.163 40.2494 48.4349 36.0157C47.7104 31.783 47.0697 27.5384 46.6062 23.2641C46.6038 23.2412 46.6058 23.2181 46.6123 23.196C46.6187 23.174 46.6295 23.1534 46.6439 23.1355C46.6584 23.1175 46.6762 23.1026 46.6964 23.0916C46.7166 23.0805 46.7388 23.0736 46.7617 23.0711C46.7846 23.0686 46.8077 23.0707 46.8298 23.0771C46.852 23.0836 46.8726 23.0943 46.8905 23.1087C46.9085 23.1231 46.9234 23.141 46.9344 23.1611C46.9455 23.1813 46.9525 23.2035 46.955 23.2263L46.9568 23.2288Z" fill="url(#paint1_linear)"/>
<g opacity="0.94">
<path opacity="0.94" d="M38.0023 80.5849C38.5982 86.899 43.4505 123.451 75.9549 123.736C75.9549 123.736 78.4829 98.6083 38.7004 80.0188C38.3548 79.8544 37.9664 80.1724 38.0023 80.5849Z" fill="#91B3FA"/>
<path opacity="0.94" d="M42.205 85.0704C43.0581 86.8715 43.9832 88.6462 44.9328 90.402C45.8825 92.1578 46.8763 93.8935 47.901 95.6077C48.9257 97.3219 49.992 99.0084 51.093 100.677C52.194 102.345 53.3309 103.984 54.5208 105.586C55.7107 107.188 56.9296 108.767 58.2191 110.288C59.5087 111.808 60.8303 113.301 62.2391 114.707C62.5827 115.068 62.9421 115.411 63.3022 115.755C63.6623 116.098 64.0129 116.451 64.3887 116.777L65.4991 117.77L66.6455 118.721C68.1839 119.972 69.8113 121.108 71.5149 122.122H71.5199C71.5667 122.148 71.6077 122.184 71.6407 122.226C71.6736 122.268 71.6978 122.317 71.7117 122.369C71.7256 122.42 71.7291 122.474 71.7218 122.527C71.7146 122.581 71.6968 122.632 71.6695 122.678C71.6422 122.724 71.6059 122.764 71.5628 122.796C71.5198 122.828 71.4707 122.851 71.4186 122.864C71.3665 122.877 71.3124 122.879 71.2594 122.87C71.2064 122.862 71.1556 122.843 71.11 122.815H71.1062C67.6324 120.719 64.5432 118.077 61.7459 115.189C60.336 113.753 59.0155 112.236 57.7336 110.691C56.4516 109.145 55.2352 107.546 54.0567 105.923C52.8781 104.3 51.75 102.641 50.661 100.958C49.572 99.2755 48.5171 97.5682 47.5081 95.8394C46.4992 94.1107 45.5193 92.3606 44.5816 90.5903C43.6439 88.8201 42.7378 87.0347 41.8954 85.2115C41.8777 85.1707 41.8767 85.1247 41.8925 85.0832C41.9083 85.0416 41.9397 85.0079 41.98 84.9891C42.0203 84.9704 42.0664 84.968 42.1084 84.9826C42.1504 84.9972 42.185 85.0276 42.205 85.0673V85.0704Z" fill="#BDD0FB"/>
</g>
<path d="M119.936 143.511L116.506 167.152H156.302L151.119 143.511H119.936Z" fill="url(#paint2_linear)"/>
<path d="M53.0857 67.8136V138.179C53.0854 140.963 54.1739 143.636 56.1191 145.63C58.0643 147.623 60.7122 148.779 63.4984 148.851C89.2323 149.513 179.238 151.118 203.739 150.76C205.765 150.729 207.702 149.919 209.144 148.497C210.586 147.075 211.424 145.152 211.481 143.129C211.953 126.782 212.721 87.473 209.882 69.2236C209.593 67.3608 208.661 65.6574 207.248 64.4082C205.834 63.1589 204.028 62.4424 202.142 62.3825C180.58 61.6935 85.1695 59.5057 60.6816 60.0523C58.6509 60.0975 56.7186 60.9351 55.2988 62.3858C53.879 63.8366 53.0845 65.785 53.0857 67.8136V67.8136Z" fill="url(#paint3_linear)"/>
<path d="M57.5066 67.4713V134.324C57.5066 135.948 58.1464 137.507 59.2878 138.664C60.4292 139.821 61.9806 140.484 63.6068 140.508L200.211 142.193C201.008 142.205 201.8 142.059 202.54 141.763C203.28 141.468 203.954 141.028 204.523 140.471C205.092 139.913 205.544 139.248 205.854 138.514C206.164 137.781 206.325 136.993 206.328 136.197L206.556 69.9419C206.56 68.7901 206.112 67.6825 205.308 66.8567C204.504 66.0309 203.408 65.5527 202.256 65.5247L62.3986 62.7033C61.7619 62.6878 61.1284 62.7996 60.5356 63.0323C59.9428 63.2649 59.4025 63.6136 58.9467 64.0579C58.4909 64.5022 58.1286 65.0331 57.8813 65.6193C57.634 66.2055 57.5066 66.8352 57.5066 67.4713Z" fill="url(#paint4_linear)"/>
<path d="M207.357 144.953H207.353L57.5032 142.403C57.4495 142.4 57.3993 142.376 57.3629 142.336C57.3265 142.296 57.3068 142.244 57.3076 142.191C57.3085 142.137 57.33 142.086 57.3677 142.047C57.4054 142.009 57.4563 141.987 57.5101 141.985L207.361 144.535C207.414 144.538 207.464 144.562 207.501 144.601C207.538 144.64 207.558 144.692 207.557 144.746C207.557 144.799 207.536 144.851 207.498 144.889C207.461 144.928 207.41 144.951 207.357 144.953V144.953Z" fill="#91B3FA"/>
<path d="M133.913 148.068C133.563 148.068 133.221 147.965 132.93 147.771C132.638 147.578 132.411 147.302 132.277 146.979C132.142 146.657 132.107 146.301 132.175 145.958C132.243 145.616 132.411 145.301 132.658 145.053C132.905 144.806 133.22 144.637 133.564 144.569C133.907 144.5 134.263 144.535 134.586 144.669C134.909 144.802 135.186 145.029 135.38 145.319C135.575 145.61 135.679 145.952 135.679 146.301C135.678 146.769 135.492 147.218 135.161 147.549C134.83 147.88 134.381 148.066 133.913 148.068V148.068ZM133.913 144.953C133.646 144.953 133.385 145.032 133.163 145.18C132.941 145.329 132.767 145.539 132.665 145.786C132.563 146.032 132.536 146.303 132.588 146.565C132.64 146.826 132.769 147.067 132.958 147.255C133.147 147.444 133.387 147.572 133.649 147.624C133.911 147.676 134.183 147.65 134.429 147.547C134.676 147.445 134.887 147.272 135.035 147.05C135.184 146.829 135.263 146.568 135.262 146.301C135.262 145.944 135.12 145.601 134.867 145.349C134.614 145.096 134.271 144.954 133.913 144.953V144.953Z" fill="#91B3FA"/>
<path d="M164.875 173.438H106.63C105.048 173.438 103.859 172.313 104.165 171.104L104.913 168.152C105.137 167.265 106.116 166.613 107.277 166.578L163.424 164.828C164.638 164.79 165.712 165.433 165.977 166.355L167.324 171.057C167.676 172.279 166.483 173.438 164.875 173.438Z" fill="url(#paint5_linear)"/>
<path d="M137.984 167.397C137.93 167.394 137.88 167.371 137.843 167.332C137.806 167.293 137.785 167.241 137.785 167.188C137.785 167.134 137.806 167.082 137.843 167.043C137.88 167.004 137.93 166.981 137.984 166.978L140.39 166.943C140.445 166.943 140.499 166.964 140.539 167.003C140.578 167.041 140.601 167.094 140.603 167.149C140.603 167.177 140.598 167.204 140.588 167.23C140.578 167.255 140.563 167.279 140.543 167.298C140.524 167.318 140.501 167.334 140.476 167.345C140.451 167.355 140.424 167.361 140.396 167.362L137.99 167.397H137.984Z" fill="#91B3FA"/>
<path d="M106.322 171.831C106.311 171.831 106.299 171.831 106.288 171.831C106.234 171.822 106.185 171.792 106.152 171.747C106.12 171.702 106.106 171.646 106.115 171.591L106.458 169.444C106.547 168.881 106.833 168.368 107.264 167.996C107.695 167.623 108.244 167.414 108.814 167.407L134.335 167.034C134.388 167.036 134.439 167.058 134.477 167.097C134.514 167.135 134.536 167.186 134.537 167.24C134.537 167.294 134.518 167.346 134.481 167.385C134.445 167.425 134.394 167.449 134.341 167.452L108.82 167.825C108.349 167.831 107.894 168.004 107.538 168.312C107.181 168.62 106.945 169.045 106.872 169.51L106.529 171.657C106.52 171.705 106.495 171.75 106.457 171.781C106.419 171.813 106.371 171.831 106.322 171.831Z" fill="#91B3FA"/>
<path d="M167.031 110.658C162.541 122.023 155.854 129.561 146.97 133.272C138.061 136.971 127.552 136.436 115.441 131.668C103.584 126.998 95.6683 120.38 91.6948 111.814C87.7213 103.248 87.9798 93.2782 92.4704 81.9054L106.793 45.6377L130.412 54.9998L116.838 89.3751C114.413 95.5149 113.799 100.423 114.996 104.1C116.201 107.779 119.04 110.5 123.513 112.263C128.311 114.152 132.333 114.146 135.577 112.244C138.821 110.342 141.678 106.258 144.147 99.993L157.652 65.7966L181.08 75.0825L167.031 110.658Z" fill="url(#paint6_linear)"/>
<path d="M167.182 110.286C162.889 121.157 156.363 128.353 147.563 131.78C138.763 135.206 128.323 134.562 116.189 129.783C104.331 125.112 96.3635 118.628 92.2854 110.33C88.2106 102.028 88.3386 92.3776 92.6322 81.5066L106.798 45.6389L130.418 55.0016L116.968 89.06C114.649 94.932 114.091 99.6754 115.344 103.23C116.598 106.784 119.443 109.461 123.927 111.228C128.725 113.117 132.722 113.173 135.917 111.396C139.116 109.616 141.912 105.665 144.277 99.6823L157.657 65.8009L181.085 75.0874L167.182 110.286Z" fill="url(#paint7_linear)"/>
<path d="M136.283 38.1453L114.017 29.3745C113.634 29.224 113.217 29.3714 113.066 29.7524L106.483 46.4273L130.122 55.7391L136.707 39.0654C136.856 38.6825 136.666 38.2964 136.283 38.1453Z" fill="url(#paint8_linear)"/>
<path d="M187.027 58.1338L164.893 49.4152C164.51 49.2641 164.118 49.4215 163.967 49.8038L157.383 66.4776L180.828 75.7145L187.415 59.0407C187.566 58.6577 187.41 58.2843 187.027 58.1338Z" fill="url(#paint9_linear)"/>
<path d="M95.1329 84.6448C94.9506 84.573 94.81 84.3469 94.8807 84.1649L108.067 50.7753C108.139 50.5933 108.396 50.5234 108.578 50.5958C108.76 50.6682 108.902 50.8937 108.83 51.0757L95.6449 84.4653C95.5743 84.6473 95.3164 84.7166 95.1329 84.6448Z" fill="url(#paint10_linear)"/>
<path d="M140.975 131.535C140.899 131.505 140.835 131.449 140.795 131.377C140.755 131.305 140.741 131.222 140.756 131.141C140.771 131.06 140.814 130.986 140.877 130.934C140.94 130.881 141.019 130.851 141.102 130.85C149.921 130.692 156.406 123.445 160.293 117.393C164.531 110.797 166.683 104.158 166.704 104.092C166.733 104.003 166.796 103.928 166.88 103.885C166.964 103.842 167.061 103.834 167.151 103.862C167.24 103.891 167.315 103.954 167.358 104.038C167.401 104.121 167.41 104.219 167.381 104.308C167.359 104.376 165.178 111.103 160.891 117.777C158.369 121.707 155.614 124.855 152.711 127.132C149.059 129.997 145.157 131.487 141.114 131.559C141.067 131.561 141.02 131.553 140.975 131.535V131.535Z" fill="url(#paint11_linear)"/>
<path d="M135.58 10.8866L127.2 18.2907L130.798 19.7165L126.834 26.13L137.812 19.8065L133.102 17.4903L135.58 10.8866Z" fill="#91B3FA"/>
<path d="M146.667 21.5527L138.092 24.4881L140.351 26.6652L135.346 30.2989L145.557 28.9594L142.751 25.7646L146.667 21.5527Z" fill="#91B3FA"/>
<path d="M116.004 10.3339L114.35 19.2349L117.359 18.34L118.069 24.479L121.918 14.9393L117.753 15.8096L116.004 10.3339Z" fill="#91B3FA"/>
<path d="M186.286 30.9856L177.925 38.3967L181.532 39.8263L177.573 46.2411L188.535 39.9119L183.808 37.5887L186.286 30.9856Z" fill="#91B3FA"/>
<path d="M197.411 41.6663L188.835 44.6016L191.094 46.7786L186.089 50.4124L196.3 49.0729L193.494 45.8781L197.411 41.6663Z" fill="#91B3FA"/>
<path d="M166.748 30.4465L165.094 39.3483L168.102 38.4534L168.812 44.5918L172.661 35.052L168.497 35.923L166.748 30.4465Z" fill="#91B3FA"/>
<path d="M189.909 121.648C190.153 127.919 190.085 164.472 155.731 170.568C155.731 170.568 149.574 146.494 189.093 121.221C189.172 121.171 189.262 121.142 189.356 121.138C189.449 121.135 189.542 121.155 189.624 121.199C189.707 121.242 189.777 121.306 189.827 121.385C189.877 121.464 189.905 121.555 189.909 121.648V121.648Z" fill="#91B3FA"/>
<path d="M186.391 126.862C185.746 128.877 185.016 130.861 184.25 132.832C183.484 134.802 182.666 136.752 181.801 138.681C180.936 140.611 180.021 142.518 179.058 144.4C178.813 144.869 178.578 145.345 178.325 145.808L177.572 147.204C177.053 148.126 176.542 149.052 175.996 149.958C175.465 150.874 174.894 151.766 174.332 152.666L173.459 153.993C173.172 154.439 172.858 154.865 172.559 155.302C171.341 157.035 170.061 158.73 168.668 160.331L168.151 160.936L167.612 161.523L167.073 162.109L166.804 162.403L166.523 162.685L165.396 163.812L164.219 164.89C162.627 166.309 160.912 167.584 159.095 168.702C159.059 168.725 159.018 168.74 158.975 168.746C158.933 168.753 158.89 168.751 158.848 168.741C158.806 168.731 158.767 168.713 158.732 168.688C158.697 168.663 158.668 168.631 158.646 168.594C158.623 168.558 158.609 168.517 158.602 168.475C158.595 168.432 158.597 168.389 158.608 168.347C158.618 168.306 158.636 168.266 158.662 168.232C158.687 168.197 158.719 168.168 158.756 168.146V168.146H158.76C160.552 167.062 162.244 165.822 163.817 164.44L164.985 163.387L166.105 162.282L166.385 162.005L166.654 161.717L167.19 161.142L167.728 160.566L168.244 159.97C169.635 158.396 170.917 156.724 172.139 155.012C172.44 154.58 172.755 154.158 173.044 153.718L173.921 152.406C174.489 151.518 175.061 150.635 175.595 149.728C176.147 148.83 176.663 147.912 177.186 146.998L177.943 145.612C178.198 145.151 178.436 144.681 178.683 144.216C179.657 142.347 180.582 140.454 181.458 138.536C182.334 136.617 183.162 134.679 183.944 132.72C184.722 130.763 185.467 128.786 186.122 126.786C186.133 126.751 186.158 126.722 186.19 126.706C186.223 126.689 186.261 126.686 186.296 126.697C186.331 126.709 186.36 126.733 186.376 126.766C186.393 126.798 186.396 126.836 186.385 126.871L186.391 126.862Z" fill="#BDD0FB"/>
<path d="M190.224 152.088C188.554 156.278 177.927 180.247 155.695 173.953C155.695 173.953 158.998 156.307 189.861 151.562C190.133 151.522 190.335 151.813 190.224 152.088Z" fill="#BDD0FB"/>
<path d="M186.66 154.482C185.721 155.558 184.745 156.595 183.752 157.618C182.76 158.641 181.742 159.639 180.706 160.618C179.671 161.597 178.611 162.551 177.531 163.483C176.451 164.414 175.351 165.324 174.222 166.196C173.092 167.068 171.945 167.919 170.759 168.718C169.574 169.517 168.37 170.292 167.121 170.99C164.634 172.404 161.995 173.594 159.201 174.333C159.118 174.355 159.029 174.343 158.954 174.3C158.879 174.256 158.825 174.185 158.802 174.102C158.78 174.018 158.792 173.929 158.836 173.854C158.879 173.78 158.951 173.725 159.034 173.703V173.703H159.04C161.765 173.015 164.374 171.877 166.846 170.506C168.088 169.828 169.29 169.076 170.472 168.297C171.654 167.517 172.805 166.686 173.937 165.831C175.068 164.975 176.174 164.084 177.258 163.168C178.343 162.252 179.408 161.313 180.452 160.35C181.495 159.387 182.518 158.401 183.519 157.394C184.521 156.386 185.506 155.36 186.449 154.303C186.473 154.277 186.507 154.261 186.543 154.259C186.579 154.257 186.615 154.269 186.642 154.293C186.669 154.317 186.686 154.35 186.689 154.386C186.691 154.422 186.68 154.458 186.656 154.485L186.66 154.482Z" fill="url(#paint12_linear)"/>
<defs>
<linearGradient id="paint0_linear" x1="224.888" y1="171.087" x2="99.3299" y2="61.0822" gradientUnits="userSpaceOnUse">
<stop stop-color="#DAE3FE"/>
<stop offset="1" stop-color="#E9EFFD"/>
</linearGradient>
<linearGradient id="paint1_linear" x1="5222.36" y1="105706" x2="28058.3" y2="105706" gradientUnits="userSpaceOnUse">
<stop stop-color="#DAE3FE"/>
<stop offset="1" stop-color="#E9EFFD"/>
</linearGradient>
<linearGradient id="paint2_linear" x1="136.052" y1="130.897" x2="136.895" y2="217.885" gradientUnits="userSpaceOnUse">
<stop stop-color="#09005D"/>
<stop offset="1" stop-color="#1A0F91"/>
</linearGradient>
<linearGradient id="paint3_linear" x1="232642" y1="-15541" x2="235081" y2="244610" gradientUnits="userSpaceOnUse">
<stop stop-color="#09005D"/>
<stop offset="1" stop-color="#1A0F91"/>
</linearGradient>
<linearGradient id="paint4_linear" x1="89.0418" y1="143.228" x2="250.358" y2="-11.953" gradientUnits="userSpaceOnUse">
<stop stop-color="#FEBBBA"/>
<stop offset="1" stop-color="#FF928E"/>
</linearGradient>
<linearGradient id="paint5_linear" x1="97055.6" y1="32915.1" x2="97079.2" y2="22402.8" gradientUnits="userSpaceOnUse">
<stop stop-color="#09005D"/>
<stop offset="1" stop-color="#1A0F91"/>
</linearGradient>
<linearGradient id="paint6_linear" x1="115.83" y1="122.097" x2="158.867" y2="32.5325" gradientUnits="userSpaceOnUse">
<stop stop-color="#E1473D"/>
<stop offset="1" stop-color="#E9605A"/>
</linearGradient>
<linearGradient id="paint7_linear" x1="149.942" y1="53.892" x2="111.965" y2="125.719" gradientUnits="userSpaceOnUse">
<stop stop-color="#E1473D"/>
<stop offset="0.55" stop-color="#E5554D"/>
<stop offset="1" stop-color="#E9605A"/>
</linearGradient>
<linearGradient id="paint8_linear" x1="39.6729" y1="138.774" x2="179.687" y2="-25.8214" gradientUnits="userSpaceOnUse">
<stop stop-color="#4F52FF"/>
<stop offset="1" stop-color="#4042E2"/>
</linearGradient>
<linearGradient id="paint9_linear" x1="12280.8" y1="68107.1" x2="58874.4" y2="-13203.8" gradientUnits="userSpaceOnUse">
<stop stop-color="#4F52FF"/>
<stop offset="1" stop-color="#4042E2"/>
</linearGradient>
<linearGradient id="paint10_linear" x1="12707.4" y1="36670.5" x2="15809.9" y2="36670.5" gradientUnits="userSpaceOnUse">
<stop stop-color="#FEBBBA"/>
<stop offset="1" stop-color="#FF928E"/>
</linearGradient>
<linearGradient id="paint11_linear" x1="43560.9" y1="51901.2" x2="54820.8" y2="51901.2" gradientUnits="userSpaceOnUse">
<stop stop-color="#FEBBBA"/>
<stop offset="1" stop-color="#FF928E"/>
</linearGradient>
<linearGradient id="paint12_linear" x1="68155.2" y1="36015.9" x2="60059.5" y2="66751.1" gradientUnits="userSpaceOnUse">
<stop stop-color="#DAE3FE"/>
<stop offset="1" stop-color="#E9EFFD"/>
</linearGradient>
</defs>
</svg>
