<svg width="766" height="701" viewBox="0 0 766 701" fill="none" xmlns="http://www.w3.org/2000/svg">
<path d="M491.928 491.679C582.489 401.163 582.489 254.409 491.928 163.893C401.366 73.3774 254.537 73.3774 163.976 163.893C73.4145 254.409 73.4145 401.163 163.976 491.679C254.537 582.194 401.366 582.194 491.928 491.679Z" fill="#C9EAF7"/>
<path d="M31.0549 246.601H157.054C155.267 236.024 139.694 228.804 129.744 232.822C129.605 226.756 127.587 221.476 122.551 218.089C120.005 216.412 117.1 215.357 114.071 215.009C111.042 214.661 107.974 215.031 105.114 216.087C103.312 203.663 89.8031 193.687 77.2802 194.795C64.7573 195.904 54.206 207.774 54.6219 220.398C47.9215 218.658 39.7115 221.937 34.5976 226.649C29.4837 231.36 29.761 239.796 31.0549 246.601Z" fill="#EEF8FD"/>
<path d="M590.343 539.878C674.878 539.878 743.406 471.384 743.406 386.893C743.406 302.401 674.878 233.907 590.343 233.907C505.809 233.907 437.281 302.401 437.281 386.893C437.281 471.384 505.809 539.878 590.343 539.878Z" fill="#C9EAF7"/>
<path d="M418.929 701C583.467 701 716.851 693.783 716.851 684.88C716.851 675.977 583.467 668.76 418.929 668.76C254.391 668.76 121.006 675.977 121.006 684.88C121.006 693.783 254.391 701 418.929 701Z" fill="#C9EAF7"/>
<path d="M514.405 167.368H337.267C339.777 152.496 361.681 142.335 375.667 148C375.867 139.471 378.748 132.035 385.787 127.278C389.366 124.917 393.451 123.431 397.711 122.942C401.972 122.453 406.287 122.973 410.309 124.46C412.835 106.986 431.874 92.9611 449.434 94.5315C466.993 96.1018 481.842 112.883 481.257 130.511C490.699 128.078 502.221 132.651 509.337 139.302C516.453 145.953 516.238 157.792 514.405 167.368Z" fill="#EEF8FD"/>
<path d="M592.175 198.436H718.174C716.48 187.875 700.815 180.623 690.88 184.672C690.726 178.606 688.723 173.31 683.671 169.939C681.128 168.262 678.226 167.207 675.2 166.859C672.173 166.512 669.107 166.881 666.25 167.937C664.448 155.498 650.939 145.537 638.416 146.645C625.893 147.754 615.311 159.685 615.758 172.233C609.042 170.508 600.847 173.772 595.734 178.483C590.62 183.194 590.881 191.631 592.175 198.436Z" fill="#EEF8FD"/>
<path d="M519.125 561.782C532.021 534.296 541.088 504.2 561.084 481.342C564.078 477.862 568.046 474.383 572.727 475.775C574.135 476.247 575.401 477.065 576.41 478.153C577.42 479.241 578.14 480.565 578.505 482.003C579.985 487.1 578.14 492.093 576.312 496.842C567.82 518.877 558.845 540.715 549.389 562.356C546.988 567.871 555.132 571.715 557.795 566.305C557.987 565.905 558.178 565.505 558.352 565.105L603.027 469.025C607.656 459.057 612.79 448.48 623.441 444.044C625.134 443.29 626.988 442.969 628.835 443.112C630.683 443.255 632.466 443.856 634.022 444.862C640.479 449.28 638.251 458.135 635.554 464.885C625.854 489.158 615.029 512.933 603.079 536.21C601.165 539.932 599.163 543.934 599.598 548.109C600.033 552.284 604.158 556.285 608.143 555.067C620.43 538.593 628.471 519.422 637.938 501.139C647.405 482.855 658.822 464.902 675.843 453.282C678.819 451.246 682.352 449.315 685.989 451.298C687.117 451.968 688.07 452.896 688.769 454.006C689.468 455.116 689.893 456.376 690.009 457.683C690.601 462.519 688.164 466.833 685.797 470.904C677.189 485.749 668.562 500.588 659.919 515.421C659.031 516.969 658.091 518.692 659.101 520.483C659.555 521.176 660.21 521.714 660.978 522.025C661.746 522.335 662.591 522.405 663.399 522.223C666.393 521.701 668.203 519.213 669.891 516.9C680.696 502.093 693.235 488.632 707.239 476.801C708.667 475.538 710.368 474.62 712.209 474.119C714.05 473.618 715.982 473.548 717.855 473.914C725.93 475.653 726.365 484.508 724.346 491.084C717.507 513.368 693.542 525.511 672.432 534.331C671.038 534.863 669.816 535.764 668.896 536.938C667.976 538.112 667.394 539.514 667.211 540.994C666.688 546.386 672.153 548.457 676.713 548.7C686.876 549.257 696.97 545.221 707.169 548.109C710.402 549.011 713.285 550.873 715.436 553.449C722.153 561.713 716.567 570.48 709.275 573.751C704.263 576.012 698.554 576.151 693.055 575.96C679.113 575.449 665.304 573.062 652 568.862C648.519 567.732 644.76 566.462 641.071 567.906C640.132 568.242 639.297 568.817 638.647 569.573C637.997 570.33 637.555 571.242 637.364 572.22C636.685 576.534 641.314 579.022 645.195 580.448L686.111 595.496C688.506 596.338 690.72 597.624 692.637 599.288C702.366 607.987 694.847 617.642 686.546 619.416C680.785 620.651 674.833 619.051 669.142 617.363C645.056 610.141 621.514 601.218 598.693 590.66C597.109 589.897 595.337 589.613 593.594 589.842C587.973 590.73 588.042 596.209 590.479 599.288C592.359 601.315 594.69 602.87 597.284 603.829C617.904 613.261 639.296 620.908 661.224 626.688C664.719 627.547 667.767 629.681 669.769 632.672C674.99 640.709 668.255 647.424 661.398 649.825C649.668 653.913 636.807 649.825 625.181 645.528C600.513 636.282 576.48 625.427 553.236 613.032C552.406 612.592 551.463 612.414 550.53 612.521C549.597 612.628 548.719 613.015 548.011 613.631C547.302 614.247 546.797 615.063 546.562 615.971C546.326 616.88 546.372 617.838 546.692 618.72C547.46 620.814 548.644 622.731 550.173 624.357C553.792 628.305 558.874 630.654 563.66 632.898L599.372 649.39C604.315 651.669 609.449 654.087 612.355 658.975C613.184 660.271 613.71 661.737 613.894 663.264C614.077 664.791 613.914 666.34 613.417 667.795C610.858 674.493 602.261 674.754 595.595 673.362C574.311 668.874 555.794 656.226 535.832 647.546C515.87 638.865 497.075 636.83 476.782 644.066C473.441 645.267 467.21 648.189 465.087 643.301C463.556 639.735 471.892 633.298 474.589 630.167C492.488 609.503 507.456 586.474 519.073 561.73L519.125 561.782Z" fill="#6F30A5"/>
<path d="M704.42 561.399C682.48 561.198 660.702 557.619 639.853 550.788C651.455 543.168 662.692 535.096 673.563 526.572C689.975 513.741 705.608 499.944 720.379 485.256C721.632 484.021 719.543 482.281 718.308 483.516C691.977 509.671 662.922 532.935 631.639 552.91L630.281 553.762C639.633 530.142 651.138 507.431 664.653 485.917C668.714 479.457 672.949 473.125 677.357 466.92C678.367 465.494 676.296 463.737 675.286 465.181C659.844 486.94 646.527 510.131 635.52 534.435C632.422 541.289 629.521 548.219 626.818 555.224C626.742 555.479 626.742 555.751 626.818 556.007C612.895 564.705 598.485 572.811 583.744 580.135C580.264 581.875 576.783 583.51 573.302 585.18C585.682 550.793 599.32 516.9 614.218 483.499C618.557 473.815 622.995 464.172 627.531 454.569C627.606 454.407 627.647 454.231 627.654 454.053C627.66 453.875 627.632 453.697 627.569 453.53C627.507 453.363 627.413 453.209 627.291 453.079C627.17 452.948 627.024 452.843 626.861 452.768C626.699 452.694 626.524 452.653 626.345 452.646C626.167 452.64 625.989 452.668 625.822 452.73C625.655 452.793 625.501 452.887 625.371 453.009C625.24 453.13 625.134 453.276 625.06 453.438C609.13 487.141 594.494 521.405 581.151 556.233C577.357 566.149 573.668 576.105 570.083 586.102C570.043 586.315 570.043 586.533 570.083 586.746C557.813 592.504 545.422 598.001 533.152 603.759C527.85 606.253 522.577 608.804 517.333 611.414C526.998 578.024 539.65 545.571 555.133 514.447C559.554 505.586 564.194 496.842 569.056 488.213C569.909 486.7 567.437 485.569 566.584 487.083C549.214 517.917 534.703 550.276 523.233 583.754C520.007 593.124 517.037 602.576 514.322 612.11C514.224 612.367 514.224 612.652 514.322 612.91C502.016 619.05 490.122 625.982 478.715 633.664C477.27 634.638 478.836 636.864 480.263 635.873C488.875 630.048 497.792 624.688 506.978 619.816L577.479 652.939L597.737 662.472C598.064 662.622 598.438 662.635 598.776 662.51C599.114 662.384 599.388 662.13 599.538 661.802C599.688 661.474 599.702 661.101 599.576 660.763C599.45 660.425 599.196 660.151 598.868 660.002L528.28 626.809L509.867 618.111C524.259 610.509 539.122 603.777 553.967 596.992C579.508 610.058 605.981 621.217 633.17 630.376C640.712 632.904 648.299 635.281 655.934 637.508C657.674 637.995 658.04 635.316 656.369 634.829C629.192 626.888 602.633 616.969 576.905 605.151C570.257 602.089 563.696 598.906 557.169 595.601C564.722 592.121 572.275 588.642 579.794 585.041C586.361 581.852 592.846 578.535 599.251 575.09C599.251 575.09 599.338 575.177 599.39 575.195C619.247 586.063 639.935 595.341 661.259 602.942C667.362 605.134 673.529 607.175 679.759 609.065C681.395 609.57 682.561 607.117 680.89 606.612C659.246 599.974 638.158 591.644 617.82 581.701C612.506 579.091 607.256 576.378 602.07 573.559C613.997 567.053 625.663 560.095 637.068 552.684C658.895 560.046 681.751 563.903 704.785 564.113C706.421 564.113 706.143 561.417 704.42 561.399Z" fill="#FFB612"/>
<path d="M403.187 667.664C373.097 630.975 339.003 594.217 293.807 579.761C257.12 568.018 217.562 572.385 179.066 573.707C140.569 575.029 99.3405 572.298 68.4668 549.352C81.7282 579.796 103.047 606.551 133.399 620.051C154.562 629.462 178.265 631.584 201.429 631.306C224.593 631.028 247.74 628.523 270.904 629.218C316.727 630.541 364.813 642.613 403.187 667.664Z" fill="#F7B15E"/>
<path d="M342.352 590.738C309.742 561.86 279.14 530.794 250.757 497.755C222.448 464.791 196.405 429.948 172.807 393.465C159.499 372.902 146.998 351.847 135.303 330.299C134.241 328.333 131.405 330.299 132.449 332.264C153.306 370.67 176.763 407.607 202.654 442.818C228.48 477.94 256.657 511.272 286.991 542.585C304.047 560.19 321.752 577.117 340.107 593.365C341.777 594.844 344.022 592.217 342.352 590.738Z" fill="#FC7800"/>
<path d="M155.648 371.493C137.932 357.889 126.219 337.675 119.101 316.503C111.983 295.332 109.199 273.013 106.414 250.833C134.073 285.494 151.165 327.383 155.648 371.493V371.493Z" fill="#FC7800"/>
<path d="M186.469 419.924C175.4 403.38 171.275 382.975 171.345 363.073C171.415 343.172 175.33 323.514 179.316 304.082C192.76 341.213 195.242 381.423 186.469 419.924V419.924Z" fill="#FFB612"/>
<path d="M184.416 411.574C165.046 416.184 144.475 412.931 125.836 405.938C107.197 398.944 90.1414 388.35 73.2427 377.825C112.772 378.181 151.364 389.897 184.416 411.574V411.574Z" fill="#FFB612"/>
<path d="M211.635 452.334C194.371 463.467 173.226 467.381 152.672 466.964C132.119 466.546 111.913 462.075 91.8472 457.639C130.441 444.425 172.023 442.583 211.635 452.334V452.334Z" fill="#FC7800"/>
<path d="M237.426 483.108C220.023 497.199 197.642 503.983 175.348 505.897C153.054 507.81 130.656 505.444 108.415 503.009C148.618 484.14 193.403 477.231 237.426 483.108V483.108Z" fill="#FFB612"/>
<path d="M267.97 517.048C250.427 534.305 226.584 544.012 202.393 548.517C178.203 553.023 153.385 552.71 128.777 552.379C170.827 527.507 219.143 515.243 267.97 517.048V517.048Z" fill="#FC7800"/>
<path d="M290.124 540.776C275.384 557.877 254.308 568.61 232.519 574.49C210.73 580.37 188.036 581.988 165.585 583.519C202.144 557.639 245.372 542.803 290.124 540.776V540.776Z" fill="#FFB612"/>
<path d="M310.903 564C300.461 579.135 284.485 589.66 267.395 596.427C250.304 603.194 232.135 606.499 214.088 609.787C241.293 585.55 274.903 569.655 310.903 564V564Z" fill="#FC7800"/>
<path d="M213.253 453.777C205.248 435.546 204.743 414.74 208.276 395.152C211.809 375.564 219.188 356.88 226.497 338.405C233.248 377.336 228.651 417.387 213.253 453.777V453.777Z" fill="#FFB612"/>
<path d="M235.825 483.264C231.665 462.963 235.825 441.687 243.656 422.534C251.488 403.38 263.166 386.002 274.669 368.779C272.984 409.877 259.499 449.621 235.825 483.264V483.264Z" fill="#FFB612"/>
<path d="M267.013 518.839C261.792 493.632 266.908 467.19 276.741 443.409C286.574 419.629 300.967 398.022 315.255 376.66C313.157 427.698 296.409 477.056 267.013 518.839V518.839Z" fill="#FC7800"/>
<path d="M286.382 542.411C285.599 520.005 293.778 497.999 305.682 478.985C317.586 459.97 333.075 443.514 348.477 427.196C339.261 470.759 317.706 510.753 286.382 542.411Z" fill="#FFB612"/>
<path d="M308.954 561.547C312.435 544.708 322.529 529.817 334.833 517.813C347.137 505.81 361.687 496.381 376.114 487.039C361.336 517.797 338.024 543.661 308.954 561.547V561.547Z" fill="#FFB612"/>
<path d="M661.343 346.064H765.007C763.467 337.366 750.728 331.408 742.549 334.733C742.426 329.73 740.778 325.388 736.619 322.602C734.525 321.222 732.136 320.355 729.645 320.068C727.154 319.782 724.63 320.086 722.278 320.954C720.738 310.732 709.678 302.48 699.389 303.45C694.244 304.074 689.506 306.56 686.069 310.437C682.633 314.314 680.735 319.315 680.736 324.495C675.221 323.079 668.413 325.742 664.316 329.637C660.218 333.532 660.28 340.414 661.343 346.064Z" fill="#EEF8FD"/>
<path d="M531.764 190.765H335.433C322.264 190.765 311.589 201.435 311.589 214.597V655.818C311.589 668.98 322.264 679.65 335.433 679.65H531.764C544.933 679.65 555.608 668.98 555.608 655.818V214.597C555.608 201.435 544.933 190.765 531.764 190.765Z" fill="#264456"/>
<path d="M526.589 207.285H344.753C334.544 207.285 326.269 215.556 326.269 225.759V642.177C326.269 652.381 334.544 660.652 344.753 660.652H526.589C536.797 660.652 545.073 652.381 545.073 642.177V225.759C545.073 215.556 536.797 207.285 526.589 207.285Z" fill="#83B4E0"/>
<path d="M454.054 196.061H410.386C409.586 196.061 408.938 196.709 408.938 197.508V197.94C408.938 198.739 409.586 199.387 410.386 199.387H454.054C454.854 199.387 455.502 198.739 455.502 197.94V197.508C455.502 196.709 454.854 196.061 454.054 196.061Z" fill="#83B4E0"/>
<path d="M403.023 198.278C403.017 198.935 402.817 199.575 402.448 200.117C402.078 200.66 401.557 201.082 400.948 201.329C400.34 201.575 399.672 201.637 399.028 201.505C398.385 201.373 397.795 201.054 397.333 200.588C396.871 200.122 396.557 199.529 396.431 198.885C396.305 198.241 396.373 197.574 396.625 196.968C396.878 196.362 397.304 195.844 397.851 195.48C398.397 195.116 399.039 194.922 399.696 194.922C400.136 194.922 400.571 195.009 400.977 195.178C401.382 195.347 401.75 195.595 402.06 195.907C402.369 196.219 402.613 196.589 402.779 196.996C402.944 197.403 403.027 197.839 403.023 198.278V198.278Z" fill="#83B4E0"/>
<path d="M466.578 201.604C468.415 201.604 469.905 200.115 469.905 198.278C469.905 196.442 468.415 194.953 466.578 194.953C464.74 194.953 463.25 196.442 463.25 198.278C463.25 200.115 464.74 201.604 466.578 201.604Z" fill="#83B4E0"/>
<path d="M509.383 242.679H365.162C354.954 242.679 346.678 250.95 346.678 261.154V614.265C346.678 624.469 354.954 632.74 365.162 632.74H509.383C519.592 632.74 527.867 624.469 527.867 614.265V261.154C527.867 250.95 519.592 242.679 509.383 242.679Z" fill="#4186C6"/>
<path d="M499.529 352.329H372.957V478.902H499.529V352.329Z" fill="#EEF8FD"/>
<path d="M516.246 495.619H474.454V486.327H507.065V457.408H516.246V495.619Z" fill="#EEF8FD"/>
<path d="M516.246 379.793H507.17V345.842H469.677V336.806H516.246V379.793Z" fill="#EEF8FD"/>
<path d="M366.635 379.793H357.434V336.806H404.003V346.049H366.635V379.793Z" fill="#EEF8FD"/>
<path d="M406.391 495.619H357.434V457.408H366.54V486.441H406.391V495.619Z" fill="#EEF8FD"/>
<path d="M491.315 539.717H386.095C384.323 539.717 382.891 540.579 382.891 541.642V563.118C382.891 564.181 384.323 565.043 386.095 565.043H491.315C493.086 565.043 494.518 564.181 494.518 563.118V541.642C494.518 540.579 493.132 539.717 491.315 539.717Z" fill="#EEF8FD"/>
<path d="M406.735 554.281C406.745 554.732 406.65 555.18 406.458 555.589C406.283 555.961 406.024 556.287 405.703 556.544C405.368 556.803 404.986 556.996 404.579 557.113C404.133 557.24 403.671 557.303 403.208 557.298C402.903 557.305 402.599 557.279 402.299 557.221C402.044 557.169 401.792 557.103 401.544 557.021L401.005 556.79C400.893 556.727 400.789 556.65 400.697 556.559C400.63 556.485 400.582 556.395 400.559 556.298C400.54 556.124 400.54 555.948 400.559 555.774V555.389C400.546 555.308 400.546 555.224 400.559 555.143C400.571 555.09 400.598 555.043 400.636 555.004C400.681 554.989 400.729 554.989 400.774 555.004C400.879 555.025 400.979 555.067 401.067 555.127L401.544 555.405C401.773 555.511 402.01 555.599 402.253 555.666C402.559 555.751 402.875 555.793 403.193 555.789C403.402 555.755 403.605 555.687 403.793 555.589C403.967 555.547 404.13 555.469 404.271 555.358C404.398 555.255 404.498 555.123 404.564 554.974C404.639 554.815 404.676 554.641 404.671 554.465C404.676 554.265 404.611 554.069 404.486 553.911C404.365 553.746 404.213 553.605 404.04 553.496C403.831 553.37 403.615 553.257 403.393 553.157L402.638 552.834L401.899 552.418C401.663 552.27 401.446 552.094 401.252 551.894C401.062 551.675 400.911 551.425 400.805 551.155C400.675 550.827 400.612 550.477 400.62 550.124C400.617 549.711 400.701 549.301 400.867 548.923C401.036 548.591 401.272 548.298 401.56 548.061C401.861 547.825 402.207 547.653 402.577 547.553C402.978 547.441 403.392 547.384 403.809 547.383C404.034 547.368 404.261 547.368 404.486 547.383L405.118 547.522C405.299 547.571 405.474 547.639 405.642 547.722C405.752 547.77 405.855 547.833 405.95 547.907L406.042 548.03C406.056 548.075 406.056 548.123 406.042 548.169C406.052 548.24 406.052 548.313 406.042 548.384V549.062C406.046 549.144 406.046 549.226 406.042 549.308C406.053 549.353 406.053 549.401 406.042 549.447C405.998 549.464 405.948 549.464 405.904 549.447C405.813 549.433 405.728 549.396 405.657 549.339L405.21 549.123C405.021 549.032 404.826 548.955 404.625 548.892C404.379 548.828 404.125 548.797 403.87 548.8C403.683 548.801 403.496 548.827 403.316 548.877C403.174 548.921 403.042 548.994 402.931 549.092C402.827 549.179 402.748 549.29 402.7 549.416C402.644 549.541 402.617 549.678 402.623 549.816C402.612 550.015 402.672 550.211 402.792 550.37C402.916 550.539 403.074 550.68 403.254 550.786C403.454 550.894 403.67 551.017 403.917 551.125L404.656 551.448C404.918 551.571 405.164 551.71 405.411 551.848C405.651 552.002 405.873 552.183 406.073 552.387C406.261 552.61 406.417 552.859 406.535 553.126C406.683 553.492 406.752 553.886 406.735 554.281V554.281Z" fill="#4186C6"/>
<path d="M415.931 555.698V556.006C415.925 556.077 415.925 556.149 415.931 556.221C415.931 556.221 415.931 556.344 415.931 556.39C415.895 556.441 415.854 556.487 415.808 556.529C415.721 556.621 415.616 556.695 415.5 556.745C415.319 556.85 415.128 556.937 414.93 557.006C414.679 557.095 414.422 557.162 414.16 557.206C413.855 557.265 413.545 557.29 413.236 557.283C412.632 557.296 412.032 557.196 411.464 556.991C410.953 556.797 410.494 556.486 410.124 556.083C409.732 555.638 409.443 555.112 409.277 554.543C408.866 553.156 408.866 551.681 409.277 550.294C409.47 549.723 409.78 549.199 410.186 548.754C410.569 548.327 411.042 547.991 411.572 547.769C412.147 547.548 412.758 547.439 413.374 547.446C413.625 547.422 413.878 547.422 414.129 547.446L414.822 547.615C415.012 547.685 415.197 547.767 415.377 547.861C415.505 547.928 415.624 548.011 415.731 548.108L415.869 548.277C415.874 548.333 415.874 548.39 415.869 548.446C415.869 548.446 415.869 548.585 415.869 548.693V549.432C415.882 549.513 415.882 549.596 415.869 549.678C415.866 549.709 415.856 549.739 415.84 549.765C415.824 549.792 415.803 549.815 415.777 549.832C415.76 549.839 415.742 549.843 415.723 549.843C415.705 549.843 415.686 549.839 415.669 549.832C415.564 549.819 415.466 549.77 415.392 549.693L414.945 549.401C414.744 549.288 414.533 549.195 414.314 549.124C414.026 549.026 413.724 548.979 413.42 548.985C413.066 548.979 412.716 549.064 412.404 549.232C412.105 549.391 411.846 549.618 411.649 549.894C411.43 550.206 411.268 550.556 411.171 550.925C411.061 551.378 411.009 551.844 411.017 552.311C411.012 552.798 411.069 553.285 411.187 553.758C411.285 554.125 411.452 554.47 411.68 554.774C411.885 555.029 412.15 555.229 412.45 555.359C412.773 555.49 413.118 555.558 413.467 555.559C413.769 555.564 414.07 555.522 414.36 555.436C414.586 555.369 414.803 555.276 415.007 555.159C415.16 555.079 415.309 554.992 415.454 554.897C415.528 554.836 415.62 554.799 415.715 554.789H415.839C415.845 554.83 415.845 554.872 415.839 554.913C415.849 554.994 415.849 555.077 415.839 555.159C415.884 555.336 415.915 555.516 415.931 555.698Z" fill="#4186C6"/>
<path d="M426.267 556.406C426.267 556.591 426.359 556.729 426.374 556.837C426.393 556.872 426.403 556.912 426.403 556.952C426.403 556.993 426.393 557.032 426.374 557.068C426.287 557.124 426.186 557.156 426.082 557.16H424.942H424.618L424.464 557.068C424.456 557.017 424.456 556.965 424.464 556.914L423.817 554.989H420.244L419.643 556.852C419.654 556.908 419.654 556.966 419.643 557.022C419.606 557.078 419.552 557.121 419.489 557.145C419.387 557.157 419.283 557.157 419.181 557.145H418.149C418.072 557.183 417.987 557.201 417.901 557.199C417.815 557.196 417.731 557.172 417.656 557.129C417.639 557.091 417.63 557.049 417.63 557.006C417.63 556.964 417.639 556.922 417.656 556.883C417.681 556.742 417.717 556.603 417.764 556.467L420.737 547.892C420.757 547.818 420.794 547.749 420.845 547.692C420.865 547.66 420.892 547.632 420.924 547.611C420.956 547.59 420.992 547.576 421.029 547.569C421.147 547.548 421.266 547.548 421.384 547.569H422.678C422.81 547.549 422.945 547.549 423.078 547.569C423.161 547.587 423.236 547.63 423.294 547.692C423.339 547.757 423.371 547.83 423.386 547.908L426.267 556.406ZM421.892 549.432L420.552 553.481H423.248L421.892 549.432Z" fill="#4186C6"/>
<path d="M436.572 556.452C436.589 556.554 436.589 556.658 436.572 556.76C436.533 556.844 436.475 556.918 436.402 556.975C436.337 557.039 436.258 557.086 436.171 557.114H435.894H435.078C434.929 557.133 434.779 557.133 434.631 557.114C434.5 557.081 434.379 557.017 434.277 556.929C434.159 556.819 434.056 556.695 433.969 556.56C433.876 556.406 433.768 556.206 433.645 555.959L431.273 551.51C431.134 551.248 430.996 550.956 430.857 550.648C430.718 550.34 430.58 550.047 430.472 549.755V550.817C430.472 551.156 430.472 551.525 430.472 551.895V556.883C430.488 556.923 430.488 556.967 430.472 557.006C430.436 557.054 430.388 557.091 430.333 557.114H430.072H429.209H428.932C428.932 557.114 428.824 557.114 428.808 557.006C428.793 556.967 428.793 556.923 428.808 556.883V548.323C428.8 548.227 428.814 548.129 428.849 548.039C428.884 547.948 428.938 547.866 429.009 547.8C429.147 547.685 429.322 547.625 429.502 547.63H430.534C430.692 547.612 430.852 547.612 431.011 547.63C431.134 547.656 431.25 547.709 431.35 547.784C431.463 547.872 431.561 547.975 431.643 548.092C431.72 548.231 431.812 548.385 431.905 548.57L433.768 552.049L434.076 552.68C434.184 552.88 434.292 553.08 434.384 553.281L434.677 553.881L434.954 554.481C434.954 554.127 434.954 553.773 434.954 553.404C434.954 553.034 434.954 552.68 434.954 552.341V547.892C434.936 547.848 434.936 547.798 434.954 547.754C434.993 547.702 435.047 547.665 435.108 547.646C435.195 547.634 435.283 547.634 435.37 547.646H436.14C436.227 547.634 436.315 547.634 436.402 547.646C436.453 547.669 436.496 547.707 436.526 547.754C436.526 547.754 436.526 547.831 436.526 547.892L436.572 556.452Z" fill="#4186C6"/>
<path d="M447.631 556.452C447.648 556.554 447.648 556.658 447.631 556.76C447.592 556.844 447.534 556.918 447.461 556.976C447.396 557.039 447.317 557.086 447.23 557.114H446.953H446.137C445.988 557.133 445.838 557.133 445.69 557.114C445.558 557.084 445.436 557.02 445.336 556.929C445.218 556.819 445.115 556.695 445.028 556.56C444.935 556.406 444.827 556.206 444.704 555.959L442.301 551.495C442.163 551.233 442.024 550.94 441.885 550.633C441.74 550.342 441.612 550.044 441.5 549.74V550.802C441.5 551.141 441.5 551.51 441.5 551.88V556.868C441.516 556.907 441.516 556.951 441.5 556.991C441.464 557.038 441.417 557.076 441.362 557.099H441.1H440.237H439.96C439.91 557.075 439.867 557.038 439.837 556.991C439.821 556.951 439.821 556.907 439.837 556.868V548.308C439.829 548.211 439.843 548.114 439.877 548.023C439.912 547.933 439.967 547.851 440.037 547.784C440.175 547.67 440.351 547.61 440.53 547.615H441.562C441.721 547.597 441.881 547.597 442.039 547.615C442.162 547.641 442.278 547.693 442.378 547.769C442.491 547.856 442.59 547.96 442.671 548.077C442.671 548.215 442.84 548.369 442.933 548.554L444.797 552.034L445.105 552.665C445.213 552.865 445.32 553.065 445.413 553.265L445.705 553.866L445.983 554.466C445.983 554.112 445.983 553.758 445.983 553.388C445.983 553.019 445.983 552.665 445.983 552.326V547.892C445.965 547.848 445.965 547.798 445.983 547.754C446.022 547.703 446.075 547.665 446.137 547.646C446.224 547.634 446.312 547.634 446.399 547.646H447.261C447.348 547.634 447.436 547.634 447.523 547.646C447.574 547.669 447.616 547.707 447.646 547.754C447.646 547.754 447.646 547.831 447.646 547.892L447.631 556.452Z" fill="#4186C6"/>
<path d="M452.791 556.868C452.805 556.913 452.805 556.961 452.791 557.006L452.622 557.099H452.329H451.39H451.097L450.943 557.006C450.93 556.961 450.93 556.913 450.943 556.868V547.892C450.93 547.847 450.93 547.799 450.943 547.754L451.097 547.661C451.199 547.65 451.303 547.65 451.405 547.661H451.867H452.329C452.427 547.649 452.525 547.649 452.622 547.661L452.791 547.754C452.805 547.799 452.805 547.847 452.791 547.892V556.868Z" fill="#4186C6"/>
<path d="M463.867 556.452C463.884 556.554 463.884 556.658 463.867 556.76C463.828 556.84 463.776 556.913 463.713 556.976C463.64 557.036 463.556 557.083 463.466 557.114H463.189H462.326C462.178 557.132 462.028 557.132 461.88 557.114C461.749 557.081 461.628 557.017 461.525 556.929C461.413 556.819 461.315 556.694 461.233 556.56C461.106 556.368 460.993 556.167 460.894 555.959L458.522 551.51C458.383 551.248 458.244 550.956 458.106 550.648L457.721 549.755C457.721 550.109 457.721 550.463 457.721 550.817C457.721 551.171 457.721 551.526 457.721 551.895V556.883C457.729 556.924 457.729 556.966 457.721 557.006C457.682 557.057 457.628 557.095 457.567 557.114H457.305H456.442H456.18C456.125 557.091 456.078 557.054 456.042 557.006C456.033 556.966 456.033 556.924 456.042 556.883V548.323C456.034 548.227 456.047 548.129 456.082 548.039C456.117 547.948 456.171 547.866 456.242 547.8C456.382 547.688 456.556 547.628 456.735 547.63H457.705C457.859 547.612 458.014 547.612 458.167 547.63C458.291 547.653 458.408 547.706 458.506 547.784C458.619 547.872 458.718 547.975 458.799 548.092C458.891 548.231 458.968 548.385 459.076 548.57L460.925 552.049L461.248 552.68L461.556 553.281C461.649 553.496 461.741 553.696 461.833 553.881L462.111 554.481C462.111 554.127 462.111 553.773 462.111 553.404C462.111 553.034 462.111 552.68 462.111 552.342V547.892C462.093 547.848 462.093 547.798 462.111 547.754C462.15 547.703 462.203 547.665 462.265 547.646C462.357 547.632 462.45 547.632 462.542 547.646H463.389C463.476 547.634 463.564 547.634 463.651 547.646C463.651 547.646 463.759 547.646 463.774 547.754C463.792 547.798 463.792 547.848 463.774 547.892L463.867 556.452Z" fill="#4186C6"/>
<path d="M474.649 549.093C474.649 549.232 474.649 549.355 474.649 549.462C474.661 549.544 474.661 549.627 474.649 549.709C474.645 549.733 474.636 549.757 474.623 549.778C474.61 549.799 474.592 549.818 474.572 549.832C474.537 549.844 474.499 549.844 474.464 549.832C474.35 549.815 474.244 549.767 474.156 549.693L473.586 549.401C473.31 549.29 473.027 549.198 472.739 549.124C472.367 549.026 471.983 548.979 471.599 548.985C471.17 548.976 470.744 549.06 470.351 549.232C469.986 549.383 469.66 549.614 469.396 549.909C469.12 550.211 468.91 550.568 468.78 550.956C468.635 551.393 468.562 551.85 468.564 552.311C468.559 552.801 468.632 553.29 468.78 553.758C468.913 554.14 469.123 554.491 469.396 554.789C469.656 555.07 469.978 555.286 470.336 555.421C470.718 555.572 471.126 555.645 471.537 555.636C471.755 555.641 471.973 555.615 472.184 555.559C472.388 555.513 472.584 555.44 472.769 555.344V553.142H470.967C470.875 553.142 470.813 553.142 470.767 552.973C470.732 552.784 470.732 552.591 470.767 552.403C470.758 552.29 470.758 552.177 470.767 552.064C470.756 551.988 470.756 551.91 470.767 551.833C470.784 551.787 470.81 551.745 470.844 551.71C470.884 551.696 470.927 551.696 470.967 551.71H474.187C474.258 551.694 474.331 551.694 474.402 551.71C474.46 551.743 474.512 551.784 474.556 551.833C474.601 551.895 474.637 551.962 474.664 552.034C474.681 552.12 474.681 552.209 474.664 552.295V556.083C474.671 556.215 474.645 556.348 474.587 556.467C474.522 556.591 474.412 556.685 474.279 556.729L473.678 556.929L472.954 557.099C472.7 557.15 472.443 557.186 472.184 557.206C471.928 557.222 471.67 557.222 471.414 557.206C470.718 557.218 470.024 557.108 469.365 556.883C468.79 556.678 468.264 556.353 467.825 555.929C467.395 555.493 467.069 554.967 466.87 554.389C466.639 553.742 466.524 553.059 466.531 552.372C466.523 551.654 466.643 550.94 466.885 550.263C467.113 549.688 467.453 549.165 467.887 548.723C468.319 548.279 468.845 547.937 469.427 547.723C470.077 547.482 470.766 547.362 471.46 547.369C471.842 547.366 472.224 547.397 472.6 547.461C472.896 547.51 473.19 547.577 473.478 547.661C473.694 547.735 473.905 547.822 474.11 547.923C474.235 547.993 474.354 548.076 474.464 548.169C474.534 548.253 474.582 548.354 474.602 548.462C474.645 548.669 474.66 548.881 474.649 549.093Z" fill="#4186C6"/>
<path d="M370.184 204.021V208.639C370.184 211.155 371.183 213.567 372.963 215.345C374.742 217.124 377.156 218.123 379.672 218.123H487.495C490.009 218.119 492.418 217.118 494.195 215.34C495.971 213.562 496.968 211.152 496.968 208.639V204.021H370.184Z" fill="#264456"/>
<g opacity="0.33">
<path opacity="0.33" d="M339.701 456.114C338.792 456.113 337.9 455.867 337.12 455.399C336.341 454.932 335.703 454.262 335.274 453.461C334.846 452.66 334.643 451.757 334.687 450.85C334.732 449.942 335.022 449.064 335.526 448.308L481.118 230.015C481.858 228.907 483.007 228.137 484.315 227.876C485.622 227.614 486.979 227.883 488.088 228.622C489.197 229.361 489.967 230.51 490.229 231.817C490.49 233.123 490.222 234.48 489.482 235.588L343.89 453.912C343.425 454.593 342.8 455.15 342.069 455.534C341.339 455.918 340.526 456.117 339.701 456.114V456.114Z" fill="#EEF8FD"/>
</g>
<g opacity="0.33">
<path opacity="0.33" d="M334.34 592.01C333.345 592.012 332.372 591.711 331.552 591.148C331.003 590.781 330.532 590.309 330.166 589.759C329.8 589.209 329.546 588.593 329.418 587.945C329.291 587.297 329.293 586.631 329.424 585.984C329.555 585.336 329.812 584.721 330.181 584.174L459.569 392.145C460.314 391.041 461.468 390.278 462.777 390.024C464.085 389.77 465.441 390.045 466.546 390.791C467.651 391.536 468.415 392.689 468.669 393.997C468.924 395.305 468.647 396.66 467.902 397.765L338.514 589.793C338.053 590.476 337.431 591.035 336.703 591.422C335.975 591.808 335.164 592.01 334.34 592.01V592.01Z" fill="#EEF8FD"/>
</g>
<g opacity="0.33">
<path opacity="0.33" d="M425.358 590.932C424.364 590.937 423.393 590.642 422.57 590.086C421.463 589.346 420.696 588.198 420.436 586.893C420.176 585.588 420.445 584.234 421.184 583.127L528.098 423.198C528.837 422.09 529.987 421.32 531.294 421.059C532.601 420.797 533.959 421.066 535.068 421.805C536.177 422.544 536.947 423.693 537.209 425C537.47 426.306 537.201 427.663 536.462 428.771L429.578 588.654C429.122 589.356 428.496 589.933 427.759 590.331C427.022 590.729 426.196 590.936 425.358 590.932V590.932Z" fill="#EEF8FD"/>
</g>
<path d="M549.74 622.059C549.74 622.059 545.196 658.146 540.867 664.628C537.263 670.047 533.166 673.665 536.708 678.715C538.896 681.794 558.982 687.413 565.266 689.045C565.893 689.224 566.565 689.152 567.14 688.845C567.715 688.537 568.148 688.018 568.347 687.398C568.764 686.387 568.856 685.273 568.61 684.208C568.364 683.143 567.793 682.181 566.976 681.455C563.264 678.207 555.023 668.43 555.023 668.43L572.552 618.58L549.74 622.059Z" fill="#F49B91"/>
<path d="M554.962 668.43C553.252 670.203 551.101 671.488 548.729 672.154C546.357 672.82 543.851 672.842 541.468 672.218C539.862 671.782 538.447 670.823 537.448 669.493C535.369 672.572 534.259 675.343 536.693 678.73C538.88 681.809 558.966 687.429 565.251 689.06C565.878 689.239 566.55 689.168 567.125 688.86C567.7 688.553 568.133 688.034 568.332 687.413C568.748 686.403 568.84 685.288 568.595 684.223C568.349 683.158 567.778 682.196 566.961 681.47C563.202 678.207 554.962 668.43 554.962 668.43Z" fill="#666DB2"/>
<path d="M567.069 634.145L572.552 618.58L549.802 622.059C549.802 622.059 549.278 626.201 548.431 631.912C554.41 633.987 560.768 634.749 567.069 634.145V634.145Z" fill="#DE706B"/>
<path d="M595.904 624.384C595.904 624.384 602.358 660.178 600.155 667.676C598.322 673.911 595.442 678.607 600.402 682.348C603.405 684.627 624.246 684.011 630.731 683.687C631.368 683.66 631.971 683.389 632.415 682.931C632.859 682.473 633.111 681.862 633.118 681.224C633.218 680.133 632.975 679.038 632.423 678.091C631.871 677.145 631.037 676.394 630.038 675.944C625.601 673.957 614.819 667.122 614.819 667.122L616.652 614.331L595.904 624.384Z" fill="#F49B91"/>
<path d="M614.819 667.122C613.725 669.333 612.061 671.212 609.997 672.565C607.934 673.919 605.546 674.697 603.082 674.82C601.428 674.88 599.802 674.387 598.461 673.419C597.398 676.99 597.167 679.946 600.509 682.471C603.513 684.75 624.354 684.134 630.838 683.811C631.476 683.783 632.079 683.512 632.523 683.054C632.967 682.596 633.219 681.985 633.226 681.347C633.326 680.256 633.083 679.161 632.531 678.214C631.979 677.268 631.145 676.517 630.145 676.067C625.601 673.957 614.819 667.122 614.819 667.122Z" fill="#666DB2"/>
<path d="M615.913 633.483L616.575 614.284L595.904 624.384C595.904 624.384 596.643 628.495 597.537 634.206C603.663 634.898 609.859 634.654 615.913 633.483V633.483Z" fill="#DE706B"/>
<path d="M632.948 435.604L571.011 439.653C561.692 450.969 557.857 465.933 556.979 480.574C556.101 495.215 557.934 509.826 558.643 524.513C560.268 558.552 555.846 592.611 545.581 625.107C572.382 629.049 600.078 628.079 626.91 624.476C634.026 595.733 637.323 565.973 640.388 536.445C643.962 502.051 643.761 465.317 632.948 435.604Z" fill="#666DB2"/>
<path d="M572.598 448.89C558.735 475.971 570.842 507.963 571.658 536.645C572.505 566.635 567.515 594.886 559.212 623.537C559.212 623.737 559.459 623.86 559.551 623.676C571.597 600.505 573.414 570.161 573.414 544.527C573.348 531.967 572.37 519.427 570.488 507.008C567.684 487.548 565.328 467.996 573.414 449.398C573.645 448.89 572.921 448.428 572.644 448.952L572.598 448.89Z" fill="#747DBB"/>
<path d="M573.106 455.587C577.388 454.617 581.686 453.032 586.045 453.54C591.375 454.171 595.857 457.835 601.017 459.282C607.933 461.207 615.25 459.021 622.166 457.127C627.434 455.68 633.133 454.433 638.416 455.264C637.073 448.587 635.246 442.016 632.948 435.604L571.011 439.653C567.267 444.279 564.292 449.477 562.201 455.048C565.42 456.665 569.486 456.403 573.106 455.587Z" fill="#5964AA"/>
<path d="M641.774 381.889L643.084 412.234L635.675 412.526C635.675 412.526 625.247 390.464 628.697 384.06C631.007 379.764 641.774 381.889 641.774 381.889Z" fill="#F49089"/>
<path d="M641.774 381.889C641.774 381.889 630.992 379.764 628.697 384.06C627.665 385.969 627.881 389.279 628.697 392.989C632.825 390.582 637.363 388.958 642.082 388.201L641.774 381.889Z" fill="#DE706B"/>
<path d="M635.49 295.797C633.949 290.917 628.82 287.899 623.752 287.253C621.284 286.935 618.787 286.909 616.312 287.176C613.716 287.644 611.092 287.942 608.457 288.069C605.669 288.069 603.066 287.53 600.308 288.284C598.722 288.695 597.238 289.433 595.954 290.451C594.67 291.469 593.614 292.745 592.853 294.196C590.882 298.26 591.76 303.526 588.925 307.051C587.293 309.084 584.736 310.13 582.595 311.67C580.793 312.911 579.301 314.549 578.233 316.457C577.165 318.366 576.549 320.494 576.433 322.678C576.372 324.864 576.934 327.023 578.056 328.902C579.177 330.78 580.81 332.301 582.764 333.285C587.385 335.394 592.745 333.886 597.752 334.563C602.511 335.194 606.993 337.827 611.738 337.735C615.45 337.642 619.008 335.918 622.72 335.995C624.861 335.995 627.264 336.611 628.974 335.317C629.657 334.677 630.151 333.863 630.404 332.962C630.656 332.061 630.657 331.108 630.406 330.206C630.068 328.374 629.19 326.681 628.866 324.849C627.773 319.876 630.268 314.918 632.563 310.392C634.858 305.866 637.03 300.708 635.49 295.797Z" fill="#5683C2"/>
<path d="M557.041 379.01C557.041 379.01 559.582 385.584 569.625 388.247L573.291 380.55L557.041 379.01Z" fill="#E98E31"/>
<path d="M590.173 334.055C583.365 331.853 575.632 334.378 570.349 339.213C565.066 344.047 561.97 350.852 560.229 357.795C558.488 364.738 557.98 371.913 557.041 379.01C562.755 379.98 568.824 379.841 574.354 380.473C578.821 401.872 574.446 424.966 560.968 442.193C562.909 445.965 568.146 447.628 572.351 447.151C576.557 446.673 580.731 445.18 584.936 445.703C591.544 446.519 597.182 452.2 603.82 451.615C607.61 451.277 610.921 448.921 614.603 448.121C617.825 447.605 621.118 447.73 624.291 448.49C627.462 449.249 630.722 449.575 633.98 449.46C635.609 449.391 637.2 448.95 638.631 448.171C640.062 447.392 641.296 446.295 642.236 444.964C641.578 432.703 639.022 420.617 634.658 409.139C633.117 404.89 631.284 400.718 630.114 396.345C628.806 391.992 628.621 387.38 629.575 382.936C634.642 382.351 639.525 382.089 644.608 381.504C643.908 372.022 640.979 362.838 636.06 354.7C633.36 349.785 629.629 345.51 625.123 342.168C620.148 338.704 614.187 336.98 608.272 335.718C602.141 334.425 596.165 335.979 590.173 334.055Z" fill="#FAAD58"/>
<path d="M620.426 326.958C622.873 326.022 624.891 324.219 626.094 321.893C627.804 318.814 626.525 315.58 627.296 312.301C627.85 309.961 629.375 307.898 629.606 305.496C629.675 304.027 629.326 302.568 628.602 301.288C627.877 300.008 626.804 298.958 625.509 298.261C622.738 296.974 619.603 296.702 616.652 297.491C617.007 298.103 617.221 298.787 617.28 299.493C617.338 300.198 617.239 300.908 616.991 301.571C616.392 302.438 615.739 303.266 615.034 304.049C614.075 305.526 613.392 307.163 613.017 308.883C611.476 314.503 610.044 320.43 608.473 326.065C612.524 326.496 616.359 328.42 620.426 326.958Z" fill="#3D6EA2"/>
<path d="M623.599 304.157C625.224 307.023 625.948 310.311 625.678 313.594C625.401 316.519 624.576 319.366 623.244 321.985C622.096 324.547 620.256 326.739 617.93 328.313C615.62 329.744 611.861 329.991 609.92 328.097C609.443 330.822 608.904 333.778 608.38 336.503C609.505 336.734 610.875 337.319 612.015 337.565C613.828 347.106 613.203 356.95 610.198 366.186C604.622 355.286 597.875 343.092 589.634 334.117C593.993 334.117 599.554 333.424 602.327 329.498C605.099 325.572 606.301 318.89 602.696 315.734C602.169 315.381 601.716 314.927 601.365 314.399C601.013 313.871 600.769 313.278 600.648 312.655C600.65 312.146 600.795 311.648 601.068 311.218C601.34 310.787 601.728 310.443 602.188 310.223C602.707 310.039 603.258 309.961 603.809 309.993C604.359 310.024 604.897 310.165 605.392 310.408C608.46 309.862 611.251 308.289 613.306 305.947C615.361 303.605 616.557 300.633 616.698 297.521C620.826 300.339 621.658 301.216 623.599 304.157Z" fill="#F49B91"/>
<path d="M606.039 320.953C606.039 320.953 604.314 332.916 608.426 336.503C608.904 333.778 609.443 330.822 609.967 328.097C607.979 326.157 606.612 323.671 606.039 320.953V320.953Z" fill="#DE706B"/>
<path d="M623.922 355.47C626.581 364.015 627.794 372.944 627.511 381.889C627.511 383.598 629.899 383.429 630.083 381.889C630.892 372.642 629.066 363.354 624.815 355.101C624.752 355.006 624.658 354.936 624.549 354.903C624.44 354.87 624.322 354.876 624.217 354.919C624.112 354.963 624.025 355.041 623.971 355.142C623.917 355.242 623.9 355.358 623.922 355.47V355.47Z" fill="#E98E31"/>
<path d="M587.724 365.462C587.924 372.02 589.003 379.102 592.345 384.814C593.084 386.046 594.81 384.968 594.24 383.721C591.57 377.862 589.799 371.633 588.987 365.246C588.895 364.477 587.616 364.677 587.647 365.431L587.724 365.462Z" fill="#E98E31"/>
<path d="M566.222 380.95C570.164 381.632 574.146 382.054 578.144 382.212C580.62 382.355 583.088 382.622 585.537 383.013C586.569 383.198 594.148 384.398 591.021 386.277C589.896 386.954 590.62 388.894 591.93 388.447C595.935 387.108 595.164 383.952 591.806 382.443C584.336 379.118 574.277 379.749 566.329 380.134C565.883 380.134 565.744 380.842 566.222 380.95Z" fill="#E98E31"/>
<path d="M589.927 335.179C597.105 341.506 601.264 348.758 604.638 357.641C605.385 359.792 606.361 361.856 607.549 363.799C608.92 365.924 610.629 367.833 612.17 369.85C615.078 373.77 617.654 377.926 619.871 382.274C621.104 384.645 622.305 387.046 623.491 389.433C624.677 391.819 625.709 394.683 626.957 397.238C627.142 397.592 627.65 397.331 627.573 396.977C626.947 394.566 626.176 392.196 625.263 389.879C624.485 387.627 623.591 385.418 622.582 383.259C620.383 378.769 617.807 374.474 614.881 370.419C613.417 368.372 611.8 366.447 610.26 364.43C608.758 362.335 607.526 360.059 606.594 357.656C604.95 353.383 602.886 349.283 600.432 345.417C597.601 341.063 594.085 337.195 590.02 333.963C589.512 333.578 588.48 333.47 589.003 333.963L589.927 335.179Z" fill="#E98E31"/>
<path d="M612.061 337.981C612.547 342.469 612.547 346.995 612.061 351.483C611.414 355.84 610.197 360.151 609.242 364.461C609.011 365.508 610.613 366.001 610.783 364.908C611.738 360.52 612.831 356.117 613.371 351.668C613.956 346.833 613.001 342.677 612.462 337.812C612.462 337.334 611.907 336.903 611.938 337.411L612.061 337.981Z" fill="#E98E31"/>
<path d="M589.819 383.028C590.219 384.568 590.373 386.107 590.758 387.647C591.602 387.584 592.412 387.291 593.1 386.8C593.391 386.554 593.595 386.22 593.681 385.848C593.767 385.476 593.731 385.086 593.577 384.737C593.373 384.467 593.116 384.24 592.823 384.071C592.529 383.901 592.204 383.793 591.868 383.752C591.139 383.668 590.438 383.421 589.819 383.028Z" fill="#E98E31"/>
<path d="M612.646 307.929C612.646 308.16 616.42 307.929 617.991 308.883C618.3 309.114 618.65 309.282 619.024 309.376C619.112 309.401 619.204 309.409 619.295 309.399C619.386 309.388 619.474 309.36 619.554 309.316C619.634 309.272 619.704 309.212 619.761 309.14C619.818 309.069 619.861 308.987 619.886 308.899C619.911 308.811 619.919 308.719 619.909 308.628C619.898 308.537 619.87 308.449 619.826 308.369C619.782 308.289 619.722 308.218 619.65 308.161C619.579 308.104 619.497 308.062 619.409 308.037C618.919 307.779 618.403 307.578 617.868 307.436C616.051 306.959 612.893 306.867 612.646 307.929Z" fill="#675161"/>
<path d="M625.601 308.914C625.601 309.13 625.494 308.252 623.845 309.099C623.506 309.308 623.129 309.449 622.736 309.515C622.562 309.539 622.384 309.496 622.24 309.394C622.096 309.293 621.997 309.14 621.961 308.967C621.926 308.795 621.958 308.615 622.05 308.465C622.143 308.315 622.289 308.206 622.459 308.16C622.939 307.928 623.467 307.812 623.999 307.821C625.124 307.867 625.601 308.406 625.601 308.914Z" fill="#675161"/>
<path d="M618.085 312.147C617.961 313.056 617.299 313.687 616.544 313.61C616.181 313.486 615.877 313.231 615.692 312.895C615.506 312.559 615.453 312.166 615.543 311.793C615.666 310.9 616.329 310.254 617.006 310.331C617.384 310.439 617.706 310.687 617.906 311.025C618.107 311.363 618.17 311.764 618.085 312.147V312.147Z" fill="#675161"/>
<path d="M625.432 312.455C625.308 313.363 624.646 313.995 623.968 313.995C623.605 313.874 623.3 313.623 623.112 313.29C622.924 312.957 622.867 312.566 622.952 312.193C623.075 311.285 623.737 310.654 624.492 310.731C624.825 310.864 625.101 311.109 625.272 311.424C625.444 311.739 625.5 312.103 625.432 312.455Z" fill="#675161"/>
<path d="M622.089 317.105C622.335 317.715 622.409 318.38 622.305 319.029C622.223 319.333 622.058 319.608 621.828 319.824C621.598 320.039 621.313 320.186 621.004 320.249C620.696 320.311 620.376 320.286 620.08 320.177C619.785 320.067 619.526 319.878 619.332 319.629C619.626 319.692 619.932 319.663 620.208 319.544C620.484 319.425 620.716 319.224 620.872 318.967C621.164 318.454 621.278 317.859 621.196 317.274C621.196 316.689 620.98 316.135 620.888 315.55C620.718 314.626 620.503 312.732 621.196 312.009C621.519 313.702 621.612 315.426 622.089 317.105Z" fill="#DE706B"/>
<g style="mix-blend-mode:overlay" opacity="0.21">
<path d="M620.333 340.737C626.455 345.02 631.572 350.583 635.328 357.041C639.084 363.498 641.388 370.695 642.083 378.132C639.695 378.656 636.907 379.072 634.535 379.672C633.254 365.683 628.36 352.267 620.333 340.737Z" fill="#FFF9F4"/>
</g>
<path d="M621.488 323.632C619.44 324.194 617.26 324.02 615.327 323.14C614.985 324.069 614.985 325.089 615.327 326.019C615.57 326.465 615.939 326.83 616.388 327.069C616.838 327.307 617.347 327.408 617.853 327.358C618.845 327.224 619.752 326.724 620.395 325.957C620.943 325.282 621.318 324.484 621.488 323.632Z" fill="#EE8780"/>
<path opacity="0.58" d="M624.199 390.295C607.573 389.218 591.187 385.765 575.54 380.042C576.801 390.287 576.541 400.663 574.77 410.833C584.02 411.314 593.261 409.72 601.815 406.166C610.368 402.612 618.017 397.189 624.199 390.295V390.295Z" fill="#E98E31"/>
<path d="M615.142 325.449C615.181 325.648 615.248 325.839 615.342 326.019C615.585 326.465 615.954 326.831 616.403 327.069C616.853 327.307 617.362 327.408 617.869 327.358C618.703 327.24 619.478 326.863 620.087 326.28C619.465 325.725 618.712 325.338 617.899 325.156C616.972 324.97 616.01 325.072 615.142 325.449V325.449Z" fill="#DE706B"/>
<path d="M621.488 323.632C619.44 324.194 617.26 324.02 615.327 323.14C615.112 323.89 615.069 324.68 615.204 325.449C616.071 325.072 617.034 324.97 617.961 325.156C618.774 325.338 619.527 325.725 620.148 326.28L620.472 325.957C620.992 325.275 621.341 324.477 621.488 323.632Z" fill="#675161"/>
<path d="M696.78 367.078H642.545C641.813 367.067 641.101 367.317 640.537 367.782C639.972 368.248 639.592 368.899 639.464 369.619L632.425 407.646H608.272C607.893 407.664 607.533 407.822 607.263 408.089C606.993 408.356 606.831 408.714 606.809 409.093V411.926C606.828 412.308 606.988 412.669 607.258 412.939C607.529 413.209 607.89 413.37 608.272 413.388H662.569L686.506 413.619C687.212 413.639 687.903 413.416 688.464 412.987C689.024 412.558 689.421 411.95 689.586 411.264L699.86 370.958C699.986 370.493 700.001 370.005 699.903 369.533C699.806 369.061 699.599 368.619 699.299 368.242C699 367.864 698.616 367.562 698.178 367.36C697.74 367.158 697.262 367.062 696.78 367.078Z" fill="#A5DDEC"/>
<path d="M590.267 382.135C592.069 390.31 594.41 401.01 597.568 408.77C618.547 409.801 638.756 410.833 659.289 412.557C656.946 415.136 654.065 417.17 650.85 418.516C647.635 419.862 644.164 420.487 640.682 420.347C639.588 420.932 637.709 421.779 636.569 422.271C625.196 427.384 612.734 429.605 600.294 428.738C595.622 428.605 591.04 427.416 586.893 425.258C581.856 422.318 578.437 417.253 575.803 412.049C570.828 402.273 566.268 390.911 565.775 379.964C573.677 379.58 582.781 379.872 590.267 382.135Z" fill="#F49B91"/>
<path d="M645.24 411.433L650.6 411.895C650.6 411.895 646.426 414.974 644.901 414.758C643.376 414.543 646.087 413.404 646.257 412.788C646.426 412.172 646.426 411.556 645.24 411.433Z" fill="#E2756D"/>
<path d="M669.855 379.61C667.278 379.706 664.81 380.672 662.852 382.349C660.894 384.026 659.562 386.317 659.073 388.848C658.842 389.979 658.868 391.148 659.15 392.268C659.432 393.388 659.962 394.43 660.702 395.317C661.442 396.204 662.372 396.913 663.423 397.393C664.474 397.872 665.619 398.108 666.775 398.085C669.352 397.992 671.822 397.028 673.781 395.35C675.739 393.672 677.071 391.38 677.557 388.848C677.788 387.716 677.762 386.547 677.48 385.428C677.198 384.308 676.667 383.266 675.928 382.379C675.188 381.491 674.258 380.782 673.207 380.303C672.156 379.824 671.01 379.587 669.855 379.61V379.61Z" fill="#F5FBFD"/>
<path d="M660.197 390.218C660.686 387.687 662.018 385.397 663.975 383.719C665.933 382.042 668.402 381.076 670.979 380.981C672.943 380.942 674.849 381.639 676.324 382.936C675.595 381.896 674.62 381.052 673.486 380.48C672.352 379.908 671.094 379.625 669.824 379.657C667.247 379.752 664.778 380.718 662.82 382.395C660.862 384.073 659.53 386.363 659.041 388.894C658.772 390.215 658.847 391.583 659.26 392.866C659.672 394.15 660.409 395.306 661.398 396.222C660.228 394.454 659.797 392.299 660.197 390.218V390.218Z" fill="#7ACFE6"/>
<path d="M586.631 409.462C590.078 408.5 593.691 408.285 597.228 408.831C597.286 408.847 597.346 408.851 597.405 408.842C597.464 408.832 597.52 408.811 597.569 408.778C597.619 408.745 597.661 408.702 597.693 408.651C597.724 408.601 597.745 408.544 597.753 408.485C597.76 408.426 597.756 408.366 597.738 408.309C597.721 408.252 597.691 408.2 597.652 408.155C597.612 408.111 597.564 408.075 597.509 408.051C597.455 408.027 597.396 408.015 597.336 408.015C593.718 407.536 590.038 407.851 586.554 408.939C586.23 409.047 586.354 409.555 586.692 409.462H586.631Z" fill="#DE706B"/>
<path d="M592.377 391.45C591.607 388.186 590.837 384.999 590.267 382.135C582.781 379.872 573.677 379.58 565.775 379.964C565.881 382.123 566.123 384.272 566.499 386.4C575.388 386.209 584.213 387.931 592.377 391.45V391.45Z" fill="#DE706B"/>
<path d="M645.24 411.433L650.6 411.895C650.6 411.895 646.426 414.974 644.901 414.758C643.376 414.543 646.087 413.404 646.257 412.788C646.426 412.172 646.426 411.556 645.24 411.433Z" fill="#E2756D"/>
<path opacity="0.61" d="M598.984 291.009C597.525 291.587 596.281 292.604 595.426 293.919C594.252 295.781 593.525 297.888 593.3 300.077C593.273 300.323 593.323 300.572 593.444 300.788C593.565 301.004 593.75 301.177 593.975 301.283C594.199 301.388 594.451 301.42 594.695 301.375C594.938 301.33 595.162 301.21 595.334 301.032C596.551 299.723 597.521 297.26 598.199 297.675L598.722 298.907C598.69 299.096 598.705 299.289 598.765 299.471C598.825 299.652 598.929 299.816 599.068 299.949C599.206 300.081 599.375 300.177 599.559 300.229C599.743 300.281 599.937 300.287 600.124 300.247C601.134 300.024 602.191 300.177 603.097 300.678C603.66 301.106 604.258 301.487 604.884 301.817C606.547 302.464 608.303 301.293 609.797 300.277C611.291 299.261 613.417 298.522 614.711 299.754C614.784 299.262 614.665 298.76 614.378 298.353C614.091 297.946 613.659 297.665 613.171 297.568C612.173 297.425 611.157 297.483 610.182 297.737C609.697 297.866 609.191 297.897 608.694 297.829C608.197 297.76 607.718 297.593 607.287 297.337C606.147 296.505 606.131 294.843 605.592 293.534C605.337 292.924 604.961 292.372 604.486 291.911C604.011 291.451 603.448 291.092 602.83 290.856C602.212 290.619 601.552 290.511 600.891 290.538C600.23 290.564 599.581 290.725 598.984 291.009V291.009Z" fill="#6297D0"/>
<path opacity="0.61" d="M579.144 324.14C579.154 324.46 579.256 324.77 579.437 325.033C579.976 325.711 581.101 325.341 581.717 324.725C582.333 324.11 582.795 323.263 583.627 323.016C584.813 322.647 585.968 323.648 586.708 324.648C587.447 325.649 588.248 326.804 589.496 326.942C591.436 327.142 592.576 324.679 594.517 324.187C596.165 323.74 597.89 324.926 599.585 324.648C600.001 324.561 600.394 324.389 600.741 324.143C601.087 323.897 601.378 323.582 601.597 323.217C601.815 322.853 601.956 322.447 602.01 322.026C602.064 321.604 602.03 321.176 601.911 320.769C601.757 321.862 600.201 322.139 599.2 321.662C598.198 321.184 597.444 320.276 596.412 319.876C595.007 319.535 593.536 319.589 592.16 320.03C591.473 320.243 590.743 320.284 590.036 320.147C589.329 320.01 588.667 319.7 588.109 319.245C587.482 318.202 587.088 317.036 586.954 315.827C585.86 312.009 582.626 314.287 581.178 316.381C579.56 318.626 578.835 321.391 579.144 324.14V324.14Z" fill="#6297D0"/>
<g style="mix-blend-mode:overlay" opacity="0.21">
<path d="M597.628 378.625C597.5 379.748 597.67 380.884 598.121 381.92C598.683 382.619 599.454 383.12 600.322 383.35C601.189 383.58 602.108 383.527 602.943 383.198C604.668 382.69 606.177 381.658 607.902 381.088C612.693 379.549 618.407 382.628 622.643 379.903C623.547 379.276 624.316 378.475 624.905 377.547C625.495 376.619 625.894 375.583 626.078 374.499C626.428 372.329 626.391 370.114 625.97 367.956C625.956 367.389 625.823 366.831 625.579 366.319C625.335 365.807 624.985 365.353 624.553 364.985C623.895 364.689 623.158 364.616 622.455 364.777C621.751 364.938 621.12 365.325 620.656 365.878C619.758 367 618.802 368.074 617.791 369.095C615.404 370.958 611.984 370.404 609.027 369.757L599.6 367.694C597.212 367.171 594.64 367.002 595.611 370.096C596.73 372.815 597.411 375.693 597.628 378.625V378.625Z" fill="#FFF9F4"/>
</g>
<g style="mix-blend-mode:overlay" opacity="0.21">
<path d="M573.446 377.147C569.279 377.304 565.11 376.911 561.046 375.977C560.83 367.51 561.693 358.826 565.22 351.129C568.748 343.431 575.248 336.78 583.442 334.609C575.273 347.2 571.738 362.238 573.446 377.147V377.147Z" fill="#FFF9F4"/>
</g>
<g style="mix-blend-mode:overlay" opacity="0.21">
<path d="M554.545 618.888C560.183 595.794 565.867 572.332 565.79 548.515C565.682 518.309 556.363 487.471 564.481 458.359C563.71 483.761 578.128 505.992 582.965 530.948C589.095 562.679 577.404 596.041 554.545 618.888Z" fill="#E0E2F2"/>
</g>
<path d="M640.896 369.819L634.935 410.217L611.276 408.6H633.333L640.896 369.819Z" fill="#F5FBFD"/>
<path opacity="0.54" d="M549.694 673.957L564.728 681.655C564.816 681.723 564.927 681.752 565.037 681.738C565.146 681.723 565.246 681.666 565.313 681.578C565.381 681.49 565.41 681.379 565.396 681.27C565.382 681.16 565.324 681.061 565.236 680.993L555.07 669.893C555.07 669.893 552.806 673.834 549.694 673.957Z" fill="#8089C3"/>
<path opacity="0.54" d="M610.968 673.665L627.496 677.221C627.594 677.238 627.694 677.22 627.78 677.171C627.866 677.122 627.932 677.045 627.968 676.953C628.004 676.861 628.008 676.76 627.978 676.666C627.948 676.572 627.887 676.491 627.804 676.436L615.096 668.369C615.096 668.369 613.941 672.757 610.968 673.665Z" fill="#8089C3"/>
<path d="M204.32 516.692C197.142 562.309 203.843 610.081 190.103 654.174C192.999 656.545 192.521 661.302 195.125 663.981C197.219 666.121 200.315 666.891 203.242 667.553L203.55 667.122C202.318 666.691 203.011 666.337 203.304 665.059C205.691 654.544 209.203 644.321 212.053 633.929C215.688 620.627 218.214 607.049 220.863 593.516C226.368 565.609 232.447 537.799 239.101 510.088C233.099 509.991 227.099 510.367 221.156 511.211C215.272 512.243 209.08 513.167 204.32 516.692Z" fill="#F49B91"/>
<path d="M196.68 623.722C195.342 634.038 193.142 644.225 190.103 654.174C192.999 656.545 192.521 661.302 195.125 663.981C197.219 666.121 200.315 666.891 203.242 667.553L203.55 667.122C202.318 666.691 203.011 666.337 203.304 665.059C205.691 654.544 209.203 644.321 212.053 633.929C212.9 630.85 213.686 627.663 214.44 624.507C208.554 623.739 202.612 623.477 196.68 623.722V623.722Z" fill="#E4E7E9"/>
<path d="M185.852 652.512C185.852 652.512 196.804 652.896 197.574 654.621C198.344 656.345 195.264 664.412 197.189 665.182C199.114 665.952 201.132 665.428 203.581 667.122C206.031 668.815 203.15 680.978 203.15 680.978C203.15 680.978 166.644 681.178 156.832 666.953C156.832 666.953 154.922 662.734 161.068 661.78C167.214 660.825 177.596 664.459 181.093 661.01C183.313 658.582 184.942 655.673 185.852 652.512Z" fill="#6482AF"/>
<path d="M221.157 511.227C215.272 512.243 209.08 513.09 204.321 516.692C203.843 519.771 203.427 522.85 203.058 525.93C213.718 523.862 224.693 524.04 235.281 526.453C236.534 521.024 237.807 515.594 239.101 510.164C233.101 510.048 227.101 510.403 221.157 511.227V511.227Z" fill="#DE706B"/>
<path d="M265.995 528.562C281.075 572.224 309.417 611.252 318.012 656.638C321.678 657.376 323.48 661.795 327.038 662.934C329.903 663.843 333 663.057 335.895 662.288L335.988 661.749C334.678 661.934 335.141 661.302 334.786 660.025C331.968 649.633 330.273 638.963 327.901 628.448C324.82 614.993 320.723 601.829 316.703 588.635C308.426 561.406 300.724 534.002 293.598 506.423C288.247 509.152 283.122 512.303 278.272 515.845C273.574 519.433 268.49 523.097 265.995 528.562Z" fill="#F49B91"/>
<path d="M309.51 626.601C313.173 636.339 316.017 646.365 318.012 656.576C321.678 657.315 323.481 661.733 327.039 662.873C329.904 663.781 333 662.996 335.896 662.226L335.988 661.687C334.679 661.872 335.141 661.241 334.787 659.963C331.968 649.571 330.273 638.902 327.901 628.387C327.193 625.215 326.361 622.075 325.591 618.934C320.024 621.031 314.644 623.596 309.51 626.601V626.601Z" fill="#E4E7E9"/>
<path d="M313.469 657.099C313.469 657.099 323.327 652.296 324.806 653.466C326.284 654.636 327.378 663.196 329.427 662.965C331.475 662.734 333.031 661.333 335.988 661.687C338.946 662.041 342.15 674.004 342.15 674.004C342.15 674.004 310.003 691.308 294.677 683.349C294.677 683.349 290.995 680.516 295.971 676.79C300.946 673.064 311.821 671.417 313.253 666.737C314.059 663.583 314.133 660.286 313.469 657.099V657.099Z" fill="#6482AF"/>
<path d="M278.288 515.784C273.574 519.433 265.195 514.86 262.684 520.279C263.701 523.189 268.075 534.32 269.184 537.214C277.626 530.391 287.4 525.404 297.881 522.573C296.443 517.164 295.021 511.766 293.614 506.377C288.263 509.101 283.138 512.246 278.288 515.784V515.784Z" fill="#DE706B"/>
<path d="M218.554 428.907C218.554 428.907 215.473 436.297 215.473 441.993C215.473 447.689 213.209 453.648 212.639 460.191C212.069 466.734 201.533 520.464 201.533 520.464H245.91L252.749 489.473L261.853 521.034H309.064L298.281 427.491L218.554 428.907Z" fill="#CDD1E9"/>
<g style="mix-blend-mode:multiply" opacity="0.51">
<path d="M300.021 443.317L298.188 427.491L218.553 428.907C216.959 432.774 215.921 436.849 215.473 441.008C243.393 434.573 272.495 435.368 300.021 443.317V443.317Z" fill="#CDD1E9"/>
</g>
<path d="M279.566 435.989C283.001 442.594 286.313 450.938 293.845 453.786C294.6 454.079 295.077 452.893 294.384 452.524C292.827 451.758 291.355 450.829 289.994 449.753C288.596 448.557 287.377 447.168 286.374 445.627C285.342 444.087 284.464 442.44 283.54 440.839C282.616 439.237 281.461 437.282 280.459 435.496C280.387 435.398 280.282 435.331 280.163 435.306C280.043 435.281 279.919 435.301 279.814 435.362C279.709 435.424 279.631 435.521 279.593 435.637C279.556 435.753 279.563 435.878 279.612 435.989H279.566Z" fill="#ACB7DD"/>
<path d="M284.834 437.19C286.409 440.105 288.244 442.872 290.318 445.457C291.35 446.735 292.428 447.936 293.568 449.106C294.675 450.388 295.943 451.521 297.342 452.477C298.081 452.909 298.697 451.954 298.204 451.354C297.646 450.761 297.049 450.205 296.417 449.691C295.847 449.167 295.293 448.644 294.754 448.151C293.599 447.012 292.505 445.811 291.458 444.564C289.368 442.095 287.507 439.441 285.897 436.635C285.512 435.943 284.464 436.558 284.834 437.251V437.19Z" fill="#ACB7DD"/>
<path d="M226.516 433.941C225.745 437.147 224.341 440.167 222.388 442.825C221.436 444.123 220.357 445.325 219.169 446.412C218.553 446.962 217.905 447.477 217.228 447.951C216.505 448.386 215.806 448.859 215.133 449.368C214.378 450.03 215.349 450.907 216.119 450.645C216.905 450.234 217.631 449.716 218.275 449.106C218.907 448.598 219.508 448.059 220.093 447.566C221.339 446.367 222.469 445.053 223.466 443.64C225.441 440.818 226.834 437.631 227.564 434.265C227.702 433.603 226.686 433.31 226.516 433.988V433.941Z" fill="#ACB7DD"/>
<path d="M231.861 436.189C230.537 440.533 228.24 444.519 225.146 447.843C222.06 451.11 218.352 453.727 214.24 455.541C213.162 456.049 213.932 457.943 215.072 457.496C223.929 454.063 230.691 445.642 233.094 436.589C233.111 436.436 233.073 436.282 232.986 436.155C232.9 436.027 232.771 435.935 232.622 435.894C232.474 435.853 232.316 435.866 232.176 435.932C232.037 435.997 231.925 436.11 231.861 436.251V436.189Z" fill="#ACB7DD"/>
<path d="M251.408 436.02C251.485 452.231 252.302 468.427 252.379 484.639C252.379 485.409 253.611 485.409 253.58 484.639C252.933 468.427 253.026 452.231 252.379 436.02C252.358 435.906 252.298 435.803 252.21 435.729C252.121 435.654 252.009 435.614 251.893 435.614C251.778 435.614 251.666 435.654 251.577 435.729C251.488 435.803 251.429 435.906 251.408 436.02V436.02Z" fill="#ACB7DD"/>
<path d="M245.571 436.328C245.663 438.483 245.74 440.654 245.832 442.809C245.858 444.832 246.038 446.849 246.372 448.844C246.667 450.539 247.323 452.151 248.297 453.571C249.156 454.944 250.469 455.974 252.009 456.48C252.189 456.54 252.385 456.53 252.558 456.451C252.731 456.373 252.868 456.233 252.942 456.058C253.016 455.883 253.021 455.687 252.957 455.508C252.892 455.33 252.763 455.182 252.594 455.095C251.306 454.434 250.197 453.473 249.36 452.293C248.498 450.845 247.942 449.237 247.727 447.566C247.142 443.871 247.08 440.053 246.803 436.328C246.803 435.542 245.524 435.512 245.571 436.328V436.328Z" fill="#ACB7DD"/>
<path d="M248.02 461.946C250.208 461.589 252.414 461.363 254.628 461.268C255.707 461.268 256.785 461.268 257.863 461.268C258.957 461.268 260.112 461.422 261.205 461.268C262.022 461.191 262.33 459.929 261.421 459.729C260.246 459.531 259.053 459.464 257.863 459.529C256.739 459.529 255.614 459.529 254.505 459.636C252.2 459.792 249.907 460.08 247.635 460.499C246.696 460.668 247.096 462.038 248.02 461.915V461.946Z" fill="#ACB7DD"/>
<path d="M245.832 468.427C248.651 468.212 251.454 467.981 254.258 467.719C257.061 467.457 259.834 467.273 262.591 466.857C263.515 466.718 263.299 465.179 262.375 465.225C259.603 465.348 256.846 465.718 254.104 466.01C251.362 466.303 248.589 466.611 245.832 466.934C244.908 467.057 244.862 468.473 245.832 468.473V468.427Z" fill="#ACB7DD"/>
<path d="M209.188 385.03C207.892 384.145 206.79 383.007 205.948 381.683C205.106 380.36 204.542 378.88 204.29 377.332C203.335 372.02 209.727 370.219 209.727 370.219L212.238 371.358C212.238 371.358 213.07 382.166 209.188 385.03Z" fill="#3A6CA0"/>
<path d="M215.041 315.842H200.963C200.445 315.843 199.943 315.661 199.546 315.329C199.149 314.997 198.881 314.535 198.791 314.025L193.184 283.435C193.128 283.116 193.142 282.788 193.226 282.475C193.31 282.162 193.462 281.872 193.67 281.624C193.879 281.376 194.139 281.176 194.433 281.04C194.727 280.903 195.047 280.832 195.371 280.833H209.435C209.95 280.831 210.45 281.011 210.847 281.34C211.244 281.669 211.513 282.127 211.606 282.634L217.213 313.225C217.275 313.544 217.265 313.873 217.184 314.188C217.103 314.503 216.953 314.796 216.746 315.046C216.538 315.296 216.277 315.497 215.983 315.635C215.688 315.773 215.367 315.843 215.041 315.842V315.842Z" fill="#EEF7FC"/>
<path d="M200.963 346.171L195.757 350.19L198.837 313.41C198.837 313.41 204.598 307.852 204.829 302.725C205.691 302.28 206.615 301.969 207.571 301.801C208.125 301.909 211.807 303.064 212.469 302.294C213.132 301.524 209.604 299.215 209.281 299.046C207.494 299.036 205.708 299.144 203.936 299.369C205.389 298.103 206.934 296.945 208.557 295.905C209.865 295.759 211.146 295.427 212.361 294.92C212.854 294.427 208.125 293.534 207.294 293.657C205.483 294.356 203.718 295.168 202.01 296.09C203.284 293.582 204.72 291.16 206.308 288.838C207.232 287.945 208.834 286.021 208.002 285.759C207.447 285.632 206.871 285.626 206.313 285.74C205.755 285.854 205.228 286.087 204.768 286.421C203.905 286.991 205.553 284.343 206.015 283.619C206.059 283.565 206.083 283.497 206.083 283.427C206.083 283.357 206.059 283.289 206.015 283.234C205.723 282.788 204.829 282.003 202.719 283.943C200.023 286.421 193.477 292.641 192.815 294.72C191.53 299.747 190.94 304.927 191.059 310.115C186.136 317.688 182.309 325.919 179.691 334.563C175.701 348.204 172.852 371.913 174.762 379.102C176.672 386.292 178.551 386.877 183.865 386.508C189.179 386.138 214.579 374.561 214.579 374.561L210.405 358.58L200.963 346.171Z" fill="#F49B91"/>
<path d="M209.974 357.841L200.963 346.171L195.756 350.19L191.751 364.23L209.974 357.841Z" fill="#DE706B"/>
<path d="M254.951 329.128L253.334 328.805C253.334 328.805 234.85 326.234 231.769 326.927C228.688 327.62 222.527 325.695 199.607 346.679C199.607 346.679 216.551 368.618 209.249 384.968L221.957 373.776L223.574 411.787C223.574 411.787 214.009 420.486 214.517 431.262C214.517 431.262 213.824 433.171 238.87 433.341H299.574V386.061L327.054 383.105C326.542 380.445 325.407 377.945 323.742 375.808C321.308 373.206 322.002 365.37 318.521 362.598C315.039 359.827 314.346 339.998 305.828 335.656C297.31 331.315 281.568 329.005 281.568 329.005L254.951 329.128Z" fill="#5683C2"/>
<path d="M277.486 296.675C278.075 296.791 278.62 297.069 279.06 297.477C279.501 297.885 279.818 298.407 279.978 298.986C280.138 299.564 280.134 300.176 279.966 300.752C279.798 301.328 279.472 301.846 279.026 302.248C280.06 302.739 280.962 303.467 281.66 304.373C281.979 304.813 282.175 305.33 282.229 305.871C282.284 306.411 282.193 306.957 281.968 307.452C281.722 307.975 281.275 308.375 281.013 308.883C280.713 309.89 280.497 310.92 280.366 311.962C279.95 312.939 279.191 313.729 278.232 314.185C277.273 314.642 276.181 314.733 275.16 314.441C274.146 314.111 273.212 313.573 272.416 312.863C271.621 312.153 270.981 311.285 270.539 310.315C268.707 306.562 267.879 302.398 268.136 298.23C268.081 297.208 268.411 296.203 269.06 295.412C269.45 295.097 269.899 294.864 270.381 294.727C270.862 294.589 271.367 294.55 271.864 294.612C273.866 294.735 275.545 296.244 277.486 296.675Z" fill="#675161"/>
<path d="M269.785 296.413C269.785 298.414 269.892 300.447 269.954 302.463C270.585 301.802 271.345 301.278 272.188 300.924C272.608 300.741 273.064 300.655 273.523 300.671C273.981 300.687 274.43 300.805 274.837 301.016C275.425 301.443 275.872 302.037 276.119 302.72C276.366 303.404 276.402 304.145 276.223 304.85C275.996 306.059 275.464 307.19 274.677 308.136C273.89 309.081 272.874 309.81 271.725 310.254C272.804 316.412 273.959 322.57 275.037 328.821H281.199C281.322 328.821 281.537 329.021 281.661 329.021C276.904 332.875 271.683 336.118 266.119 338.674C264.334 339.572 262.414 340.17 260.435 340.444C259.445 340.573 258.44 340.495 257.482 340.214C256.525 339.933 255.637 339.456 254.874 338.812C253.658 337.567 252.927 335.93 252.81 334.194C252.788 332.392 252.974 330.595 253.365 328.836C254.705 328.836 256.122 328.697 257.462 328.759C257 326.28 256.646 323.817 256.168 321.354C253.606 320.987 251.286 319.64 249.699 317.597C248.193 315.388 247.247 312.847 246.942 310.192C246.017 304.742 247.096 300.477 249.499 294.796C256.985 295.412 262.237 295.705 269.785 296.413Z" fill="#F49B91"/>
<path d="M261.867 299.631C261.867 299.831 258.386 299.061 256.784 299.738C256.479 299.919 256.137 300.03 255.783 300.062C255.612 300.084 255.438 300.038 255.301 299.932C255.164 299.827 255.074 299.671 255.051 299.5C255.029 299.328 255.076 299.155 255.181 299.018C255.286 298.881 255.442 298.791 255.614 298.769C256.111 298.591 256.628 298.477 257.154 298.43C258.848 298.245 261.775 298.63 261.867 299.631Z" fill="#675161"/>
<path d="M247.311 298.276C247.311 298.522 247.758 297.645 250.299 298.999C250.844 299.336 251.436 299.59 252.055 299.754C253.596 300.077 254.273 298.999 253.072 298.445C252.262 298.061 251.401 297.796 250.515 297.66C248.636 297.383 247.588 297.829 247.311 298.276Z" fill="#675161"/>
<path d="M256.245 302.741C256.245 303.603 256.753 304.28 257.4 304.28C257.809 304.28 258.2 304.118 258.489 303.829C258.778 303.54 258.94 303.149 258.94 302.741C258.94 302.332 258.778 301.941 258.489 301.652C258.2 301.363 257.809 301.201 257.4 301.201C257.049 301.265 256.735 301.459 256.521 301.745C256.307 302.03 256.208 302.386 256.245 302.741Z" fill="#675161"/>
<path d="M249.422 302.002C249.422 302.848 249.914 303.541 250.561 303.541C251.208 303.541 251.748 302.864 251.763 302.002C251.778 301.139 251.255 300.462 250.608 300.462C250.249 300.516 249.925 300.706 249.704 300.993C249.483 301.28 249.382 301.641 249.422 302.002Z" fill="#675161"/>
<path d="M251.855 306.759C251.543 307.291 251.378 307.897 251.378 308.514C251.406 308.808 251.519 309.088 251.702 309.32C251.885 309.552 252.13 309.726 252.41 309.823C252.687 309.92 252.986 309.939 253.273 309.88C253.561 309.82 253.827 309.683 254.043 309.484C253.77 309.494 253.5 309.421 253.27 309.276C253.039 309.13 252.857 308.918 252.749 308.668C252.581 308.168 252.581 307.628 252.749 307.128C252.872 306.605 253.103 306.097 253.273 305.589C253.55 304.757 254.012 303.049 253.488 302.279C252.841 303.788 252.533 305.327 251.855 306.759Z" fill="#DE706B"/>
<path d="M250.777 311.747C253.136 312.824 255.805 313.016 258.294 312.286C258.49 313.462 258.272 314.67 257.678 315.704C257.31 316.198 256.802 316.571 256.22 316.775C255.638 316.978 255.008 317.001 254.412 316.843C253.259 316.498 252.272 315.742 251.639 314.718C251.11 313.815 250.813 312.794 250.777 311.747Z" fill="#EE8780"/>
<path d="M258.016 315.057C257.928 315.285 257.815 315.502 257.678 315.704C257.31 316.198 256.802 316.571 256.22 316.774C255.638 316.978 255.008 317.001 254.412 316.843C253.436 316.554 252.578 315.96 251.963 315.149C252.805 314.597 253.776 314.273 254.782 314.21C255.92 314.165 257.046 314.46 258.016 315.057V315.057Z" fill="#DE706B"/>
<path d="M250.777 311.747C253.136 312.824 255.805 313.016 258.294 312.286C258.41 313.219 258.315 314.166 258.016 315.057C257.046 314.46 255.92 314.165 254.782 314.21C253.776 314.273 252.805 314.597 251.963 315.149C251.847 315.012 251.739 314.868 251.639 314.718C251.11 313.815 250.813 312.794 250.777 311.747Z" fill="#675161"/>
<path d="M260.542 279.324C260.542 279.324 271.787 278.431 275.669 283.743C276.994 285.671 277.912 287.849 278.368 290.144C278.823 292.439 278.806 294.802 278.318 297.09L270.431 295.874L260.542 279.324Z" fill="#D8D6EB"/>
<path d="M250.5 290.255C250.5 290.255 239.81 290.255 238.177 291.702C236.544 293.149 253.858 298.861 270.416 295.874L250.5 290.255Z" fill="#6A6EB2"/>
<path d="M250.5 290.255C250.5 290.255 254.92 278.2 262.237 279.247C269.553 280.294 270.354 295.874 270.354 295.874C270.354 295.874 252.348 293.873 250.5 290.255Z" fill="#B5B2D8"/>
<path d="M260.728 328.62C261.974 328.104 263.044 327.237 263.808 326.126C266.909 322.337 269.342 318.047 271.002 313.44C267.748 316.087 264.146 318.273 260.296 319.937C258.605 320.574 256.831 320.963 255.028 321.092C255.398 321.191 255.774 321.268 256.153 321.323C256.615 323.74 256.969 326.142 257.431 328.543C258.499 328.889 259.645 328.915 260.728 328.62Z" fill="#DE706B"/>
<path d="M258.525 343.723C257.416 360.181 254.828 376.424 253.904 392.989C253.026 406.273 252.902 419.596 253.534 432.894C253.553 432.997 253.608 433.089 253.688 433.155C253.768 433.222 253.869 433.258 253.973 433.258C254.077 433.258 254.178 433.222 254.258 433.155C254.338 433.089 254.393 432.997 254.412 432.894C254.936 419.608 256.307 406.291 256.969 392.989C257.785 376.624 259.942 360.135 260.05 343.723C260.05 343.519 259.968 343.323 259.824 343.179C259.68 343.035 259.484 342.954 259.279 342.954C259.075 342.954 258.879 343.035 258.735 343.179C258.59 343.323 258.509 343.519 258.509 343.723H258.525Z" fill="#386BA0"/>
<path d="M238.701 414.127C243.791 412.516 248.637 410.216 253.103 407.292C253.935 406.722 253.457 405.136 252.364 405.536C247.358 407.369 243.122 410.833 238.27 413.096C237.684 413.373 238.1 414.343 238.701 414.127Z" fill="#4380B5"/>
<path d="M259.094 404.998C268.09 400.04 281.414 397.3 287.437 388.447C287.852 387.832 287.051 387.108 286.451 387.462C281.83 390.187 277.563 393.405 272.726 395.899C267.89 398.393 262.976 400.764 258.34 403.704C258.193 403.816 258.093 403.977 258.057 404.158C258.022 404.338 258.053 404.525 258.146 404.684C258.239 404.843 258.386 404.962 258.561 405.02C258.735 405.078 258.925 405.07 259.094 404.998V404.998Z" fill="#4380B5"/>
<path d="M291.195 396.746C288.756 398.642 286.479 400.738 284.387 403.012C281.455 405.765 278.313 408.287 274.991 410.555C269.429 414.688 264.721 419.859 261.128 425.782C260.774 426.413 261.652 427.167 262.16 426.582C267.474 420.686 272.311 414.835 278.872 410.248C283.925 406.707 287.421 401.795 292.243 398.023C292.951 397.454 291.996 396.207 291.257 396.746H291.195Z" fill="#4380B5"/>
<path d="M287.961 359.843C291.042 368.018 291.781 380.503 298.743 386.477C298.884 386.63 299.078 386.725 299.286 386.742C299.494 386.759 299.7 386.698 299.865 386.57C300.03 386.442 300.14 386.257 300.175 386.052C300.21 385.846 300.166 385.635 300.052 385.461C297.63 380.927 295.455 376.266 293.537 371.497C292.222 367.382 290.573 363.382 288.608 359.535C288.392 359.15 287.73 359.411 287.884 359.843H287.961Z" fill="#4380B5"/>
<path d="M269.184 348.188C269.181 348.87 268.976 349.535 268.595 350.1C268.214 350.665 267.674 351.105 267.043 351.363C266.413 351.622 265.719 351.688 265.051 351.553C264.383 351.418 263.769 351.089 263.288 350.606C262.807 350.123 262.48 349.508 262.348 348.84C262.216 348.171 262.286 347.479 262.547 346.849C262.809 346.22 263.251 345.683 263.818 345.304C264.385 344.926 265.052 344.724 265.734 344.724C266.188 344.724 266.638 344.814 267.057 344.988C267.477 345.162 267.858 345.418 268.179 345.74C268.499 346.062 268.753 346.444 268.926 346.864C269.098 347.284 269.186 347.734 269.184 348.188Z" fill="#C8DDED"/>
<path d="M268.244 363.507C268.248 364.192 268.047 364.864 267.668 365.435C267.289 366.007 266.749 366.453 266.116 366.718C265.483 366.982 264.785 367.053 264.112 366.921C263.439 366.789 262.82 366.461 262.334 365.977C261.847 365.493 261.516 364.876 261.381 364.204C261.246 363.531 261.313 362.834 261.575 362.2C261.837 361.566 262.281 361.024 262.852 360.643C263.422 360.262 264.093 360.058 264.779 360.058C265.695 360.058 266.574 360.421 267.224 361.067C267.873 361.714 268.24 362.591 268.244 363.507Z" fill="#C8DDED"/>
<path d="M229.073 356.009L247.788 356.686C247.788 356.686 248.789 373.037 238.685 372.698C230.09 372.405 228.395 364.938 229.073 356.009Z" fill="#C8DDED"/>
<path d="M219.077 348.819C218.842 357.185 219.712 365.545 221.665 373.683C221.819 374.361 222.774 374.068 222.682 373.406C221.32 365.26 220.527 357.029 220.31 348.773C220.31 348.61 220.245 348.453 220.129 348.338C220.014 348.222 219.857 348.157 219.693 348.157C219.53 348.157 219.373 348.222 219.258 348.338C219.142 348.453 219.077 348.61 219.077 348.773V348.819Z" fill="#386BA0"/>
<path d="M316.379 486.378H307.137C305.474 478.681 302.409 470.983 296.74 465.425C295.08 463.791 293.055 462.575 290.832 461.876C288.61 461.178 286.253 461.017 283.955 461.407C278.241 462.408 274.082 466.811 271.217 471.599C268.532 476.162 266.68 481.167 265.749 486.378H255.536L241.473 572.362H328.748L316.379 486.378ZM271.325 474.832C274.005 470.306 277.486 465.995 282.785 464.486C291.642 461.946 298.696 469.767 302.162 476.941C303.653 479.967 304.855 483.127 305.751 486.378H266.842C267.732 482.322 269.244 478.427 271.325 474.832Z" fill="#E95C80"/>
<path d="M257.123 488.688L244.2 569.838L250.546 565.203L257.616 569.838H260.296L257.123 488.688Z" fill="#D74876"/>
<path d="M212.639 356.24C213.444 360.267 215.341 363.995 218.122 367.017C218.507 367.433 219.262 366.878 218.923 366.401C216.567 363.203 214.621 359.722 213.132 356.04C213.104 355.987 213.058 355.945 213.003 355.922C212.948 355.898 212.887 355.894 212.829 355.91C212.771 355.926 212.721 355.962 212.686 356.011C212.652 356.059 212.635 356.119 212.639 356.178V356.24Z" fill="#386BA0"/>
<path d="M299.528 385.753L299.651 391.911L304.642 401.503L284.464 448.074C284.464 448.074 279.658 454.233 278.302 456.296C276.833 458.769 275.943 461.543 275.699 464.409C275.869 465.949 278.78 463.593 278.78 463.593C278.78 463.593 279.103 467.657 277.809 468.951C276.516 470.244 277.887 470.983 279.103 470.413C279.103 470.413 279.827 471.783 281.46 470.321C281.46 470.321 282.43 471.86 284.541 470.09C284.702 470.278 284.906 470.424 285.136 470.516C285.365 470.608 285.614 470.644 285.86 470.62C286.107 470.595 286.343 470.512 286.551 470.377C286.758 470.242 286.93 470.059 287.051 469.844C288.361 468.135 289.655 468.058 289.824 463.193C289.993 458.328 289.824 456.449 289.824 456.449C289.824 456.449 323.45 413.896 326.792 405.306C329.026 399.563 327.239 388.848 325.575 383.275C317.103 383.598 307.923 385.276 299.528 385.753Z" fill="#F49B91"/>
<path d="M327.085 390.002C326.702 387.742 326.188 385.506 325.545 383.305C317.088 383.582 307.908 385.261 299.513 385.738L299.636 391.896L299.806 392.219C303.954 389.99 308.519 388.643 313.214 388.261C317.908 387.88 322.631 388.473 327.085 390.002Z" fill="#DE706B"/>
<path d="M300.792 335.102C303.187 335.592 305.368 336.82 307.03 338.612C308.162 340.239 308.938 342.085 309.31 344.031L312.221 355.162C312.991 358.087 313.869 361.197 316.164 363.153C316.701 363.567 317.215 364.009 317.705 364.477C320.185 367.078 318.66 371.466 319.969 374.807C321.001 377.424 323.789 379.426 323.635 382.228L319.43 382.074C319.048 382.089 318.669 382.015 318.321 381.858C317.959 381.577 317.687 381.197 317.535 380.765C316.536 378.792 315.721 376.73 315.101 374.607C314.624 372.493 313.943 370.431 313.068 368.449C311.912 366.547 310.641 364.717 309.264 362.968C305.967 358.072 304.92 352.068 303.102 346.464C301.562 341.414 298.851 338.135 295.585 334.147C297.365 334.142 299.13 334.465 300.792 335.102V335.102Z" fill="#5B97CC"/>
<path d="M237.207 328.544C232.417 327.92 227.549 328.717 223.208 330.835C218.868 332.954 215.246 336.301 212.792 340.46C212.071 341.484 211.763 342.743 211.93 343.985C215.719 343.647 218.692 340.752 221.957 338.843C225.543 336.748 229.672 335.767 233.818 336.026C237.083 336.226 240.349 337.196 243.599 336.796C245.493 336.565 251.778 333.624 249.56 330.853C248.651 329.729 245.37 330.16 244.076 329.945C241.812 329.56 239.548 328.882 237.207 328.544Z" fill="#5B97CC"/>
<path d="M263.824 210.521C263.826 199.288 260.212 188.353 253.517 179.33C246.822 170.308 237.401 163.678 226.646 160.419C215.891 157.16 204.372 157.446 193.791 161.234C183.211 165.022 174.131 172.111 167.892 181.454C161.653 190.798 158.587 201.899 159.146 213.118C159.705 224.337 163.861 235.078 170.998 243.755C178.136 252.432 187.876 258.584 198.781 261.302C209.686 264.02 221.176 263.159 231.554 258.848L247.897 277.8L243.491 251.905C249.823 247.022 254.949 240.752 258.474 233.577C261.999 226.402 263.829 218.515 263.824 210.521V210.521Z" fill="white"/>
<path d="M627.034 255.061C627.037 245.346 630.166 235.889 635.96 228.088C641.753 220.288 649.903 214.556 659.205 211.74C668.508 208.924 678.47 209.174 687.62 212.452C696.77 215.73 704.622 221.862 710.017 229.943C715.413 238.024 718.064 247.625 717.58 257.328C717.097 267.031 713.503 276.321 707.331 283.826C701.159 291.331 692.736 296.653 683.305 299.005C673.875 301.358 663.937 300.616 654.96 296.89L640.836 313.287L644.64 290.886C639.158 286.66 634.719 281.232 631.667 275.021C628.614 268.81 627.029 261.981 627.034 255.061V255.061Z" fill="#95DCFF"/>
<path d="M234.356 202.085V206.549H222.342V217.326H217.059V199.452H222.034V193.971H217.012V189.737H222.034V184.672H217.875V188.906H212.391V184.672H206.107V189.106H199.822V197.02H200.022V200.268H199.822V212.43H195.848V200.268H183.094V208.166H186.837V212.785H183.094V218.05H187.253V224.331H195.848V218.173H200.3V224.331H206.184V229.196H200.223V242.76H207.524V237.756H214.024V242.806H223.574V229.242H212.622V223.084H206.923V218.096H217.705V223.577H223.574V217.896H228.026V223.577H235.727V218.712H241.257V202.085H234.356ZM206.168 217.295H201.547V212.677H206.168V217.295ZM211.251 212.015H206.923V200.868H211.251V212.015ZM212.068 193.971H206.523V189.737H211.991L212.068 193.971ZM212.468 195.018H217.952V199.252H212.468V195.018ZM234.095 217.573H229.027V212.43H234.095V217.573Z" fill="#264456"/>
<path d="M196.834 229.196H183.603V242.421H196.834V229.196Z" fill="#264456"/>
<path d="M240.934 229.196H227.703V242.421H240.934V229.196Z" fill="#264456"/>
<path d="M196.834 183.995H183.603V197.22H196.834V183.995Z" fill="#264456"/>
<path d="M240.934 183.995H227.703V197.22H240.934V183.995Z" fill="#264456"/>
<path d="M478.751 392.331V401.047H455.426V422.051H445.15V387.113H454.861V376.393H445.074V368.112H454.861V358.3H446.658V366.581H436.005V358.3H423.748V366.978H411.492V382.443H411.888V388.776H411.492V412.56H403.591V388.682H378.928V404.147H386.244V413.26H378.928V423.564H386.979V435.815H403.591V423.923H412.284V435.815H423.748V445.268H412.284V471.737H426.577V461.868H439.229V471.737H457.802V445.268H436.457V433.376H425.427V423.469H446.375L446.489 434.17H457.802V423.072H466.495V434.17H481.58V424.717H492.365V392.331H478.751ZM423.805 422.051H414.716V412.939H423.805V422.051ZM433.685 411.748H425.389V389.873H433.685V411.748ZM435.269 376.468H424.691V368.188H435.364L435.269 376.468ZM436.061 378.491H446.734V386.659H436.005L436.061 378.491ZM478.355 422.448H468.475V412.542H478.355V422.448Z" fill="#264456"/>
<path d="M405.197 444.273H378.928V470.543H405.197V444.273Z" fill="#264456"/>
<path d="M491.171 444.273H464.901V470.543H491.171V444.273Z" fill="#264456"/>
<path d="M405.197 357.106H378.928V382.181H405.197V357.106Z" fill="#264456"/>
<path d="M491.171 357.106H464.901V382.181H491.171V357.106Z" fill="#264456"/>
<path fill-rule="evenodd" clip-rule="evenodd" d="M688.6 285L674.92 228H668.08L654.4 285H661.81L671.5 242.869L681.19 285H688.6Z" fill="#F29C1F"/>
<path fill-rule="evenodd" clip-rule="evenodd" d="M643 233.7H700V269.04H643V233.7Z" fill="white"/>
<path d="M648.7 262.77L656.124 255.346L659.53 258.21L669.213 249.083L674.35 254.22L682.9 245.67L685.75 248.52L694.3 239.97" stroke="#E64C3C" stroke-width="4" stroke-miterlimit="10" stroke-linecap="round" stroke-linejoin="round"/>
<path fill-rule="evenodd" clip-rule="evenodd" d="M684.769 269.04H677.519L677.781 270.18H685.043L684.769 269.04ZM657.957 270.18H665.218L665.481 269.04H658.23L657.957 270.18Z" fill="#E57E25"/>
</svg>
