<?xml version="1.0" encoding="utf-8"?>
<!-- Generator: Adobe Illustrator 23.0.1, SVG Export Plug-In . SVG Version: 6.00 Build 0)  -->
<svg version="1.1" id="Layer_1" xmlns="http://www.w3.org/2000/svg" xmlns:xlink="http://www.w3.org/1999/xlink" x="0px" y="0px"
	 viewBox="0 0 194.9 234.1" style="enable-background:new 0 0 194.9 234.1;" xml:space="preserve">
<style type="text/css">
	.st0{fill:#FFD6BB;}
	.st1{fill:#FCE8DB;}
	.st2{fill:#FFC9B6;}
	.st3{fill:#F4EBEA;}
	.st4{fill:#2C1D1B;}
	.st5{fill:#3F2A28;}
	.st6{fill:#FFFFFF;}
	.st7{fill:#FCA188;}
	.st8{fill:#FFF3EB;}
	.st9{fill:#FFB69F;}
	.st10{fill:#EF4335;}
	.st11{fill:#FF5E4C;}
	.st12{fill:#AA8887;}
	.st13{fill:#C6A8A5;}
	.st14{fill:#DEC9C5;}
	.st15{fill:#8DA3FF;}
	.st16{fill:#778DFD;}
	.st17{opacity:0.5;fill:#AEC1FF;enable-background:new    ;}
	.st18{opacity:0.5;fill:#5E79E6;enable-background:new    ;}
	.st19{fill:#563C3B;}
</style>
<g>
	<path class="st0" d="M175.1,19.2C142.8,3,101.9,15.5,71.4,33.4C35.9,54.3-3.3,88.7,0.2,134c1.5,19.5,12.6,36.4,27.9,48.1
		c17.5,13.4,39.2,20.3,60.9,21.7c26.2,1.7,45.3-3.5,60.1-15.4c15.9-12.8,24.9-32.6,32.5-51.5c7.8-19.2,12.1-39.8,12.7-60.5
		C194.7,66.2,198.9,31.1,175.1,19.2z"/>
	<g>
		<g>
			<path class="st1" d="M133.7,98.4c-2.6-2.4-5.5,0.6-7.8,1.7c-3.5,1.6-5.6,3.1-9.3,5.6c-2-1.8-5-4.2-7.9-8.3
				c-1.2-1.6-3.2-3.1-6.3-1.8c-1.2,0.5-2.8,2.1-2.7,4.5c0.1,1.8,1.4,2.3,2.9,4.5s3,4.5,5.1,6.6c3.5,3.4,5.3,4.3,6.6,5.3
				c1.7,1.2,6.2-0.8,9.1-1.4c4.7-0.9,8.5,0.2,11.5-4.6C137.1,107.1,136.5,100.9,133.7,98.4z"/>
			<path class="st2" d="M104,95.8c-1.6-2.8-2.9-5.5-3.6-8.6c-0.1-0.4-0.7-0.5-1-0.1c-0.6,1.1-0.8,2.1-0.6,3.3
				c-2.5-0.8-4.1-2.2-6.5-3.2c-1-0.4-2.9-0.1-3.9,0.4c-2,1.1-2,3-0.5,4.8c1,1.3,3.6,1.9,5,2.3c3.2,0.7,4.4,2,7.2,3.9
				C102,99.3,104,97.1,104,95.8z"/>
			<path class="st3" d="M103.4,94.6c0,0,0.3,1.5-1.8,2.9c-1.3,0.8-2.6,0.2-2.6,0.2s0.6,1.5,1.2,2.1c0.6,0.6,2.6,1.2,4.2-0.5
				s0.9-2.6,0.5-3.3C104.5,95.3,103.4,94.6,103.4,94.6z"/>
			<path class="st4" d="M123,133.9c0,0-5.1,13.1-5.9,18.3s-2.4,13.3-3.3,19.9c-1,6.7-0.9,13.1-0.5,19.6c0.2,2.6,1.1,9.3,0.6,13
				c0.6,2.4,6.1,2.7,6.8-0.1c0.4-1.7,4.7-16.9,5.1-21.7c0.4-4.8-0.7-8.2-0.7-8.2s7-14.9,9.4-20.8c2.4-5.9,0.8-13.1,0.8-13.1
				L123,133.9z"/>
			<path class="st4" d="M120.6,204.1c0,0,0.2,1.6,0.7,3.2s-0.1,3.9-0.1,3.9s-0.4,1-1.9,1.3c-1.4,0.3-2.6-0.1-2.6-0.1s-1.4,1.7-3.2,3
				c-1.8,1.3-5.9,2.3-7,2.1c-1.8-0.3-2.7-1.6-2.6-2.5c0.1-0.9,2.2-3.4,3.9-4.4c1.1-0.7,3.6-3,4.4-3.9c1.3-1.4,2.2-2.8,2.2-2.8
				L120.6,204.1z"/>
			<path class="st4" d="M146.9,217.5c0,0,0.9,3.5,0.8,5.5c-0.1,2-0.6,2.5-1.2,3.2c-0.6,0.7-1.3,0.4-1.3,0.4s-0.3,4.2-2.3,5.9
				c-2,1.7-5.6,1.9-7.2,1.2c-1.6-0.6-0.6-3.6,1-6.5s3.7-6.1,4.2-8.8C144.9,217.9,146.9,217.5,146.9,217.5z"/>
			<path class="st5" d="M141.4,139.3c0,0,2.5,3.5,4.5,9.8c1.4,4.4,1.2,14.9,1.2,14.9s0.4,10.4-0.3,13.9c-0.7,3.6-0.6,4.3-0.6,4.3
				s2.9,8.6,2.4,18.7c-0.4,10.1-1.3,17.4-1.3,17.4s-0.6,1.9-3.2,2.2c-2.4,0.2-4.1-1.4-4.1-1.4s-4.4-21.5-6-26.4
				c-1.6-4.9-2.2-10.5-2.2-10.5l-3.3-24.1c0,0-6.5-4.3-3.2-15C127.5,136.4,141.4,139.3,141.4,139.3z"/>
			<path class="st6" d="M148.8,111.9c-3.2-6.4-11.9-11.1-18.9-10.1c-3.4,2.7-4.9,4.4-6.1,7.6c-1.1,2.9-1.6,6.3-1.2,9.3
				c1,9.1-1.1,17.9-1.9,21.4c2.5,4.7,7.2,6.9,12.6,7.9c3,0.5,10.2-1.3,11-3.2c1-7.3,2.6-13.3,5.1-20.2
				C150.8,120.9,150.7,115.6,148.8,111.9z"/>
			<path class="st7" d="M131.9,97.8c0,0,0.7,4.4-1,5.9c-1.6,1.5-1.6,4.7,1.6,5.7c3.9,1.3,6.7-1.6,9.2-3.5c-1.1-2.2-1.6-2.2-1.6-8.5
				C140.2,92.4,131.9,97.8,131.9,97.8z"/>
			<path class="st8" d="M140.3,101.7c0,0-0.8,2.7-2.8,4.2c-2.5,1.9-7.1,2.1-7.1,3.4c1.3,0,1.6,0.1,1.6,1c0,1.8,0.5,2.2,0.5,2.2
				s3.3-0.9,5.7-1.9c3-1.3,4.4-5.4,4.4-5.4S142.1,101.5,140.3,101.7z"/>
			<path class="st8" d="M130.5,101.8c0,0-2,2.1-2.8,3.1c-0.8,1-0.4,2.8-0.8,3.6c-0.4,0.8-0.6,1.4-0.6,1.4s1.7-0.4,2.1-1.4
				s2.1,0.8,2.1,0.8l1.2-1c0,0-1.9-1.2-1.2-2.4c0.6-1.3,1.7-2.9,1.7-2.9L130.5,101.8z"/>
			<g>
				<path class="st9" d="M139,86.9c-2.4-2.7-8.9-3.8-11.2,0.1c-1.7,3-1.8,8.3-1.3,10.7c1,5.1,5.2,8.1,10,4.2
					C141.2,98.3,143.3,91.6,139,86.9z"/>
				<path class="st4" d="M144.5,91.8c0.4-2.6-1-4.5-3.3-4.5c0.2-2-0.9-3.9-2.8-4.9c-3-1.6-6.6-0.4-9.7,0.4c-0.9-0.4-3.1-1.8-3.5-0.6
					c-0.3,0.8,0.2,1.6,0.7,2.3c-0.9-0.2-2.7-0.9-3.5-0.3c-1.9,1.4,1.3,3.9,3,4.7c1.2,0.5,2.6,0.9,4,0.9c-0.1,0.2-0.2,0.4-0.3,0.6
					c-0.2,0.3-0.1,0.7,0.2,0.9c1.2,0.8,3.5,1.1,4.9,0.3c0,1.3,0.4,2.6,1.5,3.4c0.5,0.4,1.4,0.7,2.3,0.7c0.2,1.2,1.3,3.3,2.3,3.7
					C141.4,98,144.1,93.7,144.5,91.8z"/>
				<path class="st9" d="M136.5,96.1c0,0,1.4-2.1,2.7-0.5c1.3,1.6-1.3,3.2-1.3,3.2L136.5,96.1z"/>
			</g>
		</g>
		<g>
			<path class="st7" d="M78,212.8c-0.5-0.4-0.7-3.7-0.8-6.9c0.6-4.8-0.9-12.9-0.9-17.9c0-2.9,0.5-9.6,1.1-14.3
				c0.5-3.9,1.2-7.3,1.6-11.1c1.2-5.2,1.5-10.6,0.9-16c-4.3,1.5-9.1,2.1-13.8,2c-0.5,3.9-0.5,7.9,0.3,11.9c0.5,2.4,1.2,4.6,2,6.8
				c0.6,1.6,1.2,3.2,1.3,5c0.1,2-1.8,5.2-2.1,7.1c-1.1,5.7,1.3,9.2,2.9,16.7c0.7,3,0.8,5.2,0.9,6.3c-0.6,0.7-0.9,1.1-1.1,1.6
				c-1,1.9,0.6,3.6,1.4,5.1c0.8,1.5,0.4,6,1.4,6.7s4.3,2.9,6.6,1.8C81.2,216.8,79.3,214,78,212.8z"/>
			<path class="st7" d="M99.9,108c-1.5,1.9-3.2,2.8-3.9,2.7c-0.7-0.1,0.2-1.3,0.7-2.7c0.5-1.4-0.8-1-1.9,0.6
				c-1.1,1.6-0.6,3.3-1.4,3.9c-0.8,0.6-5.3,2-7.7,2.5c-1,0.2-3,0.7-4.2,1.1c-1.5-2.4-5.4-8.9-7.5-13.5c-2.4-5.3-8.5-2.1-8.5-2.1
				l4.4,12c0,0,6.8,6.7,9.4,9.7c1.4,1.6,3,1.1,6.2,0.4c3.2-0.7,8-5.2,10.8-7.2c1.7-1.2,6.7-2.8,7-6.3
				C103.6,105.7,101.4,106.1,99.9,108z"/>
			<g>
				<path class="st10" d="M69.9,206.7c1,3,2.2,7.9,2.3,9.3c0.1,1.4,2.4,3.2,6.4,3.1c3.9-0.2,2.5-2.1,1.6-3.5
					c-0.4-0.7-0.8-1.2-1.2-1.8c0,0-0.6,1.2-2.3,1.4c-1.6,0.2-2.3,0-3.2-1.6s-2.1-6.2-2.6-7.6s0.5-3.7,0.5-3.7l0,0
					C70.3,203.5,69.1,204.4,69.9,206.7z"/>
				<path class="st10" d="M69.7,206.1v6.9c0,0.1,0.2,0.2,0.5,0.2s0.5-0.1,0.5-0.2v-5.3L69.7,206.1z"/>
			</g>
			<path class="st9" d="M65,217.8c-0.4-0.5-0.3-3.8-0.1-7c1.1-4.7,0.5-13,1-17.9c0.3-2.9,1.5-9.5,2.6-14.1c0.9-3.8,2-7.1,2.8-10.9
				c1.7-5.1,2.6-10.3,2.6-15.8c-4.4,1-9.3,1.1-13.9,0.6c-0.9,3.9-1.3,7.8-1,11.8c0.2,2.4,0.7,4.7,1.3,7c0.4,1.7,0.9,3.3,0.8,5.1
				c-0.1,2-1.9,5.5-2.4,7.3c-1.9,6.5-0.2,8.8,0.7,16.4c0.4,3,0.3,5.2,0.2,6.4c-0.7,0.6-1,1-1.3,1.5c-1.2,1.8,0.2,3.6,0.9,5.2
				s-0.3,6,0.6,6.8c0.9,0.8,4,3.3,6.3,2.5C67.8,222.1,66.2,219.2,65,217.8z"/>
			<g>
				<path class="st10" d="M57.6,210.9c0.6,3.1,1.4,8.1,1.4,9.5s2.1,3.5,6,3.7c3.9,0.3,2.7-1.8,2-3.3c-0.4-0.7-0.7-1.3-1-1.9
					c0,0-0.8,1.1-2.4,1.1c-1.6,0-2.3-0.3-3-1.9c-0.7-1.6-1.5-6.4-1.8-7.8s0.9-3.6,0.9-3.6l0,0C58.3,207.8,57.1,208.5,57.6,210.9z"/>
				<path class="st10" d="M57.5,210.3l-0.7,6.9c0,0.1,0.2,0.3,0.5,0.3s0.5,0,0.5-0.2l0.6-5.3L57.5,210.3z"/>
			</g>
			<path class="st11" d="M79.1,137.1c-1.5-3-3.5-4.9-3.5-7.1c0-3.1,0.1-6.9-0.7-9.8c0.9-1.2,3.7-2.6,2.3-6.5
				c-0.8-2.1-2.5-4.1-3.1-4.9c-1-1.3-2.6-3.5-4.3-4.6c-1.7-1.1-2.3-0.5-4,0.3c-0.2,0.1-6,2-10.1,4.8c-0.8,0.5-2.2,1.5-2.7,2.1
				c-1.3,1.5-1,2.8-1,4.3c0,0.1,4.6,8.4,6.9,13.6c0.8,1.9,1.8,2.9,0.6,5.2c-1.6,3-3.1,4.2-4.5,10.1c-3.4,13.8,4.4,32.7,4.4,32.7
				s3.3,3,8.7,2.6c7.2-0.4,10.2-3.7,10.2-3.7s2.7-12.8,2.8-22.4C81.1,147.5,81,140.9,79.1,137.1z"/>
			<path class="st4" d="M71.4,103.3c0.2-1.2-0.1-2.4-0.8-3.4c-1-1.2-3-2.3-4.5-1.4c0,0,0,0,0,0c-1.2,0.2-2.1,1.5-2.1,2.7
				c-0.9,2.8,2,5.4,4.6,5c-0.2,0.8-0.2,1.7,0.2,2.4c0.6,1.3,2,1.7,3.2,0.8c1.2-1,1.9-2.8,1.5-4.3C73.1,104.2,72.3,103.5,71.4,103.3z
				"/>
			<path class="st7" d="M61.8,109.8c1.5,0.3,2.6,0,3.9-1.1c1-0.8,1.1-1.7,1.2-2.4c-0.6-0.4-1.3-1.3-1.3-2.6c0-0.9,0.2-1.8,0.2-2.7
				c-1.3-0.6-2.5-1.4-4-1.7c-0.8-0.1-2.1-2.3-2.9-2.6c0.6,1.9,0.2,4.7,0.1,5.8c-0.2,1.3-0.5,4-1.3,5.4
				C58.3,108.5,60.5,109.5,61.8,109.8z"/>
			<path class="st9" d="M70.8,93c-0.2-2-0.9-4.6-2.6-5.9C66.6,85.8,65,85.8,63,86c-3.1,0.5-5.5,5.2-4.6,9.1c0.8,3.6,3.1,8.1,7.3,8.6
				C70.2,104.3,71.2,96.1,70.8,93z"/>
			<path class="st2" d="M62.6,94.5c0,0-1.7-1.9-2.4-0.4c-0.7,1.5,0.6,4,1.8,3.7C63.2,97.6,62.6,94.5,62.6,94.5z"/>
			<path class="st5" d="M72.6,84.3c-2.2-2.1-6.5-2.5-9-0.8c-1.2-1.4-3.3-1.2-4.9-0.4C57,84,56,85.9,56.2,87.8
				c-3.3,0.2-5,5.1-2.8,7.5c-1,0.8-1.6,2-1.5,3.4c0.1,2.1,1.8,3.6,3.7,4.2c-1.3,1.1-2.3,2.5-1.6,4.3c0.9,2.4,3.5,2.9,5.7,3.1
				c0,0,0,0,0,0c-0.6,1.6,0.3,3,1.2,3.8c1.3,1.2,3,1.1,4.3,0.2c1.2-0.9,1.9-2.6,0.8-3.9c-0.3-0.3-1.2-1.3-2.2-1.3
				c0.8-2.3-0.7-4.3-2.8-4.1c0.4-1.2,0.5-2.4-0.1-3.3c1.5-1.3,2.5-3.1,2.5-5.2c0-0.8-0.2-1.5-0.6-2.1c2.4-1.1,4-2.9,4.9-5.5
				c1,0.4,2,1.2,2.6,2c0.7,1,0.8,3.2,0.7,3.9C75.5,93,75.5,87.1,72.6,84.3z"/>
			<path class="st10" d="M59.3,130.2l0.1,4.3c0,0,5.8,2.7,10.4,2c5.5-0.8,6.9-3.1,6.9-3.1l-1.1-5.2c0,0-0.5,1.9-5.3,2.4
				C65.6,131.1,59.3,130.2,59.3,130.2z"/>
			<path class="st10" d="M63.2,151.6c0,0,1,5.3,5.5,6.4c4.5,1.1,6.9,0,6.9,0s-5-0.8-7.1-2.1C66.5,154.7,63.2,151.6,63.2,151.6z"/>
			<path class="st10" d="M68.7,151.6c0,0,3-0.3,5.1-2.7c2.1-2.3,2.9-4.3,2.9-4.3s0.3,4.5-2.8,6.4C70.8,152.8,68.7,151.6,68.7,151.6z
				"/>
			<path class="st10" d="M64.6,160.8c0,0,2.7,5.4,6.2,7.7c2.2,1.4,4.4,1.2,4.4,1.2s-1.8-1.8-4.3-3.4
				C68.3,164.6,64.6,160.8,64.6,160.8z"/>
			<path class="st10" d="M62.4,122.8c0,0,3.9,0.8,5.6,0c1.9-0.8,4.5-2.4,4.5-2.4s-0.7,3.3-4.5,4C64.5,125,62.4,122.8,62.4,122.8z"/>
		</g>
		<g>
			<g>
				<path class="st12" d="M96.6,121.6c-12.1,0-21.9,5.2-21.9,11.6s9.8,11.6,21.9,11.6s21.9-5.2,21.9-11.6
					C118.5,126.8,108.7,121.6,96.6,121.6z"/>
				<path class="st13" d="M96.6,118.7c-12.1,0-21.9,5.2-21.9,11.6s9.8,11.6,21.9,11.6s21.9-5.2,21.9-11.6S108.7,118.7,96.6,118.7z"
					/>
				<path class="st12" d="M96.6,115.1c-12.1,0-21.9,5.2-21.9,11.6s9.8,11.6,21.9,11.6s21.9-5.2,21.9-11.6S108.7,115.1,96.6,115.1z"
					/>
				<path class="st13" d="M96.6,112.2c-12.1,0-21.9,5.2-21.9,11.6s9.8,11.6,21.9,11.6s21.9-5.2,21.9-11.6S108.7,112.2,96.6,112.2z"
					/>
				<path class="st12" d="M96.6,109.1c-12.1,0-21.9,5.2-21.9,11.6s9.8,11.6,21.9,11.6s21.9-5.2,21.9-11.6
					C118.5,114.3,108.7,109.1,96.6,109.1z"/>
				<path class="st13" d="M96.6,106.2c-12.1,0-21.9,5.2-21.9,11.6s9.8,11.6,21.9,11.6s21.9-5.2,21.9-11.6S108.7,106.2,96.6,106.2z"
					/>
				<path class="st12" d="M96.6,102.6c-12.1,0-21.9,5.2-21.9,11.6s9.8,11.6,21.9,11.6s21.9-5.2,21.9-11.6S108.7,102.6,96.6,102.6z"
					/>
				<path class="st13" d="M96.6,99.7c-12.1,0-21.9,5.2-21.9,11.6s9.8,11.6,21.9,11.6s21.9-5.2,21.9-11.6S108.7,99.7,96.6,99.7z"/>
				<g>
					<path class="st14" d="M96.6,96c-12.1,0-21.9,5.2-21.9,11.6s9.8,11.6,21.9,11.6s21.9-5.2,21.9-11.6S108.7,96,96.6,96z"/>
					<path class="st12" d="M96.6,94.6c-10.9,0-19.8,4.7-19.8,10.5c0,5.8,8.9,10.5,19.8,10.5c10.9,0,19.8-4.7,19.8-10.5
						C116.4,99.3,107.5,94.6,96.6,94.6z"/>
				</g>
			</g>
			<g>
				<path class="st15" d="M136,39.3C136,17.6,118.4,0,96.7,0C75.1,0,57.5,17.6,57.5,39.3c0,5.8,1.6,11.2,3.6,16.4
					c3.6,9.5,13.8,22.1,15.2,40.8s20.5,17,20.5,17s19,1.7,20.4-17c1.4-18.7,11.6-31.3,15.3-40.8C134.4,50.5,136,45.1,136,39.3z"/>
				<path class="st16" d="M124.6,11.6c1.5,4.3,2.3,8.9,2.3,13.7c0,22.7-18.4,41.1-41.1,41.1c-8.6,0-16.5-2.6-23.1-7.1
					C67.1,68.3,75,80,76.3,96.4c1.4,18.7,20.5,17,20.5,17s19,1.7,20.4-17c1.4-18.7,11.6-31.3,15.3-40.8c2-5.1,3.6-10.5,3.6-16.4
					C136,28.5,131.6,18.7,124.6,11.6z"/>
				<ellipse transform="matrix(0.866 -0.5 0.5 0.866 0.9998 45.5084)" class="st17" cx="85.4" cy="20.9" rx="21.6" ry="15.6"/>
				<path class="st6" d="M93.2,8.7C88.9,7.5,83,8.6,81.5,14.4c-1.1,4.3,7.3,3,9.8,2.2c1.5-0.4,3.5-1.5,4.3-3
					C96.4,11.6,95.7,9.5,93.2,8.7z"/>
				<path class="st6" d="M78.2,20.3c-0.2-1.5-1.3-2.4-2.8-2.2c-2.4,0.3-4.5,2.8-4.9,5.3c-0.1,0.5-0.3,2.4,0.4,3.3
					c1.4,1.9,4.5-1,5.5-2.3C77.3,23.3,78.4,21.9,78.2,20.3z"/>
			</g>
			<path class="st18" d="M120.5,63.3c-2.2,3-6.6,8.8-10.2,10.5c-7.4,3.6-10.9,1.9-16.3,3.8c-0.9,0.3-0.9,1.5,0,1.8
				c3.6,1.1,8.4,2.2,11.2,4.8c1.3,1.2,3.9,3.8,5,3.8c3.5,0,5.8-6.1,7.2-9.5c2.7-6.4,8.6-14.9,9.4-17.7
				C128.2,56.7,125.2,56.8,120.5,63.3z"/>
			<g>
				<path class="st5" d="M105.8,101c-2.2-1.4-5.5-2.3-9.2-2.3c-3.7,0-7,0.9-9.2,2.3h-2.8v4.1c0,3.5,5.4,6.4,12,6.4s12-2.9,12-6.4
					V101H105.8z"/>
				<path class="st19" d="M96.6,94.6c-6.6,0-12,2.9-12,6.4c0,3.5,5.4,6.4,12,6.4s12-2.9,12-6.4S103.3,94.6,96.6,94.6z"/>
				<path class="st5" d="M96.6,95.1c-4.7,0-8.5,2-8.5,4.5s3.8,4.5,8.5,4.5c4.7,0,8.5-2,8.5-4.5C105.1,97.2,101.3,95.1,96.6,95.1z"/>
				<path class="st5" d="M92.7,98.4c-5-0.4-6-8.5-6.9-12.3c-0.5-1.9-2.1-7.9-3.4-13.9s-2.4-12.2-3-15c1.4-2.9,0.7-5.6-2.1-6.3
					c-1.8-0.4-5,1.8-3,5.3c1,1.7,2.4,1.8,3.7,1.7c1.5,8.6,4.9,22.5,6.2,27.8c1.3,5.6,2.1,13.3,8.5,13.9
					C93.7,99.7,93.8,98.5,92.7,98.4z"/>
				<path class="st5" d="M101.2,98.4c5-0.4,6-8.5,6.9-12.3c0.5-1.9,2.1-7.9,3.4-13.9s2.4-12.2,3-15c-1.4-2.9-0.7-5.6,2.1-6.3
					c1.8-0.4,5,1.8,3,5.3c-1,1.7-2.4,1.8-3.7,1.7c-1.5,8.6-4.9,22.5-6.2,27.8c-1.3,5.6-2.1,13.3-8.5,13.9
					C100.2,99.7,100.1,98.5,101.2,98.4z"/>
			</g>
		</g>
		<g>
			<path class="st8" d="M148.3,110.9c-2.6-2.4-5.5,0.6-7.8,1.7c-3.5,1.6-5.6,3.1-9.3,5.6c-2-1.8-5-4.2-7.9-8.3
				c-1.2-1.6-3.2-3.1-6.3-1.8c-1.2,0.5-2.8,2.1-2.7,4.5c0.1,1.8,1.4,2.3,2.9,4.5s3,4.5,5.1,6.6c3.5,3.4,5.3,4.3,6.6,5.3
				c1.7,1.2,6.2-0.8,9.1-1.4c4.7-0.9,8.5,0.2,11.5-4.6C151.7,119.7,151.1,113.4,148.3,110.9z"/>
			<path class="st2" d="M118.8,108.7c-1.6-2.8-2.9-5.5-3.6-8.6c-0.1-0.4-0.7-0.5-1-0.1c-0.6,1.1-0.8,2.1-0.6,3.3
				c-2.5-0.8-4.1-2.2-6.5-3.2c-1-0.4-2.9-0.1-3.9,0.4c-2,1.1-2,3-0.5,4.8c1,1.3,3.6,1.9,5,2.3c3.2,0.7,4.4,2,7.2,3.9
				C116.9,112.2,118.8,110,118.8,108.7z"/>
			<path class="st6" d="M118.2,107.5c0,0,0.3,1.5-1.8,2.9c-1.3,0.8-2.6,0.2-2.6,0.2s0.6,1.5,1.2,2.1c0.6,0.6,2.6,1.2,4.2-0.5
				s0.9-2.6,0.5-3.3C119.3,108.2,118.2,107.5,118.2,107.5z"/>
		</g>
		<path class="st9" d="M84.2,111.4c-0.4-1.5-1.2-2.2-2.6-1.4c-1.7,0.8-3.5,2.8-4.8,4.2c0.1-0.5-0.3-1.4,0-2.4
			c0.1-0.5-0.6-0.9-0.9-0.3c-1.1,1.9-1.5,4.5-1,7c-1.1,1.8-4.2,4-6.1,4.9c-1.8,0.9-4.5,1.9-6,3.5c-0.4-1.1-2.1-4.8-3.2-6
			c-0.3-1.1-0.4-3.4-0.8-4.5c-0.9-2.4-3.4-5.6-6.2-5c-1.9,1.1-2.6,3.5-2.6,5.6c0,4,2.6,4.6,4.7,7.6c1.5,2.1,1.6,4.4,4.9,7.6
			c0.5,0.4,1.2,1.3,3.2,0.7c1.9-0.6,2.5,0.3,4.5-0.3c2.6-0.8,8.4-8.4,10-10.9c0.4-0.7,1.8-2.7,2.5-3.2c0.9-0.7,1.9-1.3,2.8-2
			C84,115,84.8,113.4,84.2,111.4z"/>
	</g>
</g>
</svg>
