<svg width="547" height="394" viewBox="0 0 547 394" fill="none" xmlns="http://www.w3.org/2000/svg">
<path d="M523.397 393.131C488.895 393.131 22.4084 392.122 22.4084 392.066C22.2152 391.614 -36.8093 319.213 37.515 243.517C74.343 206.001 3.69522 157.42 37.515 115.7C95.4475 44.2337 152.77 84.4758 200.52 64.3827C208.956 60.8339 217.422 55.125 225.9 46.3612C230.62 41.4936 235.85 37.1492 241.5 33.4031C242.357 32.8299 243.224 32.2714 244.101 31.7277C247.454 29.6472 250.924 27.7598 254.492 26.0747C256.897 24.9391 259.346 23.8897 261.841 22.9266C265.828 21.3912 269.893 20.0689 274.02 18.9653C279.988 17.3707 286.055 16.1789 292.182 15.3978C294.883 15.0467 297.606 14.7694 300.352 14.5659C353.707 10.551 413.744 33.1304 444.74 66.1304C450.98 72.776 479.349 107.162 456.985 154.423C442.865 184.263 502.016 212.764 523.034 246.838C576.489 333.464 523.886 392.001 523.397 393.131Z" fill="#FFD788"/>
<g opacity="0.8">
<path opacity="0.8" d="M402.671 191.706C401.272 195.56 399.53 199.281 397.467 202.823C389.444 216.527 376.875 226.982 361.946 232.371C347.017 237.76 330.673 237.741 315.757 232.318C289.737 222.853 273.024 199.113 271.243 173.132C271.005 169.683 271.034 166.221 271.329 162.777C272.265 151.94 275.772 141.484 281.56 132.277C281.588 132.228 281.616 132.186 281.646 132.137C290.57 118.098 304.325 107.818 320.311 103.243C321.966 102.768 323.641 102.356 325.338 102.008C337.606 99.4798 350.334 100.42 362.098 104.723C363.721 105.311 365.305 105.956 366.851 106.657C377.888 111.617 387.385 119.464 394.342 129.371C399.558 136.78 403.246 145.154 405.19 154.006C405.604 155.903 405.94 157.82 406.196 159.757C407.605 170.536 406.394 181.496 402.666 191.706H402.671Z" fill="#D7E5FF"/>
<path opacity="0.8" d="M327.643 132.084C323.636 135.19 324.698 143.502 317.759 138.816C310.821 134.13 306.466 131.592 304.504 135.672C302.541 139.752 308.695 141.999 307.065 146.454C305.435 150.909 302.154 151.38 298.683 147.721C295.211 144.063 295.111 140.542 289.488 140.659C283.865 140.775 281.467 138.461 281.741 134.237C281.788 133.579 281.726 132.917 281.557 132.279C281.585 132.23 281.613 132.189 281.644 132.14C290.567 118.1 304.323 107.82 320.309 103.245C321.963 102.77 323.639 102.358 325.336 102.01C327.296 102.807 329.396 104.424 330.512 107.67C332.959 114.808 336.929 113.128 333.557 119.107C330.186 125.086 331.573 126.563 335.252 127.649C338.931 128.735 343.169 130.289 342.596 133.202C342.023 136.115 331.65 128.978 327.643 132.084Z" fill="#D32F56"/>
<path opacity="0.8" d="M402.671 191.706C401.272 195.56 399.53 199.281 397.467 202.823C392.682 211.017 386.225 218.109 378.516 223.636C376.65 223.603 374.859 222.897 373.473 221.646C366.681 215.572 375.682 209.119 380.423 205.98C385.163 202.842 376.362 201.8 371.924 195.683C367.486 189.567 377.876 181.276 371.2 180.829C364.525 180.381 356.401 179.948 355.041 172.789C353.681 165.631 360.706 167.104 359.465 161.073C358.224 155.043 364.045 153.913 370.259 155.635C376.474 157.357 377.245 152.769 384.945 154.852C392.645 156.935 389.022 166.421 397.518 168.793C406.014 171.165 404.95 172.939 404.95 172.939C405.551 173.14 406.097 173.479 406.545 173.929C406.054 180.001 404.751 185.98 402.671 191.706V191.706Z" fill="#D32F56"/>
<path opacity="0.8" d="M406.201 159.757C398.109 160.605 398.657 150.497 391.788 151.096C384.861 151.699 387.83 146.771 384.397 141.679C380.965 136.588 369.405 139.349 371.754 134.199C374.104 129.05 380.558 133.079 383.585 129.376C386.612 125.673 393.008 129.204 393.008 129.204C393.458 129.197 393.907 129.253 394.342 129.371V129.371C399.558 136.78 403.246 145.154 405.19 154.006C405.608 155.903 405.944 157.82 406.201 159.757Z" fill="#D32F56"/>
<path opacity="0.8" d="M354.929 120.393C354.929 120.393 360.422 116.499 355.258 112.883C350.093 109.267 349.467 111.315 345.187 109.22C340.908 107.125 337.907 109.938 339.879 114.917C341.851 119.897 341.928 128.106 346.347 125.354C350.766 122.602 351.244 119.473 354.929 120.393Z" fill="#D32F56"/>
</g>
<path d="M37.8154 392.259H61.4694C62.736 391.185 60.5916 388.741 58.3494 388.575C57.3761 388.503 56.1467 388.706 54.7404 389.004C54.4144 384.677 52.554 365.225 45.5479 366.008C37.671 366.881 45.5479 374.573 47.7762 379.127C49.4247 382.498 51.1663 387.336 51.9673 389.612C51.3293 389.75 50.6657 389.887 49.9905 390.011C48.945 386.802 45.0613 376.011 40.1204 376.638C34.3204 377.374 36.6512 381.701 40.7631 384.272C43.7783 386.159 47.4828 388.843 49.2431 390.141C47.7156 390.407 46.1668 390.531 44.6166 390.512C40.5605 390.423 38.5814 391.619 37.8154 392.259Z" fill="#FFB612"/>
<path d="M414.291 392.259H392.319C391.154 391.262 393.133 388.997 395.215 388.839C396.121 388.769 397.264 388.96 398.57 389.235C398.871 385.215 400.598 367.149 407.106 367.874C414.422 368.687 407.106 375.832 405.036 380.061C403.504 383.193 401.888 387.685 401.15 389.806C401.744 389.936 402.359 390.062 402.987 390.176C403.958 387.196 407.565 377.174 412.154 377.756C417.542 378.441 415.376 382.461 411.558 384.845C408.764 386.599 405.316 389.093 403.681 390.297C405.1 390.545 406.539 390.66 407.979 390.642C411.742 390.554 413.579 391.663 414.291 392.259Z" fill="#FFB612"/>
<path d="M429.982 248.119C429.982 248.119 430.506 242.914 427.787 243.093C425.067 243.273 424.346 244.519 424.651 245.521C424.956 246.523 427.601 249.83 427.601 249.83L429.982 248.119Z" fill="#FFB27D"/>
<path d="M472.366 258.552C472.366 258.552 469.355 262.091 462.88 266.178C462.266 266.565 461.625 266.957 460.948 267.343C458.094 269.001 455.13 270.46 452.077 271.71C451.702 271.864 451.262 272.034 450.768 272.213C446.887 273.612 439.748 275.604 435.321 275.781C434.937 275.797 434.572 275.797 434.232 275.781C427.498 275.511 426.676 249.352 426.676 249.352C426.676 249.352 427.426 246.735 430.886 247.395C430.886 247.395 436.141 262.166 438.025 263.37C439.697 264.44 449.31 249.855 457.583 248.837C463.155 248.164 472.366 258.552 472.366 258.552Z" fill="#FFB612"/>
<path d="M454.268 386.11C454.268 386.11 454.764 391.868 453.548 392.467L437.983 392.434C437.983 392.434 437.983 390.638 440.484 390.237C442.984 389.836 447.376 388.373 448.118 385.11C448.861 381.848 454.268 386.11 454.268 386.11Z" fill="#1C3154"/>
<path d="M442.858 316.417C442.935 320.182 443.117 324.067 443.471 327.557C445.152 344.12 445.741 364.141 445.983 367.991C446.402 374.688 447.725 385.388 447.725 385.388C447.725 385.388 450.347 387.879 455.457 386.688C455.457 386.688 459.693 371.278 460.638 355.051C460.654 354.785 460.668 354.518 460.682 354.25C460.792 352.106 460.915 349.652 461.024 347.007C461.802 329.298 462.654 302.967 462.654 302.967L443.124 298.379C443.124 298.379 442.656 307.031 442.858 316.417Z" fill="#2A4E96"/>
<path d="M442.858 316.417C447.809 324.964 457.243 340.711 461.02 347.007C461.798 329.298 462.65 302.967 462.65 302.967L443.119 298.379C443.119 298.379 442.656 307.031 442.858 316.417Z" fill="#233862"/>
<path d="M450.775 272.22C446.894 273.619 439.755 275.611 435.328 275.788C436.006 275.662 440.933 274.686 442.756 272.484C444.712 270.116 448.006 263.69 450.628 266.311C451.855 267.548 451.492 269.988 450.775 272.22Z" fill="#EAA408"/>
<path d="M483.589 313.642C483.589 313.642 484.8 318.4 484.602 319.467C484.404 320.534 483.219 324.104 482.48 324.994C481.742 325.884 481.712 321.131 481.223 320.385C480.734 319.639 480.99 322.158 480.604 322.366C480.217 322.573 479.554 320.457 479.263 319.707C478.972 318.957 480.31 316.347 480.427 314.476C480.543 312.605 483.589 313.642 483.589 313.642Z" fill="#FFB27D"/>
<path d="M493.049 379.565C493.049 379.565 495.82 382.095 495.28 383.894C494.739 385.693 492.239 386.888 491.901 389.086C491.564 391.283 490.211 392.483 488.995 392.483H483.195C483.195 392.483 482.301 390.936 484.462 390.47C486.623 390.004 487.44 387.422 487.305 385.024C487.17 382.626 487.508 379.432 487.508 379.432L492.104 378.367L493.049 379.565Z" fill="#1C3154"/>
<path d="M446.183 303.37C446.183 303.37 464.466 342.517 474.196 359.702C483.927 376.887 486.967 381.673 486.967 381.673C486.967 381.673 492.542 379.476 493.049 377.978C493.049 377.978 489.324 344.815 482.804 336.734C479.123 332.167 474.797 318.458 474.594 313.665C474.392 308.872 470.122 297.428 470.122 297.428L446.183 303.37Z" fill="#2A4E96"/>
<path d="M442.775 301.334C442.775 301.334 448.728 307.746 458.84 309.683C463.278 310.533 472.292 311.356 474.527 308.191C475.053 307.448 475.058 306.348 474.941 304.633C474.639 300.168 473.519 291.542 478.583 274.203C479.03 272.687 479.356 271.137 479.556 269.569C480.662 260.698 480.541 254.003 472.85 250.426C461.33 245.067 456.601 249.476 456.601 249.476C456.601 249.476 450.472 252.342 447.671 260.693C442.078 277.398 442.775 301.334 442.775 301.334Z" fill="#FFB612"/>
<path d="M465.942 248.954C464.685 249.803 463.225 250.303 461.711 250.402C460.197 250.501 458.684 250.196 457.327 249.517C457.078 249.392 457.108 247.67 457.171 245.978C457.234 244.286 457.39 242.688 457.39 242.688L461.49 239.994L465.402 237.431C464.939 246.26 466.818 248.327 465.942 248.954Z" fill="#FFB27D"/>
<path d="M464.72 241.073C464.72 241.073 462.061 245.069 457.178 245.966C457.241 244.305 457.411 242.471 457.411 242.471L461.49 239.978L464.72 241.073Z" fill="#ED985F"/>
<path d="M453.725 241.651C453.725 241.651 463.644 245.353 465.851 239.239C468.059 233.125 470.825 229.48 464.585 226.856C458.345 224.233 456.265 226.127 455.024 227.989C453.783 229.851 451.201 240.528 453.725 241.651Z" fill="#FFB27D"/>
<path d="M472.031 227.544C472.145 227.458 472.375 227.413 472.857 227.481C472.615 227.272 472.326 227.124 472.014 227.052C472.047 226.369 471.926 225.123 470.85 224.61C471.014 224.755 471.143 224.935 471.228 225.137C471.313 225.339 471.352 225.557 471.342 225.775C470.287 224.144 467.644 222.602 459.667 221.669C449.152 220.439 451.255 227.749 452.449 228.805C453.644 229.86 457.434 228.359 459.9 229.052C462.366 229.744 462.119 233.449 462.869 234.11C463.618 234.772 463.458 233.833 464.706 233.539C465.954 233.246 465.688 235.171 465.113 236.336C464.538 237.501 465.793 239.449 465.793 239.449L467.721 238.051C469.651 236.653 472.587 229.681 472.168 227.989C472.103 227.849 472.068 227.698 472.031 227.544Z" fill="#2C3A64"/>
<path d="M474.948 304.633C474.646 300.169 473.526 291.542 478.59 274.203C479.037 272.687 479.363 271.137 479.563 269.569C475.8 268.327 468.946 271.088 468.946 271.088C468.946 271.088 467.332 294.008 474.948 304.633Z" fill="#EAA408"/>
<path d="M474.932 251.584C474.932 251.584 479.563 253.269 482.515 265.537C484.467 273.642 488.059 285.556 488.464 289.305C488.87 293.055 484.357 314.967 484.357 314.967C484.357 314.967 483.722 315.433 482.162 315.119C481.298 314.962 480.521 314.497 479.975 313.809C479.975 313.809 478.897 299.202 479.174 292.304C479.291 289.438 465.919 271.316 458.703 268.981C455.867 268.059 474.932 251.584 474.932 251.584Z" fill="#FFB612"/>
<path d="M410.175 235.704C410.175 235.704 423.556 235.324 438.998 238.17L440.612 234.101L442.381 229.643C442.381 229.643 426.879 222.963 417.558 213.663L410.175 235.704Z" fill="#AEC3FF"/>
<path d="M417.77 213.444L410.087 236.14C409.82 236.062 409.573 235.93 409.359 235.752C409.145 235.575 408.97 235.355 408.844 235.108C408.718 234.86 408.644 234.589 408.626 234.312C408.608 234.035 408.647 233.757 408.741 233.495L415.493 214.425C415.57 214.207 415.692 214.006 415.85 213.837C416.008 213.668 416.2 213.533 416.412 213.441C416.625 213.349 416.854 213.302 417.086 213.302C417.317 213.303 417.546 213.351 417.759 213.444H417.77Z" fill="#F99746"/>
<path d="M425.105 252.591C425.825 252.733 426.572 252.584 427.183 252.177C427.793 251.77 428.218 251.137 428.364 250.417L431.009 237.17C431.151 236.449 431.002 235.702 430.595 235.091C430.188 234.48 429.556 234.054 428.837 233.908V233.908C428.116 233.766 427.369 233.915 426.758 234.323C426.147 234.73 425.723 235.364 425.577 236.084L422.932 249.329C422.79 250.049 422.939 250.797 423.346 251.408C423.753 252.02 424.385 252.445 425.105 252.591V252.591Z" fill="#F99746"/>
<path d="M410.175 235.704C410.175 235.704 423.556 235.324 438.998 238.169L440.612 234.101C426.094 231.135 410.175 235.704 410.175 235.704Z" fill="#739AF0"/>
<path d="M434.728 237.352L438.919 238.088C438.856 238.088 442.803 238.855 444.097 235.355C444.215 235.115 444.299 234.86 444.346 234.597C445.352 230.233 442.949 229.429 442.949 229.429L437.568 227.332L435.859 233.39V233.411L434.728 237.352Z" fill="#F99746"/>
<path d="M434.728 237.352L438.919 238.088C438.856 238.088 442.803 238.855 444.097 235.355C441.732 233.633 435.866 233.386 435.866 233.386V233.407L434.728 237.352Z" fill="#ED7D2B"/>
<path d="M425.461 239.775C425.461 239.775 427.507 240.591 427.133 241.492C426.758 242.394 424.157 243.634 423.745 242.923C423.333 242.212 424.176 239.011 425.461 239.775Z" fill="#FFB27D"/>
<path d="M430.022 247.299C430.214 246.289 430.35 245.269 430.432 244.244C430.458 243.282 430.569 242.497 430.343 242.469C430.118 242.441 429.952 242.618 429.861 242.935C429.771 243.252 429.414 245.162 429.414 245.162L429.594 247.027L430.022 247.299Z" fill="#FFB27D"/>
<path d="M227.716 245.934L216.128 383.833C216.128 383.833 214.912 392.192 221.124 392.208C231.341 392.231 271.971 392.208 271.971 392.208C271.971 392.208 264.288 390.467 264.376 386.553C264.486 381.937 277.92 244.629 277.92 244.629L227.716 245.934Z" fill="#7599EA"/>
<path d="M275.785 389.761C273.776 389.761 234.44 389.834 224.491 389.706C220.156 389.652 219.397 385.847 219.369 383.386C219.356 382.699 219.401 382.013 219.501 381.333L219.802 377.749L220.57 368.613L221.248 360.543L222.121 350.172L222.854 341.417L231.09 243.429L281.297 242.126C281.297 242.126 275.636 299.588 271.634 341.417C271.187 346.078 270.763 350.547 270.37 354.718C270.241 356.051 270.118 357.352 270.002 358.621C269.629 362.582 269.289 366.213 268.996 369.421C268.84 371.111 268.695 372.684 268.565 374.124C268.055 379.763 267.757 383.365 267.752 384.05C267.748 384.425 267.781 384.798 267.85 385.166C268.665 389.561 275.031 389.761 275.785 389.761Z" fill="#90AFF4"/>
<path d="M105.776 170.893L134.003 284.368L137.868 299.91L151.017 352.763H395.276L346.815 170.893H105.776Z" fill="#AEC3FF"/>
<path d="M105.776 170.893L101.862 172.198L145.815 356.71L151.017 352.763L105.776 170.893Z" fill="#90AFF4"/>
<path d="M145.815 356.71H388.57L395.273 352.763H151.017L145.815 356.71Z" fill="#7599EA"/>
<path d="M231.062 392.259H283.623V389.759H231.062V392.259Z" fill="#AEC3FF"/>
<path d="M270.262 356.708L269.992 358.621L220.561 368.613L221.238 360.543L221.562 356.708H270.262Z" fill="#5888DD"/>
<path opacity="0.4" d="M275.785 389.761C273.776 389.761 234.44 389.834 224.491 389.706C220.156 389.652 219.397 385.847 219.369 383.386L268.565 374.124C268.055 379.763 267.757 383.365 267.752 384.05C267.748 384.425 267.781 384.798 267.85 385.166C268.665 389.561 275.031 389.761 275.785 389.761Z" fill="#5888DD"/>
<path d="M105.776 170.893H346.815L385.925 317.058H142.136L105.776 170.893Z" fill="#AEC3FF"/>
<path d="M374.555 310.724H148.868L140.804 278.572L137.684 266.132L136.411 261.059L128.122 228.017L127.693 226.295L123.311 208.83L121.351 201.015L119.679 194.348L115.76 178.722H338.193L342.498 194.348L344.333 201.015L346.487 208.83L360.669 260.313V260.316L361.87 264.678L362.429 266.703L372.22 302.247L374.555 310.724Z" fill="#739AF0"/>
<path d="M342.498 194.351H119.679L115.76 178.722H338.193L342.498 194.351Z" fill="#607CF4"/>
<path d="M124.962 185.785C124.692 184.706 125.349 183.832 126.427 183.832C126.987 183.86 127.524 184.063 127.962 184.414C128.4 184.764 128.717 185.244 128.867 185.785C129.135 186.864 128.478 187.738 127.4 187.738C126.84 187.71 126.303 187.507 125.865 187.156C125.427 186.806 125.111 186.326 124.962 185.785Z" fill="#E9F3FE"/>
<path d="M131.449 185.785C131.179 184.706 131.835 183.832 132.913 183.832C133.474 183.86 134.011 184.063 134.449 184.414C134.887 184.764 135.204 185.244 135.354 185.785C135.621 186.864 134.965 187.738 133.887 187.738C133.327 187.71 132.79 187.507 132.352 187.156C131.914 186.806 131.598 186.326 131.449 185.785V185.785Z" fill="#E9F3FE"/>
<path d="M138.432 185.785C138.164 184.706 138.821 183.832 139.899 183.832C140.459 183.859 140.996 184.063 141.433 184.414C141.871 184.764 142.187 185.244 142.336 185.785C142.607 186.864 141.95 187.738 140.872 187.738C140.312 187.71 139.774 187.507 139.336 187.156C138.898 186.805 138.582 186.326 138.432 185.785V185.785Z" fill="#E9F3FE"/>
<path d="M293.947 87.8662C303.067 77.1474 317.135 55.619 326.605 44.5926C327.04 44.0845 327.321 43.4618 327.414 42.7985C327.506 42.1353 327.406 41.4595 327.126 40.8515C326.845 40.2435 326.396 39.7288 325.832 39.3688C325.268 39.0088 324.612 38.8186 323.943 38.8207H306.713L322.965 2.03658C323.664 0.466041 321.522 -0.785263 320.493 0.591871L281.19 53.2352C280.934 53.577 280.785 53.9863 280.761 54.4122C280.736 54.8382 280.837 55.262 281.051 55.6309C281.265 55.9999 281.583 56.2977 281.965 56.4874C282.347 56.6771 282.776 56.7503 283.199 56.6978L302.708 54.2931L291.101 86.2002C290.463 87.9595 292.736 89.29 293.947 87.8662Z" fill="#F77D48"/>
<path d="M212.814 153.151C214.868 142.616 216.162 123.052 218.33 112.184C218.43 111.683 218.384 111.165 218.198 110.689C218.012 110.214 217.693 109.803 217.28 109.504C216.866 109.205 216.376 109.031 215.866 109.003C215.357 108.975 214.85 109.094 214.407 109.346L202.961 115.796L200.008 85.2844C199.882 83.9818 197.994 83.9492 197.826 85.2495L191.393 134.917C191.352 135.24 191.406 135.567 191.548 135.859C191.691 136.151 191.917 136.395 192.197 136.56C192.477 136.725 192.799 136.803 193.124 136.786C193.448 136.769 193.761 136.658 194.022 136.464L206.081 127.565L210.297 153.104C210.532 154.516 212.54 154.549 212.814 153.151Z" fill="#FFB612"/>
<path d="M384.416 313.835L188.313 330.379C173.411 331.635 162.647 316.442 168.754 302.79L251.836 116.709C258.139 102.591 277.513 100.957 286.088 113.82L399.097 283.349C407.388 295.797 399.304 312.579 384.416 313.835Z" fill="#E6EFFF"/>
<path d="M385.04 321.259L188.934 337.803C184.243 338.198 179.53 337.362 175.26 335.378C170.99 333.394 167.311 330.329 164.586 326.487C161.861 322.645 160.184 318.159 159.721 313.47C159.257 308.782 160.023 304.053 161.944 299.751L245.027 113.668C249.109 104.525 257.501 98.5641 267.471 97.7229C277.441 96.8817 286.712 101.356 292.266 109.686L405.288 279.232C407.901 283.152 409.447 287.686 409.774 292.387C410.101 297.088 409.197 301.793 407.151 306.038C405.106 310.282 401.99 313.92 398.11 316.591C394.231 319.262 389.723 320.874 385.031 321.268L385.04 321.259ZM268.721 112.561C266.545 112.729 264.456 113.485 262.676 114.749C260.896 116.013 259.494 117.738 258.618 119.738L175.537 305.819C174.672 307.755 174.327 309.884 174.535 311.995C174.744 314.105 175.498 316.125 176.725 317.854C177.952 319.584 179.608 320.963 181.531 321.856C183.453 322.749 185.575 323.125 187.686 322.946L383.79 306.402C385.901 306.224 387.93 305.498 389.675 304.296C391.421 303.093 392.823 301.456 393.743 299.546C394.663 297.636 395.07 295.518 394.922 293.403C394.775 291.288 394.079 289.247 392.903 287.483L279.872 117.944C278.675 116.12 277.006 114.655 275.042 113.707C273.077 112.758 270.893 112.363 268.721 112.561V112.561Z" fill="#F77D48"/>
<path d="M264.127 285.367C263.899 282.964 264.159 280.539 264.891 278.239C265.587 276.061 266.73 274.052 268.246 272.342C269.825 270.584 271.741 269.162 273.881 268.161C276.119 267.085 278.69 266.424 281.595 266.178C284.279 265.916 286.988 266.139 289.593 266.835C291.89 267.453 294.038 268.533 295.905 270.009C297.685 271.443 299.147 273.231 300.199 275.261C301.303 277.407 301.964 279.754 302.143 282.161C302.371 284.545 302.109 286.951 301.374 289.231C300.666 291.388 299.523 293.376 298.015 295.072C296.422 296.844 294.485 298.271 292.322 299.267C289.87 300.391 287.237 301.064 284.547 301.254C281.644 301.5 278.999 301.278 276.61 300.59C274.333 299.962 272.206 298.881 270.356 297.412C268.585 295.993 267.126 294.225 266.067 292.218C264.958 290.091 264.298 287.76 264.127 285.367V285.367ZM294.445 249.862L266.197 252.244L254.064 155.991L290.315 152.934L294.445 249.862Z" fill="#F77D48"/>
<path d="M142.353 255.765C142.353 255.765 142.97 254.381 143.368 253.726C143.766 253.071 145.464 251.163 145.757 251.584C146.05 252.006 147.205 254.944 146.588 255.765C145.971 256.585 146.628 258.009 143.561 258.873L142.353 255.765Z" fill="#FFB27D"/>
<path d="M108.342 247.027C108.342 247.027 124.01 260.113 130.119 258.91C134.895 257.964 142.448 255.567 142.448 255.567C142.448 255.567 144.441 257.463 143.878 259.738C143.878 259.738 134.255 268.797 127.4 268.858C116.689 268.949 111.632 263.543 111.632 263.543L108.342 247.027Z" fill="#ED7D2B"/>
<path d="M80.8649 385.075C80.8649 385.075 81.3305 392.418 82.7392 392.532C82.9278 392.546 89.9386 392.546 89.9386 392.546L98.8889 392.495C98.8889 392.495 98.8306 390.337 96.2135 389.88C93.5965 389.424 89.2284 387.585 87.6358 384.125C85.9687 380.476 80.8649 385.075 80.8649 385.075Z" fill="#113C68"/>
<path d="M80.3502 385.586C80.3502 385.586 83.0698 386.497 85.1933 386.497C86.7227 386.477 88.2432 386.26 89.7173 385.851C89.7173 385.851 90.2295 380.893 93.0469 369.971C94.5254 364.248 96.6349 356.887 99.6385 347.741C107.939 322.464 110.463 307.676 110.694 306.276C110.694 306.201 110.71 306.164 110.71 306.164L110.684 306.152L85.163 294.94C85.163 294.94 88.3179 329.778 84.2922 343.149C83.6816 345.254 83.1941 347.394 82.8323 349.557C80.292 364.081 80.3502 385.586 80.3502 385.586Z" fill="#2A4E96"/>
<path d="M93.0469 369.971C94.5254 364.248 96.6349 356.887 99.6385 347.741C107.939 322.464 110.463 307.676 110.694 306.276C110.694 306.234 110.694 306.194 110.694 306.152L85.1723 294.94C85.1723 294.94 88.3273 329.778 84.3015 343.149C83.7287 345.017 93.0469 369.971 93.0469 369.971Z" fill="#233862"/>
<path d="M100.798 385.075C100.798 385.075 101.252 392.418 102.661 392.532C102.849 392.546 109.86 392.546 109.86 392.546L118.81 392.495C118.81 392.495 118.75 390.337 116.135 389.88C113.52 389.424 109.15 387.585 107.555 384.125C105.9 380.476 100.798 385.075 100.798 385.075Z" fill="#15447C"/>
<path d="M115.267 295.76C115.267 295.76 115.6 318.335 111.695 346.054C107.79 373.774 109.115 385.539 109.115 385.539C109.115 385.539 106.435 386.408 105.352 386.497C102.596 386.73 99.7643 385.849 99.7643 385.849C99.7643 385.849 94.1762 358.12 95.7781 344.246C97.3801 330.372 88.134 296.631 88.134 296.631L115.267 295.76Z" fill="#2A4E96"/>
<path d="M97.1704 242.93L102.153 246.192L106.691 244.908C107.52 243.725 107.739 241.441 107.753 239.463C107.758 238.252 107.698 237.042 107.574 235.837L100.852 232.868L98.3439 231.764C98.3439 231.803 98.5395 233.824 98.5768 234.12C99.0354 239.367 97.1704 242.93 97.1704 242.93Z" fill="#FFB27D"/>
<path d="M115.381 302.035C109.18 308.028 85.7148 307.019 84.2688 300.418C82.8229 293.816 85.8452 244.226 96.437 241.11C98.635 240.465 110.386 244.265 110.386 244.265C111.682 247.84 112.703 251.508 113.439 255.238C113.672 256.433 114.359 269.107 114.871 280.963C115.104 286.507 115.313 291.875 115.416 295.806C115.511 299.486 115.516 301.905 115.381 302.035Z" fill="#F99746"/>
<path d="M99.0704 234.22C100.433 236.527 105.217 238.545 107.753 239.47C107.758 238.259 107.698 237.049 107.574 235.844L100.852 232.875C99.3661 232.857 98.4627 233.19 99.0704 234.22Z" fill="#FCA56B"/>
<path d="M110.109 235.436C110.109 235.436 99.28 238.817 97.2799 232.034C95.2799 225.251 92.5347 221.122 99.3638 218.678C106.193 216.233 108.307 218.421 109.525 220.523C110.743 222.625 112.875 234.381 110.109 235.436Z" fill="#FFB27D"/>
<path d="M109.099 219.868C109.099 219.868 108.4 227.761 106.77 227.418C105.141 227.076 103.345 226.342 103.585 228.721C103.825 231.1 102 235.178 99.6479 235.168C94.6046 235.147 89.1236 222.196 90.5043 219.74C94.4952 212.654 114.857 211.223 109.099 219.868Z" fill="#163560"/>
<path d="M107.506 241.28C107.366 241.222 99.4453 237.666 98.5186 237.971C97.5919 238.277 96.437 241.11 96.437 241.11L110.386 244.265C110.386 244.265 109.287 242.033 107.506 241.28Z" fill="#ED7D2B"/>
<path d="M156.826 279.689L112.419 321.529C111.548 322.349 110.449 322.61 109.979 322.112L108.48 320.518C108.014 320.017 108.335 318.936 109.206 318.115L153.613 276.273C154.484 275.455 155.583 275.191 156.053 275.692L157.552 277.286C158.023 277.787 157.697 278.868 156.826 279.689Z" fill="#1F4D84"/>
<path d="M131.905 303.17L112.419 321.529C111.548 322.349 110.449 322.61 109.979 322.112L108.48 320.518C108.014 320.017 108.335 318.936 109.206 318.116L128.692 299.754L131.905 303.17Z" fill="#739AF0"/>
<path d="M146.618 263.89C148.165 268.965 150.849 273.619 154.467 277.497C158.084 281.376 162.539 284.376 167.492 286.269C172.444 288.162 177.763 288.898 183.043 288.421C188.323 287.943 193.424 286.265 197.958 283.514C202.491 280.764 206.336 277.013 209.201 272.549C212.065 268.084 213.873 263.024 214.485 257.754C215.098 252.484 214.5 247.143 212.736 242.14C210.972 237.137 208.09 232.603 204.309 228.884C204.132 228.707 203.948 228.53 203.764 228.357C198.175 223.096 191.005 219.831 183.37 219.069C175.735 218.306 168.062 220.09 161.545 224.143C155.027 228.195 150.03 234.289 147.331 241.478C144.632 248.666 144.381 256.545 146.618 263.89V263.89ZM156.568 231.734C160.913 227.111 166.53 223.882 172.709 222.454C178.888 221.027 185.351 221.465 191.281 223.714C197.211 225.963 202.342 229.921 206.024 235.088C209.706 240.254 211.774 246.398 211.967 252.742C212.161 259.085 210.47 265.343 207.109 270.725C203.748 276.106 198.867 280.37 193.085 282.976C187.303 285.581 180.878 286.413 174.624 285.364C168.37 284.316 162.566 281.435 157.948 277.086C154.879 274.201 152.408 270.739 150.677 266.898C148.946 263.057 147.989 258.912 147.861 254.7C147.732 250.488 148.435 246.292 149.929 242.352C151.423 238.413 153.679 234.807 156.568 231.741V231.734Z" fill="#1F4D84"/>
<g opacity="0.5">
<path opacity="0.5" d="M203.268 275.709C198.923 280.331 193.306 283.561 187.127 284.989C180.948 286.417 174.484 285.978 168.554 283.73C162.624 281.481 157.493 277.523 153.811 272.356C150.128 267.189 148.06 261.046 147.867 254.702C147.674 248.358 149.365 242.1 152.726 236.718C156.087 231.337 160.967 227.073 166.75 224.468C172.532 221.862 178.957 221.031 185.211 222.079C191.466 223.128 197.269 226.009 201.887 230.359C204.968 233.237 207.449 236.697 209.187 240.539C210.925 244.382 211.886 248.53 212.014 252.746C212.142 256.962 211.436 261.161 209.935 265.102C208.433 269.043 206.168 272.648 203.268 275.709V275.709Z" fill="#B3CFF9"/>
</g>
<path d="M115.416 295.806C90.9467 278.356 92.9817 255.073 92.9817 255.073C101.925 260.12 110.801 271.281 114.868 280.963C115.111 286.507 115.313 291.875 115.416 295.806Z" fill="#ED7D2B"/>
<path d="M139.566 287.858C141.291 287.46 142.451 286.155 142.69 285.927C142.69 285.927 143.426 285.978 142.572 287.558C142.499 287.688 142.339 288.024 142.22 288.257C142.209 288.279 142.203 288.304 142.204 288.329C142.205 288.355 142.212 288.379 142.225 288.401C142.238 288.423 142.255 288.441 142.277 288.454C142.299 288.467 142.323 288.475 142.348 288.476C143.345 288.55 144.344 288.156 146.262 288.557C146.528 288.613 146.604 289.256 146.595 289.517C146.633 290.119 146.449 290.715 146.078 291.19C145.771 291.598 144.914 292.036 142.986 292.81C142.255 293.106 140.164 292.882 138.204 292.209L136.637 291.482L137.121 288.569L137.517 288.65C138.141 288.783 138.914 288.01 139.566 287.858Z" fill="#FFB27D"/>
<path d="M100.586 244.265C100.586 244.265 78.5993 248.46 107.054 280.318C111.604 285.414 136.192 292.05 136.192 292.05C136.192 292.05 138.686 289.925 137.428 288.205C137.428 288.205 120.499 275.904 116.773 273.949C115.099 273.069 110.27 254.313 107.539 249.795C104.808 245.277 100.586 244.265 100.586 244.265Z" fill="#F99746"/>
<path d="M142.949 256.152C142.949 256.152 143.668 254.777 143.81 254.054C143.952 253.332 144.856 251.214 145.228 250.841C145.377 250.692 145.871 250.885 145.927 251.526C145.9 252.011 145.78 252.485 145.573 252.924C145.179 253.91 145.245 255.254 145.107 255.69C144.77 256.785 142.949 256.152 142.949 256.152Z" fill="#FFB27D"/>
<path d="M151.699 201.56C151.528 201.749 151.415 201.984 151.374 202.235C151.332 202.487 151.364 202.745 151.466 202.979C151.808 203.925 152.938 204.983 154.26 206.039C154.428 206.174 154.577 206.297 154.707 206.412L154.807 206.502L154.884 206.57C156.109 207.7 155.648 207.968 157.846 210.252C160.354 212.864 162.081 212.913 162.572 212.675C162.987 212.472 162.144 211.086 161.208 209.529C161.164 209.455 161.12 209.378 161.073 209.296C160.947 209.089 160.824 208.879 160.7 208.67C159.604 206.805 159.886 205.918 160.146 203.128C160.358 200.863 163.674 190.471 163.674 190.471L158.868 189.641C158.868 189.641 157.417 197.916 155.822 199.195C154.97 199.873 154.016 199.894 153.196 200.386C153.138 200.421 153.08 200.456 153.024 200.493C152.537 200.788 152.091 201.147 151.699 201.56Z" fill="#FFB27D"/>
<path d="M151.699 201.56C151.528 201.749 151.415 201.984 151.374 202.235C151.332 202.487 151.364 202.745 151.466 202.979C151.885 203.925 152.987 204.976 154.26 206.029C154.425 206.167 154.572 206.293 154.703 206.412L154.803 206.502L154.88 206.57C156.104 207.7 155.643 207.968 157.841 210.252C160.349 212.864 162.077 212.913 162.568 212.675C162.982 212.472 162.139 211.086 161.203 209.529C159.449 208.843 157.907 207.705 156.733 206.232C155.28 204.368 154.293 202.003 153.303 200.549L153.019 200.495C152.534 200.79 152.09 201.148 151.699 201.56V201.56Z" fill="#233862"/>
<path d="M190.462 198.568C190.758 200.055 192.872 199.808 195.235 199.23C197.598 198.652 197.035 199.339 200.399 198.969C203.764 198.598 204.781 197.338 204.884 196.842C204.975 196.399 203.314 196.24 201.531 196.035L200.858 195.954C198.846 195.7 197.365 194.402 195.545 193.332C193.815 192.321 191.233 188.206 191.233 188.206L186.62 188.569C186.62 188.569 189.039 192.249 189.975 193.847C190.525 194.779 190.494 196.033 190.427 196.993C190.367 197.517 190.378 198.047 190.462 198.568V198.568Z" fill="#FFB27D"/>
<path d="M195.23 199.23C197.594 198.654 197.03 199.339 200.395 198.969C203.759 198.598 204.777 197.338 204.879 196.842C204.97 196.399 203.31 196.24 201.526 196.035L201.51 196.07C200.069 196.994 198.405 197.511 196.695 197.566C194.413 197.62 191.996 196.965 190.422 196.991C190.362 197.516 190.373 198.046 190.457 198.568C190.753 200.055 192.867 199.808 195.23 199.23Z" fill="#233862"/>
<path d="M172.794 169.054L168.48 180.661L162.845 195.807C161.84 195.881 160.83 195.789 159.855 195.534C158.509 195.143 156.963 194.136 156.963 194.136C156.963 194.136 158.533 177.86 161.45 168.518C162.2 166.121 163.038 164.182 163.963 163.089C168.482 157.753 172.794 169.054 172.794 169.054Z" fill="#233862"/>
<path d="M168.417 150.616C165.962 149.821 159.569 150.599 152.616 151.855C151.678 152.024 150.711 151.904 149.843 151.511C148.974 151.119 148.245 150.472 147.752 149.656L130.275 148.283C130.275 148.283 124.503 161.08 127.658 169.238C128.124 170.436 129.139 171.184 130.711 171.21C130.711 171.21 141.272 171.228 144.651 171.231C153.343 171.231 163.045 165.256 164.302 165.007C166.358 164.597 167.178 168.709 169.232 173.027C171.285 177.345 188.536 192.156 188.536 192.156C188.536 192.156 191.191 192.184 192.285 191.771C193.463 191.331 193.896 190.755 193.896 190.755C193.896 190.755 174.785 152.673 168.417 150.616Z" fill="#2A4E96"/>
<path d="M145.913 98.2914C144.904 97.6912 143.747 97.3891 142.574 97.4199C142.035 97.4351 141.496 97.4024 140.963 97.3221C134.292 96.3411 130.273 106.037 130.036 108.973C129.603 114.353 126.757 115.171 122.755 118.538C114.727 125.296 117.078 133.142 121.465 136.059C124.098 137.809 128.739 136.059 128.739 136.059C128.804 136.103 141.433 128.998 147.657 125.573C156.989 124.243 149.662 100.526 145.913 98.2914Z" fill="#233862"/>
<path d="M142.441 122.646C142.469 122.665 139.379 123.718 137.319 122.803C135.375 121.943 133.903 118.741 133.933 118.739C134.818 118.699 135.796 117.926 136.536 112.85L136.914 112.986L143.242 115.267C143.242 115.267 142.777 117.301 142.486 119.228C142.232 120.859 142.097 122.416 142.441 122.646Z" fill="#FFB27D"/>
<path d="M143.237 115.267C143.237 115.267 142.986 116.364 142.616 118.413C138.981 117.755 137.421 114.952 136.909 112.986L143.237 115.267Z" fill="#ED975D"/>
<path d="M144.18 117.285C144.18 117.285 135.519 116.12 136.329 110.732C137.139 105.345 136.562 101.57 142.127 102.085C147.692 102.6 148.455 104.818 148.621 106.682C148.786 108.547 146.455 117.441 144.18 117.285Z" fill="#FFB27D"/>
<path d="M148.318 103.73C148.318 103.73 142.772 108.509 139.004 108.894C135.237 109.278 133.805 108.067 133.805 108.067C135.311 106.72 136.524 105.077 137.368 103.241C137.559 102.809 137.863 102.436 138.248 102.161C138.632 101.886 139.083 101.719 139.554 101.677C142.234 101.444 147.338 101.339 148.318 103.73Z" fill="#233862"/>
<path d="M144.842 103.301C144.842 103.301 146.704 105.096 147.28 106.428C147.843 107.712 148.011 110.784 147.561 112.005C147.561 112.005 150.453 106.382 148.819 103.649C147.084 100.752 144.842 103.301 144.842 103.301Z" fill="#233862"/>
<path d="M149.729 135.416C149.461 152.96 149.655 149.294 147.736 150.958C147.27 151.359 145.973 151.597 144.264 151.711C138.888 152.065 129.439 151.175 129.081 150.182C127.842 146.74 128.718 145.673 127.684 140.395C127.577 139.836 127.451 139.23 127.288 138.569C126.427 134.952 125.586 133.722 128.65 127.91C131.426 122.649 134.31 118.375 134.569 118.531C141.889 122.882 142.485 119.23 142.485 119.23C142.485 119.23 149.862 126.859 149.729 135.416Z" fill="#F99746"/>
<path d="M168.48 180.661L162.845 195.807C161.84 195.881 160.83 195.789 159.855 195.534C158.509 195.143 156.963 194.136 156.963 194.136C156.963 194.136 158.533 177.86 161.45 168.518L168.48 180.661Z" fill="#2A4E96"/>
<path d="M142.481 119.235C142.481 119.235 150.015 120.517 150.898 123.763C151.78 127.009 154.686 146.713 154.686 146.713C154.686 146.713 152.563 148.789 150.793 147.018C149.024 145.247 145.231 128.579 145.231 128.579L142.481 119.235Z" fill="#F99746"/>
<path d="M144.264 151.711C138.888 152.065 129.44 151.175 129.081 150.182C127.842 146.74 128.718 145.673 127.684 140.395L130.28 133.09C130.28 133.09 129.849 141.227 132.245 143.369C134.641 145.51 142.062 147.502 143.226 149.29C143.732 150.018 144.085 150.842 144.264 151.711V151.711Z" fill="#ED7D2B"/>
<path d="M138.106 148.285C138.106 148.285 143.41 147.106 144.267 147.586C145.124 148.066 147.212 149.774 147.473 150.371C147.734 150.967 145.568 149.917 144.865 149.728C144.399 149.604 143.205 150.021 142.611 150.222C140.108 151.056 138.574 150.625 138.574 150.625L138.106 148.285Z" fill="#FFB27D"/>
<path d="M134.564 118.536C134.564 118.536 127.444 118.972 124.978 122.413C121.507 127.256 114.615 147.894 118.559 150.648C123.002 153.752 138.772 151.461 138.772 151.461C138.772 151.461 139.298 149.008 138.569 147.819C137.84 146.631 125.966 144.704 125.428 144.163C124.89 143.623 132.28 133.472 132.28 131.827C132.28 130.182 134.564 118.536 134.564 118.536Z" fill="#F99746"/>
<path d="M144.523 149.054C144.523 149.054 145.633 150.49 145.997 150.66C146.18 150.76 146.389 150.805 146.597 150.79L145.848 149.441L144.523 149.054Z" fill="#FFB27D"/>
<path d="M144.267 147.577L147.496 149.147C147.433 149.226 147.35 149.286 147.256 149.323C147.162 149.359 147.06 149.37 146.961 149.355C146.484 149.271 146.016 149.142 145.564 148.97L144.267 147.577Z" fill="#FFB27D"/>
<path d="M171.853 151.277L138.106 151.266V152.011L171.553 152.023L171.853 151.277Z" fill="#233862"/>
<path d="M145.997 152.014L171.553 152.023L179.246 132.895L153.729 132.885L145.997 152.014Z" fill="#233862"/>
<path d="M165.106 142.455C165.297 141.782 164.91 141.237 164.237 141.237C163.883 141.256 163.544 141.383 163.264 141.601C162.984 141.819 162.777 142.117 162.67 142.455C162.477 143.126 162.866 143.672 163.539 143.672C163.892 143.652 164.231 143.524 164.511 143.307C164.791 143.09 164.998 142.793 165.106 142.455V142.455Z" fill="white"/>
<path d="M338.06 224.163C334.617 223.019 332.239 224.463 332.239 224.463C322.325 224.871 321.957 235.04 323.121 238.824C324.751 244.137 318.972 248.329 325.387 250.475C332.838 252.971 339.073 250.009 338.659 251.295C362.173 253.153 345.891 226.763 338.06 224.163Z" fill="#163560"/>
<path d="M327.778 273.616C327.021 275.033 326.134 276.376 325.128 277.629C323.07 280.208 312.262 274.082 313.193 273.616C314.124 273.15 319.554 257.494 320.847 255.525C322.139 253.556 326.549 252.535 326.549 252.535L327.778 273.616Z" fill="#F99746"/>
<path d="M364.25 379.222C364.25 379.222 367.233 381.946 366.651 383.882C366.068 385.819 363.377 387.107 363.014 389.475C362.65 391.842 361.195 393.131 359.884 393.131H353.642C353.642 393.131 352.678 391.465 355.006 390.964C357.335 390.463 358.213 387.681 358.066 385.101C357.919 382.522 358.285 379.078 358.285 379.078L363.233 377.931L364.25 379.222Z" fill="#1F447F"/>
<path d="M339.013 380.378C339.013 380.378 340.086 391.919 338.78 392.565L322.015 392.53C322.015 392.53 322.015 390.596 324.707 390.165C327.399 389.733 332.13 388.158 332.929 384.644C333.727 381.13 339.013 380.378 339.013 380.378Z" fill="#1C3154"/>
<path d="M351.896 265.831C352.045 268.413 352.045 271.002 351.896 273.584C351.73 276.38 348.897 280.143 348.494 281.07C347.486 283.401 346.349 283.778 346.349 283.778L337.548 285.938L334.454 286.695L324.698 283.778C324.698 283.778 320.253 271.365 322.039 264.377C323.825 257.389 326.549 252.535 326.549 252.535C326.549 252.535 333.18 251.044 344.878 251.876L351.896 265.831Z" fill="#F99746"/>
<path d="M352.734 273.681C352.568 276.478 348.897 280.143 348.494 281.07C347.486 283.401 346.349 283.778 346.349 283.778L337.548 285.938L335.96 281.38C335.96 281.38 348.817 277.999 346.75 266.09L352.734 273.681Z" fill="#ED7D2B"/>
<path d="M325.317 285.663C325.317 285.663 320.486 300.714 320.176 305.84C319.866 310.967 329.413 378.639 329.797 381C330.158 383.225 332.919 384.644 332.919 384.644C333.879 385.114 334.982 385.197 336.002 384.877C338.519 384.178 339.313 383.316 339.313 383.316C339.313 383.316 343.073 335.051 340.747 317.81C339.33 307.147 338.543 296.41 338.391 285.654L325.317 285.663Z" fill="#233862"/>
<path d="M345.79 285.213C345.79 285.213 353.16 295.112 353.847 301.802C354.534 308.492 354.925 331.992 356.389 338.514C357.854 345.036 363.228 357.589 363.228 377.931C363.228 377.931 362.669 379.096 360.941 379.718C360.282 379.941 359.611 380.127 358.932 380.275C358.24 380.433 357.515 380.353 356.874 380.048C356.233 379.743 355.713 379.232 355.397 378.595C351.763 371.269 340.179 347.637 339.585 342.731C339.164 339.26 335.508 316.284 327.529 302.804C325.615 299.567 328.693 286.695 328.693 286.695L345.79 285.213Z" fill="#2A4E96"/>
<path d="M324.546 283.349C324.546 283.349 326.486 284.885 330.339 284.962C334.943 285.055 346.347 283.797 346.347 283.797C346.661 284.736 346.825 285.719 346.834 286.709C346.834 286.709 332.903 290.226 324.833 287.224C324.833 287.206 323.792 285.246 324.546 283.349Z" fill="#233862"/>
<path d="M329.233 288.923C328.069 288.923 327.138 287.856 327.138 286.544C327.138 285.232 328.069 284.165 329.233 284.165C330.398 284.165 331.329 285.232 331.329 286.544C331.329 287.856 330.398 288.923 329.233 288.923ZM329.233 284.862C328.458 284.862 327.836 285.617 327.836 286.544C327.836 287.471 328.465 288.226 329.233 288.226C330.002 288.226 330.63 287.471 330.63 286.544C330.63 285.617 330.009 284.862 329.233 284.862Z" fill="white"/>
<path d="M339.299 293.25L318.362 293.446L308.059 269.214L328.996 269.019L339.299 293.25Z" fill="#B5453C"/>
<path d="M336.561 282.301L335.026 280.413C335.026 280.413 333.988 279.481 333.234 279.327C332.479 279.174 330.889 278.253 330.735 278.512C330.581 278.771 331.958 280.609 331.958 280.609H332.027C330.446 281.8 326.456 280.749 325.974 281.234C325.378 281.823 326.796 283.098 327.557 283.797C328.318 284.496 330.495 285.703 332.193 285.174C333.434 284.787 335.385 284.393 335.385 284.393L336.561 282.301Z" fill="#FFB27D"/>
<path d="M309.633 273.479C309.633 273.479 310.951 271.98 311.787 272.7C312.623 273.42 311.568 276.948 310.772 276.59C309.975 276.231 309.177 273.917 309.633 273.479Z" fill="#FFB27D"/>
<path d="M344.878 251.876C344.878 251.876 350.871 252.535 355.172 260.357C358.564 266.525 364.362 277.894 362.173 281.096C361.214 282.506 352.007 287.523 334.246 284.657C334.246 284.657 334.526 282.41 335.96 281.371C335.96 281.371 350.904 276.569 350.88 275.613C350.831 273.807 348.859 272.246 340.512 263.888C338.242 261.625 344.878 251.876 344.878 251.876Z" fill="#F99746"/>
<path d="M340.265 252.193C340.47 251.915 340.205 251.027 339.876 249.396C339.578 247.91 339.073 245.61 339.082 243.023L338.642 243.098L331.213 244.347C331.213 244.347 331.382 246.334 331.387 248.208V248.255C331.387 249.886 330.949 252.339 331.497 252.659C334.312 254.308 339.478 253.255 340.265 252.193Z" fill="#FFB27D"/>
<path d="M331.213 244.345C331.213 244.345 331.362 247.141 331.366 249.021C335.522 248.921 337.741 244.88 338.642 243.096L331.213 244.345Z" fill="#E8945B"/>
<path d="M330.765 247.698C330.765 247.698 340.503 246.3 339.546 240.241C338.589 234.183 339.201 229.928 332.943 230.559C326.684 231.191 325.846 233.691 325.673 235.79C325.501 237.89 328.207 247.893 330.765 247.698Z" fill="#FFB27D"/>
<path d="M328.495 231.118C328.495 231.118 332.286 237.797 336.533 238.197C340.78 238.598 342.377 237.219 342.377 237.219C340.082 235.771 338.362 233.569 337.511 230.99C337.511 230.99 329.965 227.425 328.495 231.118Z" fill="#163560"/>
<path d="M329.247 231.589C329.247 231.589 327.385 232.642 326.81 234.211C326.096 236.047 325.947 238.056 326.381 239.978C326.381 239.978 323.61 235.469 325.426 232.379C327.352 229.103 329.247 231.589 329.247 231.589Z" fill="#163560"/>
<path d="M543.792 392.259H3.99322C3.6203 392.259 3.31799 392.562 3.31799 392.935V393.324C3.31799 393.697 3.6203 394 3.99322 394H543.792C544.164 394 544.467 393.697 544.467 393.324V392.935C544.467 392.562 544.164 392.259 543.792 392.259Z" fill="#6F30A5"/>
</svg>
