<?xml version="1.0" encoding="utf-8"?>
<!-- Generator: Adobe Illustrator 23.0.1, SVG Export Plug-In . SVG Version: 6.00 Build 0)  -->
<svg version="1.1" id="_x3C_Layer_x3E_" xmlns="http://www.w3.org/2000/svg" xmlns:xlink="http://www.w3.org/1999/xlink" x="0px"
	 y="0px" viewBox="0 0 2975 1700" style="enable-background:new 0 0 2975 1700;" xml:space="preserve">
<style type="text/css">
	.st0{fill:#EBF2F9;}
	.st1{fill:#ACD29A;}
	.st2{fill:#FFB07B;}
	.st3{fill:#365DA4;}
	.st4{fill:#2B478B;}
	.st5{fill:#C65447;}
	.st6{fill:#EA8E50;}
	.st7{fill:#D86713;}
	.st8{fill:#F1A34F;}
	.st9{fill:#80BDCC;}
	.st10{fill:#5F9AA8;}
	.st11{fill:#2C3A64;}
	.st12{fill:#35488B;}
	.st13{fill:#935C2F;}
	.st14{fill:#A16D3C;}
	.st15{fill:#D3782F;}
	.st16{fill:#E69D43;}
	.st17{fill:#4A75CB;}
	.st18{fill:#699DEE;}
	.st19{fill:#C3E0F4;}
	.st20{fill:#1E3D70;}
	.st21{fill:#233862;}
	.st22{fill:#2A4E96;}
	.st23{fill:#82B378;}
	.st24{fill:#2E3552;}
</style>
<g>
	<path class="st0" d="M541.91,1503.26c0,0-497.43-497.86-188.52-795.54c308.91-297.67,553.06,88.76,721.91,60.29
		c213.73-36.04,306.15-578.26,625.66-578.78c363.53-0.59,630.36,214.32,488.23,726.12c-104.83,377.49,615.73,68.36,509.9,595.24
		L541.91,1503.26z"/>
	<path class="st1" d="M1626.84,1438.57c-67.62-10.88-118.67,12.81-167.76,6c-39.15-5.43-59.55-45.04-112.16-56.26
		c12.51-7.38,27.09-16.61,34.06-23.32c13.54-13.04,32.99-39.12,0-40.15c-23.73-0.74-42.21,38.79-50.72,61.03
		c-7.79-0.65-16.22-0.7-25.41-0.03c10.86-35,32.03-102.74,37.21-115.75c7.05-17.71-22.56-76.75-57.45-10.49
		c-24.47,46.47-7.85,100.18,4.25,128.11c-9.56,1.54-18.58,3.77-27.2,6.46c-28.84-65.78-120.56-253.34-220-230.03
		c-108.4,25.41,123.84,151.49,182.41,244.98c-47.85,22.18-89.89,49.12-162.57,29.45c-193.14-52.29-208.46,65.36-208.46,65.36
		l863.11,0.29C1716.17,1504.22,1694.46,1449.45,1626.84,1438.57z"/>
	<g>
		<path class="st2" d="M1392.05,1015.23c0.89,8.31,12.64,8.01,25.92,6.02c13.28-1.99,9.85,1.5,28.53,1.14
			c18.68-0.36,24.91-6.75,25.72-9.44c0.73-2.39-8.33-4.09-18.03-6.11c-1.22-0.25-2.44-0.52-3.67-0.78
			c-10.94-2.4-18.39-10.28-27.91-17.06c-9.01-6.42-15.09-35.85-15.09-35.85l-26.55-0.16c0,0,8.34,26.62,12.69,35.87
			c2.56,5.44-0.17,12.43-1.02,17.68C1392.18,1009.38,1391.73,1012.3,1392.05,1015.23z"/>
		<path class="st3" d="M1417.97,1021.24c13.28-1.99,9.85,1.5,28.53,1.14c18.68-0.36,24.91-6.75,25.72-9.44
			c0.73-2.39-8.33-4.09-18.03-6.11l-0.11,0.18c0,0-11.81,6.85-27.23,5.82c-12.57-0.84-25.53-5.65-34.21-6.29
			c-0.46,2.85-0.91,5.77-0.6,8.69C1392.93,1023.53,1404.69,1023.23,1417.97,1021.24z"/>
		<path class="st2" d="M1184.46,1013.91c0.58,8.33,12.33,8.48,25.68,6.99c13.35-1.49,9.79,1.87,28.46,2.21
			c18.68,0.34,25.14-5.8,26.06-8.47c0.82-2.37-8.17-4.4-17.79-6.79c-1.21-0.3-2.42-0.61-3.64-0.92
			c-10.84-2.81-17.99-10.96-27.24-18.09c-8.77-6.76-1.55-34.79-1.55-34.79l-20.15-9.51c0,0-2.77,28.89-4.27,43.5
			c-0.61,5.98-3.59,11.99-4.65,17.2C1184.82,1008.08,1184.26,1010.97,1184.46,1013.91z"/>
		<path class="st3" d="M1210.14,1020.9c13.35-1.49,9.79,1.87,28.46,2.21c18.68,0.34,25.14-5.8,26.06-8.47
			c0.82-2.37-8.17-4.4-17.79-6.79l-0.12,0.18c0,0-12.06,6.4-27.43,4.79c-12.53-1.31-25.3-6.6-33.95-7.58
			c-0.57,2.83-1.13,5.73-0.92,8.66C1185.04,1022.24,1196.79,1022.39,1210.14,1020.9z"/>
		<path class="st4" d="M1229.72,597.91c0,0-5.58,27.02-11.17,164.06c0,0-10.37,25.37-17.88,56.4
			c-7.52,31.02-12.83,160.48-12.83,160.48s3,4.32,12.1,4.87c7.43,0.45,13.22-2.81,13.22-2.81s52.27-169.56,77.72-235.38
			c25.44-65.83,40.35-159.82,40.35-159.82L1229.72,597.91z"/>
		<path class="st4" d="M1292.59,609.48c0,0,4.12,27.28,46.32,157.78c0,0-0.94,27.39,2.75,59.1c3.69,31.71,46.4,156.56,46.4,156.56
			s5.67,1.97,14.18-0.28c7.91-2.09,14.11-6.85,14.11-6.85s-16.38-178.44-15.3-249.01c1.08-70.56-17.48-163.91-17.48-163.91
			L1292.59,609.48z"/>
		<path class="st5" d="M1367.33,231.54c-6.62-4.21-14.75-5.04-20.48-4.99c1.55-1.44,4.46-1.85,4.46-1.85
			c-3.51-0.7-11.59,2.41-11.59,2.41c-48.27-21.43-59.63,50.66-59.44,67.55c0.19,16.89-0.66,36.28-25.99,50.15
			c-49.83,27.3-11.63,81.21-11.63,81.21c-8.97,25.74,24.24,57.27,24.24,57.27c-0.56-13.67,62.18-100.75,96.01-120.62
			c8.56-11.34,12.43-31.94,12.73-33.56c-2.2,16.37-5.47,25.46-8.25,30.52C1396.41,335.5,1384.86,242.69,1367.33,231.54z"/>
		<path class="st2" d="M1356.81,353.34c0.17,0.08-15.83,8.38-27.86,5.09c-11.32-3.08-18.72-17.77-18.56-17.8
			c4.79-0.95,6.18-7.54,6.08-35.84l2.17,0.43l35.13,6.96l1.31,0.25c0,0-0.83,11.47-0.86,22.27c-0.01,2.29,0.03,4.54,0.11,6.65
			C1354.56,347.62,1355.26,352.61,1356.81,353.34z"/>
		<path class="st6" d="M1354.21,334.7c-0.01,2.29,0.03,4.54,0.11,6.65c-20.43-0.82-32.21-24.19-36.66-34.44l36.1,5.27l1.31,0.25
			C1355.07,312.43,1354.24,323.9,1354.21,334.7z"/>
		<path class="st5" d="M1314.87,301.25c0,0-10.69-16.88-13.25-31.32c-1.83-10.31,3.42-48.51,41.81-43.01c0,0,11.15,1.1,21.63,8.18
			c8.34,5.63,20.37,17.78,6.92,51.12l-3.49,11.26L1314.87,301.25z"/>
		<path class="st2" d="M1357.22,329.41c0,0-47.83-6.32-43.44-36.05c4.4-29.73,1.18-50.57,31.91-47.79
			c30.73,2.78,34.97,15,35.92,25.28C1382.55,281.13,1369.77,330.29,1357.22,329.41z"/>
		<path class="st5" d="M1367.53,248.08c0,0-18.26,32.92-39.08,35.09c-20.82,2.17-28.72-4.5-28.72-4.5s17.2-9.93,23.57-30.78
			C1323.31,247.9,1360.15,230.02,1367.53,248.08z"/>
		<path class="st5" d="M1363.87,250.43c0,0,8.6,9.24,9.85,17.16c1.25,7.92,0,23.66,4.62,23.81c0,0,13.38-22.24,4.31-37.29
			C1373.04,238.15,1363.87,250.43,1363.87,250.43z"/>
		<path class="st7" d="M1681.54,654.34c-10.04-21.26-37.93-38.85-61.44-38.85c-17.36,0-32.67,5.92-44.52,15.57
			c-6.77,5.52-16.99,1.88-18.83-6.66l-20.57-95.59c-3-13.94-16.73-22.81-30.67-19.81l-332.91,71.65
			c-13.62,2.93-22.28,16.35-19.35,29.97l71.57,332.55c2.05,9.51,9.02,16.69,17.67,19.44l-4.37,1.24h12.92l0.11-0.02
			c1.58-0.05,3.18-0.23,4.78-0.57l7.25-1.56l0,0l0,0l85.44-18.39c11.99-2.58,16.86-17.09,8.8-26.33c-7.78-8.93-13.38-20-15.77-32.53
			c-6.72-35.32,15.11-70.3,49.81-79.71c38.6-10.46,77.58,13.64,85.89,52.23c3.13,14.52,1.45,28.95-3.96,41.65
			c-2.1,4.93-0.36,10.06,3.25,12.98l-4.98,2.43l11.55-0.01v0c0.86,0.02,1.76-0.05,2.67-0.25l102.02-21.96
			c13.94-3,22.82-16.74,19.81-30.68l-20.45-95c-1.89-8.79,6.13-16.5,14.84-14.26c10.07,2.59,20.88,2.94,31.74,0.6
			C1676.51,743.28,1701.47,696.55,1681.54,654.34z"/>
		<path class="st8" d="M1608.34,615.48c-17.36,0-32.67,5.92-44.52,15.57c-6.77,5.52-16.99,1.88-18.83-6.66l-20.57-95.59
			c-3-13.94-16.73-22.81-30.67-19.81l-332.91,71.65c-13.62,2.93-22.28,16.35-19.35,29.97l71.57,332.55
			c3.04,14.14,16.97,23.13,31.11,20.09l92.69-19.95c11.99-2.58,16.86-17.09,8.8-26.33c-7.78-8.93-13.38-20-15.77-32.53
			c-6.72-35.32,15.11-70.3,49.81-79.71c38.6-10.46,77.58,13.64,85.89,52.23c3.13,14.52,1.45,28.95-3.96,41.65
			c-3.52,8.25,3.71,17.04,12.47,15.15l102.02-21.96c13.94-3,22.81-16.74,19.81-30.68l-20.45-95c-1.89-8.79,6.13-16.5,14.84-14.26
			c10.07,2.59,20.88,2.94,31.74,0.6c42.69-9.19,67.64-55.91,47.71-98.13C1659.74,633.08,1631.85,615.49,1608.34,615.48z"/>
		<path class="st2" d="M1486.53,489.06c0,0,20.76,3.4,26.21,16.91c5.44,13.5-2.16,22.65-5.08,22.62c-2.92-0.03-8.53-2.19-11.15-9.2
			C1493.88,512.38,1486.53,489.06,1486.53,489.06z"/>
		<path class="st2" d="M1200.66,549.31c0,0,23.31-0.03,31.7,13.75c8.38,13.78,1.73,25.14-1.47,25.64c-3.2,0.49-9.71-0.86-13.85-8.04
			C1212.91,573.48,1200.66,549.31,1200.66,549.31z"/>
		<path class="st9" d="M1487.11,504.73c-2.07-0.44-11.1-1.5-22.6-3.31c-21.16-3.32-50.67-9.17-60.57-18.3
			c-2.68-2.48-8.93-16.12-15.42-31.76c-6.57,34.62-6.93,61.18-5.19,81.39l-143.04,30.79c12.27-24.8,31.25-55.54,27.69-80.42
			c-1.32-9.22-6.37-21.88-8.26-36.1c-0.16-1.22-0.29-2.45-0.4-3.69c-20.06,16.51-43.24,34.73-43.79,38.38
			c-0.92,6.11,14.7,73.73,14.7,73.73c-3.88,8.93-20.72,7.05-20.72,7.05c-15.79-11.27-39-75.15-37.14-89.3
			c1.86-14.15,59.42-94.8,73.35-114.07c13.76-19.04,64-18.57,65.21-18.56h0.01c0.01,0,0.01,0,0.02,0
			c39.95,23.99,43.55,4.05,43.55,4.05s36.05,6.86,42.24,17.5c6.2,10.65,33.36,91.4,35.28,94.25c4.02,5.95,69.69,29.74,70.87,36.63
			C1504.09,499.87,1493,505.98,1487.11,504.73z"/>
		<path class="st10" d="M1290.17,552.86l-49.88,10.69c12.42-24.73,28.74-55.52,25.17-80.25c-1.33-9.23-4.33-20.16-5.77-34.44
			c-0.14-1.38-0.38-5.52-0.38-5.52s35.32,27.8,35.94,57.88C1295.59,516.82,1292.86,537.23,1290.17,552.86z"/>
		<path class="st10" d="M1465.84,501.6c-21.42-3.33-51.29-9.17-61.31-18.31c-2.72-2.48-9.04-16.14-15.61-31.8
			c0,0-2.3-25.17,4.28-24.23c6.58,0.94,16.26,45.58,23.17,48.4C1422.55,478.2,1456.73,491.32,1465.84,501.6z"/>
	</g>
	<g id="man_2_">
		<g>
			<path class="st11" d="M2521.1,1460.52c-3.02,10.17-16.96,16.96-18.84,29.39c-0.92,6.07-3.18,10.79-6.05,14.03h-43.4
				c0.43-2.39,2.34-4.96,7.98-6.2c12.05-2.64,16.6-17.25,15.85-30.81c-0.31-5.69-0.17-12.17,0.11-17.78
				c0.38-7.77,1.02-13.87,1.02-13.87l25.62-6.03l2.69,3.46l2.58,3.32C2508.66,1436.04,2524.11,1450.35,2521.1,1460.52z"/>
			<path class="st11" d="M2319,1503.94h-87.81c1.99-2.33,5.36-4.58,11.07-5.51c13.51-2.19,36.92-10.04,42.13-27.31
				c0.17-0.55,0.32-1.12,0.45-1.7c4.14-18.46,34.29,5.65,34.29,5.65s0.09,0.74,0.23,2C2319.89,1482.27,2321.06,1496.37,2319,1503.94
				z"/>
			<path class="st12" d="M2245.85,1014.77c0,0,4.58,57.12,9.96,125.78c7.31,93.27,16.11,207.84,16.98,229.54
				c1.5,37.69,7.54,97.97,7.54,97.97s14.31,14.32,42.96,8.29c0,0,25.52-86.06,32.82-177.11c0.11-1.49,0.23-3,0.34-4.5
				c6.78-92.69,17.33-287.88,17.33-287.88L2245.85,1014.77z"/>
			<path class="st11" d="M2245.85,1014.77c0,0,4.58,57.12,9.96,125.78l100.29,158.69c0.11-1.49,0.23-3,0.34-4.5
				c6.78-92.69,17.33-287.88,17.33-287.88L2245.85,1014.77z"/>
			<path class="st12" d="M2266.75,1021.55c0,0,82.52,206.87,136.78,304.08c54.26,97.21,71.22,124.35,71.22,124.35
				s31.09-12.43,33.91-20.91c0,0-20.75-187.68-57.09-233.43c-20.53-25.85-44.65-103.43-45.78-130.56
				c-1.13-27.13-7.35-80.82-7.35-80.82L2266.75,1021.55z"/>
		</g>
		<path class="st13" d="M2309.08,702.23c-3.67-21.66-3.78-34.5-3.78-34.5l41.87-33.74c-1.56,46.4,28.17,68.71,28.17,68.71
			s-55.79,27.46-88.04,17.29C2287.29,719.99,2295.23,709.84,2309.08,702.23z"/>
		<path class="st14" d="M2295.43,666.96c0,0,53.26,8.85,58.26-24.41s15.24-54.51-18.55-61.57c-33.8-7.06-42.33,4.64-46.7,15.33
			C2284.08,607.02,2281.71,663.81,2295.43,666.96z"/>
		<g>
			<path class="st14" d="M2108.36,735.52l-11.34-7.02c0,0-14.14-20.87-38.29-7.9c0,0-9.57,6.1-3.15,11.21
				c6.42,5.11,4.69,2.22,13.59,9.62c8.89,7.4,20.4,10.04,27.82,5.96l9.52-0.9L2108.36,735.52z"/>
			<path class="st15" d="M2094.9,737.71c2.92-9.14,4.31-9.94,4.31-9.94s91.71,10.84,100.35,11.48c8.65,0.64,128.71-24.1,128.71-24.1
				l56.69,68.84c0,0-167.15,6.3-189.02,4.25c-36.15-3.39-101.7-37.04-101.7-37.04S2092.6,744.88,2094.9,737.71z"/>
		</g>
		<path class="st16" d="M2404.74,994.82c0.16,3.55-7.16,7.45-10.34,8.88c-23.94,10.73-46.23,18.19-71.42,20.61
			c-29.88,3.06-65.19-3.66-77.3-3.5c-1.3,0-2.42-0.48-3.39-1.29c-0.81-0.65-1.46-37.14-0.81-83.16c0-1.78,0-3.72,0.16-5.5v-0.64
			c0.05-4.79,0.12-9.66,0.23-14.58c0.3-13.45,0.81-27.26,1.39-40.98c0.88-20.23,2.08-40.11,3.74-57.72
			c1.74-18.39,3.95-34.33,6.76-45.62c6.46-26,21.32-43.12,34.88-55.72l11.14-9.84c11.14,2.26,22.93,1.61,34.72-4.2
			c12.75-6.3,26.65-13.08,28.9-11.47c17.22,12.87,28.81,42.08,34.75,79.21c3.2,19.98,4.76,42.25,4.67,65.5
			c-0.04,8.92-0.31,17.97-0.83,27.11c-2.88,49.03,0.08,91.55,1.77,116.25C2404.24,985.28,2404.63,990.93,2404.74,994.82z"/>
		<path class="st17" d="M2121.58,541.53l-336.85-53.5c-14.32-2.28-27.78,7.49-30.05,21.81l-14.91,93.89
			c-0.69,4.35,0.41,16.57,0.41,16.57l12.14,1.81c0.69,0.15,1.39,0.26,2.1,0.31l0,0l0,0c2.2,0.18,4.49-0.1,6.78-0.92
			c11.17-4.04,23.54-5.27,36.13-2.96c35.46,6.5,60.26,39.59,56.49,75.44c-4.2,39.88-40.85,67.6-79.94,61.39
			c-14.71-2.34-27.6-9.13-37.51-18.79c-1.92-1.87-4.24-2.86-6.57-3.1l0,0l-12.7-1.91l-15.82,114.53
			c-2.24,14.13,7.39,27.39,21.51,29.64l96.23,15.28c8.9,1.41,13.21,11.7,7.96,19.03c-6.07,8.48-10.31,18.46-12.05,29.46
			c-6.87,43.24,27.78,83.49,74.47,80.14c23.51-1.69,50.05-21.4,58.57-43.38c6.29-16.23,6.3-32.69,1.56-47.26
			c-2.71-8.33,4.4-16.57,13.05-15.19l96.83,15.38c14.12,2.24,27.38-7.38,29.62-21.5l53.55-337.22
			C2144.78,556.68,2135.38,543.72,2121.58,541.53z"/>
		<path class="st15" d="M2364.63,768.31c0,0-25.82,120.49-122.76,147.34c0.3-13.45,0.81-27.26,1.39-40.98
			c0.88-20.23,2.08-40.11,3.74-57.72c1.73-0.89,3.36-1.59,4.84-2.08C2284.73,804.03,2364.63,768.31,2364.63,768.31z"/>
		<path class="st18" d="M1935.52,974.39c6.29-16.23,6.3-32.69,1.56-47.26c-2.71-8.33,4.4-16.57,13.05-15.19l96.82,15.38
			c14.12,2.24,27.38-7.39,29.62-21.5l53.55-337.22c2.19-13.79-7.22-26.75-21.01-28.94l-336.85-53.5
			c-14.32-2.27-27.78,7.49-30.05,21.81l-14.91,93.89c-1.93,12.15,9.87,21.95,21.44,17.77c11.17-4.04,23.54-5.27,36.13-2.96
			c35.46,6.5,60.26,39.59,56.49,75.44c-4.2,39.88-40.84,67.6-79.94,61.39c-14.71-2.34-27.59-9.13-37.51-18.79
			c-6.44-6.28-17.27-2.7-18.68,6.18l-16.41,103.34c-2.24,14.12,7.39,27.39,21.51,29.64l96.23,15.28c8.91,1.41,13.21,11.7,7.96,19.03
			c-6.07,8.48-10.31,18.46-12.05,29.46c-6.87,43.24,27.78,83.49,74.47,80.14C1900.46,1016.08,1927.01,996.36,1935.52,974.39z"/>
		<g>
			<path class="st14" d="M2108.75,813.2l-13.85-2.29c0,0-15.79-22.85-43.31-10.03c0,0-10.91,6.1-3.7,11.82
				c7.22,5.71,5.3,2.56,15.29,10.83c10,8.26,23.01,11.56,31.47,7.52l10.8-0.56L2108.75,813.2z"/>
			<path class="st16" d="M2098.16,820.24c0.45-10.19,5.88-11.28,5.88-11.28s104.91-6.94,113.96-8.69
				c9.05-1.76,92.61-70.99,92.61-70.99s32.31-29.04,54.95-19.24c19.67,8.52,25.83,25.32,26.82,40.77
				c1.18,18.41-9.2,35.63-25.92,43.43c-37.53,17.53-112.58,51.93-129.67,54.9c-38.04,6.61-135.81-14.57-135.81-14.57
				S2097.81,828.25,2098.16,820.24z"/>
		</g>
		<path class="st11" d="M2288.45,596.33c0,0-21.62-16.03-7.52-40.94c0,0,17.01,5.64,41.17,0c24.16-5.64,45.78,2.35,48.6,10.81
			c0,0,9.4,3.76,10.34,17.86c0.94,14.1-27.33,58.51-27.33,58.51s-6.04-7.52-4.39-12.69c1.64-5.17,6.81-16.68,0.47-16.68
			s-8.46,9.4-11.04,5.64c-2.58-3.76,2.12-19.5-5.4-22.09C2325.81,594.16,2296.91,601.08,2288.45,596.33z"/>
	</g>
	<path class="st19" d="M1553.67,1491.94l-95.22-432.33h26.21c6.21,0,11.29-5.08,11.29-11.29v-14.6c0-6.21-5.08-11.29-11.29-11.29
		h-332.49c-6.21,0-11.3,5.08-11.3,11.29v14.6c0,6.21,5.08,11.29,11.3,11.29h33.74l-95.22,432.33c-1.28,5.81,2.41,11.62,8.21,12.9
		c5.79,1.29,11.58-2.42,12.86-8.23l96.25-437h228.33l96.25,437c1.28,5.81,7.07,9.52,12.86,8.23l0,0
		C1551.26,1503.56,1554.95,1497.75,1553.67,1491.94z"/>
	<g>
		<path class="st1" d="M2185.11,1227.18c-35.24-33.83-162.12,179.64-162.12,179.64S2220.35,1261.02,2185.11,1227.18z"/>
		<path class="st1" d="M2180.88,1325.87c-31.2-12.48-130.91,92.64-153.37,116.92c-17.18-2.28-36.03-3.77-56.69-4.13
			c-157.89-2.82-229.51,68.7-229.51,68.7l440.46,1.5c0,0-39.02-49.54-149.7-65.44c27.04-12.77,107.04-49.97,136.13-57.13
			C2203.44,1377.61,2216.12,1339.96,2180.88,1325.87z"/>
	</g>
	<g>
		<path class="st7" d="M2056.65,1111.61h-95.06c-12.3,0-20.13,13.19-14.18,23.96c5.74,10.4-14.47,100.48-57.05,102.83
			c-40.04,2.21-73.17-29.74-73.17-69.32c0-14.89,4.69-28.69,12.67-39.99c5.19-7.35-0.04-17.48-9.03-17.48h-104.63
			c-14.3,0-25.9,11.59-25.9,25.9c0,0-9.48,112.31-17.55,108.28c-8.31-4.15-17.57-6.68-27.36-7.19l0,0h-0.09
			c-1.17-0.06-2.34-0.09-3.53-0.09c-1.19,0-18.41-0.29-18.41-0.29l-2.61,138.79l14.96,0.16c14.22-0.42,26.57-1.76,37.55-7.35
			c7.8-3.98,17.05,1.74,17.05,10.5v98.04c0,14.29,11.59,25.88,25.88,25.88h341.44c13.97,0,25.29-11.32,25.29-25.29v-341.07
			C2082.9,1123.36,2071.15,1111.61,2056.65,1111.61z"/>
		<path class="st8" d="M1607.9,1375.37c17.02,3.67,33.27,1.09,46.92-5.87c7.8-3.98,17.05,1.74,17.05,10.5v98.04
			c0,14.29,11.59,25.88,25.88,25.88h341.44c13.97,0,25.29-11.32,25.29-25.29v-341.07c0-14.5-11.76-26.26-26.26-26.26h-95.06
			c-12.3,0-20.13,13.19-14.18,23.96c5.74,10.4,8.9,22.43,8.59,35.21c-0.86,36.04-29.64,65.73-65.64,67.62
			c-40.04,2.11-73.17-29.74-73.17-69.32c0-14.89,4.69-28.69,12.67-39.99c5.19-7.35-0.04-17.48-9.03-17.48h-104.63
			c-14.3,0-25.9,11.59-25.9,25.9v97.43c0,9.02-9.48,14.88-17.55,10.85c-9.33-4.66-19.85-7.28-30.98-7.28
			c-43.78,0-78.1,40.53-67.47,86.12C1561.23,1347.28,1584.86,1370.41,1607.9,1375.37z"/>
	</g>
	<path class="st1" d="M619.29,1505.84l61.37,0.45c0,0-2.13-14.85-43.44-18.68l0,0c-16.01-44.49-63.06-164.16-103.92-158.5
		c-40.34,5.59,55.2,115.38,94.06,158.06c-5.5,0.01-10.63,0.46-15.36,1.22c-9.36-18.64-27.93-44.99-57.72-43.79
		c-31.71,1.28,11.49,30.23,41.23,48.01c-15.06,5.4-23.2,12.88-23.2,12.88l46.28,0.34c0.54,0.3,0.84,0.46,0.84,0.46
		S619.39,1506.13,619.29,1505.84z"/>
	<g>
		<g>
			<path class="st6" d="M838.55,1009.96l9.08,7.37c0,0,24.84-8.91,30.44,20.61c0,0,1.49,12.58-6.48,12.6
				c-7.97,0.02-4.68-1.38-15.96-1.04s-20.63-5.62-22.29-14.77l-5.4-7.76L838.55,1009.96z"/>
			<path class="st20" d="M837.52,1025.78c7.24-7.56,6.66-13.15,6.66-13.15s-83.88-68.68-92.39-74.27
				c-5.8-3.81-67.57-58.58-96.45-91.97c-14.32-16.56-32.07-10.13-52.37-4.31l-16.72,4.8c-20.19,5.79-25.44,34.02-8.87,47.74
				c46.65,38.64,124.24,82.09,138.76,91.23c36.04,22.67,106.59,49.62,106.59,49.62S831.3,1032.28,837.52,1025.78z"/>
		</g>
		<path class="st21" d="M935.69,1447.01c0,0,20.36,15.25,51.55,7.19c0,0,25.15-5.73,30.67,6.81c0,0-38.57,19.59-48.33,24.95
			c-7.36,4.04-15.03,10.41-20.46,15.34c-4.29,3.9-10.99,3.37-14.65-1.13c-1.7-2.09-3.64-4.57-5.77-7.45
			c-5.95-8.06-19.8-34.09-19.8-34.09L935.69,1447.01z"/>
		<path class="st4" d="M945.2,1439.97c0,0-12.4,28.58-41.01,23.33c0,0-58.39-48.22-98.44-98.31c-13.01-16.27-24.08-32.73-30.59-47.8
			c-26.56-61.49-98.24-153.2-143.82-199.68l114.03-41.25c0,0,36.52,73.47,85.12,163.72C865.51,1304.99,906.79,1378.73,945.2,1439.97
			z"/>
		<path class="st21" d="M830.49,1239.97l-24.74,125.02c-13.01-16.27-24.08-32.73-30.59-47.8c-26.56-61.49-98.24-153.2-143.82-199.68
			l114.03-41.25C745.37,1076.25,781.89,1149.72,830.49,1239.97z"/>
		<path class="st21" d="M736.98,1463.23c0,0-1.24,22.81,26.41,25.85c0,0,15.8,0.08,15.84,14.6l-80.36,0.25c0,0-2.33-5.86-2.9-18.4
			c-0.43-9.63,9.34-34.81,9.34-34.81L736.98,1463.23z"/>
		<path class="st4" d="M707.97,1076.25c0,0,50.8,55.82,83.04,156.38c17.54,54.71-32.16,192.27-41.85,240.07
			c0,0-33.34,2.83-56.14-5.98c0,0-1.73-98.72,11.6-174.8c7.46-42.58-66.88-91.07-99.37-168.01c-22.1-52.34,4.79-51.46,37.83-52.71
			L707.97,1076.25z"/>
		<path class="st2" d="M649.33,827.22c-28.26,15.96-86.12,1.24-86.12,1.24s23.5-26.86,12.82-70.13l22.19,11.27l23.84,12.11
			c0,0,1.54,7.64,2.61,21.36c0.27,3.53,0.52,7.48,0.69,11.79C639.86,819.27,649.33,827.22,649.33,827.22z"/>
		<path class="st22" d="M752.96,1073.37c0,4.97-5.72,7.35-6.94,7.59c-11.4,2.08-43.23,14.46-71.9,17.3
			c-24.14,2.53-46.56,0.13-71.18-4.82c-3.26-0.66-10.92-2.72-11.46-5.84c-0.68-3.41-94.99-192.26-21.67-273.37
			c1.72-1.9,16.19,1.52,29.43,4.67c12.22,2.9,23.43,1.28,33.44-2.73l12.41,6.53c15.24,8.49,44.08,38.67,47.46,62.34
			c1.71,12.04,8.6,20.96,10.59,31.55c0.74,3.92,1.5,7.75,2.27,11.47c1.5,7.32,3.05,14.28,4.64,20.9
			c4.31,17.91,8.86,33.32,13.33,46.64c4.76,14.14,9.42,25.9,13.59,35.74c5.41,12.76,9.97,22.29,12.83,29.6
			C751.81,1066.07,752.96,1070.1,752.96,1073.37z"/>
		<path class="st20" d="M749.79,1060.93C616.66,998.2,570.56,877.77,570.56,877.77s108.16,39.9,134.84,50.29
			c1.5,7.32,3.05,14.28,4.64,20.9c4.31,17.91,8.86,33.32,13.33,46.64c4.76,14.14,9.42,25.9,13.59,35.74
			C742.37,1044.09,746.94,1053.63,749.79,1060.93z"/>
		<path class="st17" d="M1125.83,927.53l-28.51-90.42c-2.77-8.78-11.86-12.94-19.79-10.71l0,0l-0.02,0.01
			c-0.42,0.12-0.84,0.26-1.25,0.42l-10,3.34c0,0-15.65,16.12-26.89,19.37c-34.54,9.99-67.32-8.42-79.92-42.09
			c-14.02-37.45,2.25-78.58,39.89-90.46c12.88-4.06,38.23,3.51,38.23,3.51l10.18-3.38c5.53-1.68,9.32-7.64,7.35-13.91l-31.39-99.52
			c-4.29-13.6-18.79-21.15-32.4-16.86l-92.67,29.23c-8.58,2.71-17-4.56-15.58-13.44c1.64-10.27,0.97-21.06-2.37-31.65
			c-13.13-41.64-61.98-62.13-102.16-38.34c-20.23,11.98-35.13,41.39-32.95,64.8c1.62,17.28,8.94,31.97,19.66,42.87
			c6.13,6.23,3.46,16.74-4.88,19.37l-93.25,29.41c-13.6,4.29-21.14,18.79-16.86,32.38l102.42,324.77
			c4.19,13.28,18.36,20.66,31.64,16.47l324.41-102.31C1122.52,956.04,1130.18,941.33,1125.83,927.53z"/>
		<path class="st18" d="M735.71,600.71c1.62,17.28,8.94,31.97,19.66,42.87c6.13,6.23,3.46,16.74-4.88,19.37l-93.25,29.41
			c-13.6,4.29-21.14,18.79-16.86,32.39l102.42,324.77c4.19,13.29,18.36,20.66,31.64,16.47l324.41-102.31
			c13.79-4.35,21.45-19.06,17.1-32.85l-28.52-90.42c-3.69-11.7-18.59-15.19-27.04-6.3c-8.17,8.58-18.66,15.19-30.92,18.74
			c-34.54,9.99-71.41-8.48-84.01-42.15c-14.02-37.45,6.34-78.52,43.99-90.39c14.16-4.47,28.69-4.14,41.84,0.06
			c8.54,2.73,16.62-5.28,13.92-13.84l-31.39-99.53c-4.29-13.6-18.79-21.15-32.4-16.86l-92.68,29.23c-8.58,2.7-17-4.56-15.58-13.44
			c1.64-10.27,0.97-21.06-2.37-31.66c-13.13-41.65-61.98-62.13-102.15-38.34C748.43,547.89,733.52,577.31,735.71,600.71z"/>
		<g>
			<path class="st2" d="M827.68,1024.58l11.5,4.22c0,0,23.04-16.29,37.38,10.2c0,0,5.19,11.57-3.02,14.08
				c-8.21,2.51-5.23,0.15-16.77,3.99c-11.54,3.84-22.91,1.08-27.27-7.17l-7.82-5.74L827.68,1024.58z"/>
			<path class="st22" d="M837.15,1040.85c4.25-11.1,6.2-16.12,6.2-16.12s-86.93-70.85-95.78-76.93
				c-6.04-4.14-66.12-49.05-95.42-84.06c-14.53-17.36-37.44-25.3-59.6-20.65l-18.25,3.83c-22.03,4.62-29.19,32.51-12.1,47.16
				c48.14,41.27,129.33,89.13,144.47,99.09c37.58,24.71,120.7,59.35,120.7,59.35S833.81,1049.56,837.15,1040.85z"/>
		</g>
		<path class="st6" d="M624.66,803.08c-27.79,1.56-45.87-21.39-45.87-21.39s12.57-6.96,19.42-12.08l23.84,12.11
			C622.05,781.71,623.59,789.35,624.66,803.08z"/>
		<path class="st2" d="M636.51,774.54c0,0-42.11,30.22-60.53,3.71c-18.41-26.51-36.25-40.47-10.15-60.89
			c26.11-20.42,38.42-13.97,46.71-6.61C620.85,718.1,646.99,766,636.51,774.54z"/>
		<path class="st21" d="M617,686.8c-1.51-10.19-4.91-17.36-4.91-17.36s-2.64,10.95-22.65,9.44c-20.01-1.51-51.71,1.97-62.28,24.76
			c-0.67,1.45-1.27,2.95-1.8,4.47c-1.91-5.05-2.37-12.63-2.37-12.63c-3.8,9.81,0,22.09,0,22.09h0c-0.06,0.36-0.1,0.72-0.16,1.08
			c-4.41,3.73-8.12,15.34-8.12,15.34c1.33-3.23,4.58-5.35,7.48-6.65c-0.09,17.74,7.1,35.08,19.73,40.24
			c18.46,7.55,18.32,1.79,36.89,14.11c0,0,4.98-6.18,1.58-10.33c-3.4-4.15-16.23-10.19-9.06-16.23c7.17-6.04,9.81,0.75,12.46-3.4
			c2.64-4.15-10.57-16.23,6.42-27.55C607.18,712.85,618.51,697,617,686.8z"/>
	</g>
	<path class="st23" d="M1701.06,1504.09c0,0-21.29-31.48-54.62-28.94c-10.13,0.77-26.59,3.24-45.71,5.87
		c-14.42-50.31-54.16-169.92-107.77-176.65c-54.75-6.88,52.39,126.14,96.19,178.21c-7.99,1.05-16.29,2.08-24.66,2.99
		c-23.19-24.77-63.61-61.46-97.36-58.64c-33.83,2.83,29.51,37.81,75.23,60.69c-28.05,2.1-54.65,1.87-70.91-4.42
		c-39.81-15.39-76.4,20.88-76.4,20.88H1701.06z"/>
	<path class="st24" d="M2772.08,1510.76H202.92c-1.6,0-2.92-1.31-2.92-2.92v-1c0-1.6,1.31-2.92,2.92-2.92h2569.16
		c1.6,0,2.92,1.31,2.92,2.92v1C2775,1509.45,2773.68,1510.76,2772.08,1510.76z"/>
</g>
</svg>
