<svg width="736" height="607" viewBox="0 0 736 607" fill="none" xmlns="http://www.w3.org/2000/svg">
<path d="M461.928 397.679C552.489 307.163 552.489 160.409 461.928 69.8929C371.367 -20.6226 224.538 -20.6226 133.976 69.8929C43.4148 160.409 43.4148 307.163 133.976 397.679C224.538 488.194 371.367 488.194 461.928 397.679Z" fill="#C9EAF7"/>
<path d="M1.05487 152.601H127.054C125.267 142.024 109.694 134.804 99.7439 138.822C99.6053 132.756 97.5874 127.476 92.5505 124.089C90.0048 122.412 87.1001 121.357 84.0711 121.009C81.0421 120.661 77.9738 121.031 75.114 122.087C73.3118 109.663 59.8031 99.6867 47.2802 100.795C34.7573 101.904 24.206 113.774 24.6219 126.398C17.9215 124.658 9.71153 127.937 4.59763 132.648C-0.516266 137.36 -0.239006 145.796 1.05487 152.601Z" fill="#EEF8FD"/>
<path d="M560.343 445.878C644.878 445.878 713.406 377.384 713.406 292.892C713.406 208.401 644.878 139.907 560.343 139.907C475.809 139.907 407.281 208.401 407.281 292.892C407.281 377.384 475.809 445.878 560.343 445.878Z" fill="#C9EAF7"/>
<path d="M388.929 607C553.467 607 686.852 599.783 686.852 590.88C686.852 581.977 553.467 574.76 388.929 574.76C224.391 574.76 91.0068 581.977 91.0068 590.88C91.0068 599.783 224.391 607 388.929 607Z" fill="#C9EAF7"/>
<path d="M484.405 73.3677H307.267C309.777 58.4956 331.681 48.3346 345.667 54.0001C345.867 45.471 348.748 38.035 355.787 33.2778C359.366 30.9168 363.451 29.4315 367.711 28.942C371.972 28.4526 376.287 28.9727 380.309 30.4604C382.835 12.9865 401.874 -1.03887 419.434 0.531473C436.993 2.10182 451.842 18.8829 451.257 36.5108C460.699 34.0783 472.221 38.6508 479.337 45.3017C486.453 51.9525 486.238 63.7917 484.405 73.3677Z" fill="#EEF8FD"/>
<path d="M562.176 104.436H688.175C686.481 93.8746 670.815 86.6233 660.88 90.6723C660.726 84.6065 658.724 79.3104 653.672 75.9388C651.129 74.262 648.227 73.2071 645.2 72.8594C642.173 72.5117 639.108 72.881 636.25 73.9374C634.448 61.4978 620.939 51.5369 608.417 52.6453C595.894 53.7538 585.312 65.6854 585.758 78.2327C579.042 76.5084 570.848 79.7723 565.734 84.4833C560.62 89.1943 560.882 97.6311 562.176 104.436Z" fill="#EEF8FD"/>
<path d="M489.125 467.782C502.021 440.296 511.088 410.2 531.084 387.342C534.078 383.862 538.046 380.383 542.727 381.775C544.135 382.247 545.401 383.065 546.41 384.153C547.42 385.241 548.14 386.565 548.505 388.003C549.985 393.1 548.14 398.093 546.312 402.842C537.82 424.877 528.845 446.715 519.389 468.356C516.988 473.871 525.132 477.715 527.795 472.305C527.987 471.905 528.178 471.505 528.352 471.105L573.027 375.025C577.656 365.057 582.79 354.48 593.441 350.044C595.134 349.29 596.988 348.969 598.835 349.112C600.683 349.255 602.466 349.856 604.022 350.862C610.479 355.28 608.251 364.135 605.554 370.885C595.854 395.158 585.029 418.933 573.079 442.21C571.165 445.932 569.163 449.934 569.598 454.109C570.033 458.284 574.158 462.285 578.143 461.067C590.43 444.593 598.471 425.422 607.938 407.139C617.405 388.855 628.822 370.902 645.843 359.282C648.819 357.246 652.352 355.315 655.989 357.298C657.117 357.968 658.07 358.896 658.769 360.006C659.468 361.116 659.893 362.376 660.009 363.683C660.601 368.519 658.164 372.833 655.797 376.904C647.189 391.749 638.562 406.588 629.919 421.421C629.031 422.969 628.091 424.692 629.101 426.483C629.555 427.176 630.21 427.714 630.978 428.025C631.746 428.335 632.591 428.405 633.399 428.223C636.393 427.701 638.203 425.213 639.891 422.9C650.696 408.093 663.235 394.632 677.239 382.801C678.667 381.538 680.368 380.62 682.209 380.119C684.05 379.618 685.982 379.548 687.855 379.914C695.93 381.653 696.365 390.508 694.346 397.084C687.507 419.368 663.542 431.511 642.432 440.331C641.038 440.863 639.816 441.764 638.896 442.938C637.976 444.112 637.394 445.514 637.211 446.994C636.688 452.386 642.153 454.457 646.713 454.7C656.876 455.257 666.97 451.221 677.169 454.109C680.402 455.011 683.285 456.873 685.436 459.449C692.153 467.713 686.567 476.48 679.275 479.751C674.263 482.012 668.554 482.151 663.055 481.96C649.113 481.449 635.304 479.062 622 474.862C618.519 473.732 614.76 472.462 611.071 473.906C610.132 474.242 609.297 474.817 608.647 475.573C607.997 476.33 607.555 477.242 607.364 478.22C606.685 482.534 611.314 485.022 615.195 486.448L656.111 501.496C658.506 502.338 660.72 503.624 662.637 505.288C672.366 513.987 664.847 523.642 656.546 525.416C650.785 526.651 644.833 525.051 639.142 523.363C615.056 516.141 591.514 507.218 568.693 496.66C567.109 495.897 565.337 495.613 563.594 495.842C557.973 496.73 558.042 502.209 560.479 505.288C562.359 507.315 564.69 508.87 567.284 509.829C587.904 519.261 609.296 526.908 631.224 532.688C634.719 533.547 637.767 535.681 639.769 538.672C644.99 546.709 638.255 553.424 631.398 555.825C619.668 559.913 606.807 555.825 595.181 551.528C570.513 542.282 546.48 531.427 523.236 519.032C522.406 518.592 521.463 518.414 520.53 518.521C519.597 518.628 518.719 519.015 518.011 519.631C517.302 520.247 516.797 521.063 516.562 521.971C516.326 522.88 516.372 523.838 516.692 524.72C517.46 526.814 518.644 528.731 520.173 530.357C523.792 534.305 528.874 536.654 533.66 538.898L569.372 555.39C574.315 557.669 579.449 560.087 582.355 564.975C583.184 566.271 583.71 567.737 583.894 569.264C584.077 570.791 583.914 572.34 583.417 573.795C580.858 580.493 572.261 580.754 565.595 579.362C544.311 574.874 525.794 562.226 505.832 553.546C485.87 544.865 467.075 542.83 446.782 550.066C443.441 551.267 437.21 554.189 435.087 549.301C433.556 545.735 441.892 539.298 444.589 536.167C462.488 515.503 477.456 492.474 489.073 467.73L489.125 467.782Z" fill="#6F30A5"/>
<path d="M674.42 467.399C652.48 467.198 630.702 463.619 609.853 456.788C621.455 449.168 632.692 441.096 643.563 432.572C659.975 419.741 675.608 405.944 690.379 391.256C691.632 390.021 689.543 388.281 688.308 389.516C661.977 415.671 632.922 438.935 601.639 458.91L600.281 459.762C609.633 436.142 621.138 413.431 634.653 391.917C638.714 385.457 642.949 379.125 647.357 372.92C648.367 371.494 646.296 369.737 645.286 371.181C629.844 392.94 616.527 416.131 605.52 440.435C602.422 447.289 599.521 454.219 596.818 461.224C596.742 461.479 596.742 461.751 596.818 462.007C582.895 470.705 568.485 478.811 553.744 486.135C550.264 487.875 546.783 489.51 543.302 491.18C555.682 456.793 569.32 422.9 584.218 389.499C588.557 379.815 592.995 370.172 597.531 360.569C597.606 360.407 597.647 360.231 597.654 360.053C597.66 359.875 597.632 359.697 597.569 359.53C597.507 359.363 597.413 359.209 597.291 359.079C597.17 358.948 597.024 358.843 596.861 358.768C596.699 358.694 596.524 358.653 596.345 358.646C596.167 358.64 595.989 358.668 595.822 358.73C595.655 358.793 595.501 358.887 595.371 359.009C595.24 359.13 595.134 359.276 595.06 359.438C579.13 393.141 564.494 427.405 551.151 462.233C547.357 472.149 543.668 482.105 540.083 492.102C540.043 492.315 540.043 492.533 540.083 492.746C527.813 498.504 515.422 504.001 503.152 509.759C497.85 512.253 492.577 514.804 487.333 517.414C496.998 484.024 509.65 451.571 525.133 420.447C529.554 411.586 534.194 402.842 539.056 394.213C539.909 392.7 537.437 391.569 536.584 393.083C519.214 423.917 504.703 456.276 493.233 489.754C490.007 499.124 487.037 508.576 484.322 518.11C484.224 518.367 484.224 518.652 484.322 518.91C472.016 525.05 460.122 531.982 448.715 539.664C447.27 540.638 448.836 542.864 450.263 541.873C458.875 536.048 467.792 530.688 476.978 525.816L547.479 558.939L567.737 568.472C568.064 568.622 568.438 568.635 568.776 568.51C569.114 568.384 569.388 568.13 569.538 567.802C569.688 567.474 569.702 567.101 569.576 566.763C569.45 566.425 569.196 566.151 568.868 566.002L498.28 532.809L479.867 524.111C494.259 516.509 509.122 509.777 523.967 502.992C549.508 516.058 575.981 527.217 603.17 536.376C610.712 538.904 618.299 541.281 625.934 543.508C627.674 543.995 628.04 541.316 626.369 540.829C599.192 532.888 572.633 522.969 546.905 511.151C540.257 508.089 533.696 504.906 527.169 501.601C534.722 498.121 542.275 494.642 549.794 491.041C556.361 487.852 562.846 484.535 569.251 481.09C569.251 481.09 569.338 481.177 569.39 481.195C589.247 492.063 609.935 501.341 631.259 508.942C637.362 511.134 643.529 513.175 649.759 515.065C651.395 515.57 652.561 513.117 650.89 512.612C629.246 505.974 608.158 497.644 587.82 487.701C582.506 485.091 577.256 482.378 572.07 479.559C583.997 473.053 595.663 466.095 607.068 458.684C628.895 466.046 651.751 469.903 674.785 470.113C676.421 470.113 676.143 467.417 674.42 467.399Z" fill="#FFB612"/>
<path d="M373.188 573.664C343.097 536.975 309.004 500.217 263.807 485.761C227.121 474.018 187.563 478.385 149.066 479.707C110.57 481.029 69.341 478.298 38.4673 455.352C51.7287 485.796 73.0479 512.551 103.4 526.051C124.562 535.462 148.266 537.584 171.43 537.306C194.594 537.028 217.74 534.523 240.904 535.218C286.727 536.541 334.813 548.613 373.188 573.664Z" fill="#F7B15E"/>
<path d="M312.352 496.738C279.743 467.86 249.14 436.794 220.758 403.755C192.448 370.791 166.405 335.948 142.808 299.465C129.5 278.902 116.998 257.847 105.303 236.299C104.242 234.333 101.405 236.299 102.449 238.264C123.307 276.67 146.763 313.607 172.655 348.818C198.48 383.94 226.657 417.272 256.992 448.585C274.047 466.19 291.752 483.117 310.107 499.365C311.778 500.844 314.023 498.217 312.352 496.738Z" fill="#FC7800"/>
<path d="M125.649 277.493C107.932 263.889 96.2197 243.675 89.1017 222.503C81.9837 201.332 79.1991 179.013 76.4146 156.833C104.073 191.494 121.165 233.383 125.649 277.493V277.493Z" fill="#FC7800"/>
<path d="M156.469 325.924C145.401 309.38 141.276 288.975 141.346 269.073C141.415 249.172 145.331 229.514 149.316 210.082C162.76 247.213 165.243 287.423 156.469 325.924V325.924Z" fill="#FFB612"/>
<path d="M154.416 317.574C135.046 322.184 114.475 318.931 95.8364 311.938C77.1973 304.944 60.1419 294.35 43.2432 283.825C82.7724 284.181 121.365 295.897 154.416 317.574V317.574Z" fill="#FFB612"/>
<path d="M181.636 358.334C164.371 369.467 143.226 373.381 122.673 372.964C102.119 372.546 81.9138 368.075 61.8477 363.639C100.442 350.425 142.023 348.583 181.636 358.334V358.334Z" fill="#FC7800"/>
<path d="M207.427 389.108C190.023 403.199 167.642 409.983 145.349 411.897C123.055 413.81 100.657 411.444 78.415 409.009C118.618 390.14 163.403 383.231 207.427 389.108V389.108Z" fill="#FFB612"/>
<path d="M237.97 423.048C220.427 440.305 196.585 450.012 172.394 454.517C148.203 459.023 123.386 458.71 98.7773 458.379C140.827 433.507 189.143 421.243 237.97 423.048V423.048Z" fill="#FC7800"/>
<path d="M260.125 446.776C245.384 463.877 224.309 474.61 202.52 480.49C180.73 486.37 158.036 487.988 135.586 489.519C172.145 463.639 215.373 448.803 260.125 446.776V446.776Z" fill="#FFB612"/>
<path d="M280.904 470C270.462 485.135 254.485 495.66 237.395 502.427C220.305 509.194 202.136 512.499 184.088 515.787C211.293 491.55 244.903 475.655 280.904 470V470Z" fill="#FC7800"/>
<path d="M183.254 359.777C175.248 341.546 174.744 320.74 178.277 301.152C181.809 281.564 189.189 262.88 196.498 244.405C203.249 283.336 198.651 323.387 183.254 359.777V359.777Z" fill="#FFB612"/>
<path d="M205.825 389.264C201.666 368.963 205.825 347.687 213.657 328.534C221.488 309.38 233.166 292.002 244.67 274.779C242.985 315.877 229.5 355.621 205.825 389.264V389.264Z" fill="#FFB612"/>
<path d="M237.013 424.839C231.792 399.632 236.909 373.19 246.742 349.409C256.575 325.629 270.967 304.022 285.255 282.66C283.157 333.698 266.41 383.056 237.013 424.839V424.839Z" fill="#FC7800"/>
<path d="M256.382 448.411C255.599 426.005 263.779 403.999 275.683 384.985C287.587 365.97 303.076 349.514 318.478 333.196C309.261 376.759 287.706 416.753 256.382 448.411Z" fill="#FFB612"/>
<path d="M278.955 467.547C282.435 450.708 292.529 435.817 304.833 423.813C317.138 411.81 331.687 402.381 346.114 393.039C331.337 423.797 308.024 449.661 278.955 467.547V467.547Z" fill="#FFB612"/>
<path d="M631.343 252.064H735.007C733.467 243.366 720.728 237.408 712.549 240.733C712.426 235.73 710.778 231.388 706.619 228.602C704.525 227.222 702.136 226.355 699.645 226.068C697.154 225.782 694.63 226.086 692.278 226.954C690.738 216.732 679.678 208.48 669.389 209.45C664.244 210.074 659.506 212.56 656.069 216.437C652.633 220.314 650.735 225.315 650.736 230.495C645.221 229.079 638.413 231.742 634.316 235.637C630.218 239.532 630.28 246.414 631.343 252.064Z" fill="#EEF8FD"/>
<path d="M501.764 96.7652H305.434C292.265 96.7652 281.589 107.435 281.589 120.597V561.818C281.589 574.98 292.265 585.65 305.434 585.65H501.764C514.933 585.65 525.609 574.98 525.609 561.818V120.597C525.609 107.435 514.933 96.7652 501.764 96.7652Z" fill="#264456"/>
<path d="M496.589 113.285H314.753C304.544 113.285 296.269 121.556 296.269 131.759V548.177C296.269 558.381 304.544 566.652 314.753 566.652H496.589C506.797 566.652 515.073 558.381 515.073 548.177V131.759C515.073 121.556 506.797 113.285 496.589 113.285Z" fill="#83B4E0"/>
<path d="M424.054 102.061H380.386C379.586 102.061 378.938 102.709 378.938 103.508V103.94C378.938 104.739 379.586 105.387 380.386 105.387H424.054C424.854 105.387 425.502 104.739 425.502 103.94V103.508C425.502 102.709 424.854 102.061 424.054 102.061Z" fill="#83B4E0"/>
<path d="M373.023 104.278C373.017 104.935 372.817 105.574 372.448 106.117C372.078 106.66 371.557 107.082 370.948 107.329C370.34 107.575 369.672 107.637 369.028 107.505C368.385 107.373 367.795 107.054 367.333 106.588C366.871 106.122 366.557 105.529 366.431 104.885C366.305 104.241 366.373 103.574 366.625 102.968C366.878 102.362 367.304 101.844 367.851 101.48C368.397 101.116 369.039 100.922 369.696 100.922C370.136 100.922 370.571 101.009 370.977 101.178C371.382 101.347 371.75 101.595 372.06 101.907C372.369 102.219 372.613 102.589 372.779 102.996C372.944 103.403 373.027 103.839 373.023 104.278V104.278Z" fill="#83B4E0"/>
<path d="M436.578 107.604C438.415 107.604 439.905 106.115 439.905 104.278C439.905 102.442 438.415 100.953 436.578 100.953C434.74 100.953 433.25 102.442 433.25 104.278C433.25 106.115 434.74 107.604 436.578 107.604Z" fill="#83B4E0"/>
<path d="M479.383 148.679H335.162C324.954 148.679 316.678 156.95 316.678 167.154V520.265C316.678 530.469 324.954 538.74 335.162 538.74H479.383C489.592 538.74 497.867 530.469 497.867 520.265V167.154C497.867 156.95 489.592 148.679 479.383 148.679Z" fill="#4186C6"/>
<path d="M469.53 258.329H342.958V384.902H469.53V258.329Z" fill="#EEF8FD"/>
<path d="M486.246 401.619H444.454V392.327H477.065V363.408H486.246V401.619Z" fill="#EEF8FD"/>
<path d="M486.247 285.793H477.171V251.842H439.678V242.806H486.247V285.793Z" fill="#EEF8FD"/>
<path d="M336.635 285.793H327.434V242.806H374.003V252.049H336.635V285.793Z" fill="#EEF8FD"/>
<path d="M376.391 401.619H327.434V363.408H336.54V392.441H376.391V401.619Z" fill="#EEF8FD"/>
<path d="M461.315 445.717H356.095C354.324 445.717 352.891 446.579 352.891 447.642V469.118C352.891 470.181 354.324 471.043 356.095 471.043H461.315C463.086 471.043 464.519 470.181 464.519 469.118V447.642C464.519 446.579 463.133 445.717 461.315 445.717Z" fill="#EEF8FD"/>
<path d="M376.735 460.281C376.745 460.732 376.65 461.18 376.458 461.589C376.283 461.961 376.024 462.287 375.703 462.544C375.368 462.803 374.986 462.996 374.579 463.113C374.133 463.24 373.671 463.303 373.208 463.298C372.903 463.305 372.599 463.279 372.299 463.221C372.044 463.169 371.792 463.103 371.544 463.021L371.005 462.79C370.893 462.727 370.789 462.65 370.697 462.559C370.63 462.485 370.582 462.395 370.559 462.298C370.54 462.124 370.54 461.948 370.559 461.774V461.389C370.546 461.308 370.546 461.224 370.559 461.143C370.571 461.09 370.598 461.043 370.636 461.004C370.681 460.989 370.729 460.989 370.774 461.004C370.879 461.025 370.979 461.067 371.067 461.127L371.544 461.405C371.773 461.511 372.01 461.599 372.253 461.666C372.559 461.751 372.875 461.793 373.193 461.789C373.402 461.755 373.605 461.687 373.793 461.589C373.967 461.547 374.13 461.469 374.271 461.358C374.398 461.255 374.498 461.123 374.564 460.974C374.639 460.815 374.676 460.641 374.671 460.465C374.676 460.265 374.611 460.069 374.486 459.911C374.365 459.746 374.213 459.605 374.04 459.496C373.831 459.37 373.615 459.257 373.393 459.157L372.638 458.834L371.899 458.418C371.663 458.27 371.446 458.094 371.252 457.894C371.062 457.675 370.911 457.425 370.805 457.155C370.675 456.827 370.612 456.477 370.62 456.124C370.617 455.711 370.701 455.301 370.867 454.923C371.036 454.591 371.272 454.298 371.56 454.061C371.861 453.825 372.207 453.653 372.577 453.553C372.978 453.441 373.392 453.384 373.809 453.383C374.034 453.368 374.261 453.368 374.486 453.383L375.118 453.522C375.299 453.571 375.474 453.639 375.642 453.722C375.752 453.77 375.855 453.833 375.95 453.907L376.042 454.03C376.056 454.075 376.056 454.123 376.042 454.169C376.052 454.24 376.052 454.313 376.042 454.384V455.062C376.046 455.144 376.046 455.226 376.042 455.308C376.053 455.353 376.053 455.401 376.042 455.447C375.998 455.464 375.948 455.464 375.904 455.447C375.813 455.433 375.728 455.396 375.657 455.339L375.21 455.123C375.021 455.032 374.826 454.955 374.625 454.892C374.379 454.828 374.125 454.797 373.87 454.8C373.683 454.801 373.496 454.827 373.316 454.877C373.174 454.921 373.042 454.994 372.931 455.092C372.827 455.179 372.748 455.29 372.7 455.416C372.644 455.541 372.617 455.678 372.623 455.816C372.612 456.015 372.672 456.211 372.792 456.37C372.916 456.539 373.074 456.68 373.254 456.786C373.454 456.894 373.67 457.017 373.917 457.125L374.656 457.448C374.918 457.571 375.164 457.71 375.411 457.848C375.651 458.002 375.873 458.183 376.073 458.387C376.261 458.61 376.417 458.859 376.535 459.126C376.683 459.492 376.752 459.886 376.735 460.281V460.281Z" fill="#4186C6"/>
<path d="M385.931 461.698V462.006C385.925 462.077 385.925 462.149 385.931 462.221C385.931 462.221 385.931 462.344 385.931 462.39C385.895 462.441 385.854 462.487 385.808 462.529C385.721 462.621 385.616 462.695 385.5 462.745C385.319 462.85 385.128 462.937 384.93 463.006C384.679 463.095 384.422 463.162 384.16 463.206C383.855 463.265 383.545 463.29 383.236 463.283C382.632 463.296 382.032 463.196 381.464 462.991C380.953 462.797 380.494 462.486 380.124 462.083C379.732 461.638 379.443 461.112 379.277 460.543C378.866 459.156 378.866 457.681 379.277 456.294C379.47 455.723 379.78 455.199 380.186 454.754C380.569 454.327 381.042 453.991 381.572 453.769C382.147 453.548 382.758 453.439 383.374 453.446C383.625 453.422 383.878 453.422 384.129 453.446L384.822 453.615C385.012 453.685 385.197 453.767 385.377 453.861C385.505 453.928 385.624 454.011 385.731 454.108L385.869 454.277C385.874 454.333 385.874 454.39 385.869 454.446C385.869 454.446 385.869 454.585 385.869 454.693V455.432C385.882 455.513 385.882 455.596 385.869 455.678C385.866 455.709 385.856 455.739 385.84 455.765C385.824 455.792 385.803 455.815 385.777 455.832C385.76 455.839 385.742 455.843 385.723 455.843C385.705 455.843 385.686 455.839 385.669 455.832C385.564 455.819 385.466 455.77 385.392 455.693L384.945 455.401C384.744 455.288 384.533 455.195 384.314 455.124C384.026 455.026 383.724 454.979 383.42 454.985C383.066 454.979 382.716 455.064 382.404 455.232C382.105 455.391 381.846 455.618 381.649 455.894C381.43 456.206 381.268 456.556 381.171 456.925C381.061 457.378 381.009 457.844 381.017 458.311C381.012 458.798 381.069 459.285 381.187 459.758C381.285 460.125 381.452 460.47 381.68 460.774C381.885 461.029 382.15 461.229 382.45 461.359C382.773 461.49 383.118 461.558 383.467 461.559C383.769 461.564 384.07 461.522 384.36 461.436C384.586 461.369 384.803 461.276 385.007 461.159C385.16 461.079 385.309 460.992 385.454 460.897C385.528 460.836 385.62 460.799 385.715 460.789H385.839C385.845 460.83 385.845 460.872 385.839 460.913C385.849 460.994 385.849 461.077 385.839 461.159C385.884 461.336 385.915 461.516 385.931 461.698Z" fill="#4186C6"/>
<path d="M396.267 462.406C396.267 462.591 396.359 462.729 396.374 462.837C396.393 462.872 396.403 462.912 396.403 462.952C396.403 462.993 396.393 463.032 396.374 463.068C396.287 463.124 396.186 463.156 396.082 463.16H394.942H394.618L394.464 463.068C394.456 463.017 394.456 462.965 394.464 462.914L393.817 460.989H390.244L389.643 462.852C389.654 462.908 389.654 462.966 389.643 463.022C389.606 463.078 389.552 463.121 389.489 463.145C389.387 463.157 389.283 463.157 389.181 463.145H388.149C388.072 463.183 387.987 463.201 387.901 463.199C387.815 463.196 387.731 463.172 387.656 463.129C387.639 463.091 387.63 463.049 387.63 463.006C387.63 462.964 387.639 462.922 387.656 462.883C387.681 462.742 387.717 462.603 387.764 462.467L390.737 453.892C390.757 453.818 390.794 453.749 390.845 453.692C390.865 453.66 390.892 453.632 390.924 453.611C390.956 453.59 390.992 453.576 391.029 453.569C391.147 453.548 391.266 453.548 391.384 453.569H392.678C392.81 453.549 392.945 453.549 393.078 453.569C393.161 453.587 393.236 453.63 393.294 453.692C393.339 453.757 393.371 453.83 393.386 453.908L396.267 462.406ZM391.892 455.432L390.552 459.481H393.248L391.892 455.432Z" fill="#4186C6"/>
<path d="M406.572 462.452C406.589 462.554 406.589 462.658 406.572 462.76C406.533 462.844 406.475 462.918 406.402 462.975C406.337 463.039 406.258 463.086 406.171 463.114H405.894H405.078C404.929 463.133 404.779 463.133 404.631 463.114C404.5 463.081 404.379 463.017 404.277 462.929C404.159 462.819 404.056 462.695 403.969 462.56C403.876 462.406 403.768 462.206 403.645 461.959L401.273 457.51C401.134 457.248 400.996 456.956 400.857 456.648C400.718 456.34 400.58 456.047 400.472 455.755V456.817C400.472 457.156 400.472 457.525 400.472 457.895V462.883C400.488 462.923 400.488 462.967 400.472 463.006C400.436 463.054 400.388 463.091 400.333 463.114H400.072H399.209H398.932C398.932 463.114 398.824 463.114 398.808 463.006C398.793 462.967 398.793 462.923 398.808 462.883V454.323C398.8 454.227 398.814 454.129 398.849 454.039C398.884 453.948 398.938 453.866 399.009 453.8C399.147 453.685 399.322 453.625 399.502 453.63H400.534C400.692 453.612 400.852 453.612 401.011 453.63C401.134 453.656 401.25 453.709 401.35 453.784C401.463 453.872 401.561 453.975 401.643 454.092C401.72 454.231 401.812 454.385 401.905 454.57L403.768 458.049L404.076 458.68C404.184 458.88 404.292 459.08 404.384 459.281L404.677 459.881L404.954 460.481C404.954 460.127 404.954 459.773 404.954 459.404C404.954 459.034 404.954 458.68 404.954 458.341V453.892C404.936 453.848 404.936 453.798 404.954 453.754C404.993 453.702 405.047 453.665 405.108 453.646C405.195 453.634 405.283 453.634 405.37 453.646H406.14C406.227 453.634 406.315 453.634 406.402 453.646C406.453 453.669 406.496 453.707 406.526 453.754C406.526 453.754 406.526 453.831 406.526 453.892L406.572 462.452Z" fill="#4186C6"/>
<path d="M417.631 462.452C417.648 462.554 417.648 462.658 417.631 462.76C417.592 462.844 417.534 462.918 417.461 462.976C417.396 463.039 417.317 463.086 417.23 463.114H416.953H416.137C415.988 463.133 415.838 463.133 415.69 463.114C415.558 463.084 415.436 463.02 415.336 462.929C415.218 462.819 415.115 462.695 415.028 462.56C414.935 462.406 414.827 462.206 414.704 461.959L412.301 457.495C412.163 457.233 412.024 456.94 411.885 456.633C411.74 456.342 411.612 456.044 411.5 455.74V456.802C411.5 457.141 411.5 457.51 411.5 457.88V462.868C411.516 462.907 411.516 462.951 411.5 462.991C411.464 463.038 411.417 463.076 411.362 463.099H411.1H410.237H409.96C409.91 463.075 409.867 463.038 409.837 462.991C409.821 462.951 409.821 462.907 409.837 462.868V454.308C409.829 454.211 409.843 454.114 409.877 454.023C409.912 453.933 409.967 453.851 410.037 453.784C410.175 453.67 410.351 453.61 410.53 453.615H411.562C411.721 453.597 411.881 453.597 412.039 453.615C412.162 453.641 412.278 453.693 412.378 453.769C412.491 453.856 412.59 453.96 412.671 454.077C412.671 454.215 412.84 454.369 412.933 454.554L414.797 458.034L415.105 458.665C415.213 458.865 415.32 459.065 415.413 459.265L415.705 459.866L415.983 460.466C415.983 460.112 415.983 459.758 415.983 459.388C415.983 459.019 415.983 458.665 415.983 458.326V453.892C415.965 453.848 415.965 453.798 415.983 453.754C416.022 453.703 416.075 453.665 416.137 453.646C416.224 453.634 416.312 453.634 416.399 453.646H417.261C417.348 453.634 417.436 453.634 417.523 453.646C417.574 453.669 417.616 453.707 417.646 453.754C417.646 453.754 417.646 453.831 417.646 453.892L417.631 462.452Z" fill="#4186C6"/>
<path d="M422.791 462.868C422.805 462.913 422.805 462.961 422.791 463.006L422.622 463.099H422.329H421.39H421.097L420.943 463.006C420.93 462.961 420.93 462.913 420.943 462.868V453.892C420.93 453.847 420.93 453.799 420.943 453.754L421.097 453.661C421.199 453.65 421.303 453.65 421.405 453.661H421.867H422.329C422.427 453.649 422.525 453.649 422.622 453.661L422.791 453.754C422.805 453.799 422.805 453.847 422.791 453.892V462.868Z" fill="#4186C6"/>
<path d="M433.867 462.452C433.884 462.554 433.884 462.658 433.867 462.76C433.828 462.84 433.776 462.913 433.713 462.976C433.64 463.036 433.556 463.083 433.466 463.114H433.189H432.326C432.178 463.132 432.028 463.132 431.88 463.114C431.749 463.081 431.628 463.017 431.525 462.929C431.413 462.819 431.315 462.694 431.233 462.56C431.106 462.368 430.993 462.167 430.894 461.959L428.522 457.51C428.383 457.248 428.244 456.956 428.106 456.648L427.721 455.755C427.721 456.109 427.721 456.463 427.721 456.817C427.721 457.171 427.721 457.526 427.721 457.895V462.883C427.729 462.924 427.729 462.966 427.721 463.006C427.682 463.057 427.628 463.095 427.567 463.114H427.305H426.442H426.18C426.125 463.091 426.078 463.054 426.042 463.006C426.033 462.966 426.033 462.924 426.042 462.883V454.323C426.034 454.227 426.047 454.129 426.082 454.039C426.117 453.948 426.171 453.866 426.242 453.8C426.382 453.688 426.556 453.628 426.735 453.63H427.705C427.859 453.612 428.014 453.612 428.167 453.63C428.291 453.653 428.408 453.706 428.506 453.784C428.619 453.872 428.718 453.975 428.799 454.092C428.891 454.231 428.968 454.385 429.076 454.57L430.925 458.049L431.248 458.68L431.556 459.281C431.649 459.496 431.741 459.696 431.833 459.881L432.111 460.481C432.111 460.127 432.111 459.773 432.111 459.404C432.111 459.034 432.111 458.68 432.111 458.342V453.892C432.093 453.848 432.093 453.798 432.111 453.754C432.15 453.703 432.203 453.665 432.265 453.646C432.357 453.632 432.45 453.632 432.542 453.646H433.389C433.476 453.634 433.564 453.634 433.651 453.646C433.651 453.646 433.759 453.646 433.774 453.754C433.792 453.798 433.792 453.848 433.774 453.892L433.867 462.452Z" fill="#4186C6"/>
<path d="M444.649 455.093C444.649 455.232 444.649 455.355 444.649 455.462C444.661 455.544 444.661 455.627 444.649 455.709C444.645 455.733 444.636 455.757 444.623 455.778C444.61 455.799 444.592 455.818 444.572 455.832C444.537 455.844 444.499 455.844 444.464 455.832C444.35 455.815 444.244 455.767 444.156 455.693L443.586 455.401C443.31 455.29 443.027 455.198 442.739 455.124C442.367 455.026 441.983 454.979 441.599 454.985C441.17 454.976 440.744 455.06 440.351 455.232C439.986 455.383 439.66 455.614 439.396 455.909C439.12 456.211 438.91 456.568 438.78 456.956C438.635 457.393 438.562 457.85 438.564 458.311C438.559 458.801 438.632 459.29 438.78 459.758C438.913 460.14 439.123 460.491 439.396 460.789C439.656 461.07 439.978 461.286 440.336 461.421C440.718 461.572 441.126 461.645 441.537 461.636C441.755 461.641 441.973 461.615 442.184 461.559C442.388 461.513 442.584 461.44 442.769 461.344V459.142H440.967C440.875 459.142 440.813 459.142 440.767 458.973C440.732 458.784 440.732 458.591 440.767 458.403C440.758 458.29 440.758 458.177 440.767 458.064C440.756 457.988 440.756 457.91 440.767 457.833C440.784 457.787 440.81 457.745 440.844 457.71C440.884 457.696 440.927 457.696 440.967 457.71H444.187C444.258 457.694 444.331 457.694 444.402 457.71C444.46 457.743 444.512 457.784 444.556 457.833C444.601 457.895 444.637 457.962 444.664 458.034C444.681 458.12 444.681 458.209 444.664 458.295V462.083C444.671 462.215 444.645 462.348 444.587 462.467C444.522 462.591 444.412 462.685 444.279 462.729L443.678 462.929L442.954 463.099C442.7 463.15 442.443 463.186 442.184 463.206C441.928 463.222 441.67 463.222 441.414 463.206C440.718 463.218 440.024 463.108 439.365 462.883C438.79 462.678 438.264 462.353 437.825 461.929C437.395 461.493 437.069 460.967 436.87 460.389C436.639 459.742 436.524 459.059 436.531 458.372C436.523 457.654 436.643 456.94 436.885 456.263C437.113 455.688 437.453 455.165 437.887 454.723C438.319 454.279 438.845 453.937 439.427 453.723C440.077 453.482 440.766 453.362 441.46 453.369C441.842 453.366 442.224 453.397 442.6 453.461C442.896 453.51 443.19 453.577 443.478 453.661C443.694 453.735 443.905 453.822 444.11 453.923C444.235 453.993 444.354 454.076 444.464 454.169C444.534 454.253 444.582 454.354 444.602 454.462C444.645 454.669 444.66 454.881 444.649 455.093Z" fill="#4186C6"/>
<path d="M340.184 110.021V114.639C340.184 117.155 341.183 119.567 342.963 121.345C344.742 123.124 347.156 124.123 349.672 124.123H457.495C460.009 124.119 462.418 123.118 464.195 121.34C465.971 119.562 466.968 117.152 466.968 114.639V110.021H340.184Z" fill="#264456"/>
<g opacity="0.33">
<path opacity="0.33" d="M309.701 362.114C308.792 362.113 307.9 361.866 307.12 361.399C306.341 360.932 305.703 360.262 305.274 359.461C304.846 358.66 304.643 357.757 304.687 356.85C304.732 355.942 305.022 355.064 305.526 354.308L451.118 136.015C451.858 134.907 453.007 134.137 454.315 133.876C455.622 133.614 456.979 133.883 458.088 134.622C459.197 135.361 459.967 136.51 460.229 137.817C460.49 139.123 460.222 140.48 459.482 141.588L313.89 359.912C313.425 360.593 312.8 361.15 312.069 361.534C311.339 361.918 310.526 362.117 309.701 362.114V362.114Z" fill="#EEF8FD"/>
</g>
<g opacity="0.33">
<path opacity="0.33" d="M304.34 498.01C303.345 498.012 302.372 497.711 301.552 497.148C301.003 496.781 300.532 496.309 300.166 495.759C299.8 495.209 299.546 494.593 299.418 493.945C299.291 493.297 299.293 492.631 299.424 491.984C299.555 491.336 299.812 490.721 300.181 490.174L429.569 298.145C430.314 297.041 431.468 296.278 432.777 296.024C434.085 295.77 435.441 296.045 436.546 296.791C437.651 297.536 438.415 298.689 438.669 299.997C438.924 301.305 438.647 302.66 437.902 303.765L308.514 495.793C308.053 496.476 307.431 497.035 306.703 497.422C305.975 497.808 305.164 498.01 304.34 498.01V498.01Z" fill="#EEF8FD"/>
</g>
<g opacity="0.33">
<path opacity="0.33" d="M395.358 496.932C394.364 496.937 393.393 496.642 392.57 496.086C391.463 495.346 390.696 494.198 390.436 492.893C390.176 491.588 390.445 490.234 391.184 489.127L498.098 329.198C498.837 328.09 499.987 327.32 501.294 327.059C502.601 326.797 503.959 327.066 505.068 327.805C506.177 328.544 506.947 329.693 507.209 331C507.47 332.306 507.201 333.663 506.462 334.771L399.578 494.654C399.122 495.356 398.496 495.933 397.759 496.331C397.022 496.729 396.196 496.936 395.358 496.932V496.932Z" fill="#EEF8FD"/>
</g>
<path d="M519.74 528.059C519.74 528.059 515.196 564.146 510.868 570.628C507.263 576.047 503.166 579.665 506.709 584.715C508.896 587.794 528.982 593.413 535.267 595.045C535.894 595.224 536.566 595.152 537.141 594.845C537.716 594.537 538.148 594.018 538.347 593.398C538.764 592.387 538.856 591.273 538.61 590.208C538.365 589.143 537.794 588.181 536.976 587.455C533.264 584.207 525.023 574.43 525.023 574.43L542.552 524.58L519.74 528.059Z" fill="#F49B91"/>
<path d="M524.962 574.43C523.252 576.203 521.101 577.488 518.73 578.154C516.358 578.82 513.852 578.842 511.469 578.218C509.862 577.782 508.447 576.823 507.448 575.493C505.369 578.572 504.26 581.343 506.694 584.73C508.881 587.809 528.967 593.429 535.251 595.06C535.878 595.239 536.551 595.168 537.126 594.86C537.7 594.553 538.133 594.034 538.332 593.413C538.749 592.403 538.841 591.288 538.595 590.223C538.349 589.158 537.778 588.196 536.961 587.47C533.203 584.207 524.962 574.43 524.962 574.43Z" fill="#666DB2"/>
<path d="M537.069 540.145L542.552 524.58L519.802 528.059C519.802 528.059 519.278 532.2 518.431 537.912C524.41 539.987 530.768 540.749 537.069 540.145V540.145Z" fill="#DE706B"/>
<path d="M565.904 530.384C565.904 530.384 572.358 566.178 570.156 573.676C568.323 579.911 565.442 584.607 570.402 588.348C573.406 590.627 594.246 590.011 600.731 589.687C601.369 589.66 601.972 589.389 602.416 588.931C602.86 588.473 603.111 587.862 603.119 587.224C603.219 586.133 602.976 585.038 602.424 584.091C601.871 583.145 601.037 582.394 600.038 581.943C595.602 579.957 584.82 573.122 584.82 573.122L586.653 520.331L565.904 530.384Z" fill="#F49B91"/>
<path d="M584.819 573.122C583.725 575.333 582.061 577.212 579.997 578.565C577.934 579.919 575.546 580.697 573.082 580.82C571.428 580.88 569.802 580.387 568.461 579.419C567.398 582.99 567.167 585.946 570.509 588.471C573.513 590.75 594.354 590.134 600.838 589.811C601.476 589.783 602.079 589.512 602.523 589.054C602.967 588.596 603.219 587.985 603.226 587.347C603.326 586.256 603.083 585.161 602.531 584.214C601.979 583.268 601.145 582.517 600.145 582.067C595.601 579.957 584.819 573.122 584.819 573.122Z" fill="#666DB2"/>
<path d="M585.913 539.483L586.576 520.284L565.904 530.384C565.904 530.384 566.644 534.494 567.537 540.206C573.664 540.897 579.86 540.653 585.913 539.483V539.483Z" fill="#DE706B"/>
<path d="M602.948 341.604L541.011 345.653C531.692 356.969 527.857 371.933 526.979 386.574C526.101 401.215 527.934 415.826 528.643 430.513C530.268 464.552 525.846 498.611 515.581 531.107C542.382 535.049 570.078 534.079 596.91 530.476C604.026 501.733 607.323 471.973 610.388 442.445C613.962 408.051 613.761 371.317 602.948 341.604Z" fill="#666DB2"/>
<path d="M542.598 354.89C528.735 381.971 540.842 413.963 541.659 442.645C542.506 472.635 537.515 500.886 529.213 529.537C529.213 529.737 529.459 529.86 529.552 529.676C541.597 506.505 543.415 476.161 543.415 450.527C543.349 437.967 542.37 425.427 540.488 413.008C537.685 393.548 535.328 373.996 543.415 355.398C543.646 354.89 542.922 354.428 542.645 354.952L542.598 354.89Z" fill="#747DBB"/>
<path d="M543.107 361.587C547.389 360.617 551.686 359.032 556.046 359.54C561.375 360.171 565.857 363.835 571.018 365.282C577.934 367.207 585.25 365.021 592.166 363.127C597.434 361.68 603.133 360.433 608.417 361.264C607.074 354.587 605.246 348.016 602.949 341.604L541.012 345.653C537.267 350.279 534.292 355.477 532.201 361.048C535.42 362.665 539.487 362.403 543.107 361.587Z" fill="#5964AA"/>
<path d="M611.775 287.889L613.084 318.234L605.675 318.526C605.675 318.526 595.247 296.464 598.697 290.06C601.008 285.764 611.775 287.889 611.775 287.889Z" fill="#F49089"/>
<path d="M611.774 287.889C611.774 287.889 600.992 285.764 598.697 290.06C597.665 291.969 597.881 295.279 598.697 298.989C602.825 296.582 607.363 294.958 612.082 294.201L611.774 287.889Z" fill="#DE706B"/>
<path d="M605.49 201.797C603.95 196.917 598.82 193.899 593.753 193.253C591.284 192.935 588.787 192.909 586.313 193.176C583.717 193.644 581.092 193.942 578.457 194.069C575.669 194.069 573.066 193.53 570.309 194.284C568.722 194.695 567.239 195.433 565.955 196.451C564.671 197.469 563.614 198.745 562.854 200.196C560.882 204.26 561.76 209.526 558.926 213.051C557.293 215.084 554.736 216.13 552.595 217.67C550.794 218.911 549.301 220.549 548.233 222.457C547.165 224.366 546.549 226.494 546.434 228.678C546.372 230.864 546.935 233.023 548.056 234.902C549.177 236.78 550.81 238.301 552.765 239.285C557.386 241.394 562.746 239.886 567.752 240.563C572.512 241.194 576.994 243.827 581.738 243.735C585.45 243.642 589.009 241.918 592.721 241.995C594.862 241.995 597.265 242.611 598.974 241.317C599.657 240.677 600.152 239.863 600.404 238.962C600.657 238.061 600.658 237.108 600.407 236.206C600.068 234.374 599.19 232.681 598.867 230.849C597.773 225.876 600.268 220.918 602.563 216.392C604.859 211.866 607.03 206.708 605.49 201.797Z" fill="#5683C2"/>
<path d="M527.041 285.01C527.041 285.01 529.583 291.584 539.626 294.247L543.291 286.55L527.041 285.01Z" fill="#E98E31"/>
<path d="M560.174 240.055C553.365 237.853 545.633 240.378 540.349 245.213C535.066 250.047 531.97 256.852 530.23 263.795C528.489 270.738 527.981 277.913 527.041 285.01C532.756 285.98 538.825 285.841 544.354 286.473C548.821 307.872 544.447 330.966 530.969 348.193C532.91 351.965 538.147 353.628 542.352 353.151C546.557 352.673 550.731 351.18 554.936 351.703C561.544 352.519 567.182 358.2 573.821 357.615C577.61 357.277 580.922 354.921 584.603 354.121C587.826 353.605 591.118 353.73 594.292 354.49C597.463 355.249 600.722 355.575 603.981 355.46C605.609 355.391 607.2 354.95 608.631 354.171C610.063 353.392 611.296 352.295 612.237 350.964C611.579 338.703 609.022 326.617 604.658 315.139C603.118 310.89 601.285 306.718 600.114 302.345C598.807 297.992 598.621 293.38 599.575 288.936C604.643 288.351 609.526 288.089 614.609 287.504C613.909 278.022 610.98 268.838 606.06 260.7C603.36 255.785 599.63 251.51 595.124 248.168C590.148 244.704 584.187 242.98 578.272 241.718C572.142 240.425 566.165 241.979 560.174 240.055Z" fill="#FAAD58"/>
<path d="M590.426 232.958C592.874 232.022 594.891 230.219 596.095 227.893C597.804 224.814 596.526 221.58 597.296 218.301C597.851 215.961 599.375 213.898 599.607 211.496C599.675 210.027 599.327 208.568 598.602 207.288C597.877 206.008 596.805 204.958 595.509 204.261C592.738 202.974 589.604 202.702 586.652 203.491C587.007 204.103 587.221 204.787 587.28 205.493C587.339 206.198 587.24 206.908 586.991 207.571C586.393 208.438 585.739 209.266 585.035 210.049C584.076 211.526 583.392 213.163 583.017 214.883C581.477 220.503 580.044 226.43 578.473 232.065C582.524 232.496 586.36 234.42 590.426 232.958Z" fill="#3D6EA2"/>
<path d="M593.599 210.157C595.224 213.023 595.949 216.311 595.679 219.594C595.402 222.519 594.576 225.366 593.245 227.985C592.097 230.547 590.257 232.739 587.931 234.313C585.62 235.744 581.862 235.991 579.921 234.097C579.443 236.822 578.904 239.778 578.381 242.503C579.505 242.734 580.876 243.319 582.016 243.565C583.829 253.106 583.203 262.95 580.198 272.186C574.622 261.286 567.876 249.092 559.635 240.117C563.994 240.117 569.555 239.424 572.327 235.498C575.1 231.572 576.301 224.89 572.697 221.734C572.169 221.381 571.717 220.927 571.365 220.399C571.014 219.871 570.77 219.278 570.648 218.655C570.65 218.146 570.796 217.648 571.068 217.218C571.341 216.787 571.729 216.443 572.188 216.223C572.708 216.039 573.259 215.961 573.809 215.993C574.359 216.024 574.897 216.165 575.392 216.408C578.461 215.862 581.252 214.289 583.307 211.947C585.362 209.605 586.558 206.633 586.698 203.521C590.826 206.339 591.658 207.216 593.599 210.157Z" fill="#F49B91"/>
<path d="M576.039 226.953C576.039 226.953 574.314 238.916 578.426 242.503C578.904 239.778 579.443 236.822 579.967 234.097C577.979 232.157 576.612 229.671 576.039 226.953V226.953Z" fill="#DE706B"/>
<path d="M593.922 261.47C596.581 270.015 597.794 278.944 597.511 287.889C597.511 289.598 599.899 289.429 600.083 287.889C600.892 278.642 599.066 269.354 594.815 261.101C594.752 261.006 594.658 260.936 594.549 260.903C594.44 260.87 594.322 260.876 594.217 260.919C594.112 260.963 594.025 261.041 593.971 261.142C593.917 261.242 593.9 261.358 593.922 261.47V261.47Z" fill="#E98E31"/>
<path d="M557.725 271.462C557.925 278.02 559.003 285.102 562.346 290.814C563.085 292.046 564.81 290.968 564.24 289.721C561.57 283.862 559.8 277.633 558.988 271.246C558.895 270.477 557.617 270.677 557.648 271.431L557.725 271.462Z" fill="#E98E31"/>
<path d="M536.222 286.95C540.164 287.632 544.147 288.054 548.144 288.212C550.621 288.355 553.088 288.622 555.538 289.013C556.57 289.198 564.148 290.398 561.021 292.277C559.897 292.954 560.621 294.894 561.93 294.447C565.935 293.108 565.165 289.952 561.807 288.443C554.336 285.118 544.278 285.749 536.33 286.134C535.883 286.134 535.745 286.842 536.222 286.95Z" fill="#E98E31"/>
<path d="M559.927 241.179C567.105 247.506 571.264 254.758 574.638 263.641C575.385 265.792 576.361 267.856 577.549 269.799C578.92 271.924 580.629 273.833 582.17 275.85C585.078 279.77 587.654 283.926 589.871 288.274C591.104 290.645 592.305 293.046 593.491 295.433C594.677 297.819 595.709 300.683 596.957 303.238C597.142 303.592 597.65 303.331 597.573 302.977C596.947 300.566 596.176 298.196 595.263 295.879C594.485 293.627 593.591 291.418 592.582 289.259C590.383 284.769 587.807 280.474 584.881 276.419C583.417 274.372 581.8 272.447 580.26 270.43C578.758 268.335 577.526 266.059 576.594 263.656C574.95 259.383 572.886 255.283 570.432 251.417C567.601 247.063 564.085 243.195 560.02 239.963C559.512 239.578 558.48 239.47 559.003 239.963L559.927 241.179Z" fill="#E98E31"/>
<path d="M582.062 243.981C582.547 248.469 582.547 252.995 582.062 257.483C581.415 261.84 580.198 266.151 579.243 270.461C579.012 271.508 580.614 272.001 580.783 270.908C581.738 266.52 582.832 262.117 583.371 257.668C583.956 252.833 583.001 248.677 582.462 243.812C582.462 243.334 581.908 242.903 581.939 243.411L582.062 243.981Z" fill="#E98E31"/>
<path d="M559.819 289.028C560.22 290.568 560.374 292.107 560.759 293.647C561.602 293.584 562.412 293.291 563.1 292.8C563.392 292.554 563.596 292.22 563.682 291.848C563.768 291.476 563.731 291.086 563.578 290.737C563.374 290.467 563.117 290.24 562.823 290.071C562.529 289.901 562.205 289.793 561.868 289.752C561.139 289.668 560.439 289.421 559.819 289.028Z" fill="#E98E31"/>
<path d="M582.646 213.929C582.646 214.16 586.42 213.929 587.991 214.883C588.3 215.114 588.65 215.282 589.024 215.376C589.112 215.401 589.204 215.409 589.295 215.399C589.386 215.388 589.474 215.36 589.554 215.316C589.634 215.272 589.704 215.212 589.761 215.14C589.818 215.069 589.861 214.987 589.886 214.899C589.911 214.811 589.919 214.719 589.909 214.628C589.898 214.537 589.87 214.449 589.826 214.369C589.782 214.289 589.722 214.218 589.65 214.161C589.579 214.104 589.497 214.062 589.409 214.037C588.919 213.779 588.403 213.578 587.868 213.436C586.051 212.959 582.893 212.867 582.646 213.929Z" fill="#675161"/>
<path d="M595.601 214.914C595.601 215.13 595.494 214.252 593.845 215.099C593.506 215.308 593.129 215.449 592.736 215.515C592.562 215.539 592.384 215.496 592.24 215.394C592.096 215.293 591.997 215.14 591.961 214.967C591.926 214.795 591.958 214.615 592.05 214.465C592.143 214.315 592.289 214.206 592.459 214.16C592.939 213.928 593.467 213.812 593.999 213.821C595.124 213.867 595.601 214.406 595.601 214.914Z" fill="#675161"/>
<path d="M588.085 218.147C587.962 219.056 587.299 219.687 586.545 219.61C586.181 219.486 585.877 219.231 585.692 218.895C585.507 218.559 585.454 218.166 585.544 217.793C585.667 216.9 586.329 216.254 587.007 216.331C587.384 216.439 587.706 216.687 587.907 217.025C588.107 217.363 588.171 217.764 588.085 218.147V218.147Z" fill="#675161"/>
<path d="M595.432 218.455C595.308 219.363 594.646 219.995 593.968 219.995C593.605 219.874 593.3 219.623 593.112 219.29C592.924 218.957 592.867 218.566 592.952 218.193C593.075 217.285 593.737 216.654 594.492 216.731C594.825 216.864 595.101 217.109 595.272 217.424C595.444 217.739 595.5 218.103 595.432 218.455Z" fill="#675161"/>
<path d="M592.09 223.105C592.335 223.715 592.41 224.38 592.305 225.029C592.223 225.333 592.058 225.608 591.829 225.824C591.599 226.039 591.314 226.186 591.005 226.249C590.696 226.311 590.376 226.286 590.081 226.177C589.785 226.067 589.526 225.878 589.333 225.629C589.626 225.692 589.932 225.663 590.208 225.544C590.484 225.425 590.717 225.224 590.873 224.967C591.164 224.454 591.278 223.859 591.196 223.274C591.196 222.689 590.981 222.135 590.888 221.55C590.719 220.626 590.503 218.732 591.196 218.009C591.52 219.702 591.612 221.426 592.09 223.105Z" fill="#DE706B"/>
<g style="mix-blend-mode:overlay" opacity="0.21">
<path d="M590.333 246.737C596.455 251.02 601.572 256.583 605.328 263.041C609.084 269.498 611.388 276.695 612.083 284.132C609.695 284.656 606.907 285.072 604.535 285.672C603.254 271.683 598.36 258.267 590.333 246.737Z" fill="#FFF9F4"/>
</g>
<path d="M591.488 229.632C589.44 230.194 587.26 230.02 585.327 229.14C584.985 230.069 584.985 231.089 585.327 232.019C585.57 232.465 585.939 232.83 586.388 233.069C586.838 233.307 587.347 233.408 587.853 233.358C588.845 233.224 589.752 232.724 590.395 231.957C590.943 231.282 591.318 230.484 591.488 229.632Z" fill="#EE8780"/>
<path opacity="0.58" d="M594.2 296.295C577.573 295.218 561.187 291.765 545.541 286.042C546.801 296.287 546.542 306.663 544.771 316.833C554.021 317.314 563.262 315.72 571.815 312.166C580.368 308.612 588.017 303.189 594.2 296.295V296.295Z" fill="#E98E31"/>
<path d="M585.143 231.449C585.181 231.648 585.249 231.839 585.343 232.019C585.586 232.465 585.955 232.831 586.404 233.069C586.853 233.307 587.363 233.408 587.869 233.358C588.703 233.24 589.479 232.863 590.087 232.28C589.466 231.725 588.713 231.338 587.9 231.156C586.972 230.97 586.01 231.072 585.143 231.449V231.449Z" fill="#DE706B"/>
<path d="M591.488 229.632C589.44 230.194 587.26 230.02 585.327 229.14C585.112 229.89 585.069 230.68 585.204 231.449C586.071 231.072 587.034 230.97 587.961 231.156C588.774 231.338 589.527 231.725 590.148 232.28L590.472 231.957C590.992 231.275 591.341 230.477 591.488 229.632Z" fill="#675161"/>
<path d="M666.78 273.078H612.545C611.814 273.067 611.102 273.317 610.537 273.782C609.973 274.248 609.593 274.899 609.465 275.619L602.425 313.646H578.273C577.893 313.664 577.534 313.822 577.264 314.089C576.994 314.356 576.832 314.714 576.81 315.093V317.926C576.828 318.308 576.988 318.669 577.259 318.939C577.529 319.209 577.891 319.37 578.273 319.388H632.57L656.506 319.619C657.212 319.639 657.903 319.416 658.464 318.987C659.025 318.558 659.421 317.95 659.587 317.264L669.861 276.958C669.987 276.493 670.001 276.005 669.904 275.533C669.806 275.061 669.599 274.619 669.3 274.242C669 273.864 668.616 273.562 668.179 273.36C667.741 273.158 667.262 273.062 666.78 273.078Z" fill="#A5DDEC"/>
<path d="M560.267 288.135C562.069 296.31 564.41 307.01 567.568 314.77C588.547 315.801 608.756 316.833 629.289 318.557C626.946 321.136 624.065 323.17 620.85 324.516C617.635 325.862 614.164 326.487 610.682 326.347C609.588 326.932 607.709 327.779 606.569 328.271C595.196 333.384 582.734 335.605 570.294 334.738C565.622 334.605 561.04 333.416 556.893 331.258C551.856 328.318 548.437 323.253 545.803 318.049C540.828 308.273 536.268 296.911 535.775 285.964C543.677 285.58 552.781 285.872 560.267 288.135Z" fill="#F49B91"/>
<path d="M615.24 317.433L620.601 317.895C620.601 317.895 616.427 320.974 614.902 320.758C613.377 320.543 616.088 319.404 616.257 318.788C616.427 318.172 616.427 317.556 615.24 317.433Z" fill="#E2756D"/>
<path d="M639.855 285.61C637.278 285.706 634.81 286.672 632.852 288.349C630.894 290.026 629.562 292.317 629.073 294.848C628.842 295.979 628.868 297.148 629.15 298.268C629.432 299.388 629.962 300.43 630.702 301.317C631.442 302.204 632.372 302.913 633.423 303.393C634.474 303.872 635.619 304.108 636.775 304.085C639.352 303.992 641.822 303.028 643.781 301.35C645.739 299.672 647.071 297.38 647.557 294.848C647.788 293.716 647.762 292.547 647.48 291.428C647.198 290.308 646.667 289.266 645.928 288.379C645.188 287.491 644.258 286.782 643.207 286.303C642.156 285.824 641.01 285.587 639.855 285.61V285.61Z" fill="#F5FBFD"/>
<path d="M630.197 296.218C630.686 293.687 632.018 291.397 633.975 289.719C635.933 288.042 638.402 287.076 640.979 286.981C642.943 286.942 644.849 287.639 646.324 288.936C645.595 287.896 644.62 287.052 643.486 286.48C642.352 285.908 641.094 285.625 639.824 285.657C637.247 285.752 634.778 286.718 632.82 288.395C630.862 290.073 629.53 292.363 629.041 294.894C628.772 296.215 628.847 297.583 629.26 298.866C629.672 300.15 630.409 301.306 631.398 302.222C630.228 300.454 629.797 298.299 630.197 296.218V296.218Z" fill="#7ACFE6"/>
<path d="M556.631 315.462C560.078 314.5 563.691 314.285 567.228 314.831C567.286 314.847 567.346 314.851 567.405 314.842C567.464 314.832 567.52 314.811 567.569 314.778C567.619 314.745 567.661 314.702 567.693 314.651C567.724 314.601 567.745 314.544 567.753 314.485C567.76 314.426 567.756 314.366 567.738 314.309C567.721 314.252 567.691 314.2 567.652 314.155C567.612 314.111 567.564 314.075 567.509 314.051C567.455 314.027 567.396 314.015 567.336 314.015C563.718 313.536 560.038 313.851 556.554 314.939C556.23 315.047 556.354 315.555 556.692 315.462H556.631Z" fill="#DE706B"/>
<path d="M562.377 297.45C561.607 294.186 560.837 290.999 560.267 288.135C552.781 285.872 543.677 285.58 535.775 285.964C535.881 288.123 536.123 290.272 536.499 292.4C545.388 292.209 554.213 293.931 562.377 297.45V297.45Z" fill="#DE706B"/>
<path d="M615.24 317.433L620.601 317.895C620.601 317.895 616.427 320.974 614.902 320.758C613.377 320.543 616.088 319.404 616.257 318.788C616.427 318.172 616.427 317.556 615.24 317.433Z" fill="#E2756D"/>
<path opacity="0.61" d="M568.984 197.009C567.525 197.587 566.281 198.604 565.426 199.919C564.252 201.781 563.525 203.888 563.3 206.077C563.273 206.323 563.323 206.572 563.444 206.788C563.565 207.004 563.75 207.177 563.975 207.283C564.199 207.388 564.451 207.42 564.695 207.375C564.938 207.33 565.162 207.21 565.334 207.032C566.551 205.723 567.521 203.26 568.199 203.675L568.722 204.907C568.69 205.096 568.705 205.289 568.765 205.471C568.825 205.652 568.929 205.816 569.068 205.949C569.206 206.081 569.375 206.177 569.559 206.229C569.743 206.281 569.937 206.287 570.124 206.247C571.134 206.024 572.191 206.177 573.097 206.678C573.66 207.106 574.258 207.487 574.884 207.817C576.547 208.464 578.303 207.293 579.797 206.277C581.291 205.261 583.417 204.522 584.711 205.754C584.784 205.262 584.665 204.76 584.378 204.353C584.091 203.946 583.659 203.665 583.171 203.568C582.173 203.425 581.157 203.483 580.182 203.737C579.697 203.866 579.191 203.897 578.694 203.829C578.197 203.76 577.718 203.593 577.287 203.337C576.147 202.505 576.131 200.843 575.592 199.534C575.337 198.924 574.961 198.372 574.486 197.911C574.011 197.451 573.448 197.092 572.83 196.856C572.212 196.619 571.552 196.511 570.891 196.538C570.23 196.564 569.581 196.725 568.984 197.009V197.009Z" fill="#6297D0"/>
<path opacity="0.61" d="M549.145 230.14C549.155 230.46 549.256 230.77 549.438 231.033C549.977 231.711 551.101 231.341 551.717 230.725C552.333 230.11 552.796 229.263 553.627 229.016C554.813 228.647 555.969 229.648 556.708 230.648C557.447 231.649 558.248 232.804 559.496 232.942C561.437 233.142 562.577 230.679 564.518 230.187C566.166 229.74 567.891 230.926 569.585 230.648C570.001 230.561 570.395 230.389 570.741 230.143C571.087 229.897 571.379 229.582 571.597 229.217C571.816 228.853 571.956 228.447 572.01 228.026C572.064 227.604 572.031 227.176 571.911 226.769C571.757 227.862 570.201 228.139 569.2 227.662C568.199 227.184 567.444 226.276 566.412 225.876C565.008 225.535 563.537 225.589 562.161 226.03C561.473 226.243 560.743 226.284 560.036 226.147C559.33 226.01 558.668 225.7 558.11 225.245C557.482 224.202 557.088 223.036 556.954 221.827C555.861 218.009 552.626 220.287 551.178 222.381C549.561 224.626 548.836 227.391 549.145 230.14V230.14Z" fill="#6297D0"/>
<g style="mix-blend-mode:overlay" opacity="0.21">
<path d="M567.629 284.625C567.5 285.748 567.67 286.884 568.122 287.92C568.684 288.619 569.455 289.12 570.322 289.35C571.19 289.58 572.108 289.527 572.943 289.198C574.668 288.69 576.178 287.658 577.903 287.088C582.693 285.549 588.408 288.628 592.644 285.903C593.547 285.276 594.316 284.475 594.906 283.547C595.496 282.619 595.894 281.583 596.079 280.499C596.428 278.329 596.392 276.114 595.971 273.956C595.957 273.389 595.824 272.831 595.579 272.319C595.335 271.807 594.986 271.353 594.554 270.985C593.896 270.689 593.159 270.616 592.455 270.777C591.752 270.938 591.12 271.325 590.657 271.878C589.759 273 588.802 274.074 587.792 275.095C585.404 276.958 581.985 276.404 579.027 275.757L569.6 273.694C567.213 273.171 564.641 273.002 565.611 276.096C566.73 278.815 567.411 281.693 567.629 284.625V284.625Z" fill="#FFF9F4"/>
</g>
<g style="mix-blend-mode:overlay" opacity="0.21">
<path d="M543.446 283.147C539.279 283.304 535.11 282.911 531.046 281.977C530.83 273.51 531.693 264.826 535.22 257.129C538.748 249.431 545.248 242.78 553.442 240.609C545.273 253.2 541.738 268.238 543.446 283.147V283.147Z" fill="#FFF9F4"/>
</g>
<g style="mix-blend-mode:overlay" opacity="0.21">
<path d="M524.545 524.888C530.183 501.794 535.867 478.332 535.79 454.515C535.682 424.309 526.363 393.471 534.481 364.359C533.71 389.761 548.128 411.992 552.965 436.948C559.095 468.679 547.404 502.041 524.545 524.888Z" fill="#E0E2F2"/>
</g>
<path d="M610.896 275.819L604.935 316.217L581.276 314.6H603.333L610.896 275.819Z" fill="#F5FBFD"/>
<path opacity="0.54" d="M519.694 579.957L534.728 587.655C534.816 587.723 534.927 587.752 535.037 587.738C535.146 587.723 535.246 587.666 535.313 587.578C535.381 587.49 535.41 587.379 535.396 587.27C535.382 587.16 535.324 587.061 535.236 586.993L525.07 575.893C525.07 575.893 522.806 579.834 519.694 579.957Z" fill="#8089C3"/>
<path opacity="0.54" d="M580.968 579.665L597.496 583.221C597.594 583.237 597.694 583.22 597.78 583.171C597.866 583.122 597.932 583.045 597.968 582.953C598.004 582.861 598.008 582.76 597.978 582.666C597.948 582.572 597.887 582.49 597.804 582.436L585.096 574.369C585.096 574.369 583.941 578.757 580.968 579.665Z" fill="#8089C3"/>
<path d="M174.321 422.692C167.143 468.309 173.843 516.081 160.104 560.174C162.999 562.545 162.522 567.302 165.125 569.981C167.22 572.121 170.316 572.891 173.243 573.553L173.551 573.122C172.318 572.691 173.011 572.337 173.304 571.059C175.692 560.544 179.204 550.321 182.053 539.929C185.688 526.627 188.215 513.049 190.864 499.516C196.368 471.609 202.447 443.799 209.101 416.088C203.1 415.991 197.099 416.367 191.157 417.211C185.273 418.243 179.08 419.167 174.321 422.692Z" fill="#F49B91"/>
<path d="M166.681 529.722C165.342 540.038 163.142 550.225 160.104 560.174C162.999 562.545 162.522 567.302 165.125 569.981C167.22 572.121 170.316 572.891 173.243 573.553L173.551 573.122C172.318 572.691 173.011 572.337 173.304 571.059C175.692 560.544 179.204 550.321 182.053 539.929C182.9 536.85 183.686 533.663 184.441 530.507C178.554 529.739 172.612 529.477 166.681 529.722V529.722Z" fill="#E4E7E9"/>
<path d="M155.852 558.512C155.852 558.512 166.804 558.896 167.574 560.621C168.344 562.345 165.264 570.412 167.189 571.182C169.114 571.952 171.132 571.428 173.581 573.122C176.031 574.815 173.15 586.978 173.15 586.978C173.15 586.978 136.644 587.178 126.832 572.953C126.832 572.953 124.922 568.734 131.068 567.78C137.214 566.825 147.596 570.458 151.093 567.01C153.313 564.582 154.942 561.673 155.852 558.512Z" fill="#6482AF"/>
<path d="M191.157 417.227C185.273 418.243 179.081 419.09 174.321 422.692C173.844 425.771 173.428 428.85 173.058 431.93C183.719 429.862 194.694 430.04 205.282 432.453C206.535 427.024 207.808 421.594 209.102 416.164C203.102 416.048 197.101 416.403 191.157 417.227V417.227Z" fill="#DE706B"/>
<path d="M235.996 434.562C251.075 478.224 279.418 517.252 288.013 562.638C291.679 563.376 293.481 567.795 297.039 568.934C299.904 569.843 303 569.057 305.896 568.288L305.988 567.749C304.679 567.934 305.141 567.302 304.787 566.025C301.968 555.633 300.274 544.963 297.902 534.448C294.821 520.993 290.724 507.829 286.703 494.635C278.427 467.406 270.725 440.002 263.598 412.423C258.247 415.152 253.122 418.303 248.272 421.845C243.574 425.433 238.491 429.097 235.996 434.562Z" fill="#F49B91"/>
<path d="M279.51 532.601C283.173 542.339 286.017 552.365 288.013 562.576C291.679 563.315 293.481 567.733 297.039 568.873C299.904 569.781 303 568.996 305.896 568.226L305.989 567.687C304.679 567.872 305.141 567.241 304.787 565.963C301.968 555.571 300.274 544.902 297.902 534.387C297.193 531.215 296.361 528.074 295.591 524.934C290.024 527.031 284.644 529.596 279.51 532.601V532.601Z" fill="#E4E7E9"/>
<path d="M283.469 563.099C283.469 563.099 293.327 558.296 294.806 559.466C296.284 560.636 297.378 569.196 299.427 568.965C301.475 568.734 303.031 567.333 305.988 567.687C308.946 568.041 312.15 580.004 312.15 580.004C312.15 580.004 280.003 597.308 264.677 589.349C264.677 589.349 260.995 586.516 265.971 582.79C270.946 579.064 281.821 577.417 283.253 572.737C284.059 569.583 284.133 566.286 283.469 563.099V563.099Z" fill="#6482AF"/>
<path d="M248.288 421.784C243.574 425.433 235.195 420.86 232.684 426.279C233.701 429.189 238.075 440.32 239.184 443.214C247.626 436.391 257.4 431.404 267.881 428.573C266.443 423.164 265.021 417.766 263.614 412.377C258.263 415.101 253.138 418.246 248.288 421.784V421.784Z" fill="#DE706B"/>
<path d="M188.554 334.907C188.554 334.907 185.473 342.297 185.473 347.993C185.473 353.689 183.209 359.648 182.639 366.191C182.069 372.734 171.533 426.464 171.533 426.464H215.91L222.749 395.473L231.853 427.034H279.064L268.281 333.491L188.554 334.907Z" fill="#CDD1E9"/>
<g style="mix-blend-mode:multiply" opacity="0.51">
<path d="M270.022 349.317L268.189 333.491L188.554 334.907C186.959 338.774 185.922 342.849 185.473 347.008C213.393 340.573 242.495 341.368 270.022 349.317V349.317Z" fill="#CDD1E9"/>
</g>
<path d="M249.566 341.989C253.001 348.594 256.313 356.938 263.845 359.786C264.6 360.079 265.077 358.893 264.384 358.524C262.827 357.758 261.355 356.829 259.994 355.753C258.596 354.557 257.377 353.168 256.374 351.627C255.342 350.087 254.464 348.44 253.54 346.839C252.616 345.237 251.461 343.282 250.459 341.496C250.387 341.398 250.282 341.331 250.163 341.306C250.043 341.281 249.919 341.301 249.814 341.362C249.709 341.424 249.631 341.521 249.593 341.637C249.556 341.753 249.563 341.878 249.612 341.989H249.566Z" fill="#ACB7DD"/>
<path d="M254.834 343.19C256.409 346.105 258.244 348.872 260.318 351.457C261.35 352.735 262.428 353.936 263.568 355.106C264.675 356.388 265.943 357.521 267.342 358.477C268.081 358.909 268.697 357.954 268.204 357.354C267.646 356.761 267.049 356.205 266.417 355.691C265.847 355.167 265.293 354.644 264.754 354.151C263.599 353.012 262.505 351.811 261.458 350.564C259.368 348.095 257.507 345.441 255.897 342.635C255.512 341.943 254.464 342.558 254.834 343.251V343.19Z" fill="#ACB7DD"/>
<path d="M196.517 339.941C195.745 343.147 194.342 346.167 192.389 348.825C191.436 350.123 190.358 351.325 189.169 352.412C188.553 352.962 187.905 353.477 187.228 353.951C186.506 354.386 185.806 354.859 185.134 355.368C184.379 356.03 185.349 356.907 186.119 356.645C186.906 356.234 187.631 355.716 188.276 355.106C188.907 354.598 189.508 354.059 190.093 353.566C191.34 352.367 192.469 351.053 193.467 349.64C195.442 346.818 196.835 343.631 197.564 340.265C197.703 339.603 196.686 339.31 196.517 339.988V339.941Z" fill="#ACB7DD"/>
<path d="M201.861 342.189C200.537 346.533 198.24 350.519 195.146 353.843C192.06 357.11 188.352 359.727 184.24 361.541C183.162 362.049 183.932 363.943 185.072 363.496C193.929 360.063 200.691 351.642 203.094 342.589C203.111 342.436 203.073 342.282 202.986 342.155C202.9 342.027 202.771 341.935 202.622 341.894C202.474 341.853 202.316 341.866 202.176 341.932C202.037 341.997 201.925 342.11 201.861 342.251V342.189Z" fill="#ACB7DD"/>
<path d="M221.409 342.02C221.486 358.231 222.302 374.427 222.379 390.639C222.379 391.409 223.611 391.409 223.581 390.639C222.934 374.427 223.026 358.231 222.379 342.02C222.359 341.906 222.299 341.803 222.21 341.729C222.122 341.654 222.01 341.614 221.894 341.614C221.778 341.614 221.666 341.654 221.578 341.729C221.489 341.803 221.429 341.906 221.409 342.02V342.02Z" fill="#ACB7DD"/>
<path d="M215.571 342.328C215.663 344.483 215.74 346.654 215.833 348.809C215.858 350.832 216.038 352.849 216.372 354.844C216.667 356.539 217.324 358.151 218.297 359.571C219.156 360.944 220.47 361.974 222.01 362.48C222.19 362.54 222.386 362.53 222.559 362.451C222.732 362.373 222.869 362.233 222.943 362.058C223.017 361.883 223.022 361.687 222.957 361.508C222.893 361.33 222.763 361.182 222.595 361.095C221.307 360.434 220.197 359.473 219.36 358.293C218.498 356.845 217.943 355.237 217.728 353.566C217.142 349.871 217.081 346.053 216.803 342.328C216.803 341.542 215.525 341.512 215.571 342.328V342.328Z" fill="#ACB7DD"/>
<path d="M218.02 367.946C220.208 367.589 222.414 367.363 224.628 367.268C225.707 367.268 226.785 367.268 227.863 367.268C228.957 367.268 230.112 367.422 231.205 367.268C232.022 367.191 232.33 365.929 231.421 365.729C230.246 365.531 229.053 365.464 227.863 365.529C226.739 365.529 225.614 365.529 224.505 365.636C222.2 365.792 219.907 366.08 217.635 366.499C216.696 366.668 217.096 368.038 218.02 367.915V367.946Z" fill="#ACB7DD"/>
<path d="M215.833 374.427C218.651 374.212 221.455 373.981 224.258 373.719C227.062 373.457 229.834 373.273 232.591 372.857C233.516 372.718 233.3 371.179 232.376 371.225C229.603 371.348 226.846 371.718 224.104 372.01C221.362 372.303 218.59 372.611 215.833 372.934C214.908 373.057 214.862 374.473 215.833 374.473V374.427Z" fill="#ACB7DD"/>
<path d="M179.188 291.03C177.893 290.145 176.791 289.007 175.949 287.683C175.107 286.36 174.542 284.88 174.29 283.332C173.335 278.02 179.728 276.219 179.728 276.219L182.238 277.358C182.238 277.358 183.07 288.166 179.188 291.03Z" fill="#3A6CA0"/>
<path d="M185.042 221.842H170.963C170.445 221.843 169.944 221.661 169.546 221.329C169.149 220.997 168.882 220.535 168.791 220.025L163.185 189.435C163.128 189.116 163.143 188.788 163.227 188.475C163.311 188.162 163.462 187.872 163.671 187.624C163.879 187.376 164.14 187.176 164.434 187.04C164.727 186.903 165.048 186.832 165.372 186.833H179.435C179.951 186.831 180.451 187.011 180.848 187.34C181.244 187.669 181.513 188.127 181.607 188.634L187.214 219.225C187.275 219.544 187.265 219.873 187.184 220.188C187.103 220.503 186.954 220.796 186.746 221.046C186.538 221.296 186.278 221.497 185.983 221.635C185.689 221.773 185.367 221.843 185.042 221.842V221.842Z" fill="#EEF7FC"/>
<path d="M170.963 252.171L165.757 256.19L168.837 219.41C168.837 219.41 174.598 213.852 174.829 208.725C175.691 208.28 176.615 207.969 177.571 207.801C178.125 207.909 181.807 209.064 182.469 208.294C183.132 207.524 179.604 205.215 179.281 205.046C177.494 205.036 175.708 205.144 173.936 205.369C175.389 204.103 176.934 202.945 178.557 201.905C179.865 201.759 181.146 201.427 182.361 200.92C182.854 200.427 178.125 199.534 177.294 199.657C175.483 200.356 173.718 201.168 172.01 202.09C173.284 199.582 174.72 197.16 176.308 194.838C177.232 193.945 178.834 192.021 178.002 191.759C177.447 191.632 176.871 191.626 176.313 191.74C175.755 191.854 175.228 192.087 174.768 192.421C173.905 192.991 175.553 190.343 176.015 189.619C176.059 189.565 176.083 189.497 176.083 189.427C176.083 189.357 176.059 189.289 176.015 189.234C175.723 188.788 174.829 188.003 172.719 189.943C170.023 192.421 163.477 198.641 162.815 200.72C161.53 205.747 160.94 210.927 161.059 216.115C156.136 223.688 152.309 231.919 149.691 240.563C145.701 254.204 142.852 277.913 144.762 285.102C146.672 292.292 148.551 292.877 153.865 292.508C159.179 292.138 184.579 280.561 184.579 280.561L180.405 264.58L170.963 252.171Z" fill="#F49B91"/>
<path d="M179.974 263.841L170.963 252.171L165.757 256.19L161.752 270.23L179.974 263.841Z" fill="#DE706B"/>
<path d="M224.951 235.128L223.334 234.805C223.334 234.805 204.85 232.234 201.769 232.927C198.688 233.62 192.527 231.695 169.607 252.679C169.607 252.679 186.551 274.618 179.249 290.968L191.957 279.776L193.574 317.787C193.574 317.787 184.009 326.486 184.517 337.262C184.517 337.262 183.824 339.171 208.87 339.341H269.574V292.061L297.054 289.105C296.542 286.445 295.407 283.945 293.742 281.808C291.308 279.206 292.002 271.37 288.521 268.598C285.039 265.827 284.346 245.998 275.828 241.656C267.31 237.315 251.568 235.005 251.568 235.005L224.951 235.128Z" fill="#5683C2"/>
<path d="M247.486 202.675C248.075 202.791 248.62 203.069 249.06 203.477C249.501 203.885 249.818 204.407 249.978 204.986C250.138 205.564 250.134 206.176 249.966 206.752C249.798 207.328 249.472 207.846 249.026 208.248C250.06 208.739 250.962 209.467 251.66 210.373C251.979 210.813 252.175 211.33 252.229 211.871C252.284 212.411 252.193 212.957 251.968 213.452C251.722 213.975 251.275 214.375 251.013 214.883C250.713 215.89 250.497 216.92 250.366 217.962C249.95 218.939 249.191 219.729 248.232 220.185C247.273 220.642 246.181 220.733 245.16 220.441C244.146 220.111 243.212 219.573 242.416 218.863C241.621 218.153 240.981 217.285 240.539 216.315C238.707 212.562 237.879 208.398 238.136 204.23C238.081 203.208 238.411 202.203 239.06 201.412C239.45 201.097 239.899 200.864 240.381 200.727C240.862 200.589 241.367 200.55 241.864 200.612C243.866 200.735 245.545 202.244 247.486 202.675Z" fill="#675161"/>
<path d="M239.785 202.413C239.785 204.414 239.892 206.447 239.954 208.463C240.585 207.802 241.345 207.278 242.188 206.924C242.608 206.741 243.064 206.655 243.523 206.671C243.981 206.687 244.43 206.805 244.837 207.016C245.425 207.443 245.872 208.037 246.119 208.72C246.366 209.404 246.402 210.145 246.223 210.85C245.996 212.059 245.464 213.19 244.677 214.136C243.89 215.081 242.874 215.81 241.725 216.254C242.804 222.412 243.959 228.57 245.037 234.821H251.199C251.322 234.821 251.537 235.021 251.661 235.021C246.904 238.875 241.683 242.118 236.119 244.674C234.334 245.572 232.414 246.17 230.435 246.444C229.445 246.573 228.44 246.495 227.482 246.214C226.525 245.933 225.637 245.456 224.874 244.812C223.658 243.567 222.927 241.93 222.81 240.194C222.788 238.392 222.974 236.595 223.365 234.836C224.705 234.836 226.122 234.697 227.462 234.759C227 232.28 226.646 229.817 226.168 227.354C223.606 226.987 221.286 225.64 219.699 223.597C218.193 221.388 217.247 218.847 216.942 216.192C216.017 210.742 217.096 206.477 219.499 200.796C226.985 201.412 232.237 201.705 239.785 202.413Z" fill="#F49B91"/>
<path d="M231.867 205.631C231.867 205.831 228.386 205.061 226.784 205.738C226.479 205.919 226.137 206.03 225.783 206.062C225.612 206.084 225.438 206.038 225.301 205.932C225.164 205.827 225.074 205.671 225.051 205.5C225.029 205.328 225.076 205.155 225.181 205.018C225.286 204.881 225.442 204.791 225.614 204.769C226.111 204.591 226.628 204.477 227.154 204.43C228.848 204.245 231.775 204.63 231.867 205.631Z" fill="#675161"/>
<path d="M217.311 204.276C217.311 204.522 217.758 203.645 220.299 204.999C220.844 205.336 221.436 205.59 222.055 205.754C223.596 206.077 224.273 204.999 223.072 204.445C222.262 204.061 221.401 203.796 220.515 203.66C218.636 203.383 217.588 203.829 217.311 204.276Z" fill="#675161"/>
<path d="M226.245 208.741C226.245 209.603 226.754 210.28 227.401 210.28C227.809 210.28 228.201 210.118 228.49 209.829C228.779 209.54 228.941 209.149 228.941 208.741C228.941 208.332 228.779 207.941 228.49 207.652C228.201 207.363 227.809 207.201 227.401 207.201C227.049 207.265 226.735 207.459 226.521 207.745C226.307 208.03 226.209 208.386 226.245 208.741Z" fill="#675161"/>
<path d="M219.422 208.002C219.422 208.848 219.915 209.541 220.562 209.541C221.209 209.541 221.748 208.864 221.763 208.002C221.779 207.139 221.255 206.462 220.608 206.462C220.25 206.516 219.926 206.706 219.705 206.993C219.484 207.28 219.382 207.641 219.422 208.002Z" fill="#675161"/>
<path d="M221.855 212.759C221.543 213.291 221.378 213.897 221.378 214.514C221.406 214.808 221.519 215.088 221.702 215.32C221.885 215.552 222.13 215.726 222.41 215.823C222.687 215.92 222.986 215.939 223.273 215.88C223.561 215.82 223.827 215.683 224.043 215.484C223.77 215.494 223.5 215.421 223.27 215.276C223.039 215.13 222.857 214.918 222.749 214.668C222.581 214.168 222.581 213.628 222.749 213.128C222.872 212.605 223.103 212.097 223.273 211.589C223.55 210.757 224.012 209.049 223.488 208.279C222.841 209.788 222.533 211.327 221.855 212.759Z" fill="#DE706B"/>
<path d="M220.777 217.747C223.137 218.824 225.805 219.016 228.294 218.286C228.49 219.462 228.273 220.67 227.678 221.704C227.31 222.198 226.803 222.571 226.22 222.775C225.638 222.978 225.008 223.001 224.413 222.843C223.259 222.498 222.273 221.742 221.64 220.718C221.11 219.815 220.814 218.794 220.777 217.747Z" fill="#EE8780"/>
<path d="M228.016 221.057C227.928 221.285 227.815 221.502 227.678 221.704C227.31 222.198 226.802 222.571 226.22 222.774C225.638 222.978 225.008 223.001 224.412 222.843C223.436 222.554 222.578 221.96 221.963 221.149C222.805 220.597 223.776 220.273 224.782 220.21C225.92 220.165 227.046 220.46 228.016 221.057V221.057Z" fill="#DE706B"/>
<path d="M220.777 217.747C223.137 218.824 225.805 219.016 228.294 218.286C228.41 219.219 228.316 220.166 228.017 221.057C227.047 220.46 225.921 220.165 224.782 220.21C223.777 220.273 222.805 220.597 221.963 221.149C221.847 221.012 221.739 220.868 221.64 220.718C221.11 219.815 220.814 218.794 220.777 217.747Z" fill="#675161"/>
<path d="M230.543 185.324C230.543 185.324 241.787 184.431 245.669 189.743C246.994 191.671 247.913 193.849 248.368 196.144C248.824 198.439 248.807 200.802 248.318 203.09L240.432 201.874L230.543 185.324Z" fill="#D8D6EB"/>
<path d="M220.5 196.255C220.5 196.255 209.81 196.255 208.177 197.702C206.544 199.149 223.858 204.861 240.416 201.874L220.5 196.255Z" fill="#6A6EB2"/>
<path d="M220.5 196.255C220.5 196.255 224.921 184.2 232.237 185.247C239.554 186.294 240.355 201.874 240.355 201.874C240.355 201.874 222.348 199.873 220.5 196.255Z" fill="#B5B2D8"/>
<path d="M230.728 234.62C231.974 234.104 233.044 233.237 233.809 232.126C236.91 228.337 239.342 224.047 241.002 219.44C237.749 222.087 234.146 224.273 230.297 225.937C228.606 226.574 226.831 226.963 225.029 227.092C225.399 227.191 225.774 227.268 226.153 227.323C226.615 229.74 226.97 232.142 227.432 234.543C228.5 234.889 229.645 234.915 230.728 234.62Z" fill="#DE706B"/>
<path d="M228.525 249.723C227.416 266.181 224.828 282.424 223.904 298.989C223.026 312.273 222.902 325.596 223.534 338.894C223.553 338.997 223.608 339.089 223.688 339.155C223.768 339.222 223.869 339.258 223.973 339.258C224.077 339.258 224.178 339.222 224.258 339.155C224.338 339.089 224.393 338.997 224.412 338.894C224.936 325.608 226.307 312.291 226.969 298.989C227.785 282.624 229.942 266.135 230.05 249.723C230.05 249.519 229.968 249.323 229.824 249.179C229.68 249.035 229.484 248.954 229.279 248.954C229.075 248.954 228.879 249.035 228.735 249.179C228.59 249.323 228.509 249.519 228.509 249.723H228.525Z" fill="#386BA0"/>
<path d="M208.701 320.127C213.791 318.516 218.637 316.216 223.103 313.292C223.935 312.722 223.457 311.136 222.364 311.536C217.358 313.369 213.122 316.833 208.27 319.096C207.684 319.373 208.1 320.343 208.701 320.127Z" fill="#4380B5"/>
<path d="M229.095 310.998C238.09 306.04 251.414 303.3 257.437 294.447C257.853 293.832 257.052 293.108 256.451 293.462C251.83 296.187 247.564 299.405 242.727 301.899C237.89 304.393 232.977 306.764 228.34 309.704C228.194 309.816 228.094 309.977 228.058 310.158C228.022 310.338 228.054 310.525 228.146 310.684C228.239 310.843 228.387 310.962 228.561 311.02C228.736 311.078 228.926 311.07 229.095 310.998V310.998Z" fill="#4380B5"/>
<path d="M261.196 302.746C258.756 304.642 256.479 306.738 254.387 309.012C251.455 311.765 248.314 314.287 244.991 316.555C239.43 320.688 234.722 325.859 231.128 331.782C230.774 332.413 231.652 333.167 232.16 332.582C237.475 326.686 242.311 320.835 248.873 316.248C253.925 312.707 257.422 307.795 262.243 304.023C262.952 303.454 261.997 302.207 261.257 302.746H261.196Z" fill="#4380B5"/>
<path d="M257.961 265.843C261.042 274.018 261.781 286.503 268.744 292.477C268.885 292.63 269.079 292.725 269.286 292.742C269.494 292.759 269.701 292.698 269.865 292.57C270.03 292.442 270.141 292.257 270.175 292.052C270.21 291.846 270.166 291.635 270.053 291.461C267.63 286.927 265.455 282.266 263.537 277.497C262.222 273.382 260.574 269.382 258.608 265.535C258.393 265.15 257.73 265.411 257.884 265.843H257.961Z" fill="#4380B5"/>
<path d="M239.184 254.188C239.181 254.87 238.976 255.535 238.595 256.1C238.214 256.665 237.674 257.105 237.043 257.363C236.413 257.622 235.719 257.688 235.051 257.553C234.383 257.418 233.769 257.089 233.288 256.606C232.807 256.123 232.48 255.508 232.348 254.84C232.216 254.171 232.286 253.479 232.547 252.849C232.809 252.22 233.251 251.683 233.818 251.304C234.385 250.926 235.052 250.724 235.734 250.724C236.188 250.724 236.638 250.814 237.057 250.988C237.477 251.162 237.858 251.418 238.179 251.74C238.499 252.062 238.753 252.444 238.926 252.864C239.098 253.284 239.186 253.734 239.184 254.188Z" fill="#C8DDED"/>
<path d="M238.244 269.507C238.248 270.192 238.047 270.864 237.668 271.435C237.289 272.007 236.749 272.453 236.116 272.718C235.483 272.982 234.785 273.053 234.112 272.921C233.439 272.789 232.82 272.461 232.334 271.977C231.847 271.493 231.516 270.876 231.381 270.204C231.246 269.531 231.313 268.834 231.575 268.2C231.837 267.566 232.281 267.024 232.852 266.643C233.422 266.262 234.093 266.058 234.779 266.058C235.695 266.058 236.574 266.421 237.224 267.067C237.873 267.714 238.24 268.591 238.244 269.507Z" fill="#C8DDED"/>
<path d="M199.074 262.009L217.789 262.686C217.789 262.686 218.79 279.037 208.685 278.698C200.09 278.405 198.396 270.938 199.074 262.009Z" fill="#C8DDED"/>
<path d="M189.077 254.819C188.842 263.185 189.712 271.545 191.665 279.683C191.819 280.361 192.774 280.068 192.682 279.406C191.32 271.26 190.527 263.029 190.31 254.773C190.31 254.61 190.245 254.453 190.129 254.338C190.014 254.222 189.857 254.157 189.693 254.157C189.53 254.157 189.373 254.222 189.258 254.338C189.142 254.453 189.077 254.61 189.077 254.773V254.819Z" fill="#386BA0"/>
<path d="M286.38 392.378H277.138C275.474 384.681 272.409 376.983 266.741 371.425C265.08 369.791 263.056 368.575 260.833 367.876C258.61 367.178 256.253 367.017 253.956 367.407C248.241 368.408 244.082 372.811 241.217 377.599C238.532 382.162 236.681 387.167 235.749 392.378H225.537L211.474 478.362H298.749L286.38 392.378ZM241.325 380.832C244.005 376.306 247.487 371.995 252.785 370.486C261.642 367.946 268.697 375.767 272.163 382.941C273.654 385.967 274.855 389.127 275.752 392.378H236.843C237.732 388.322 239.244 384.427 241.325 380.832Z" fill="#E95C80"/>
<path d="M227.123 394.688L214.2 475.838L220.546 471.203L227.616 475.838H230.296L227.123 394.688Z" fill="#D74876"/>
<path d="M182.639 262.24C183.444 266.267 185.341 269.995 188.122 273.017C188.507 273.433 189.262 272.878 188.923 272.401C186.567 269.203 184.621 265.722 183.132 262.04C183.104 261.987 183.058 261.945 183.003 261.922C182.948 261.898 182.887 261.894 182.829 261.91C182.771 261.926 182.721 261.962 182.686 262.011C182.652 262.059 182.635 262.119 182.639 262.178V262.24Z" fill="#386BA0"/>
<path d="M269.529 291.753L269.652 297.911L274.643 307.503L254.464 354.074C254.464 354.074 249.658 360.233 248.303 362.296C246.833 364.769 245.943 367.543 245.7 370.409C245.869 371.949 248.78 369.593 248.78 369.593C248.78 369.593 249.104 373.657 247.81 374.951C246.516 376.244 247.887 376.983 249.104 376.413C249.104 376.413 249.828 377.783 251.461 376.321C251.461 376.321 252.431 377.86 254.541 376.09C254.702 376.278 254.906 376.424 255.136 376.516C255.366 376.608 255.614 376.644 255.861 376.62C256.107 376.595 256.344 376.512 256.551 376.377C256.759 376.242 256.93 376.059 257.052 375.844C258.361 374.135 259.655 374.058 259.825 369.193C259.994 364.328 259.825 362.449 259.825 362.449C259.825 362.449 293.45 319.896 296.793 311.306C299.026 305.563 297.239 294.848 295.576 289.275C287.104 289.598 277.923 291.276 269.529 291.753Z" fill="#F49B91"/>
<path d="M297.086 296.002C296.703 293.742 296.189 291.506 295.545 289.305C287.089 289.582 277.908 291.261 269.514 291.738L269.637 297.896L269.806 298.219C273.955 295.99 278.52 294.643 283.214 294.261C287.909 293.88 292.631 294.473 297.086 296.002Z" fill="#DE706B"/>
<path d="M270.792 241.102C273.187 241.592 275.368 242.82 277.03 244.612C278.162 246.239 278.938 248.085 279.31 250.031L282.221 261.162C282.991 264.087 283.869 267.197 286.164 269.153C286.701 269.567 287.215 270.009 287.705 270.477C290.185 273.078 288.66 277.466 289.969 280.807C291.001 283.424 293.789 285.426 293.635 288.228L289.43 288.074C289.048 288.089 288.669 288.015 288.321 287.858C287.959 287.577 287.687 287.197 287.535 286.765C286.536 284.792 285.721 282.73 285.101 280.607C284.624 278.493 283.943 276.431 283.068 274.449C281.912 272.547 280.641 270.717 279.264 268.968C275.967 264.072 274.92 258.068 273.102 252.464C271.562 247.414 268.851 244.135 265.585 240.147C267.365 240.142 269.13 240.465 270.792 241.102V241.102Z" fill="#5B97CC"/>
<path d="M207.207 234.544C202.417 233.92 197.549 234.717 193.209 236.835C188.868 238.954 185.246 242.301 182.793 246.46C182.071 247.484 181.763 248.743 181.93 249.985C185.719 249.647 188.692 246.752 191.958 244.843C195.544 242.748 199.673 241.767 203.818 242.026C207.084 242.226 210.349 243.196 213.599 242.796C215.494 242.565 221.779 239.624 219.56 236.853C218.652 235.729 215.371 236.16 214.077 235.945C211.813 235.56 209.548 234.882 207.207 234.544Z" fill="#5B97CC"/>
<path d="M233.824 116.521C233.826 105.288 230.213 94.3528 223.518 85.3305C216.823 76.3081 207.402 69.6777 196.646 66.4188C185.891 63.16 174.372 63.4457 163.792 67.2338C153.212 71.0218 144.131 78.1112 137.892 87.4543C131.653 96.7975 128.587 107.899 129.146 119.118C129.706 130.337 133.861 141.078 140.999 149.755C148.136 158.432 157.877 164.584 168.781 167.302C179.686 170.02 191.176 169.159 201.554 164.848L217.897 183.8L213.492 157.905C219.823 153.022 224.949 146.752 228.474 139.577C231.999 132.402 233.83 124.515 233.824 116.521V116.521Z" fill="white"/>
<path d="M597.034 161.061C597.037 151.346 600.166 141.889 605.96 134.088C611.753 126.288 619.903 120.556 629.205 117.74C638.508 114.924 648.47 115.174 657.62 118.452C666.77 121.729 674.622 127.862 680.017 135.943C685.413 144.024 688.064 153.625 687.58 163.328C687.097 173.031 683.503 182.321 677.331 189.826C671.159 197.331 662.736 202.653 653.305 205.005C643.875 207.358 633.937 206.616 624.96 202.89L610.836 219.287L614.64 196.886C609.158 192.66 604.719 187.232 601.667 181.021C598.614 174.81 597.029 167.981 597.034 161.061V161.061Z" fill="#95DCFF"/>
<path d="M204.356 108.085V112.549H192.342V123.326H187.059V105.452H192.034V99.9712H187.012V95.7374H192.034V90.6723H187.875V94.9061H182.391V90.6723H176.107V95.1062H169.822V103.02H170.022V106.268H169.822V118.43H165.848V106.268H153.094V114.166H156.837V118.785H153.094V124.05H157.253V130.331H165.848V124.173H170.3V130.331H176.184V135.196H170.223V148.76H177.524V143.756H184.024V148.806H193.574V135.242H182.622V129.084H176.923V124.096H187.705V129.577H193.574V123.896H198.026V129.577H205.727V124.712H211.257V108.085H204.356ZM176.168 123.295H171.547V118.677H176.168V123.295ZM181.251 118.015H176.923V106.868H181.251V118.015ZM182.068 99.9712H176.523V95.7374H181.991L182.068 99.9712ZM182.468 101.018H187.952V105.252H182.468V101.018ZM204.095 123.573H199.027V118.43H204.095V123.573Z" fill="#264456"/>
<path d="M166.834 135.196H153.603V148.421H166.834V135.196Z" fill="#264456"/>
<path d="M210.934 135.196H197.703V148.421H210.934V135.196Z" fill="#264456"/>
<path d="M166.834 89.9949H153.603V103.22H166.834V89.9949Z" fill="#264456"/>
<path d="M210.934 89.9949H197.703V103.22H210.934V89.9949Z" fill="#264456"/>
<path d="M448.751 298.331V307.047H425.426V328.051H415.15V293.113H424.861V282.393H415.074V274.112H424.861V264.3H416.658V272.581H406.005V264.3H393.748V272.978H381.492V288.443H381.888V294.776H381.492V318.56H373.591V294.682H348.928V310.147H356.244V319.26H348.928V329.564H356.979V341.815H373.591V329.923H382.284V341.815H393.748V351.268H382.284V377.737H396.577V367.868H409.229V377.737H427.802V351.268H406.457V339.376H395.427V329.469H416.375L416.489 340.17H427.802V329.072H436.495V340.17H451.58V330.717H462.365V298.331H448.751ZM393.805 328.051H384.716V318.939H393.805V328.051ZM403.685 317.748H395.389V295.873H403.685V317.748ZM405.269 282.468H394.691V274.188H405.364L405.269 282.468ZM406.061 284.491H416.734V292.659H406.005L406.061 284.491ZM448.355 328.448H438.475V318.542H448.355V328.448Z" fill="#264456"/>
<path d="M375.197 350.273H348.928V376.543H375.197V350.273Z" fill="#264456"/>
<path d="M461.171 350.273H434.901V376.543H461.171V350.273Z" fill="#264456"/>
<path d="M375.197 263.106H348.928V288.181H375.197V263.106Z" fill="#264456"/>
<path d="M461.171 263.106H434.901V288.181H461.171V263.106Z" fill="#264456"/>
<path fill-rule="evenodd" clip-rule="evenodd" d="M658.6 191L644.92 134H638.08L624.4 191H631.81L641.5 148.869L651.19 191H658.6Z" fill="#F29C1F"/>
<path fill-rule="evenodd" clip-rule="evenodd" d="M613 139.7H670V175.04H613V139.7Z" fill="white"/>
<path d="M618.7 168.77L626.124 161.346L629.53 164.21L639.213 155.083L644.35 160.22L652.9 151.67L655.75 154.52L664.3 145.97" stroke="#E64C3C" stroke-width="4" stroke-miterlimit="10" stroke-linecap="round" stroke-linejoin="round"/>
<path fill-rule="evenodd" clip-rule="evenodd" d="M654.769 175.04H647.519L647.781 176.18H655.043L654.769 175.04ZM627.957 176.18H635.218L635.481 175.04H628.23L627.957 176.18Z" fill="#E57E25"/>
</svg>
