<svg width="250" height="175" viewBox="0 0 250 175" fill="none" xmlns="http://www.w3.org/2000/svg">
<g clip-path="url(#clip0)">
<path opacity="0.3" d="M191.014 149.663C187.434 153.396 184.047 155.803 181.371 157.704C149.914 180.061 112.692 173.544 104.781 171.954C93.0993 169.603 70.5193 165.063 54.1941 146.044C29.4955 117.274 33.3414 71.9481 52.4993 42.0275C56.0033 36.5544 74.5141 6.17876 112.139 1.30689C134.908 -1.64124 161.449 4.30689 180.67 20.2556C221.013 53.7363 218.141 121.375 191.014 149.663Z" fill="url(#paint0_linear)"/>
<path opacity="0.63" d="M73.5943 31.6994C72.6728 26.4113 87.0832 17.5119 82.9797 6.88312L72.2321 2.82063C72.2321 2.82063 73.3661 17.1331 69.6864 22.3331C66.0068 27.5331 63.6793 24.1331 64.3313 20.3088C64.9834 16.4844 71.0411 7.0625 68.7912 2.83687C68.7912 2.83687 66.9845 -0.49625 63.1942 2.64937C59.4039 5.795 51.3031 2.8125 48.7881 0C48.7881 0 48.8544 2.2125 46.6464 7.285C44.4383 12.3575 41.852 17.3056 46.2638 19.6506C50.6755 21.9956 57.4215 22.7262 57.2996 25.8C57.1777 28.8737 44.6202 30.1075 40.8856 20.895C40.8856 20.895 36.7595 28.6956 37.5504 31.3325C38.3412 33.9694 43.0042 36.7769 50.381 35.1463C57.7578 33.5156 61.6282 34.9775 61.5363 37.2831C61.4444 39.5888 39.3433 41.1131 36.7739 33.3825C36.7739 33.3825 35.4167 49.7706 36.2969 51.6631C37.1771 53.5556 46.827 53.5625 52.6009 51.325C58.3749 49.0875 64.1694 51.2781 65.4204 53.3112C66.6713 55.3444 58.8737 53.9563 55.2829 55.1994C51.692 56.4425 36.1313 54.98 36.1313 54.98C36.1313 54.98 37.9748 56.1969 38.3412 61.7956C38.7075 67.3944 42.5835 76.3994 46.0049 75.6119C49.4264 74.8244 64.8383 67.9106 70.1359 67.5744C75.4335 67.2381 79.7633 68.0938 77.3521 70.0419C74.9408 71.99 68.0998 72.5256 63.3148 74.3544C58.5299 76.1831 46.8108 82.4169 43.9676 80.3012C43.9676 80.3012 48.7475 94.5888 62.8472 95.7594C62.8472 95.7594 69.4157 92.0019 72.8353 85.7544C76.2549 79.5069 77.9703 77.035 80.4178 77.4419C82.8653 77.8487 80.4622 82.1387 78.2298 85.9756C75.9974 89.8125 70.9905 98.84 67.6728 99.4056C67.6728 99.4056 88.9993 99.9269 91.8344 85.6556C94.4938 72.2737 93.0978 70.6231 92.914 70.4681C93.638 70.99 115.67 86.585 123.755 57.4194C123.755 57.4194 120.049 63.5587 115.273 63.0531C110.497 62.5475 102.932 66.4481 102.845 63.0356C102.759 59.6231 120.104 61.4994 123.32 54.915C126.537 48.3306 122.848 37.7663 115.233 35.0519C115.233 35.0519 115.384 41.7744 109.298 45.9738C103.212 50.1731 93.8711 54.1875 95.8341 48.6875C97.7971 43.1875 115.527 35.2356 116.252 30.3575C116.977 25.4794 102.223 16.3575 102.223 16.3575C102.223 16.3575 102.029 18.9325 98.2729 26.8C94.5169 34.6675 88.6248 42.8419 87.6077 40.6375C86.5906 38.4331 90.8135 33.3694 94.4169 28.7C98.0203 24.0306 99.8501 16.5994 97.4702 14.5625C95.0902 12.5256 86.3162 8.14437 86.3162 8.14437C86.3162 8.14437 83.5142 19.1694 82.7296 24.2831C81.9451 29.3969 74.5157 36.9881 73.5943 31.6994ZM92.3683 59.5856C87.5396 64.7694 87.5821 58.7837 88.4829 54.7487C89.1669 51.6875 97.1963 54.4025 92.3683 59.5856ZM84.5964 48.5994C81.4812 52.0994 79.1025 51.6144 79.3563 49.0225C79.9396 43.0669 87.7121 45.0969 84.5964 48.5994ZM75.0371 37.9656C73.4705 39.9731 72.349 40.33 71.3568 37.6144C70.3647 34.8988 76.6044 35.9575 75.0371 37.9656Z" fill="url(#paint1_linear)"/>
<path d="M211.669 85.7707C213.343 43.9371 178.086 8.56014 132.919 6.75393C87.7529 4.94773 49.7815 37.3963 48.1077 79.2298C46.434 121.063 81.6917 156.44 126.858 158.247C172.024 160.053 209.996 127.604 211.669 85.7707Z" fill="url(#paint2_linear)"/>
<path opacity="0.11" d="M125.745 138.054C161.187 138.054 189.918 110.919 189.918 77.4462C189.918 43.9736 161.187 16.8387 125.745 16.8387C90.3039 16.8387 61.5728 43.9736 61.5728 77.4462C61.5728 110.919 90.3039 138.054 125.745 138.054Z" fill="white"/>
<g opacity="0.68">
<g style="mix-blend-mode:soft-light" opacity="0.68">
<path d="M151.064 83.2767C151.044 96.6361 150.127 110.023 147.773 123.194C147.177 126.484 146.486 129.756 145.662 133C144.839 136.245 143.882 139.456 142.715 142.598C141.538 145.732 140.171 148.82 138.318 151.644C137.384 153.044 136.325 154.387 135.018 155.492C134.365 156.052 133.638 156.52 132.858 156.883C132.066 157.249 131.208 157.451 130.335 157.477C129.462 157.498 128.595 157.338 127.786 157.009C126.98 156.689 126.245 156.224 125.576 155.696C124.238 154.626 123.155 153.299 122.205 151.909C120.318 149.105 118.933 146.023 117.743 142.894C116.554 139.765 115.598 136.546 114.765 133.307C113.933 130.067 113.235 126.793 112.634 123.504C111.434 116.925 110.616 110.283 110.064 103.622C109.512 96.9617 109.241 90.278 109.207 83.5936C109.191 80.2524 109.282 76.9111 109.401 73.5724C109.52 70.2336 109.713 66.8967 109.956 63.5649C110.45 56.9011 111.189 50.2524 112.286 43.658C112.837 40.3618 113.479 37.0799 114.252 33.8261C115.025 30.5724 115.926 27.348 117.043 24.1911C117.605 22.6143 118.217 21.0549 118.918 19.5311C119.619 18.0074 120.398 16.5186 121.317 15.1105C122.236 13.7024 123.297 12.3699 124.615 11.298C125.274 10.7674 126.001 10.3049 126.796 9.99238C127.591 9.67045 128.445 9.51865 129.303 9.54675C130.159 9.57911 131 9.77626 131.781 10.1274C132.554 10.4789 133.278 10.9305 133.934 11.4705C135.247 12.5393 136.337 13.8455 137.303 15.2168C139.222 17.9793 140.669 21.0293 141.923 24.1255C143.167 27.2336 144.195 30.4224 145.09 33.6443C145.984 36.8661 146.737 40.1268 147.39 43.4049C149.975 56.5267 151.026 69.9149 151.064 83.2767ZM150.075 83.2767C150.087 76.6199 149.835 69.9642 149.281 63.328C148.727 56.6918 147.909 50.078 146.678 43.5393C146.063 40.2693 145.347 37.018 144.494 33.8024C143.642 30.5868 142.653 27.4074 141.451 24.308C140.249 21.2086 138.837 18.183 136.975 15.4393C136.037 14.078 134.983 12.7843 133.716 11.7324C133.089 11.2035 132.395 10.7593 131.653 10.4111C130.909 10.0768 130.108 9.858 129.294 9.83675C128.479 9.81631 127.668 9.96882 126.915 10.2843C126.16 10.5905 125.467 11.0418 124.835 11.5624C123.569 12.613 122.545 13.9374 121.654 15.3243C120.763 16.7111 120.008 18.1993 119.333 19.7155C118.658 21.2318 118.065 22.7849 117.525 24.3555C116.452 27.5011 115.592 30.7186 114.856 33.963C114.121 37.2074 113.521 40.4824 113.005 43.7711C111.984 50.3493 111.317 56.9818 110.901 63.6261C110.484 70.2705 110.33 76.9317 110.342 83.5892C110.325 90.2455 110.558 96.8965 111.042 103.542C111.542 110.18 112.305 116.8 113.448 123.355C114.021 126.632 114.69 129.892 115.492 133.119C116.293 136.346 117.227 139.54 118.374 142.655C119.527 145.762 120.874 148.819 122.698 151.572C123.616 152.937 124.66 154.231 125.924 155.259C126.556 155.768 127.244 156.209 127.987 156.509C128.725 156.82 129.521 156.971 130.321 156.953C131.122 156.923 131.909 156.732 132.634 156.39C133.364 156.042 134.043 155.595 134.651 155.062C135.889 154 136.91 152.687 137.812 151.312C139.602 148.538 140.931 145.474 142.071 142.362C143.212 139.25 144.125 136.044 144.92 132.816C145.714 129.589 146.374 126.325 146.941 123.047C148.077 116.49 148.831 109.869 149.333 103.235C149.834 96.6005 150.078 89.9374 150.075 83.2767Z" fill="white"/>
</g>
<g style="mix-blend-mode:soft-light" opacity="0.68">
<path d="M184.775 83.2769C184.728 91.88 183.622 100.487 181.319 108.784C178.975 117.061 175.442 125.024 170.645 132.173C168.246 135.744 165.528 139.105 162.492 142.154C159.456 145.204 156.1 147.938 152.457 150.231C148.813 152.525 144.87 154.344 140.747 155.584C132.448 158.109 123.586 158.113 115.285 155.596C111.159 154.358 107.22 152.533 103.566 150.251C99.9122 147.969 96.557 145.228 93.5163 142.181C90.4755 139.134 87.7517 135.772 85.348 132.201C80.5412 125.051 77.0003 117.084 74.646 108.803C73.4892 104.653 72.6234 100.427 72.0547 96.1563C70.8892 87.6096 70.8919 78.9441 72.0628 70.3981C72.6341 66.1286 73.5027 61.9042 74.6622 57.7556C77.0241 49.4775 80.5699 41.5162 85.3799 34.375C87.7849 30.8081 90.5062 27.4512 93.5494 24.4068C96.5927 21.3624 99.9485 18.6337 103.596 16.3506C107.246 14.065 111.183 12.2746 115.305 11.0262C123.591 8.4984 132.443 8.5021 140.727 11.0368C144.846 12.2881 148.781 14.0815 152.427 16.3699C156.07 18.6562 159.424 21.3893 162.46 24.4324C165.495 27.4756 168.211 30.8349 170.613 34.4025C175.413 41.5443 178.952 49.5018 181.304 57.7775C183.61 66.0681 184.723 74.6737 184.775 83.2769ZM183.64 83.2769C183.628 74.7712 182.568 66.2569 180.323 58.0462C178.067 49.8487 174.668 41.9343 169.989 34.8168C167.651 31.2618 164.995 27.9106 162.021 24.8649C159.046 21.8193 155.759 19.0724 152.164 16.7849C148.565 14.5112 144.678 12.6806 140.604 11.4424C132.406 8.89963 123.63 8.90334 115.435 11.4531C111.362 12.6943 107.479 14.5281 103.884 16.8049C100.293 19.0943 97.0115 21.8481 94.0408 24.8906C91.0778 27.947 88.4148 31.2804 86.0882 34.845C81.4189 41.9612 78.0274 49.875 75.7819 58.0656C74.6718 62.171 73.8437 66.3474 73.3031 70.5656C72.1926 79.0051 72.1954 87.5538 73.3113 95.9925C73.8545 100.209 74.6854 104.383 75.7981 108.486C78.0487 116.673 81.447 124.582 86.1194 131.691C88.4531 135.243 91.1038 138.591 94.0733 141.634C97.0428 144.677 100.325 147.423 103.913 149.705C107.507 151.976 111.389 153.796 115.455 155.038C123.636 157.598 132.403 157.602 140.586 155.049C144.654 153.811 148.539 151.993 152.137 149.725C155.731 147.445 159.014 144.696 161.991 141.663C164.968 138.629 167.621 135.274 169.96 131.722C174.642 124.612 178.047 116.703 180.31 108.509C182.557 100.296 183.622 91.7825 183.64 83.2769Z" fill="white"/>
</g>
<g style="mix-blend-mode:soft-light" opacity="0.68">
<path d="M61.7868 54.0625C61.7671 54.0625 61.7481 54.0547 61.7342 54.0407C61.7202 54.0268 61.7124 54.0078 61.7124 53.9881C61.7124 53.9684 61.7202 53.9495 61.7342 53.9355C61.7481 53.9216 61.7671 53.9137 61.7868 53.9137L78.8316 53.7762L95.8765 53.6981L129.966 53.6356L164.056 53.705L181.101 53.79L198.145 53.9375C198.152 53.9376 198.158 53.939 198.165 53.9415C198.171 53.9441 198.176 53.9479 198.181 53.9526C198.185 53.9573 198.189 53.9628 198.191 53.9689C198.194 53.975 198.195 53.9816 198.195 53.9881C198.195 54.0012 198.19 54.0138 198.18 54.023C198.171 54.0323 198.159 54.0375 198.145 54.0375L181.101 54.1875L164.056 54.2725L129.966 54.3419L95.8765 54.2794L78.8316 54.2012L61.7868 54.0625Z" fill="white"/>
</g>
<g style="mix-blend-mode:soft-light" opacity="0.68">
<path d="M81.4873 25.4462C81.4876 25.4269 81.4954 25.4084 81.509 25.3946C81.5227 25.3809 81.5411 25.373 81.5605 25.3725C85.594 25.31 89.6249 25.2812 93.6616 25.235L105.763 25.1569C109.797 25.1237 113.828 25.1275 117.864 25.1169L129.966 25.0944L154.168 25.1637L166.269 25.25C170.304 25.3006 174.337 25.33 178.371 25.3987C178.378 25.3988 178.384 25.4002 178.39 25.4028C178.396 25.4054 178.402 25.4091 178.406 25.4138C178.411 25.4186 178.414 25.4241 178.417 25.4302C178.419 25.4363 178.42 25.4428 178.42 25.4493C178.42 25.4623 178.415 25.4747 178.406 25.4839C178.396 25.4931 178.384 25.4984 178.371 25.4987C174.337 25.5668 170.307 25.5968 166.269 25.6475L154.168 25.7312L129.966 25.8006L117.864 25.7775C113.83 25.7668 109.8 25.7706 105.763 25.7375L93.6616 25.6593C89.6281 25.6131 85.594 25.5856 81.5605 25.5218C81.5507 25.5217 81.541 25.5196 81.5321 25.5157C81.5231 25.5118 81.515 25.5062 81.5082 25.4992C81.5014 25.4922 81.4961 25.4839 81.4925 25.4748C81.4889 25.4657 81.4871 25.456 81.4873 25.4462V25.4462Z" fill="white"/>
</g>
<g style="mix-blend-mode:soft-light" opacity="0.68">
<path d="M55.8631 82.605C55.8445 82.6033 55.8271 82.5947 55.8145 82.5809C55.8019 82.5671 55.7949 82.549 55.7949 82.5303C55.7949 82.5116 55.8019 82.4936 55.8145 82.4797C55.8271 82.4659 55.8445 82.4573 55.8631 82.4556L74.3864 82.3187L92.9122 82.24L129.963 82.1775L167.015 82.2462L185.54 82.3319L204.066 82.4806C204.072 82.4806 204.079 82.4819 204.085 82.4844C204.091 82.487 204.096 82.4907 204.101 82.4953C204.106 82.5 204.109 82.5055 204.112 82.5115C204.114 82.5176 204.115 82.5241 204.115 82.5306C204.115 82.5438 204.11 82.5564 204.101 82.5658C204.092 82.5751 204.079 82.5805 204.066 82.5806L185.54 82.7288L167.017 82.8125L129.966 82.8819L92.9147 82.8194L74.3864 82.7419L55.8631 82.605Z" fill="white"/>
</g>
<g style="mix-blend-mode:soft-light" opacity="0.68">
<path d="M61.7868 111L78.8316 110.862L95.8765 110.784L129.966 110.722L164.056 110.791L181.101 110.875L198.145 111.024C198.152 111.024 198.158 111.025 198.165 111.028C198.171 111.03 198.176 111.034 198.181 111.039C198.185 111.044 198.189 111.049 198.191 111.055C198.194 111.061 198.195 111.068 198.195 111.074C198.195 111.087 198.19 111.1 198.18 111.109C198.171 111.119 198.159 111.124 198.145 111.124L181.101 111.271L164.056 111.356L129.966 111.425L95.8765 111.363L78.8316 111.285L61.7868 111.147C61.7671 111.147 61.7481 111.139 61.7342 111.125C61.7202 111.111 61.7124 111.092 61.7124 111.072C61.7124 111.053 61.7202 111.034 61.7342 111.02C61.7481 111.006 61.7671 110.998 61.7868 110.998V111Z" fill="white"/>
</g>
<g style="mix-blend-mode:soft-light" opacity="0.68">
<path d="M181.072 139.614C181.072 139.683 181.044 139.749 180.995 139.798C180.946 139.847 180.88 139.875 180.81 139.875H83.9996C83.9303 139.875 83.8638 139.847 83.8148 139.798C83.7658 139.749 83.7383 139.683 83.7383 139.614C83.7383 139.544 83.7658 139.478 83.8148 139.429C83.8638 139.38 83.9303 139.352 83.9996 139.352H180.81C180.88 139.352 180.946 139.38 180.995 139.429C181.044 139.478 181.072 139.544 181.072 139.614V139.614Z" fill="white"/>
</g>
</g>
<path d="M162.855 79.6875C163.572 79.7456 164.256 80.015 164.819 80.4616C165.383 80.9082 165.802 81.5119 166.023 82.1965C166.243 82.881 166.256 83.6156 166.059 84.3073C165.862 84.9991 165.464 85.6169 164.916 86.0826C164.368 86.5484 163.694 86.8412 162.98 86.924C162.265 87.0068 161.542 86.8758 160.902 86.5477C160.262 86.2196 159.733 85.7091 159.383 85.0808C159.033 84.4524 158.878 83.7344 158.936 83.0175C159.015 82.0568 159.472 81.1666 160.207 80.5423C160.941 79.918 161.894 79.6106 162.855 79.6875V79.6875ZM162.738 81.125C162.306 81.09 161.873 81.1839 161.494 81.3949C161.115 81.6058 160.807 81.9244 160.609 82.3102C160.411 82.6961 160.332 83.132 160.382 83.5627C160.432 83.9934 160.609 84.3997 160.89 84.7301C161.17 85.0605 161.543 85.3003 161.96 85.419C162.377 85.5378 162.82 85.5302 163.233 85.3973C163.646 85.2643 164.01 85.012 164.279 84.6722C164.549 84.3324 164.711 83.9203 164.747 83.4881C164.793 82.9086 164.608 82.3343 164.231 81.8913C163.855 81.4482 163.317 81.1727 162.738 81.125V81.125Z" fill="white"/>
<path d="M170.294 83.9376C170.458 81.8878 169.802 79.8566 168.47 78.2896C167.138 76.7227 165.239 75.7478 163.189 75.5789C162.927 75.558 162.665 75.5507 162.403 75.557C162.322 75.56 162.241 75.5443 162.167 75.5112C162.093 75.478 162.028 75.4283 161.976 75.3658C161.924 75.3034 161.887 75.2299 161.868 75.151C161.85 75.0721 161.849 74.9899 161.867 74.9108L162.126 73.7989C162.154 73.6814 162.221 73.5769 162.317 73.5027C162.412 73.4285 162.53 73.3891 162.651 73.3908C162.887 73.3908 163.124 73.4021 163.364 73.4214C168.817 73.8646 172.894 78.6608 172.452 84.1126C172.418 84.5203 172.359 84.9254 172.275 85.3257C172.261 85.396 172.232 85.4626 172.191 85.5215C172.151 85.5804 172.098 85.6305 172.037 85.6686C171.977 85.7067 171.909 85.7322 171.838 85.7434C171.767 85.7546 171.695 85.7514 171.625 85.7339L170.547 85.4589C170.416 85.4258 170.302 85.3432 170.23 85.2285C170.159 85.1137 170.134 84.9757 170.162 84.8432C170.224 84.5444 170.268 84.2419 170.294 83.9376Z" fill="white"/>
<path d="M175.868 84.3914C176.463 77.0551 170.979 70.6026 163.641 70.007H163.634C163.559 70.0016 163.486 69.98 163.419 69.9436C163.353 69.9072 163.296 69.8569 163.251 69.7962C163.206 69.7354 163.174 69.6657 163.159 69.5918C163.143 69.5178 163.144 69.4413 163.161 69.3676L163.415 68.277L163.978 67.8639C172.423 68.6383 178.711 76.0964 178.024 84.567C177.964 85.2957 177.852 86.0192 177.69 86.732C177.674 86.8 177.644 86.864 177.603 86.9203C177.561 86.9767 177.509 87.0242 177.449 87.0602C177.389 87.0961 177.323 87.1197 177.254 87.1295C177.185 87.1394 177.114 87.1354 177.047 87.1176L175.971 86.8433C175.839 86.8104 175.724 86.7275 175.652 86.612C175.58 86.4965 175.556 86.3575 175.585 86.2245C175.722 85.6209 175.817 85.0083 175.868 84.3914V84.3914Z" fill="white"/>
<path d="M181.442 84.8438C182.266 74.7057 174.903 65.7595 164.899 64.5201C164.825 64.5118 164.753 64.4879 164.689 64.4501C164.625 64.4123 164.57 64.3613 164.527 64.3006C164.484 64.2399 164.454 64.1708 164.439 64.0978C164.425 64.0248 164.426 63.9495 164.442 63.877L164.693 62.7951C164.722 62.6677 164.797 62.5556 164.904 62.4806C165.011 62.4056 165.142 62.3729 165.272 62.3889C176.364 63.8207 184.513 73.7589 183.598 85.0188C183.512 86.0606 183.349 87.0945 183.11 88.112C183.093 88.1799 183.063 88.2438 183.022 88.3C182.98 88.3562 182.928 88.4037 182.868 88.4395C182.808 88.4754 182.741 88.499 182.672 88.509C182.603 88.5189 182.532 88.5151 182.465 88.4976L181.39 88.2238C181.256 88.189 181.141 88.1029 181.069 87.984C180.998 87.8651 180.976 87.7229 181.009 87.5882C181.221 86.6854 181.366 85.7681 181.442 84.8438V84.8438Z" fill="white"/>
<path d="M154.99 167.706C154.958 170.826 152.277 173.356 149 173.363L69.7836 173.536C66.4828 173.543 63.7434 171.014 63.6646 167.882L59.9737 20.375C59.8856 16.8675 62.6563 14.0313 66.1628 14.0482L150.25 14.45C153.728 14.4669 156.518 17.3175 156.482 20.8094L154.99 167.706Z" fill="url(#paint3_linear)"/>
<path d="M147.85 29.3206C147.873 25.9499 145.108 23.1999 141.671 23.1843L74.9317 22.8912C71.474 22.8762 68.7308 25.6118 68.8052 28.9943L71.5484 154.412C71.6153 157.484 74.3328 159.965 77.6174 159.96L141.022 159.859C144.288 159.854 146.951 157.372 146.973 154.311L147.85 29.3206Z" fill="url(#paint4_linear)"/>
<path d="M118.357 18.4118C118.358 18.5666 118.328 18.72 118.27 18.8633C118.211 19.0065 118.125 19.1367 118.015 19.2463C117.906 19.356 117.776 19.4428 117.633 19.5019C117.49 19.561 117.337 19.5911 117.182 19.5905L99.813 19.5118C99.4978 19.5087 99.1963 19.3824 98.973 19.1599C98.7497 18.9374 98.6224 18.6363 98.6183 18.3212V18.3212C98.6156 18.1665 98.6438 18.0128 98.7013 17.8692C98.7588 17.7256 98.8444 17.5949 98.9532 17.4849C99.0619 17.3748 99.1916 17.2876 99.3345 17.2284C99.4774 17.1691 99.6308 17.1391 99.7855 17.1399L117.174 17.2212C117.488 17.224 117.788 17.3501 118.009 17.5724C118.231 17.7946 118.356 18.095 118.357 18.4087V18.4118Z" fill="url(#paint5_linear)"/>
<g opacity="0.27">
<path opacity="0.27" d="M133.589 118.28L143.594 108.349L143.223 129.301L133.611 118.304L133.589 118.28Z" fill="white"/>
<path opacity="0.27" d="M128.757 123.078L142.898 139.266L143.041 139.432L142.633 152.258C142.601 153.489 141.942 154.673 140.899 155.548C139.979 156.318 138.786 156.79 137.537 156.891L117.556 134.199L128.757 123.078Z" fill="white"/>
<path opacity="0.27" d="M140.614 101.876L129.193 113.258L124.375 118.061L113.173 129.224L94.7568 108.313L94.7593 108.311L105.918 97.0025L105.885 97.0019L105.825 96.97V96.9675L110.688 92.0981L110.733 92.1037L110.745 92.1075L110.753 92.1037L110.761 92.0981L122.187 80.5294L144.96 57.5056L144.1 95.2737L140.614 101.876Z" fill="white"/>
<path opacity="0.27" d="M128.726 156.917L94.6445 156.943L112.81 138.909L128.726 156.917Z" fill="white"/>
<path opacity="0.27" d="M108.431 133.952L85.3562 156.952H83.2482C81.8435 156.952 80.4819 156.479 79.4598 155.629C78.4376 154.779 77.8343 153.622 77.7887 152.413L76.8291 126.481L90.0199 113.114L108.431 133.952Z" fill="white"/>
<path opacity="0.27" d="M85.566 108.069L76.505 117.3L75.7686 96.993L85.5579 108.07L85.566 108.069Z" fill="white"/>
<path opacity="0.27" d="M122.577 70.4055L104.264 49.1155L123.558 29.158L139.484 29.0562C142.875 29.0343 145.523 31.7168 145.44 35.0718L145.138 47.4518L122.577 70.4055Z" fill="white"/>
<path opacity="0.27" d="M87.2959 29.3912L113.791 29.2212L99.7214 43.833L87.2959 29.3912Z" fill="white"/>
<path opacity="0.27" d="M99.3973 54.1499L117.707 75.3586L106.295 86.9724L101.492 91.8605L90.477 103.231L75.7202 86.2599V86.2568L75.2339 79.3036L75.1938 79.2655L99.3973 54.1499Z" fill="white"/>
<path opacity="0.27" d="M78.1829 29.5736L94.8532 48.8861L74.7233 69.7874L73.4586 35.638C73.4008 34.2317 73.8438 32.8505 74.7089 31.74C75.5739 30.6296 76.8049 29.8619 78.1829 29.5736V29.5736Z" fill="white"/>
</g>
<path d="M107.639 35.6418H78.5946C78.0812 35.6418 77.665 36.0579 77.665 36.5712V36.5768C77.665 37.0901 78.0812 37.5062 78.5946 37.5062H107.639C108.152 37.5062 108.568 37.0901 108.568 36.5768V36.5712C108.568 36.0579 108.152 35.6418 107.639 35.6418Z" fill="white"/>
<path d="M107.639 40.7025H78.5946C78.0812 40.7025 77.665 41.1186 77.665 41.6319V41.6375C77.665 42.1508 78.0812 42.5669 78.5946 42.5669H107.639C108.152 42.5669 108.568 42.1508 108.568 41.6375V41.6319C108.568 41.1186 108.152 40.7025 107.639 40.7025Z" fill="white"/>
<path d="M107.639 45.7632H78.5946C78.0812 45.7632 77.665 46.1793 77.665 46.6926V46.6982C77.665 47.2115 78.0812 47.6275 78.5946 47.6275H107.639C108.152 47.6275 108.568 47.2115 108.568 46.6982V46.6926C108.568 46.1793 108.152 45.7632 107.639 45.7632Z" fill="white"/>
<path d="M128.594 45.58C128.086 45.584 127.586 45.4492 127.149 45.1901C126.711 44.9311 126.353 44.5576 126.112 44.11C123.486 39.3237 120.357 33.02 120.357 30.1725C120.357 25.6312 124.053 21.9375 128.594 21.9375C130.778 21.9398 132.872 22.8082 134.416 24.352C135.961 25.8959 136.829 27.9891 136.831 30.1725C136.831 33.0194 133.706 39.3225 131.08 44.11C130.839 44.558 130.48 44.9318 130.042 45.1909C129.604 45.4499 129.103 45.5845 128.594 45.58V45.58ZM128.594 23.2581C126.761 23.2603 125.002 23.9896 123.706 25.286C122.409 26.5825 121.679 28.3403 121.677 30.1737C121.677 32.1475 123.715 36.9962 127.269 43.4756C127.399 43.7133 127.591 43.9115 127.824 44.0497C128.057 44.1878 128.323 44.2607 128.594 44.2607C128.865 44.2607 129.132 44.1878 129.365 44.0497C129.598 43.9115 129.79 43.7133 129.92 43.4756C133.474 36.9962 135.512 32.1475 135.512 30.1737C135.51 28.3403 134.78 26.5825 133.483 25.286C132.187 23.9896 130.428 23.2603 128.594 23.2581V23.2581Z" fill="white"/>
<path d="M128.594 35.3488C127.607 35.3488 126.641 35.0559 125.82 34.5073C124.998 33.9586 124.358 33.1788 123.98 32.2664C123.602 31.3541 123.503 30.3501 123.696 29.3816C123.889 28.413 124.364 27.5233 125.063 26.825C125.761 26.1267 126.651 25.6512 127.62 25.4585C128.589 25.2658 129.593 25.3647 130.506 25.7426C131.418 26.1205 132.198 26.7605 132.747 27.5816C133.296 28.4028 133.589 29.3681 133.589 30.3557C133.587 31.6794 133.06 32.9483 132.124 33.8843C131.188 34.8203 129.918 35.347 128.594 35.3488ZM128.594 26.6819C127.868 26.6819 127.157 26.8974 126.553 27.3011C125.949 27.7047 125.478 28.2785 125.2 28.9498C124.921 29.6211 124.849 30.3597 124.99 31.0724C125.132 31.785 125.482 32.4396 125.996 32.9534C126.51 33.4672 127.165 33.8171 127.878 33.9588C128.59 34.1006 129.329 34.0278 130.001 33.7498C130.672 33.4717 131.246 33.0008 131.65 32.3967C132.054 31.7925 132.269 31.0823 132.269 30.3557C132.268 29.3817 131.88 28.4479 131.192 27.7592C130.503 27.0705 129.569 26.6831 128.594 26.6819V26.6819Z" fill="white"/>
<path d="M131.594 52.1785C131.992 50.494 130.948 48.8062 129.263 48.4086C127.578 48.0111 125.89 49.0543 125.492 50.7387C125.095 52.4232 126.138 54.111 127.823 54.5085C129.508 54.9061 131.196 53.8629 131.594 52.1785Z" fill="white"/>
<path d="M134.255 159.201C134.152 159.201 134.049 159.179 133.955 159.137C133.86 159.096 133.775 159.034 133.706 158.958L132.285 157.389C132.157 157.243 132.092 157.053 132.104 156.859C132.115 156.666 132.202 156.484 132.346 156.354C132.489 156.224 132.679 156.155 132.872 156.163C133.066 156.17 133.249 156.254 133.382 156.395L134.803 157.963C134.9 158.069 134.963 158.201 134.986 158.343C135.009 158.484 134.99 158.629 134.932 158.76C134.874 158.891 134.779 159.003 134.659 159.081C134.539 159.159 134.399 159.201 134.255 159.201V159.201ZM130.702 155.281C130.599 155.282 130.496 155.26 130.402 155.218C130.307 155.176 130.222 155.114 130.153 155.038L128.732 153.469C128.604 153.323 128.539 153.133 128.551 152.939C128.562 152.746 128.649 152.564 128.793 152.434C128.937 152.304 129.126 152.235 129.32 152.243C129.514 152.25 129.697 152.334 129.83 152.475L131.251 154.043C131.347 154.149 131.41 154.281 131.433 154.423C131.456 154.564 131.437 154.709 131.379 154.841C131.321 154.972 131.226 155.083 131.106 155.161C130.986 155.24 130.846 155.281 130.702 155.281V155.281ZM127.15 151.361C127.046 151.361 126.944 151.34 126.849 151.298C126.754 151.256 126.669 151.194 126.6 151.118L125.179 149.55C125.114 149.478 125.063 149.394 125.03 149.302C124.998 149.211 124.983 149.113 124.988 149.016C124.993 148.919 125.017 148.824 125.058 148.736C125.1 148.648 125.158 148.569 125.23 148.504C125.302 148.438 125.387 148.388 125.478 148.355C125.57 148.322 125.667 148.308 125.764 148.313C125.861 148.318 125.957 148.341 126.045 148.383C126.133 148.425 126.212 148.483 126.277 148.555L127.698 150.123C127.794 150.229 127.858 150.361 127.88 150.503C127.903 150.644 127.885 150.789 127.826 150.921C127.768 151.052 127.674 151.163 127.553 151.241C127.433 151.32 127.293 151.361 127.15 151.361V151.361ZM123.597 147.441C123.493 147.441 123.391 147.42 123.296 147.378C123.202 147.336 123.117 147.275 123.047 147.198L121.626 145.63C121.559 145.558 121.506 145.474 121.472 145.382C121.437 145.29 121.422 145.191 121.425 145.093C121.429 144.995 121.453 144.898 121.495 144.809C121.536 144.72 121.595 144.64 121.668 144.573C121.741 144.507 121.827 144.456 121.92 144.424C122.012 144.391 122.111 144.377 122.209 144.383C122.308 144.389 122.404 144.414 122.492 144.457C122.581 144.501 122.659 144.561 122.724 144.636L124.145 146.203C124.241 146.309 124.305 146.441 124.328 146.583C124.351 146.724 124.332 146.869 124.274 147.001C124.216 147.132 124.121 147.243 124.001 147.321C123.881 147.4 123.74 147.441 123.597 147.441V147.441ZM120.043 143.521C119.94 143.521 119.838 143.5 119.743 143.458C119.649 143.416 119.564 143.355 119.495 143.278L118.074 141.71C118.006 141.638 117.954 141.554 117.919 141.462C117.885 141.37 117.869 141.271 117.873 141.173C117.877 141.075 117.9 140.978 117.942 140.889C117.983 140.8 118.043 140.72 118.116 140.653C118.189 140.587 118.274 140.536 118.367 140.504C118.46 140.471 118.558 140.457 118.657 140.463C118.755 140.469 118.851 140.494 118.939 140.537C119.028 140.581 119.107 140.641 119.171 140.716L120.592 142.284C120.689 142.39 120.752 142.522 120.774 142.663C120.797 142.805 120.778 142.95 120.72 143.081C120.662 143.212 120.567 143.323 120.447 143.401C120.327 143.48 120.187 143.521 120.043 143.521V143.521ZM116.491 139.601C116.387 139.601 116.285 139.58 116.19 139.538C116.096 139.496 116.011 139.435 115.942 139.358L114.521 137.79C114.454 137.718 114.401 137.634 114.367 137.542C114.332 137.45 114.317 137.351 114.321 137.253C114.324 137.155 114.348 137.058 114.39 136.969C114.431 136.88 114.49 136.8 114.563 136.733C114.636 136.667 114.722 136.616 114.815 136.584C114.908 136.551 115.006 136.537 115.104 136.543C115.203 136.549 115.299 136.574 115.387 136.617C115.476 136.661 115.555 136.721 115.619 136.796L117.04 138.364C117.136 138.47 117.2 138.602 117.222 138.743C117.245 138.885 117.226 139.03 117.168 139.161C117.11 139.292 117.015 139.403 116.895 139.481C116.775 139.56 116.635 139.601 116.491 139.601H116.491ZM112.938 135.681C112.835 135.681 112.732 135.66 112.638 135.618C112.543 135.576 112.458 135.515 112.389 135.438L110.968 133.87C110.901 133.798 110.848 133.714 110.814 133.622C110.779 133.53 110.763 133.431 110.767 133.333C110.771 133.235 110.795 133.138 110.836 133.049C110.878 132.96 110.937 132.88 111.01 132.813C111.083 132.747 111.168 132.696 111.261 132.664C111.354 132.631 111.453 132.617 111.551 132.623C111.649 132.629 111.745 132.654 111.834 132.697C111.922 132.741 112.001 132.801 112.066 132.876L113.487 134.444C113.583 134.55 113.647 134.682 113.67 134.823C113.692 134.965 113.674 135.11 113.616 135.241C113.557 135.372 113.462 135.484 113.342 135.562C113.222 135.64 113.081 135.681 112.938 135.681ZM109.385 131.761C109.282 131.761 109.18 131.74 109.085 131.698C108.99 131.656 108.906 131.595 108.836 131.518L107.415 129.95C107.288 129.804 107.223 129.613 107.234 129.42C107.246 129.226 107.333 129.045 107.476 128.915C107.62 128.784 107.809 128.716 108.003 128.723C108.197 128.731 108.38 128.814 108.513 128.956L109.934 130.524C110.031 130.63 110.094 130.762 110.117 130.903C110.14 131.045 110.121 131.19 110.063 131.321C110.005 131.452 109.91 131.564 109.789 131.642C109.669 131.72 109.529 131.761 109.385 131.761V131.761ZM105.832 127.841C105.728 127.841 105.626 127.82 105.532 127.778C105.437 127.736 105.352 127.675 105.283 127.598L103.862 126.031C103.73 125.885 103.661 125.693 103.671 125.497C103.68 125.301 103.768 125.116 103.913 124.984C104.059 124.852 104.251 124.784 104.447 124.793C104.643 124.803 104.828 124.89 104.96 125.036L106.381 126.604C106.477 126.71 106.541 126.842 106.563 126.983C106.586 127.125 106.568 127.27 106.509 127.401C106.451 127.532 106.356 127.644 106.236 127.722C106.116 127.8 105.975 127.841 105.832 127.841V127.841ZM102.279 123.922C102.176 123.922 102.073 123.901 101.979 123.859C101.884 123.817 101.799 123.755 101.73 123.678L100.309 122.111C100.177 121.965 100.108 121.773 100.118 121.577C100.128 121.381 100.215 121.196 100.36 121.064C100.506 120.932 100.698 120.864 100.894 120.873C101.091 120.883 101.275 120.97 101.407 121.116L102.828 122.684C102.924 122.79 102.988 122.922 103.011 123.064C103.033 123.205 103.015 123.35 102.956 123.481C102.898 123.613 102.803 123.724 102.683 123.802C102.563 123.88 102.423 123.922 102.279 123.922V123.922ZM98.7269 120C98.6234 120 98.5211 119.979 98.4265 119.937C98.3319 119.895 98.2473 119.833 98.1781 119.756L96.7571 118.189C96.6896 118.117 96.637 118.033 96.6025 117.94C96.568 117.848 96.5523 117.75 96.5562 117.652C96.5601 117.553 96.5835 117.457 96.6252 117.367C96.6669 117.278 96.726 117.198 96.799 117.132C96.872 117.066 96.9574 117.015 97.0503 116.982C97.1432 116.95 97.2417 116.936 97.34 116.942C97.4383 116.947 97.5345 116.973 97.6229 117.016C97.7113 117.06 97.7901 117.12 97.8548 117.194L99.2758 118.762C99.3722 118.868 99.4356 119 99.4584 119.142C99.4812 119.283 99.4624 119.428 99.4043 119.56C99.3462 119.691 99.2512 119.802 99.131 119.88C99.0107 119.958 98.8704 120 98.7269 120V120ZM95.1742 116.08C95.0708 116.08 94.9685 116.059 94.8739 116.017C94.7793 115.975 94.6946 115.914 94.6253 115.837L93.2037 114.271C93.1362 114.199 93.0836 114.115 93.0491 114.022C93.0146 113.93 92.9989 113.832 93.0028 113.734C93.0067 113.635 93.0302 113.539 93.0719 113.449C93.1135 113.36 93.1726 113.28 93.2456 113.214C93.3186 113.148 93.404 113.097 93.4969 113.064C93.5898 113.032 93.6883 113.018 93.7866 113.024C93.8849 113.029 93.9811 113.055 94.0695 113.098C94.1579 113.141 94.2368 113.202 94.3015 113.276L95.7224 114.844C95.8188 114.95 95.8822 115.082 95.905 115.224C95.9278 115.365 95.909 115.51 95.8509 115.641C95.7928 115.773 95.6979 115.884 95.5776 115.962C95.4574 116.04 95.317 116.082 95.1736 116.082L95.1742 116.08ZM91.7196 112.086C91.5847 112.086 91.4523 112.049 91.3367 111.979C91.2212 111.91 91.1268 111.81 91.0638 111.691C90.71 111.018 90.5251 110.27 90.5249 109.51C90.5249 109.428 90.5249 109.346 90.5312 109.264C90.5461 109.072 90.6358 108.893 90.781 108.765C90.9262 108.638 91.1155 108.572 91.3085 108.582C91.5015 108.592 91.6829 108.677 91.814 108.819C91.9451 108.961 92.0155 109.149 92.0103 109.342C92.0103 109.398 92.0059 109.454 92.0059 109.51C92.006 110.029 92.1324 110.54 92.3741 110.999C92.4337 111.112 92.463 111.239 92.4594 111.366C92.4558 111.494 92.4193 111.618 92.3535 111.727C92.2876 111.836 92.1947 111.927 92.0836 111.99C91.9726 112.052 91.8472 112.086 91.7196 112.086V112.086ZM92.6192 107.259C92.4739 107.259 92.3318 107.216 92.2106 107.136C92.0893 107.056 91.9943 106.942 91.9374 106.809C91.8804 106.675 91.864 106.528 91.8902 106.385C91.9164 106.242 91.984 106.11 92.0847 106.005L93.5513 104.479C93.6186 104.409 93.6992 104.352 93.7884 104.313C93.8776 104.274 93.9737 104.253 94.0711 104.25C94.1686 104.248 94.2655 104.265 94.3563 104.301C94.4471 104.336 94.53 104.389 94.6003 104.457C94.6706 104.524 94.7269 104.605 94.7659 104.694C94.805 104.784 94.826 104.88 94.8278 104.977C94.8296 105.075 94.8121 105.171 94.7764 105.262C94.7407 105.353 94.6874 105.436 94.6197 105.506L93.1531 107.031C93.0842 107.104 93.0014 107.161 92.9097 107.201C92.8179 107.24 92.7191 107.261 92.6192 107.261V107.259ZM96.2845 103.446C96.1392 103.446 95.9972 103.403 95.8761 103.323C95.755 103.243 95.66 103.129 95.6032 102.996C95.5463 102.862 95.5299 102.715 95.5561 102.572C95.5823 102.429 95.65 102.297 95.7506 102.193L97.2166 100.666C97.3528 100.525 97.5395 100.444 97.7355 100.441C97.9315 100.437 98.121 100.511 98.2624 100.647C98.4038 100.783 98.4856 100.969 98.4898 101.165C98.494 101.361 98.4204 101.551 98.285 101.693L96.819 103.219C96.7498 103.291 96.6668 103.348 96.575 103.387C96.4831 103.426 96.3843 103.446 96.2845 103.446V103.446ZM99.9504 99.6338C99.8051 99.6338 99.663 99.5912 99.5418 99.5111C99.4205 99.4311 99.3255 99.3172 99.2686 99.1835C99.2116 99.0499 99.1952 98.9025 99.2214 98.7597C99.2476 98.6168 99.3152 98.4848 99.4159 98.38L100.882 96.8544C100.949 96.7815 101.03 96.7227 101.12 96.6814C101.209 96.6401 101.307 96.6172 101.405 96.614C101.504 96.6108 101.603 96.6275 101.695 96.6629C101.787 96.6983 101.871 96.7519 101.943 96.8203C102.014 96.8888 102.071 96.9709 102.11 97.0616C102.149 97.1524 102.169 97.2501 102.17 97.3489C102.171 97.4477 102.152 97.5456 102.114 97.637C102.076 97.7283 102.02 97.8111 101.95 97.8807L100.484 99.4063C100.415 99.4779 100.332 99.5347 100.24 99.5734C100.149 99.612 100.05 99.6317 99.9504 99.6313V99.6338ZM103.616 95.8213C103.471 95.8208 103.33 95.778 103.209 95.6981C103.089 95.6183 102.994 95.5048 102.937 95.3719C102.881 95.2389 102.864 95.0922 102.89 94.95C102.915 94.8077 102.982 94.676 103.082 94.5713L104.548 93.045C104.684 92.9041 104.871 92.8229 105.067 92.8193C105.263 92.8157 105.452 92.89 105.594 93.0258C105.735 93.1616 105.817 93.3479 105.821 93.5439C105.825 93.7398 105.752 93.9295 105.616 94.0713L104.15 95.5969C104.08 95.6676 103.997 95.7234 103.905 95.7611C103.813 95.7988 103.715 95.8176 103.616 95.8163V95.8213ZM107.281 92.0088C107.136 92.0084 106.994 91.9655 106.873 91.8854C106.752 91.8052 106.657 91.6914 106.601 91.5579C106.544 91.4244 106.527 91.2772 106.553 91.1345C106.579 90.9918 106.647 90.8598 106.747 90.755L108.213 89.2294C108.28 89.1565 108.36 89.0977 108.45 89.0564C108.54 89.0151 108.637 88.9922 108.736 88.989C108.834 88.9857 108.933 89.0023 109.025 89.0377C109.117 89.0731 109.202 89.1266 109.273 89.195C109.344 89.2634 109.401 89.3454 109.44 89.4361C109.479 89.5268 109.5 89.6244 109.501 89.7232C109.501 89.822 109.482 89.9199 109.445 90.0112C109.407 90.1026 109.352 90.1855 109.281 90.255L107.815 91.7813C107.746 91.8518 107.662 91.9074 107.57 91.945C107.479 91.9826 107.38 92.0013 107.281 92V92.0088ZM110.947 88.1963C110.802 88.1963 110.659 88.1537 110.538 88.0736C110.417 87.9936 110.322 87.8797 110.265 87.746C110.208 87.6124 110.192 87.465 110.218 87.3221C110.244 87.1793 110.312 87.0473 110.412 86.9425L111.879 85.4169C112.015 85.276 112.202 85.1948 112.398 85.1912C112.594 85.1876 112.783 85.2618 112.925 85.3976C113.066 85.5334 113.148 85.7198 113.152 85.9157C113.156 86.1117 113.083 86.3014 112.947 86.4431L111.481 87.9688C111.411 88.0392 111.328 88.0949 111.236 88.1325C111.144 88.1701 111.046 88.1888 110.947 88.1875V88.1963ZM114.612 84.3838C114.467 84.3837 114.325 84.341 114.204 84.2609C114.083 84.1808 113.988 84.0668 113.931 83.9333C113.874 83.7997 113.858 83.6523 113.884 83.5095C113.91 83.3667 113.978 83.2347 114.078 83.13L115.544 81.6038C115.681 81.4628 115.867 81.3817 116.063 81.3781C116.259 81.3745 116.449 81.4487 116.59 81.5845C116.731 81.7203 116.813 81.9066 116.817 82.1026C116.822 82.2986 116.748 82.4882 116.613 82.63L115.147 84.145C115.078 84.2175 114.995 84.2752 114.903 84.3147C114.811 84.3543 114.712 84.3748 114.612 84.375V84.3838ZM118.278 80.5713C118.133 80.5713 117.991 80.5287 117.869 80.4486C117.748 80.3686 117.653 80.2547 117.596 80.121C117.539 79.9874 117.523 79.84 117.549 79.6971C117.575 79.5543 117.643 79.4223 117.744 79.3175L119.21 77.7919C119.277 77.7214 119.358 77.6649 119.447 77.6256C119.536 77.5863 119.633 77.565 119.73 77.5629C119.827 77.5608 119.924 77.5779 120.015 77.6134C120.106 77.6488 120.189 77.7018 120.259 77.7693C120.329 77.8368 120.386 77.9175 120.425 78.0068C120.464 78.0961 120.485 78.1923 120.487 78.2897C120.488 78.3871 120.471 78.484 120.435 78.5747C120.4 78.6653 120.346 78.7481 120.279 78.8181L118.812 80.3438C118.742 80.4133 118.658 80.4681 118.567 80.5048C118.475 80.5415 118.377 80.5595 118.278 80.5575V80.5713ZM121.943 76.7588C121.798 76.7587 121.656 76.716 121.535 76.6359C121.414 76.5558 121.319 76.4418 121.262 76.3082C121.205 76.1747 121.189 76.0273 121.215 75.8845C121.241 75.7417 121.309 75.6097 121.409 75.505L122.875 73.9788C123.012 73.8378 123.198 73.7567 123.394 73.7531C123.59 73.7494 123.78 73.8237 123.921 73.9595C124.063 74.0953 124.144 74.2816 124.149 74.4776C124.153 74.6736 124.079 74.8632 123.944 75.005L122.478 76.5313C122.407 76.6004 122.324 76.6548 122.232 76.6912C122.14 76.7276 122.042 76.7453 121.943 76.7431V76.7588ZM125.609 72.9463C125.463 72.9462 125.321 72.9035 125.2 72.8234C125.079 72.7433 124.984 72.6293 124.927 72.4957C124.87 72.3622 124.854 72.2148 124.88 72.072C124.906 71.9292 124.974 71.7972 125.075 71.6925L126.541 70.1669C126.608 70.0964 126.689 70.0399 126.778 70.0006C126.867 69.9613 126.963 69.94 127.061 69.9379C127.158 69.9358 127.255 69.9529 127.346 69.9884C127.437 70.0238 127.519 70.0768 127.59 70.1443C127.66 70.2118 127.716 70.2925 127.755 70.3818C127.794 70.4711 127.815 70.5673 127.817 70.6647C127.819 70.7621 127.802 70.859 127.766 70.9497C127.73 71.0403 127.677 71.1231 127.609 71.1931L126.143 72.7188C126.072 72.7875 125.989 72.8415 125.897 72.8775C125.805 72.9134 125.707 72.9307 125.609 72.9281V72.9463ZM129.275 69.1338C129.13 69.1334 128.988 69.0907 128.868 69.0109C128.747 68.931 128.653 68.8176 128.596 68.6847C128.539 68.5517 128.522 68.4049 128.548 68.2626C128.574 68.1203 128.64 67.9886 128.74 67.8838L130.207 66.3575C130.343 66.2166 130.53 66.1354 130.726 66.1318C130.922 66.1282 131.111 66.2024 131.252 66.3382C131.394 66.4741 131.476 66.6604 131.48 66.8563C131.484 67.0523 131.41 67.242 131.275 67.3838L129.808 68.9094C129.738 68.9772 129.654 69.0301 129.562 69.0651C129.471 69.1001 129.373 69.1164 129.275 69.1131L129.275 69.1338ZM132.94 65.3213C132.795 65.3212 132.653 65.2785 132.531 65.1984C132.41 65.1183 132.315 65.0043 132.259 64.8707C132.202 64.7371 132.185 64.5898 132.211 64.447C132.238 64.3042 132.305 64.1722 132.406 64.0675L133.793 62.6238L133.856 62.5569C133.988 62.4148 134.172 62.3305 134.366 62.3222C134.56 62.3139 134.75 62.3824 134.894 62.5127C135.038 62.6431 135.125 62.8249 135.137 63.0189C135.148 63.213 135.083 63.4037 134.955 63.55C134.924 63.5838 134.892 63.6163 134.862 63.6494L133.474 65.0938C133.403 65.1617 133.319 65.2148 133.228 65.25C133.136 65.2852 133.038 65.3018 132.94 65.2988V65.3213ZM135.42 60.8769C135.232 60.8767 135.051 60.8052 134.914 60.6768C134.777 60.5485 134.694 60.3729 134.681 60.1856C134.644 59.6107 134.451 59.0566 134.124 58.5819C134.066 58.5019 134.024 58.4111 134.002 58.3148C133.979 58.2185 133.976 58.1186 133.993 58.021C134.009 57.9235 134.045 57.8302 134.098 57.7468C134.152 57.6634 134.221 57.5915 134.303 57.5354C134.384 57.4792 134.476 57.44 134.573 57.42C134.67 57.3999 134.77 57.3995 134.867 57.4188C134.964 57.4381 135.056 57.4766 135.138 57.5321C135.22 57.5875 135.29 57.6589 135.344 57.7419C135.818 58.429 136.1 59.2301 136.16 60.0625C136.173 60.2581 136.108 60.4508 135.979 60.5985C135.85 60.7462 135.668 60.8368 135.472 60.8506C135.453 60.8544 135.436 60.8544 135.42 60.8544V60.8769ZM132.669 56.4931C132.563 56.4933 132.458 56.4706 132.362 56.4267C132.266 56.3828 132.18 56.3187 132.11 56.2388L131.122 55.1044C131.056 55.0314 131.005 54.946 130.972 54.853C130.94 54.7601 130.926 54.6615 130.931 54.5632C130.937 54.4648 130.963 54.3686 131.006 54.2801C131.05 54.1916 131.11 54.1128 131.185 54.048C131.259 53.9833 131.345 53.9341 131.439 53.9032C131.533 53.8724 131.631 53.8605 131.73 53.8683C131.828 53.8761 131.924 53.9034 132.011 53.9487C132.099 53.994 132.176 54.0562 132.24 54.1319L133.227 55.2656C133.321 55.3729 133.381 55.5046 133.401 55.6452C133.422 55.7858 133.402 55.9293 133.343 56.0587C133.284 56.188 133.189 56.2977 133.07 56.3748C132.95 56.4518 132.811 56.4929 132.669 56.4931V56.4931Z" fill="white"/>
<path d="M83.965 66.8837C83.965 66.8837 81.5676 68.0499 81.1262 69.3899C80.7724 70.4643 78.1211 70.603 77.8591 72.7168C77.7241 73.8087 76.9158 74.6824 75.8286 74.8493C73.1205 75.2643 68.9469 76.6699 68.2793 81.3705C67.7698 84.9586 69.599 86.3193 71.5195 86.7905C72.9298 87.1361 73.8669 88.5074 73.5825 89.9311C73.3093 91.2961 73.7169 92.8749 76.0831 94.123C81.3844 96.9192 86.6794 87.498 86.6794 87.498L87.7647 71.0443L83.965 66.8837Z" fill="url(#paint6_linear)"/>
<path d="M112.813 62.9838C112.813 62.9838 102.228 79.7231 89.6401 82.9563C89.6401 82.9563 92.0932 89.94 93.9862 90.7394C93.9862 90.7394 109.473 77.8213 113.452 65.3644L112.813 62.9838Z" fill="url(#paint7_linear)"/>
<path d="M62.1737 170.048L61.8305 172.867C61.7995 173.127 61.6818 173.37 61.4964 173.554C61.3109 173.739 61.0685 173.856 60.8084 173.887C59.9044 173.99 58.4534 174.096 57.0337 173.946C56.8875 173.928 56.7469 173.879 56.6219 173.802C56.4969 173.724 56.3906 173.619 56.3106 173.496C56.2306 173.372 56.1788 173.233 56.159 173.087C56.1392 172.941 56.1518 172.793 56.196 172.652C56.5423 171.564 57.1749 169.929 58.0877 168.965H61.2166C61.3533 168.965 61.4884 168.994 61.613 169.05C61.7376 169.106 61.8489 169.188 61.9394 169.291C62.0299 169.393 62.0975 169.514 62.1379 169.644C62.1784 169.775 62.1905 169.912 62.1737 170.048V170.048Z" fill="url(#paint8_linear)"/>
<path d="M86.6785 137.017L87.2061 140.123C87.2061 140.123 85.4382 158.031 85.1231 165.194C85.0751 166.316 85.3648 167.426 85.9545 168.382L89.0291 173.375L81.2146 168.765L81.0589 167.812L82.338 166.054L80.6626 145.992C80.5639 144.813 80.807 143.631 81.3627 142.587L82.9794 139.552L86.6785 137.017Z" fill="url(#paint9_linear)"/>
<path d="M89.543 174.1H87.0493C86.8191 174.101 86.592 174.048 86.3854 173.947C86.1788 173.845 85.9982 173.698 85.8577 173.516C85.0801 172.506 83.4697 170.535 82.6995 170.484C81.6623 170.414 81.7949 174.1 81.7949 174.1H81.2135L80.4777 169.521C80.3874 168.959 80.4763 168.383 80.7316 167.874C80.987 167.366 81.396 166.951 81.9005 166.688C81.9005 166.688 82.1375 168.438 83.4228 169.215C84.7081 169.993 88.6522 172.766 88.6522 172.766C88.9897 172.727 89.3312 172.736 89.6662 172.793C90.4526 172.938 90.3432 174.1 89.543 174.1Z" fill="url(#paint10_linear)"/>
<path d="M75.9743 138.492C75.9743 138.492 65.6143 158.139 63.9676 162.625C62.321 167.111 61.7439 170.852 61.7214 171.207C61.6871 171.761 60.9981 172.292 59.0995 172.292C58.1193 172.292 57.6392 171.899 57.4047 171.519C57.3073 171.358 57.2523 171.176 57.245 170.988C57.2377 170.801 57.2782 170.614 57.3629 170.447C57.9618 169.234 59.8635 165.359 60.568 163.602C61.4089 161.504 63.2174 151.995 64.2095 148.689C65.2017 145.382 66.3219 141.796 70.6436 138.492C70.6436 138.492 73.6087 135.588 75.9743 138.492Z" fill="url(#paint11_linear)"/>
<path d="M82.5187 106.3C85.1912 94.9787 78.4214 88.5756 78.4214 88.5756C82.6931 84.4762 90.4763 82.6112 90.4763 82.6112C90.4763 82.6112 97.9025 88.0393 97.0217 92.2881C96.5053 94.778 91.8016 107.204 91.8016 107.204C91.8016 107.204 87.4524 109.262 82.5187 106.3Z" fill="url(#paint12_linear)"/>
<path d="M76.5941 111.905C77.6813 108.629 82.5187 106.3 82.5187 106.3C87.4518 109.262 91.8016 107.204 91.8016 107.204C91.8016 107.204 92.7768 110.932 92.1035 114.396C91.4302 117.859 87.2061 140.125 87.2061 140.125C80.5507 141.473 70.3145 138.768 70.3145 138.768C74.5542 131.242 75.5063 115.181 76.5941 111.905Z" fill="url(#paint13_linear)"/>
<path d="M85.6207 75.13L83.4514 84.8869C83.2432 85.7463 84.0265 85.6056 84.8961 85.4419C86.319 85.1731 88.1538 84.6206 88.7671 83.5137C88.8262 83.3988 88.864 83.2741 88.8783 83.1456L89.8117 76.38C89.8476 76.1187 89.7976 75.8529 89.6691 75.6226C89.5407 75.3922 89.3408 75.2099 89.0996 75.1031L87.2986 74.3043C87.1356 74.2316 86.9586 74.1956 86.7801 74.1989C86.6016 74.2023 86.4261 74.2449 86.2659 74.3237C86.1058 74.4025 85.9649 74.5156 85.8534 74.6549C85.7419 74.7943 85.6624 74.9565 85.6207 75.13V75.13Z" fill="url(#paint14_linear)"/>
<path d="M78.4212 88.5757C78.4212 88.5757 63.2568 99.4225 76.4832 110.82C76.4832 110.82 76.9871 111.391 77.9792 111.687C78.4793 111.836 79.9616 112.957 80.713 113.541C80.7699 113.585 80.8353 113.616 80.9051 113.633C80.9748 113.65 81.0474 113.653 81.118 113.64C81.1887 113.627 81.2559 113.6 81.3153 113.56C81.3748 113.519 81.4251 113.467 81.4632 113.406C81.5257 113.306 81.5621 113.192 81.5689 113.074C81.5758 112.957 81.553 112.839 81.5026 112.732L79.6271 108.763C79.3746 108.528 79.0464 108.39 78.7016 108.375C78.3567 108.361 78.0179 108.469 77.746 108.682C77.6625 108.748 77.5653 108.794 77.4615 108.818C77.3577 108.841 77.2499 108.841 77.1462 108.818C77.0424 108.794 76.9451 108.748 76.8616 108.682C76.778 108.616 76.7103 108.532 76.6633 108.437C75.6405 106.355 73.71 100.233 81.6114 93.3119C81.7545 93.1845 81.8507 93.0128 81.8847 92.8243C81.9187 92.6358 81.8885 92.4413 81.7989 92.2719C81.2456 91.2082 79.9759 89.0907 78.4212 88.5757Z" fill="url(#paint15_linear)"/>
<path d="M89.7824 66.235C89.7824 66.235 92.0954 67.7975 93.0894 71.7868C94.0834 75.7762 92.468 77.2037 90.8126 77.1156C89.1572 77.0274 86.756 76.5162 84.6761 73.6562C82.5962 70.7962 86.751 64.3225 89.7824 66.235Z" fill="url(#paint16_linear)"/>
<path d="M86.7734 72.0488C86.7734 72.0488 85.9257 66.3363 90.67 67.2101L91.629 68.2101C91.629 68.2101 93.9508 65.5957 91.3789 63.6195C88.807 61.6432 85.2436 62.1495 83.2706 65.7445C81.2976 69.3395 80.5825 71.8695 82.2354 74.1057C83.8883 76.342 85.133 74.4238 85.133 74.4238C85.133 74.4238 84.3747 72.4863 85.0036 71.6588C85.6325 70.8313 86.4414 72.1413 86.4414 72.1413L86.7734 72.0488Z" fill="url(#paint17_linear)"/>
<path d="M86.1251 72.5374C86.1251 72.5374 85.7069 69.6 84.2053 70.4387C82.7037 71.2775 84.7467 73.1843 85.5656 73.8324L86.1251 72.5374Z" fill="url(#paint18_linear)"/>
<path d="M112.741 66.4294C112.773 66.775 111.49 67.0137 111.08 65.5419C111.191 64.9025 111.392 62.1044 111.882 61.6669C114.492 59.3531 119.147 56.75 119.147 56.75C119.667 57.545 118.985 58.0681 118.985 58.0681L116.661 59.6362C116.904 60.4387 117.257 61.1481 117.297 62.0644C117.321 62.7625 117.074 63.4427 116.61 63.9644C116.147 64.4925 115.525 65.1744 114.964 65.6925C113.902 66.6706 112.741 66.4294 112.741 66.4294Z" fill="url(#paint19_linear)"/>
<path d="M114.003 65.2887L113.648 65.1425C113.695 65.0281 114.81 62.3187 115.35 61.755C115.554 61.5413 115.654 61.3581 115.644 61.2106C115.634 61.1194 115.592 61.0347 115.525 60.9719L113.646 61.9769L112.815 63.2769L112.492 63.07L113.375 61.6875L115.577 60.51L115.677 60.5906C115.899 60.7731 116.014 60.9688 116.028 61.1894C116.044 61.4519 115.913 61.7244 115.627 62.0231C115.221 62.4456 114.317 64.5237 114.003 65.2887Z" fill="url(#paint20_linear)"/>
<path d="M200.337 175C201.279 175.018 202.214 174.848 203.089 174.5C203.964 174.152 204.761 173.634 205.433 172.974C206.105 172.315 206.639 171.529 207.003 170.661C207.368 169.793 207.555 168.861 207.555 167.919V136.408C207.557 134.419 206.773 132.511 205.374 131.096C203.976 129.682 202.076 128.876 200.087 128.854C187.659 128.719 162.029 128.712 141.057 130.479C139.675 130.598 138.384 131.218 137.428 132.223C136.472 133.228 135.917 134.548 135.868 135.934L133.909 166.399C133.874 167.356 134.03 168.31 134.368 169.206C134.707 170.102 135.22 170.922 135.878 171.617C136.537 172.313 137.327 172.87 138.203 173.257C139.079 173.644 140.024 173.853 140.982 173.871L200.337 175Z" fill="url(#paint21_linear)"/>
<path d="M200.355 139.818C200.409 142.498 200.328 146.755 200.263 149.501C200.256 149.839 200.177 150.171 200.033 150.477C199.889 150.783 199.683 151.055 199.428 151.277C199.173 151.498 198.874 151.664 198.552 151.764C198.229 151.863 197.888 151.894 197.553 151.855L187.325 150.656C187.002 150.618 186.69 150.515 186.407 150.354C186.124 150.194 185.876 149.977 185.679 149.719C185.481 149.46 185.337 149.165 185.256 148.85C185.175 148.534 185.158 148.206 185.207 147.884L186.462 139.509C186.548 138.934 186.838 138.409 187.279 138.03C187.72 137.65 188.282 137.441 188.864 137.441H197.929C198.564 137.441 199.174 137.689 199.628 138.134C200.081 138.578 200.343 139.183 200.355 139.818V139.818Z" fill="white"/>
<path opacity="0.37" d="M173.63 155.688L165.096 156.605C164.816 156.635 164.532 156.603 164.265 156.512C163.999 156.421 163.755 156.272 163.552 156.076C163.35 155.88 163.192 155.642 163.092 155.379C162.991 155.115 162.95 154.833 162.971 154.552L164.835 129.177C168.412 129.064 171.94 128.981 175.343 128.923V153.77C175.345 154.245 175.17 154.703 174.854 155.057C174.538 155.411 174.102 155.636 173.63 155.688V155.688Z" fill="white"/>
<path d="M170.133 151.287C170.121 151.505 170.025 151.711 169.866 151.861C169.707 152.011 169.496 152.095 169.278 152.095C169.261 152.095 169.244 152.095 169.228 152.095C169.115 152.089 169.005 152.06 168.903 152.011C168.802 151.962 168.711 151.894 168.636 151.81C168.561 151.725 168.504 151.627 168.466 151.521C168.429 151.415 168.414 151.302 168.42 151.189L169.707 129.046C170.284 129.031 170.856 129.018 171.428 129.006L170.133 151.287Z" fill="white"/>
<path d="M195.628 147.812C195.701 147.812 195.771 147.785 195.824 147.735C195.877 147.685 195.909 147.617 195.914 147.544L196.356 140.569C196.359 140.532 196.354 140.494 196.341 140.459C196.329 140.423 196.31 140.39 196.285 140.362C196.26 140.334 196.23 140.311 196.197 140.295C196.163 140.278 196.126 140.269 196.089 140.266C196.051 140.263 196.013 140.267 195.977 140.279C195.941 140.291 195.908 140.31 195.879 140.335C195.851 140.36 195.828 140.39 195.812 140.425C195.795 140.459 195.786 140.496 195.785 140.534L195.343 147.509C195.34 147.546 195.346 147.584 195.358 147.619C195.37 147.655 195.389 147.688 195.414 147.716C195.439 147.744 195.469 147.767 195.503 147.783C195.536 147.8 195.573 147.81 195.61 147.812L195.628 147.812Z" fill="url(#paint22_linear)"/>
<path d="M194.718 147.813C194.792 147.812 194.863 147.784 194.916 147.732C194.97 147.68 195.001 147.61 195.003 147.536L195.235 140.427C195.238 140.352 195.21 140.278 195.158 140.222C195.106 140.167 195.035 140.134 194.959 140.132C194.921 140.128 194.882 140.133 194.846 140.145C194.81 140.158 194.777 140.178 194.749 140.204C194.721 140.23 194.699 140.262 194.684 140.297C194.669 140.332 194.662 140.37 194.663 140.409L194.431 147.517C194.429 147.593 194.456 147.667 194.508 147.722C194.56 147.777 194.632 147.81 194.708 147.813H194.718Z" fill="url(#paint23_linear)"/>
<path d="M193.482 147.812C193.444 147.811 193.407 147.802 193.374 147.786C193.34 147.77 193.309 147.747 193.284 147.719C193.259 147.692 193.239 147.659 193.226 147.624C193.214 147.589 193.208 147.551 193.21 147.514C193.324 145.126 193.54 140.571 193.543 140.416C193.546 140.343 193.578 140.273 193.631 140.222C193.685 140.172 193.755 140.143 193.829 140.143C193.903 140.143 193.973 140.172 194.027 140.222C194.08 140.273 194.111 140.343 194.115 140.416C194.115 140.534 193.837 146.369 193.781 147.538C193.778 147.612 193.746 147.681 193.693 147.731C193.64 147.782 193.569 147.811 193.495 147.811L193.482 147.812Z" fill="url(#paint24_linear)"/>
<path d="M191.589 148.096C191.737 148.095 191.879 148.038 191.986 147.935C192.092 147.832 192.155 147.692 192.16 147.544C192.402 140.657 192.359 140.502 192.331 140.399C192.293 140.258 192.203 140.138 192.08 140.061C191.956 139.985 191.808 139.958 191.665 139.987C191.523 140.016 191.397 140.098 191.313 140.216C191.228 140.335 191.192 140.481 191.212 140.625C191.231 141.039 191.103 145.046 191.017 147.504C191.014 147.579 191.026 147.653 191.053 147.724C191.079 147.794 191.119 147.859 191.17 147.914C191.221 147.968 191.283 148.013 191.351 148.044C191.42 148.075 191.493 148.092 191.568 148.095L191.589 148.096Z" fill="url(#paint25_linear)"/>
<path d="M190.353 147.812C190.39 147.812 190.427 147.805 190.462 147.791C190.497 147.776 190.528 147.755 190.555 147.729C190.581 147.702 190.602 147.67 190.617 147.636C190.631 147.601 190.638 147.564 190.638 147.526V140.549C190.64 140.511 190.634 140.472 190.62 140.436C190.607 140.4 190.586 140.366 190.559 140.338C190.533 140.31 190.5 140.288 190.465 140.273C190.429 140.258 190.391 140.25 190.352 140.25C190.313 140.25 190.275 140.258 190.24 140.273C190.204 140.288 190.172 140.31 190.145 140.338C190.118 140.366 190.098 140.4 190.084 140.436C190.07 140.472 190.064 140.511 190.066 140.549V147.524C190.066 147.562 190.073 147.599 190.087 147.634C190.102 147.669 190.123 147.701 190.149 147.728C190.176 147.755 190.207 147.776 190.242 147.79C190.277 147.805 190.315 147.812 190.353 147.812V147.812Z" fill="url(#paint26_linear)"/>
<path d="M189.348 147.812C189.423 147.812 189.495 147.783 189.548 147.731C189.602 147.679 189.633 147.608 189.635 147.533C189.689 145.109 189.817 141.151 189.932 140.675C189.962 140.619 189.974 140.555 189.964 140.491C189.954 140.428 189.923 140.371 189.876 140.327C189.83 140.283 189.77 140.257 189.706 140.251C189.642 140.246 189.579 140.261 189.525 140.296C189.369 140.399 189.221 140.495 189.063 147.519C189.061 147.595 189.089 147.668 189.142 147.723C189.194 147.778 189.266 147.81 189.341 147.812H189.348Z" fill="url(#paint27_linear)"/>
<path d="M197.167 148.445C197.314 148.445 197.455 148.389 197.561 148.288C197.667 148.187 197.731 148.049 197.738 147.903L198.12 140.579C198.128 140.427 198.076 140.279 197.974 140.166C197.873 140.053 197.731 139.985 197.58 139.976C197.428 139.968 197.279 140.02 197.166 140.122C197.053 140.223 196.985 140.365 196.977 140.516L196.595 147.84C196.587 147.992 196.64 148.14 196.741 148.253C196.843 148.366 196.985 148.433 197.137 148.441L197.167 148.445Z" fill="url(#paint28_linear)"/>
<path d="M202.067 124.25V102.125C202.068 100.728 201.517 99.3878 200.535 98.3945C199.553 97.4013 198.219 96.8354 196.822 96.82C188.094 96.725 170.094 96.7206 155.366 97.9612C154.395 98.0439 153.488 98.4793 152.816 99.1853C152.145 99.8912 151.755 100.819 151.721 101.792L150.345 123.186C150.321 123.859 150.43 124.529 150.668 125.158C150.905 125.788 151.265 126.364 151.728 126.853C152.19 127.341 152.745 127.733 153.361 128.005C153.976 128.277 154.64 128.423 155.313 128.436L196.999 129.228C197.66 129.24 198.318 129.121 198.932 128.876C199.547 128.631 200.107 128.267 200.579 127.803C201.05 127.34 201.425 126.787 201.681 126.176C201.936 125.566 202.068 124.911 202.067 124.25V124.25Z" fill="url(#paint29_linear)"/>
<path d="M197.012 104.516C197.049 106.399 196.993 109.386 196.949 111.317C196.943 111.554 196.888 111.787 196.787 112.002C196.686 112.217 196.541 112.408 196.362 112.563C196.183 112.719 195.974 112.835 195.747 112.905C195.52 112.975 195.281 112.997 195.046 112.969L187.861 112.125C187.634 112.098 187.415 112.027 187.216 111.914C187.017 111.801 186.843 111.649 186.705 111.467C186.566 111.286 186.465 111.078 186.408 110.857C186.351 110.635 186.339 110.405 186.373 110.179L187.254 104.299C187.315 103.895 187.519 103.526 187.829 103.26C188.138 102.993 188.534 102.847 188.942 102.847H195.307C195.754 102.847 196.182 103.021 196.501 103.333C196.82 103.646 197.003 104.07 197.012 104.516V104.516Z" fill="white"/>
<path opacity="0.37" d="M178.241 115.659L172.25 116.305C172.053 116.326 171.854 116.304 171.667 116.24C171.48 116.176 171.309 116.071 171.167 115.933C171.024 115.796 170.914 115.629 170.844 115.444C170.773 115.259 170.744 115.061 170.759 114.864L172.068 97.0456C174.58 96.9656 177.057 96.9074 179.445 96.8668V114.316C179.445 114.649 179.322 114.97 179.1 115.218C178.878 115.466 178.572 115.623 178.241 115.659V115.659Z" fill="white"/>
<path d="M175.786 112.571C175.778 112.724 175.711 112.868 175.599 112.974C175.487 113.08 175.339 113.139 175.186 113.139H175.15C174.99 113.129 174.841 113.057 174.735 112.938C174.629 112.819 174.574 112.662 174.584 112.503L175.487 96.9512L176.695 96.9231L175.786 112.571Z" fill="white"/>
<path d="M193.69 110.129C193.741 110.129 193.79 110.109 193.827 110.075C193.865 110.04 193.887 109.992 193.89 109.941L194.203 105.043C194.205 105.017 194.201 104.991 194.193 104.966C194.184 104.941 194.171 104.918 194.153 104.898C194.136 104.878 194.115 104.862 194.091 104.85C194.067 104.839 194.042 104.832 194.015 104.83C193.989 104.828 193.962 104.831 193.937 104.839C193.912 104.847 193.889 104.861 193.869 104.878C193.849 104.896 193.833 104.917 193.821 104.941C193.81 104.965 193.803 104.991 193.802 105.018L193.49 109.916C193.486 109.969 193.504 110.021 193.539 110.061C193.575 110.101 193.624 110.125 193.677 110.129H193.69Z" fill="url(#paint30_linear)"/>
<path d="M193.051 110.129C193.103 110.129 193.153 110.109 193.19 110.072C193.228 110.036 193.249 109.987 193.251 109.935L193.414 104.943C193.415 104.917 193.411 104.89 193.401 104.866C193.392 104.841 193.378 104.818 193.36 104.799C193.342 104.78 193.32 104.764 193.296 104.753C193.272 104.742 193.246 104.736 193.22 104.736C193.193 104.733 193.166 104.736 193.141 104.744C193.115 104.753 193.092 104.767 193.072 104.785C193.052 104.803 193.037 104.826 193.026 104.851C193.016 104.876 193.011 104.902 193.012 104.929L192.849 109.921C192.848 109.975 192.867 110.026 192.904 110.065C192.94 110.104 192.99 110.127 193.044 110.129H193.051Z" fill="url(#paint31_linear)"/>
<path d="M192.184 110.129C192.157 110.128 192.131 110.121 192.108 110.11C192.084 110.099 192.062 110.083 192.044 110.064C192.027 110.044 192.013 110.021 192.004 109.996C191.995 109.972 191.991 109.945 191.992 109.919C192.072 108.242 192.224 105.044 192.226 104.935C192.229 104.883 192.252 104.835 192.289 104.8C192.326 104.764 192.376 104.745 192.427 104.745C192.479 104.745 192.528 104.764 192.566 104.8C192.603 104.835 192.625 104.883 192.628 104.935C192.628 105.017 192.433 109.115 192.393 109.934C192.391 109.986 192.369 110.035 192.332 110.07C192.294 110.106 192.245 110.126 192.193 110.126L192.184 110.129Z" fill="url(#paint32_linear)"/>
<path d="M190.853 110.33C190.957 110.33 191.057 110.289 191.132 110.217C191.206 110.145 191.25 110.046 191.254 109.942C191.424 105.106 191.394 104.997 191.374 104.924C191.347 104.827 191.284 104.743 191.197 104.69C191.11 104.637 191.007 104.619 190.908 104.639C190.808 104.659 190.72 104.716 190.661 104.798C190.602 104.881 190.576 104.982 190.588 105.083C190.601 105.374 190.512 108.188 190.451 109.914C190.449 109.966 190.458 110.019 190.476 110.068C190.494 110.118 190.522 110.163 190.558 110.202C190.594 110.24 190.637 110.271 190.685 110.293C190.733 110.315 190.785 110.328 190.838 110.329L190.853 110.33Z" fill="url(#paint33_linear)"/>
<path d="M189.983 110.129C190.037 110.129 190.088 110.108 190.125 110.07C190.163 110.032 190.184 109.981 190.184 109.928V105.03C190.184 104.977 190.163 104.926 190.125 104.888C190.088 104.85 190.037 104.829 189.983 104.829C189.93 104.829 189.879 104.85 189.841 104.888C189.804 104.926 189.783 104.977 189.783 105.03V109.928C189.783 109.954 189.788 109.981 189.798 110.005C189.808 110.029 189.823 110.052 189.841 110.07C189.86 110.089 189.882 110.104 189.907 110.114C189.931 110.124 189.957 110.129 189.983 110.129V110.129Z" fill="url(#paint34_linear)"/>
<path d="M189.28 110.129C189.333 110.129 189.383 110.109 189.421 110.072C189.458 110.035 189.48 109.986 189.481 109.933C189.52 108.231 189.61 105.451 189.69 105.117C189.712 105.078 189.72 105.032 189.713 104.988C189.707 104.943 189.685 104.902 189.652 104.872C189.619 104.841 189.577 104.822 189.532 104.818C189.487 104.815 189.442 104.826 189.405 104.851C189.295 104.923 189.191 104.991 189.08 109.924C189.079 109.95 189.084 109.976 189.093 110.001C189.103 110.026 189.117 110.048 189.135 110.067C189.154 110.086 189.175 110.101 189.199 110.112C189.224 110.123 189.25 110.128 189.276 110.129H189.28Z" fill="url(#paint35_linear)"/>
<path d="M194.771 110.575C194.874 110.575 194.973 110.535 195.047 110.465C195.122 110.394 195.166 110.297 195.172 110.194L195.44 105.051C195.445 104.944 195.408 104.84 195.337 104.761C195.266 104.682 195.166 104.634 195.059 104.629C194.953 104.624 194.85 104.662 194.771 104.733C194.692 104.804 194.644 104.903 194.637 105.009L194.369 110.153C194.366 110.205 194.374 110.258 194.392 110.308C194.409 110.358 194.437 110.403 194.472 110.442C194.507 110.482 194.55 110.514 194.598 110.536C194.645 110.559 194.697 110.572 194.75 110.574L194.771 110.575Z" fill="url(#paint36_linear)"/>
<path d="M170.857 169.937V147.813C170.857 144.905 168.838 142.539 166.324 142.508C158.782 142.413 143.226 142.408 130.498 143.649C128.761 143.818 127.41 145.465 127.347 147.48L126.159 168.874C126.071 171.704 128.005 174.068 130.452 174.124L166.478 174.916C168.883 174.965 170.857 172.723 170.857 169.937Z" fill="url(#paint37_linear)"/>
<path d="M166.49 150.205C166.521 152.088 166.473 155.076 166.434 157.006C166.413 158.01 165.651 158.775 164.789 158.658L158.581 157.816C157.754 157.704 157.172 156.823 157.295 155.87L158.057 149.991C158.165 149.156 158.785 148.538 159.515 148.538H165.016C165.818 148.538 166.472 149.278 166.49 150.205Z" fill="white"/>
<path opacity="0.37" d="M150.268 161.348L145.092 161.994C144.367 162.085 143.749 161.393 143.803 160.552L144.934 142.734C147.105 142.655 149.248 142.597 151.311 142.556V160.005C151.31 160.695 150.861 161.273 150.268 161.348Z" fill="white"/>
<path d="M148.145 158.26C148.13 158.58 147.9 158.827 147.626 158.827H147.595C147.308 158.808 147.089 158.523 147.106 158.191L147.887 142.64L148.931 142.612L148.145 158.26Z" fill="white"/>
<path d="M163.618 155.818C163.666 155.814 163.71 155.793 163.742 155.758C163.774 155.723 163.792 155.678 163.792 155.631L164.06 150.732C164.066 150.683 164.052 150.633 164.022 150.593C163.992 150.554 163.947 150.527 163.898 150.52C163.873 150.519 163.849 150.524 163.826 150.533C163.803 150.542 163.782 150.556 163.765 150.574C163.748 150.591 163.734 150.612 163.725 150.635C163.716 150.658 163.712 150.683 163.713 150.707L163.445 155.606C163.439 155.655 163.453 155.705 163.483 155.745C163.514 155.785 163.558 155.811 163.608 155.819L163.618 155.818Z" fill="url(#paint38_linear)"/>
<path d="M163.066 155.818C163.114 155.815 163.159 155.792 163.192 155.756C163.224 155.72 163.241 155.672 163.239 155.624L163.38 150.632C163.385 150.582 163.37 150.533 163.338 150.494C163.307 150.455 163.262 150.43 163.212 150.424C163.101 150.418 163.036 150.508 163.033 150.619L162.892 155.611C162.887 155.66 162.903 155.71 162.934 155.748C162.965 155.787 163.011 155.812 163.06 155.818H163.066Z" fill="url(#paint39_linear)"/>
<path d="M162.317 155.818C162.267 155.811 162.222 155.785 162.191 155.746C162.16 155.707 162.146 155.657 162.151 155.608C162.22 153.931 162.352 150.732 162.353 150.623C162.35 150.598 162.351 150.573 162.359 150.548C162.366 150.524 162.378 150.502 162.394 150.483C162.411 150.464 162.431 150.448 162.454 150.438C162.477 150.427 162.502 150.422 162.527 150.422C162.552 150.422 162.577 150.427 162.6 150.438C162.623 150.448 162.644 150.464 162.66 150.483C162.677 150.502 162.689 150.524 162.696 150.548C162.703 150.573 162.705 150.598 162.701 150.623C162.701 150.706 162.532 154.804 162.498 155.623C162.499 155.671 162.482 155.718 162.45 155.754C162.417 155.789 162.373 155.811 162.325 155.815L162.317 155.818Z" fill="url(#paint40_linear)"/>
<path d="M161.167 156.019C161.355 156.019 161.507 155.848 161.514 155.631C161.661 150.794 161.635 150.686 161.618 150.613C161.567 150.399 161.375 150.273 161.192 150.331C161.022 150.385 160.915 150.576 160.942 150.772C160.953 151.063 160.875 153.877 160.823 155.603C160.817 155.824 160.966 156.011 161.158 156.018L161.167 156.019Z" fill="url(#paint41_linear)"/>
<path d="M160.414 155.818C160.439 155.816 160.463 155.81 160.485 155.799C160.507 155.788 160.527 155.772 160.543 155.754C160.559 155.735 160.572 155.713 160.579 155.69C160.587 155.666 160.59 155.641 160.588 155.617V150.719C160.592 150.694 160.59 150.669 160.582 150.645C160.575 150.621 160.563 150.599 160.547 150.58C160.53 150.561 160.51 150.546 160.487 150.536C160.464 150.526 160.44 150.52 160.415 150.52C160.39 150.52 160.365 150.526 160.342 150.536C160.32 150.546 160.299 150.561 160.283 150.58C160.267 150.599 160.254 150.621 160.247 150.645C160.24 150.669 160.238 150.694 160.241 150.719V155.617C160.239 155.641 160.242 155.666 160.25 155.69C160.258 155.713 160.27 155.735 160.286 155.753C160.302 155.772 160.322 155.787 160.344 155.799C160.366 155.81 160.39 155.816 160.414 155.818V155.818Z" fill="url(#paint42_linear)"/>
<path d="M159.807 155.818C159.855 155.815 159.901 155.792 159.933 155.756C159.966 155.719 159.983 155.671 159.98 155.622C160.013 153.92 160.091 151.14 160.161 150.806C160.176 150.773 160.184 150.737 160.183 150.701C160.181 150.665 160.172 150.629 160.154 150.598C160.144 150.576 160.129 150.557 160.111 150.543C160.092 150.528 160.071 150.517 160.048 150.512C160.025 150.506 160.001 150.506 159.978 150.51C159.955 150.515 159.933 150.525 159.914 150.539C159.819 150.611 159.73 150.679 159.633 155.613C159.629 155.662 159.645 155.712 159.676 155.75C159.708 155.788 159.753 155.813 159.803 155.818H159.807Z" fill="url(#paint43_linear)"/>
<path d="M164.553 156.264C164.736 156.264 164.889 156.098 164.899 155.883L165.131 150.739C165.141 150.518 164.993 150.329 164.802 150.318C164.62 150.303 164.447 150.476 164.437 150.698L164.206 155.841C164.196 156.063 164.343 156.252 164.534 156.264H164.553Z" fill="url(#paint44_linear)"/>
</g>
<defs>
<linearGradient id="paint0_linear" x1="233.285" y1="225.801" x2="78.3539" y2="33.3383" gradientUnits="userSpaceOnUse">
<stop stop-color="#B37CFF"/>
<stop offset="1" stop-color="#F895E7"/>
</linearGradient>
<linearGradient id="paint1_linear" x1="-29863.3" y1="82025.8" x2="95371.1" y2="103911" gradientUnits="userSpaceOnUse">
<stop stop-color="#B37CFF"/>
<stop offset="1" stop-color="#F895E7"/>
</linearGradient>
<linearGradient id="paint2_linear" x1="148.903" y1="155.042" x2="90.8599" y2="-66.4229" gradientUnits="userSpaceOnUse">
<stop stop-color="#A737D5"/>
<stop offset="1" stop-color="#EF497A"/>
</linearGradient>
<linearGradient id="paint3_linear" x1="127.345" y1="105.902" x2="380.646" y2="279.74" gradientUnits="userSpaceOnUse">
<stop stop-color="#2B3582"/>
<stop offset="1" stop-color="#150E42"/>
</linearGradient>
<linearGradient id="paint4_linear" x1="136.244" y1="171.651" x2="29.0405" y2="-151.276" gradientUnits="userSpaceOnUse">
<stop stop-color="#53D8FF"/>
<stop offset="1" stop-color="#3840F7"/>
</linearGradient>
<linearGradient id="paint5_linear" x1="108.868" y1="-4.88502" x2="108.464" y2="19.8018" gradientUnits="userSpaceOnUse">
<stop stop-color="#8D55D1"/>
<stop offset="1" stop-color="#1C2873"/>
</linearGradient>
<linearGradient id="paint6_linear" x1="56550.5" y1="25510.1" x2="52616.8" y2="32467.8" gradientUnits="userSpaceOnUse">
<stop stop-color="#2B3582"/>
<stop offset="1" stop-color="#150E42"/>
</linearGradient>
<linearGradient id="paint7_linear" x1="105.417" y1="70.8661" x2="86.2663" y2="97.405" gradientUnits="userSpaceOnUse">
<stop stop-color="#F9B776"/>
<stop offset="1" stop-color="#F47960"/>
</linearGradient>
<linearGradient id="paint8_linear" x1="14843.2" y1="14040.1" x2="14261.3" y2="14040.1" gradientUnits="userSpaceOnUse">
<stop stop-color="#A737D5"/>
<stop offset="1" stop-color="#EF497A"/>
</linearGradient>
<linearGradient id="paint9_linear" x1="24082.9" y1="113732" x2="4706.4" y2="61486.5" gradientUnits="userSpaceOnUse">
<stop stop-color="#F9B776"/>
<stop offset="1" stop-color="#F47960"/>
</linearGradient>
<linearGradient id="paint10_linear" x1="28439" y1="20375.5" x2="26915.4" y2="20375.5" gradientUnits="userSpaceOnUse">
<stop stop-color="#A737D5"/>
<stop offset="1" stop-color="#EF497A"/>
</linearGradient>
<linearGradient id="paint11_linear" x1="48738.3" y1="110620" x2="39771.9" y2="54682" gradientUnits="userSpaceOnUse">
<stop stop-color="#F9B776"/>
<stop offset="1" stop-color="#F47960"/>
</linearGradient>
<linearGradient id="paint12_linear" x1="87.453" y1="92.9949" x2="83.1147" y2="133.253" gradientUnits="userSpaceOnUse">
<stop stop-color="#FDF53F"/>
<stop offset="1" stop-color="#D93C65"/>
</linearGradient>
<linearGradient id="paint13_linear" x1="-55031.4" y1="52077.2" x2="-68233.5" y2="65680.9" gradientUnits="userSpaceOnUse">
<stop stop-color="#FDF53F"/>
<stop offset="1" stop-color="#D93C65"/>
</linearGradient>
<linearGradient id="paint14_linear" x1="18453.4" y1="17405.7" x2="17947.2" y2="15319.2" gradientUnits="userSpaceOnUse">
<stop stop-color="#F9B776"/>
<stop offset="1" stop-color="#F47960"/>
</linearGradient>
<linearGradient id="paint15_linear" x1="30144.6" y1="40650.6" x2="28268.2" y2="40650.6" gradientUnits="userSpaceOnUse">
<stop stop-color="#F9B776"/>
<stop offset="1" stop-color="#F47960"/>
</linearGradient>
<linearGradient id="paint16_linear" x1="25508" y1="15494.7" x2="23557.8" y2="10955.7" gradientUnits="userSpaceOnUse">
<stop stop-color="#F9B776"/>
<stop offset="1" stop-color="#F47960"/>
</linearGradient>
<linearGradient id="paint17_linear" x1="31502.4" y1="13476.4" x2="29296.3" y2="16606.4" gradientUnits="userSpaceOnUse">
<stop stop-color="#2B3582"/>
<stop offset="1" stop-color="#150E42"/>
</linearGradient>
<linearGradient id="paint18_linear" x1="6411.8" y1="4723.28" x2="5722.84" y2="3431.08" gradientUnits="userSpaceOnUse">
<stop stop-color="#F9B776"/>
<stop offset="1" stop-color="#F47960"/>
</linearGradient>
<linearGradient id="paint19_linear" x1="-26807" y1="7100.06" x2="-24463.1" y2="11533.1" gradientUnits="userSpaceOnUse">
<stop stop-color="#F9B776"/>
<stop offset="1" stop-color="#F47960"/>
</linearGradient>
<linearGradient id="paint20_linear" x1="4440.34" y1="4869.64" x2="4640.54" y2="4869.64" gradientUnits="userSpaceOnUse">
<stop stop-color="#F9B776"/>
<stop offset="1" stop-color="#F47960"/>
</linearGradient>
<linearGradient id="paint21_linear" x1="180179" y1="82357.3" x2="64860.5" y2="210617" gradientUnits="userSpaceOnUse">
<stop stop-color="#FDF53F"/>
<stop offset="1" stop-color="#D93C65"/>
</linearGradient>
<linearGradient id="paint22_linear" x1="1778.66" y1="16927" x2="2669.11" y2="17101" gradientUnits="userSpaceOnUse">
<stop stop-color="#2B3582"/>
<stop offset="1" stop-color="#150E42"/>
</linearGradient>
<linearGradient id="paint23_linear" x1="1385.52" y1="17281.8" x2="2101.73" y2="17390.7" gradientUnits="userSpaceOnUse">
<stop stop-color="#2B3582"/>
<stop offset="1" stop-color="#150E42"/>
</linearGradient>
<linearGradient id="paint24_linear" x1="1559.87" y1="17320.4" x2="2361.35" y2="17457.9" gradientUnits="userSpaceOnUse">
<stop stop-color="#2B3582"/>
<stop offset="1" stop-color="#150E42"/>
</linearGradient>
<linearGradient id="paint25_linear" x1="2313.1" y1="18452.4" x2="3465.06" y2="18727.9" gradientUnits="userSpaceOnUse">
<stop stop-color="#2B3582"/>
<stop offset="1" stop-color="#150E42"/>
</linearGradient>
<linearGradient id="paint26_linear" x1="939.485" y1="17271.9" x2="1454.99" y2="17328.6" gradientUnits="userSpaceOnUse">
<stop stop-color="#2B3582"/>
<stop offset="1" stop-color="#150E42"/>
</linearGradient>
<linearGradient id="paint27_linear" x1="1521.73" y1="17317.8" x2="2322.02" y2="17457" gradientUnits="userSpaceOnUse">
<stop stop-color="#2B3582"/>
<stop offset="1" stop-color="#150E42"/>
</linearGradient>
<linearGradient id="paint28_linear" x1="2739.02" y1="18890.1" x2="4040.57" y2="19231" gradientUnits="userSpaceOnUse">
<stop stop-color="#2B3582"/>
<stop offset="1" stop-color="#150E42"/>
</linearGradient>
<linearGradient id="paint29_linear" x1="116271" y1="43936.5" x2="59395.1" y2="107195" gradientUnits="userSpaceOnUse">
<stop stop-color="#FDF53F"/>
<stop offset="1" stop-color="#D93C65"/>
</linearGradient>
<linearGradient id="paint30_linear" x1="1218.45" y1="8918.84" x2="1658.49" y2="9005" gradientUnits="userSpaceOnUse">
<stop stop-color="#2B3582"/>
<stop offset="1" stop-color="#150E42"/>
</linearGradient>
<linearGradient id="paint31_linear" x1="943.609" y1="9103.99" x2="1296.87" y2="9157.74" gradientUnits="userSpaceOnUse">
<stop stop-color="#2B3582"/>
<stop offset="1" stop-color="#150E42"/>
</linearGradient>
<linearGradient id="paint32_linear" x1="1067.77" y1="9120.41" x2="1463.14" y2="9188.27" gradientUnits="userSpaceOnUse">
<stop stop-color="#2B3582"/>
<stop offset="1" stop-color="#150E42"/>
</linearGradient>
<linearGradient id="paint33_linear" x1="1600.57" y1="9707.39" x2="2168.84" y2="9843.44" gradientUnits="userSpaceOnUse">
<stop stop-color="#2B3582"/>
<stop offset="1" stop-color="#150E42"/>
</linearGradient>
<linearGradient id="paint34_linear" x1="636.835" y1="9071.73" x2="890.588" y2="9099.66" gradientUnits="userSpaceOnUse">
<stop stop-color="#2B3582"/>
<stop offset="1" stop-color="#150E42"/>
</linearGradient>
<linearGradient id="paint35_linear" x1="1050.63" y1="9114.8" x2="1445.77" y2="9183.57" gradientUnits="userSpaceOnUse">
<stop stop-color="#2B3582"/>
<stop offset="1" stop-color="#150E42"/>
</linearGradient>
<linearGradient id="paint36_linear" x1="1879.56" y1="9951.89" x2="2521.45" y2="10120" gradientUnits="userSpaceOnUse">
<stop stop-color="#2B3582"/>
<stop offset="1" stop-color="#150E42"/>
</linearGradient>
<linearGradient id="paint37_linear" x1="77770" y1="69160.2" x2="26215.5" y2="118714" gradientUnits="userSpaceOnUse">
<stop stop-color="#FDF53F"/>
<stop offset="1" stop-color="#D93C65"/>
</linearGradient>
<linearGradient id="paint38_linear" x1="776.234" y1="12836.4" x2="1161.27" y2="12901.7" gradientUnits="userSpaceOnUse">
<stop stop-color="#2B3582"/>
<stop offset="1" stop-color="#150E42"/>
</linearGradient>
<linearGradient id="paint39_linear" x1="602.818" y1="13092.9" x2="910.606" y2="13133.5" gradientUnits="userSpaceOnUse">
<stop stop-color="#2B3582"/>
<stop offset="1" stop-color="#150E42"/>
</linearGradient>
<linearGradient id="paint40_linear" x1="682.968" y1="13129.4" x2="1028.96" y2="13180.9" gradientUnits="userSpaceOnUse">
<stop stop-color="#2B3582"/>
<stop offset="1" stop-color="#150E42"/>
</linearGradient>
<linearGradient id="paint41_linear" x1="1012.6" y1="13927" x2="1506.22" y2="14028.7" gradientUnits="userSpaceOnUse">
<stop stop-color="#2B3582"/>
<stop offset="1" stop-color="#150E42"/>
</linearGradient>
<linearGradient id="paint42_linear" x1="409.752" y1="12987.9" x2="630.87" y2="13009.1" gradientUnits="userSpaceOnUse">
<stop stop-color="#2B3582"/>
<stop offset="1" stop-color="#150E42"/>
</linearGradient>
<linearGradient id="paint43_linear" x1="668.045" y1="13043.2" x2="1012.24" y2="13095" gradientUnits="userSpaceOnUse">
<stop stop-color="#2B3582"/>
<stop offset="1" stop-color="#150E42"/>
</linearGradient>
<linearGradient id="paint44_linear" x1="1195.44" y1="14346.8" x2="1757.85" y2="14474.1" gradientUnits="userSpaceOnUse">
<stop stop-color="#2B3582"/>
<stop offset="1" stop-color="#150E42"/>
</linearGradient>
<clipPath id="clip0">
<rect width="250" height="175" fill="white"/>
</clipPath>
</defs>
</svg>
