<svg width="1665" height="900" viewBox="0 0 1665 900" fill="none" xmlns="http://www.w3.org/2000/svg">
<rect width="1665" height="900" fill="#F3FFFB"/>
<circle cx="1355.5" cy="-58.5" r="309.5" fill="#28FEB7"/>
<circle cx="1286" cy="-45" r="378.5" stroke="#28FEB7"/>
<circle r="49.5" transform="matrix(1 0 0 -1 596.5 271.5)" fill="#728EB5" fill-opacity="0.86"/>
<circle r="14.5" transform="matrix(1 0 0 -1 1087.5 278.5)" fill="#112E57" fill-opacity="0.86"/>
<circle cx="162.5" cy="855.5" r="309.5" fill="#001449" fill-opacity="0.14"/>
<circle cx="119.5" cy="70.5" r="31.5" fill="#00C894"/>
<circle r="15" transform="matrix(1 0 0 -1 1020 837)" fill="#13DAA6"/>
<circle r="49.5" transform="matrix(-0.991651 -0.128949 -0.128949 0.991651 1157.47 513.47)" fill="#CFE3FF" fill-opacity="0.86"/>
<circle r="24" transform="matrix(1 0 0 -1 1475 414)" fill="#001449" fill-opacity="0.7"/>
<circle cx="1399.3" cy="857.299" r="31.5" transform="rotate(-172.591 1399.3 857.299)" fill="#00C894"/>
<circle cx="162.5" cy="855.5" r="420" stroke="#D1DEE2"/>
<circle r="8" transform="matrix(-0.991651 -0.128949 -0.128949 0.991651 634.956 22.5236)" fill="#00C894"/>
<circle r="24" transform="matrix(-0.991651 -0.128949 -0.128949 0.991651 102.894 440.894)" fill="#366DFF" fill-opacity="0.49"/>
</svg>
