<svg width="250" height="175" viewBox="0 0 250 175" fill="none" xmlns="http://www.w3.org/2000/svg">
<g clip-path="url(#clip0)">
<path opacity="0.1" d="M21.4236 173.913H240.039C258.159 158.749 248.833 113.12 233.703 103.87C217.412 93.9124 243.282 59.4765 218.185 48.3003C201.799 41.0028 175.738 48.957 179.243 29.4318C184.099 2.35299 127.283 -4.5833 85.4223 2.7141C40.1677 10.6047 81.4953 49.4009 31.7272 57.2145C6.13621 61.2339 11.0816 95.6236 13.468 102.726C15.55 108.913 29.2958 118.735 10.187 132.249C-17.8335 152.071 20.7632 173.544 21.4236 173.913Z" fill="#9BC1F9"/>
<path d="M215.611 58.0942C215.611 58.0942 212.032 65.9097 209.624 69.2117C207.215 72.5138 204.92 75.6704 203 84.8341C201.081 93.9977 201.409 94.9183 200.883 97.2853C200.357 99.6523 196.934 109.242 196.915 111C196.895 112.758 189.997 122.768 188.23 127.454C186.463 132.14 183.335 138.832 183.509 142.239L184.296 142.038C184.296 142.038 184.937 134.094 190.389 126.065C195.841 118.035 195.062 116.52 201.253 112.39C207.445 108.261 211.444 96.8751 211.444 96.8751C211.444 96.8751 217.743 84.4989 217.45 78.0644C217.157 71.6298 218.828 65.8298 215.611 58.0942Z" fill="#256653"/>
<path d="M207.23 46.0725C207.23 46.0725 207.021 51.2071 205.37 54.2578C203.719 57.3085 202.298 59.1603 201.998 62.4604C201.698 65.7605 200.661 74.2674 196.058 78.4206C191.455 82.5739 190.867 95.0194 187.362 98.7836C183.858 102.548 183.401 105.255 184.048 111.712C184.695 118.168 186.893 127.112 181.806 138.795L180.654 135.89C180.654 135.89 184.29 126.281 183.41 120.655C182.529 115.028 179.465 106.527 180.587 102.454C181.71 98.3821 177.539 97.5809 180.05 91.414C182.561 85.2472 181.529 83.1045 184.945 77.7726C184.945 77.7726 185.296 77.5232 186.193 73.0116C187.091 68.5001 194.336 60.232 197.674 57.4115C201.011 54.591 205.834 50.0621 207.23 46.0725Z" fill="#256653"/>
<path d="M193.633 71.4939C193.633 71.4939 189.635 78.3599 189.578 82.779C189.521 87.198 189.997 90.7938 187.975 96.8451C185.952 102.896 189.965 106.723 188.813 110.068C187.661 113.412 187.565 117.365 187.602 120.365C187.638 123.364 183.023 133.294 182.322 138.32C181.621 143.347 182.514 143.364 182.514 143.364C182.514 143.364 183.282 136.728 184.338 134.533C185.394 132.338 188.628 124.771 189.382 121.844C190.137 118.916 192.18 117.038 193.944 112.08C195.707 107.123 198.22 102.942 198.028 95.912C197.836 88.8823 200.655 81.4481 193.633 71.4939Z" fill="#3C8F7C"/>
<path d="M185.165 138.755C185.165 138.755 187.03 130.041 194.891 129.17C202.752 128.3 207.37 129.86 212.924 123.494C218.478 117.127 221.703 107.027 223.477 105.285C223.477 105.285 220.686 103.84 216.047 108.195C211.408 112.549 208.15 115.847 205.464 118.379C202.778 120.912 200.598 119.261 197.763 120.931C195.386 122.33 192.314 126.376 190.96 128.494C190.522 129.183 189.998 129.813 189.4 130.368C188.856 130.873 188.207 131.491 187.791 131.946C186.958 132.856 184.558 138.783 184.558 138.783L185.165 138.755Z" fill="#3C8F7C"/>
<path d="M182.397 137.218C182.397 137.218 185.168 126.561 183.312 121.345C181.457 116.13 175.647 112.271 175.881 108.995C176.114 105.719 179.844 96.8616 176.803 90.2729C176.803 90.2729 175.651 96.1529 174.508 97.4606C173.365 98.7683 165.544 104.043 166.931 111.011C168.318 117.978 175.924 119.605 177.796 121.656C179.669 123.707 182.198 123.704 182.212 125.068C182.226 126.432 182.722 131.39 181.882 136.283L182.397 137.218Z" fill="#3C8F7C"/>
<path d="M185.427 130.085L189.32 118.838C189.32 118.838 191.605 109.791 192.931 102.247C194.256 94.7035 193.632 71.4939 193.632 71.4939C193.632 71.4939 189.634 78.3599 189.578 82.779C189.521 87.1981 189.997 90.7938 187.975 96.8451C185.952 102.896 189.965 106.723 188.813 110.068C187.661 113.412 187.565 117.365 187.601 120.365C187.638 123.364 183.023 133.294 182.322 138.32C181.938 141.074 182.034 142.323 182.198 142.891C181.568 138.491 185.427 130.085 185.427 130.085Z" fill="#327F6B"/>
<path d="M204.599 123.385C201.127 124.081 198.023 123.844 193.901 126.921C189.779 129.999 187.355 133.286 187.355 133.286C187.355 133.286 185.502 136.607 184.737 138.359C184.626 138.626 184.561 138.786 184.561 138.786L185.169 138.754C185.169 138.754 187.034 130.041 194.894 129.17C202.755 128.299 207.373 129.859 212.927 123.493C218.481 117.127 221.706 107.026 223.48 105.284C223.48 105.284 217.573 109.894 213.923 113.974C210.274 118.054 208.071 122.689 204.599 123.385Z" fill="#327F6B"/>
<path d="M174.51 97.4605C173.37 98.7692 165.547 104.043 166.934 111.01C168.321 117.978 175.926 119.605 177.799 121.656C179.672 123.707 182.2 123.704 182.215 125.068C182.229 126.431 182.724 131.39 181.884 136.283L182.108 136.691C182.519 134.781 183.088 131.876 183.274 129.661C183.577 126.076 182.997 124.591 181.849 121.687C180.701 118.783 173.561 112.865 171.77 109.755C169.979 106.644 175.22 101.444 176.377 98.9338C177.535 96.4234 176.797 90.2671 176.797 90.2671C176.797 90.2671 175.648 96.1528 174.51 97.4605Z" fill="#327F6B"/>
<path d="M193.066 132.069L194.285 129.106C195.232 126.927 197.659 125.887 199.703 126.782C204.856 129.038 207.095 135.319 204.707 140.811L202.96 144.825C202.193 146.584 202.461 148.519 203.493 149.883C204.431 151.122 204.584 152.845 203.934 154.338L203.013 156.457C202.529 157.572 201.81 158.568 200.906 159.377C200.002 160.186 198.934 160.79 197.775 161.146C197.072 161.365 196.424 161.735 195.877 162.23C195.33 162.725 194.897 163.333 194.607 164.012L193.303 167.009C191.863 170.322 188.172 171.904 185.064 170.543L183.29 169.766C180.181 168.405 178.829 164.615 180.271 161.302C182.602 157.34 182.417 154.384 181.59 152.378C180.983 150.89 180.68 149.294 180.699 147.686C180.718 146.078 181.06 144.49 181.703 143.017L181.888 142.593C182.561 141.041 183.557 139.651 184.807 138.516C186.058 137.38 187.536 136.525 189.143 136.007C190.559 135.556 192.027 134.457 193.066 132.069Z" fill="#50BFA5"/>
<path d="M171.062 173.913C173.563 170.66 187.275 153.236 196.216 150.331C206.085 147.123 196.78 159.853 196.78 159.853C196.78 159.853 214.287 140.648 220.712 142.379C226.602 143.966 220.712 155.87 220.712 155.87C220.712 155.87 227.345 149.278 235.39 149.278C243.218 149.278 229.918 172.657 229.202 173.909L171.062 173.913Z" fill="#96D9C9"/>
<path d="M223.826 136.214C216.613 147.522 211.416 160.002 208.467 173.096L207.978 172.964C210.954 159.986 216.128 147.617 223.274 136.393C224.933 133.793 226.729 130.705 229.834 129.69C229.893 129.671 229.916 129.762 229.859 129.786C227.022 130.856 225.378 133.782 223.826 136.214Z" fill="#3C8F7C"/>
<path d="M210.191 173.563C218.459 162.277 228.317 152.256 239.458 143.814C239.573 143.726 239.729 143.929 239.613 144.018C228.633 152.48 218.927 162.485 210.795 173.726L210.191 173.563Z" fill="#3C8F7C"/>
<path d="M224.479 129.265C224.664 129.536 225.368 130.245 225.576 131.175C225.853 132.058 225.634 133.164 225.61 133.125C225.557 133.147 226.426 132.411 226.698 131.239C227.049 130.114 226.802 128.555 226.366 128.039C225.611 126.871 224.292 126.752 224.036 127.318C223.764 127.883 224.109 128.646 224.479 129.265Z" fill="#3C8F7C"/>
<path d="M226.19 139.268C225.923 139.075 225.231 138.357 224.307 138.131C223.433 137.835 222.326 138.034 222.364 138.057C222.341 138.11 223.093 137.253 224.267 137.005C225.394 136.675 226.943 136.952 227.449 137.401C228.601 138.181 228.69 139.506 228.121 139.751C227.554 140.016 226.799 139.652 226.19 139.268Z" fill="#3C8F7C"/>
<path d="M223.607 143.652C223.341 143.46 222.648 142.741 221.724 142.516C220.85 142.219 219.744 142.42 219.782 142.442C219.759 142.495 220.511 141.638 221.684 141.389C222.811 141.059 224.36 141.336 224.867 141.785C226.019 142.565 226.108 143.89 225.539 144.136C224.972 144.398 224.216 144.037 223.607 143.652Z" fill="#3C8F7C"/>
<path d="M232.82 153.822C232.552 153.63 231.86 152.911 230.936 152.686C230.062 152.389 228.956 152.59 228.994 152.612C228.971 152.665 229.722 151.808 230.896 151.559C232.023 151.229 233.572 151.506 234.078 151.955C235.23 152.735 235.319 154.06 234.75 154.306C234.184 154.568 233.428 154.207 232.82 153.822Z" fill="#3C8F7C"/>
<path d="M237.526 149.663C237.258 149.471 236.566 148.752 235.643 148.526C234.768 148.229 233.661 148.43 233.7 148.453C233.677 148.506 234.428 147.649 235.601 147.399C236.729 147.07 238.278 147.347 238.784 147.795C239.936 148.575 240.025 149.9 239.456 150.147C238.89 150.408 238.134 150.046 237.526 149.663Z" fill="#3C8F7C"/>
<path d="M220.865 134.226C221.09 134.465 221.897 135.053 222.248 135.94C222.662 136.767 222.619 137.894 222.589 137.859C222.54 137.89 223.282 137.024 223.366 135.825C223.536 134.658 223.049 133.158 222.535 132.717C221.607 131.683 220.286 131.774 220.122 132.374C219.942 132.973 220.402 133.674 220.865 134.226Z" fill="#3C8F7C"/>
<path d="M217.068 139.197C217.387 139.368 218.508 139.679 219.065 140.515C219.701 141.26 219.782 142.537 219.737 142.51C219.677 142.565 220.533 141.279 220.496 139.903C220.575 138.529 219.761 137.064 219.044 136.794C217.717 136.04 216.018 136.712 215.876 137.453C215.721 138.198 216.402 138.781 217.068 139.197Z" fill="#3C8F7C"/>
<path d="M213.071 146.729C213.414 146.843 214.567 146.958 215.261 147.692C216.013 148.32 216.306 149.564 216.261 149.546C216.211 149.609 216.836 148.197 216.572 146.849C216.419 145.481 215.372 144.174 214.619 144.028C213.179 143.51 211.622 144.458 211.609 145.211C211.575 145.97 212.345 146.431 213.071 146.729Z" fill="#3C8F7C"/>
<path d="M224.899 151.975C225.148 152.132 226.039 152.446 226.449 153.161C226.923 153.803 226.916 154.846 226.884 154.822C226.832 154.863 227.601 153.867 227.652 152.746C227.794 151.631 227.216 150.394 226.648 150.132C225.61 149.444 224.19 149.893 224.035 150.487C223.859 151.084 224.38 151.599 224.899 151.975Z" fill="#3C8F7C"/>
<path d="M231.055 131.028C230.906 130.904 230.528 130.45 229.992 130.272C229.487 130.058 228.824 130.128 228.846 130.144C228.829 130.174 229.311 129.7 230.017 129.604C230.697 129.458 231.602 129.69 231.882 129.978C232.528 130.49 232.524 131.277 232.177 131.398C231.829 131.518 231.399 131.281 231.055 131.028Z" fill="#3C8F7C"/>
<path d="M229.621 127.827C229.628 128.019 229.759 128.597 229.568 129.133C229.429 129.665 228.969 130.149 228.97 130.123C228.937 130.118 229.605 130.027 230.111 129.522C230.642 129.07 231.011 128.209 230.955 127.811C230.945 126.986 230.321 126.507 230.014 126.711C229.707 126.914 229.631 127.401 229.621 127.827Z" fill="#3C8F7C"/>
<path d="M240.914 145.426C240.765 145.303 240.386 144.848 239.851 144.671C239.346 144.457 238.683 144.527 238.705 144.542C238.688 144.573 239.17 144.099 239.876 144.003C240.556 143.858 241.461 144.09 241.741 144.377C242.387 144.889 242.383 145.677 242.035 145.797C241.688 145.917 241.258 145.68 240.914 145.426Z" fill="#3C8F7C"/>
<path d="M239.185 142.198C239.207 142.391 239.384 142.959 239.238 143.505C239.142 144.046 238.725 144.564 238.723 144.54C238.689 144.54 239.347 144.389 239.81 143.848C240.303 143.353 240.6 142.466 240.512 142.074C240.434 141.252 239.774 140.822 239.484 141.053C239.194 141.284 239.159 141.772 239.185 142.198Z" fill="#3C8F7C"/>
<path d="M237.981 163.058C230.676 163.862 223.871 167.096 217.325 170.25C212.909 172.377 213.132 172.983 212.232 173.3C212.198 173.311 212.162 173.312 212.128 173.302C212.094 173.293 212.064 173.274 212.041 173.248C212.017 173.221 212.002 173.189 211.997 173.154C211.992 173.119 211.997 173.083 212.012 173.051C212.358 172.364 213.265 171.896 213.896 171.503C214.634 171.045 215.396 170.627 216.178 170.251C217.844 169.439 219.555 168.71 221.254 167.969C224.71 166.462 228.224 165.044 231.875 164.085C233.875 163.552 235.916 163.187 237.976 162.994C238.015 162.994 238.019 163.049 237.976 163.054L237.981 163.058Z" fill="#3C8F7C"/>
<path d="M231.397 160.786C231.445 161.087 231.757 161.96 231.565 162.821C231.451 163.672 230.832 164.511 230.827 164.47C230.774 164.47 231.787 164.194 232.48 163.314C233.217 162.511 233.624 161.107 233.461 160.502C233.287 159.224 232.229 158.603 231.792 158.976C231.355 159.35 231.33 160.121 231.397 160.786Z" fill="#3C8F7C"/>
<path d="M224.963 163.097C225.01 163.398 225.323 164.27 225.13 165.133C225.016 165.983 224.397 166.823 224.393 166.781C224.339 166.781 225.357 166.504 226.046 165.625C226.782 164.822 227.189 163.417 227.026 162.811C226.853 161.534 225.794 160.912 225.356 161.286C224.919 161.66 224.896 162.433 224.963 163.097Z" fill="#3C8F7C"/>
<path d="M218.425 166.021C218.472 166.322 218.784 167.194 218.592 168.057C218.477 168.907 217.858 169.747 217.854 169.705C217.801 169.705 218.818 169.428 219.507 168.549C220.244 167.746 220.651 166.341 220.487 165.735C220.314 164.458 219.255 163.836 218.818 164.21C218.381 164.583 218.356 165.357 218.425 166.021Z" fill="#3C8F7C"/>
<path d="M233.319 166.818C233.186 166.569 232.935 165.752 232.309 165.224C231.752 164.661 230.829 164.389 230.849 164.422C230.811 164.453 231.713 164.086 232.707 164.345C233.697 164.524 234.779 165.331 234.995 165.869C235.578 166.907 235.144 167.958 234.611 167.928C234.078 167.898 233.64 167.344 233.319 166.818Z" fill="#3C8F7C"/>
<path d="M226.625 169.194C226.493 168.946 226.241 168.128 225.615 167.601C225.059 167.037 224.135 166.766 224.155 166.798C224.118 166.83 225.019 166.462 226.014 166.721C227.003 166.9 228.085 167.707 228.302 168.246C228.885 169.284 228.45 170.334 227.918 170.305C227.386 170.275 226.945 169.721 226.625 169.194Z" fill="#3C8F7C"/>
<path d="M238.416 164.371C238.301 164.232 238.032 163.753 237.572 163.504C237.148 163.224 236.533 163.176 236.55 163.194C236.531 163.219 237.048 162.869 237.706 162.899C238.351 162.881 239.137 163.244 239.344 163.553C239.847 164.131 239.712 164.846 239.376 164.897C239.04 164.948 238.686 164.66 238.416 164.371Z" fill="#3C8F7C"/>
<path d="M237.643 161.214C237.617 161.392 237.643 161.942 237.376 162.396C237.161 162.856 236.662 163.221 236.667 163.196C236.637 163.185 237.262 163.212 237.806 162.84C238.366 162.517 238.846 161.796 238.862 161.424C238.991 160.67 238.502 160.129 238.19 160.263C237.878 160.396 237.723 160.826 237.643 161.214Z" fill="#3C8F7C"/>
<path d="M49.5238 118.253C40.9413 110.575 36.5286 99.5499 34.3371 91.6516C31.9595 83.0812 31.6129 76.2354 31.6091 76.1671L31.1426 76.1382C31.1426 76.2075 31.4939 83.1005 33.8869 91.7316C36.0947 99.7069 40.5573 110.846 49.2454 118.618L49.5238 118.253Z" fill="#3C8F7C"/>
<path d="M32.5866 74.1867C33.0089 76.1608 32.6557 78.0261 31.7534 79.3723C30.3394 78.3275 29.2269 76.6548 28.8036 74.6807C28.3803 72.7066 28.7354 70.8414 29.6368 69.4951C31.0517 70.539 32.1633 72.2126 32.5866 74.1867Z" fill="#3C8F7C"/>
<path d="M29.9537 79.8084C31.433 81.1883 32.2969 83.0016 32.4648 84.7465C30.8417 84.8207 29.0553 84.1601 27.577 82.7801C26.0988 81.4002 25.2339 79.5869 25.0659 77.8411C26.6853 77.7669 28.4755 78.4285 29.9537 79.8084Z" fill="#3C8F7C"/>
<path d="M29.2607 85.7141C31.0496 86.2847 32.5616 87.5049 33.5006 89.1356C32.1673 89.9955 30.3809 90.242 28.5427 89.6642C26.7548 89.0925 25.244 87.8721 24.3057 86.2418C25.6361 85.3829 27.4225 85.1354 29.2607 85.7141Z" fill="#3C8F7C"/>
<path d="M32.0907 92.8191C33.5459 93.2804 34.7102 94.4561 35.3697 95.9458C34.2658 96.876 32.8202 97.2285 31.365 96.7682C29.9098 96.3079 28.7454 95.1312 28.0859 93.6415C29.1898 92.7113 30.6345 92.3588 32.0907 92.8191Z" fill="#3C8F7C"/>
<path d="M34.5754 82.6788C35.1065 82.1337 35.7538 81.7163 36.4686 81.4579C37.1835 81.1996 37.9474 81.107 38.703 81.1872C38.7499 81.9757 38.6318 82.7654 38.3562 83.5054C38.0806 84.2454 37.6537 84.9194 37.1028 85.4839C36.5716 86.0288 35.9243 86.446 35.2095 86.7043C34.4947 86.9626 33.7309 87.0554 32.9753 86.9756C32.9285 86.187 33.0468 85.3974 33.3223 84.6574C33.5979 83.9174 34.0248 83.2434 34.5754 82.6788Z" fill="#3C8F7C"/>
<path d="M35.9003 87.7711C36.4314 87.226 37.0786 86.8085 37.7935 86.55C38.5083 86.2915 39.2722 86.1987 40.0279 86.2785C40.0747 87.0671 39.9566 87.8567 39.681 88.5967C39.4054 89.3368 38.9785 90.0107 38.4277 90.5753C37.8965 91.1204 37.2493 91.5378 36.5345 91.7963C35.8197 92.0548 35.0558 92.1476 34.3001 92.0679C34.2531 91.2793 34.3711 90.4896 34.6467 89.7496C34.9223 89.0095 35.3493 88.3356 35.9003 87.7711V87.7711Z" fill="#3C8F7C"/>
<path d="M44.3474 128.669C36.4215 127.513 29.6388 122.794 25.3414 119.051C20.6791 114.984 17.8608 111.14 17.833 111.101L17.5508 111.264C17.5786 111.302 20.418 115.175 25.11 119.271C29.4459 123.056 36.2986 127.814 44.3234 128.988L44.3474 128.669Z" fill="#50BFA5"/>
<path d="M17.6487 109.571C18.6499 110.555 19.1567 111.776 19.148 112.906C17.9261 112.843 16.6398 112.298 15.6386 111.314C14.6375 110.33 14.1306 109.109 14.1393 107.978C15.4623 108.067 16.7086 108.633 17.6487 109.571Z" fill="#50BFA5"/>
<path d="M18.2692 113.852C19.6562 114.086 20.8523 114.806 21.6173 115.756C20.7025 116.425 19.4095 116.728 18.0234 116.495C16.6373 116.262 15.4403 115.541 14.6753 114.59C15.5901 113.92 16.8812 113.618 18.2692 113.852Z" fill="#50BFA5"/>
<path d="M20.1244 117.552C21.3821 117.196 22.7271 117.324 23.8958 117.91C23.4495 118.923 22.5059 119.754 21.2158 120.125C19.958 120.481 18.6131 120.353 17.4443 119.767C17.8907 118.755 18.8352 117.924 20.1244 117.552Z" fill="#50BFA5"/>
<path d="M24.487 120.593C25.5093 120.304 26.6372 120.537 27.5894 121.148C27.4554 121.63 27.1994 122.07 26.8462 122.424C26.4931 122.779 26.0547 123.035 25.5736 123.17C24.5513 123.459 23.4244 123.226 22.4722 122.615C22.6061 122.133 22.862 121.693 23.215 121.339C23.5679 120.984 24.0061 120.728 24.487 120.593Z" fill="#50BFA5"/>
<path d="M22.0537 113.742C22.1537 113.22 22.3704 112.728 22.6875 112.302C23.0046 111.876 23.4138 111.528 23.8842 111.284C24.2132 111.724 24.4466 112.229 24.5694 112.765C24.6923 113.301 24.7018 113.857 24.5975 114.397C24.4973 114.919 24.2805 115.411 23.9635 115.837C23.6464 116.263 23.2373 116.611 22.7669 116.855C22.438 116.415 22.2046 115.91 22.0817 115.374C21.9589 114.838 21.9493 114.282 22.0537 113.742V113.742Z" fill="#50BFA5"/>
<path d="M24.7729 116.19C24.8732 115.669 25.0901 115.176 25.4071 114.751C25.7241 114.325 26.1331 113.977 26.6034 113.732C26.932 114.173 27.1653 114.677 27.2881 115.213C27.4109 115.75 27.4206 116.306 27.3166 116.846C27.2164 117.368 26.9997 117.86 26.6826 118.286C26.3656 118.711 25.9565 119.059 25.4861 119.304C25.1572 118.863 24.9238 118.359 24.801 117.823C24.6782 117.287 24.6686 116.731 24.7729 116.19V116.19Z" fill="#50BFA5"/>
<path d="M49.1239 152.466C39.9808 155.949 29.9172 154.109 23.0846 151.953C15.6664 149.612 10.3476 146.404 10.2948 146.368L10.0923 146.753C10.1451 146.786 15.5033 150.02 22.9694 152.377C29.8692 154.555 40.0374 156.412 49.2928 152.886L49.1239 152.466Z" fill="#96D9C9"/>
<path d="M9.16993 144.508C10.7622 145.125 12.0546 146.336 12.7763 147.887C11.4324 148.574 9.7382 148.677 8.07852 148.031C6.48628 147.414 5.19381 146.203 4.47217 144.652C5.81123 143.964 7.51026 143.862 9.16993 144.508Z" fill="#96D9C9"/>
<path d="M12.4085 149.666C13.1763 149.394 13.9923 149.286 14.8043 149.348C15.6162 149.411 16.4062 149.643 17.1236 150.029C16.8218 150.777 16.3634 151.451 15.7795 152.006C15.1956 152.56 14.4997 152.983 13.739 153.244C12.9711 153.517 12.1549 153.626 11.3428 153.563C10.5307 153.501 9.74051 153.269 9.02295 152.882C9.32502 152.135 9.78357 151.46 10.3676 150.906C10.9517 150.351 11.6477 149.928 12.4085 149.666V149.666Z" fill="#96D9C9"/>
<path d="M16.615 153.295C17.7668 152.002 19.3219 151.358 20.8491 151.387C20.9172 152.21 20.8175 153.039 20.5561 153.822C20.2947 154.605 19.877 155.327 19.3286 155.943C18.1767 157.235 16.6217 157.879 15.0945 157.85C15.0264 157.027 15.1262 156.199 15.3876 155.416C15.649 154.632 16.0666 153.911 16.615 153.295V153.295Z" fill="#96D9C9"/>
<path d="M22.5005 155.168C23.6524 153.877 25.2074 153.232 26.7346 153.261C26.8026 154.084 26.7029 154.913 26.4415 155.696C26.1801 156.479 25.7625 157.201 25.2141 157.817C24.0622 159.108 22.5062 159.753 20.979 159.725C20.9114 158.901 21.0114 158.073 21.2729 157.289C21.5345 156.506 21.9521 155.784 22.5005 155.168V155.168Z" fill="#96D9C9"/>
<path d="M16.9637 149.115C15.951 147.793 15.4998 146.199 15.6073 144.754C16.9406 144.91 18.3037 145.687 19.3154 147.009C20.3272 148.331 20.7793 149.925 20.6718 151.371C19.3385 151.215 17.9754 150.437 16.9637 149.115Z" fill="#96D9C9"/>
<path d="M23.0769 151.034C22.045 149.728 21.5699 148.14 21.6534 146.689C22.9857 146.822 24.3584 147.576 25.3903 148.883C26.4222 150.19 26.8973 151.779 26.8129 153.229C25.4805 153.096 24.1079 152.342 23.0769 151.034Z" fill="#96D9C9"/>
<path d="M30.2369 155.681C30.359 155.359 30.5519 155.07 30.8012 154.833C31.0505 154.597 31.3498 154.42 31.6767 154.316C31.8319 154.639 31.9194 154.99 31.9339 155.348C31.9485 155.706 31.8897 156.063 31.7612 156.397C31.6391 156.719 31.4462 157.009 31.1969 157.245C30.9476 157.481 30.6483 157.658 30.3214 157.762C30.1662 157.439 30.0787 157.088 30.0642 156.73C30.0496 156.372 30.1084 156.015 30.2369 155.681V155.681Z" fill="#96D9C9"/>
<path d="M68.7463 173.239C68.7463 173.239 80.3947 127.016 76.5321 122.377C71.1931 115.958 66.79 137.249 66.3571 135.44C62.2766 118.363 61.1899 96.5121 48.023 94.2C40.5405 92.8845 49.7508 110.448 49.1979 115.199C48.645 119.949 35.1622 104.177 26.9675 95.9121C18.7728 87.6469 14.5415 92.8807 19.7192 103.27C24.7261 113.317 40.9226 124.296 37.584 125.599C34.2455 126.902 13.9761 113.929 11.4948 119.476C8.45095 126.277 38.852 135.531 35.9915 137.059C33.131 138.587 18.5981 133.555 18.9945 138.755C19.391 143.955 38.926 143.762 38.5919 146.049C38.0515 149.753 25.1312 141.369 24.5639 146.494C23.9831 151.736 41.5609 150.779 41.2566 154.872C41.0809 157.221 37.3095 153.677 36.7537 156.932C35.4866 164.352 58.6587 173.391 58.6587 173.391L68.7463 173.239Z" fill="#3C8F7C"/>
<path d="M77.6287 173.519C77.6287 173.519 66.5428 156.468 61.2076 153.248C55.524 149.818 59.8513 160.085 59.8513 160.085C59.8513 160.085 48.2365 146.219 45.0073 149.036C41.7782 151.854 44.7088 155.116 44.7088 155.116C44.7088 155.116 34.2804 152.017 32.4067 155.856C29.527 161.757 46.6948 166.65 46.6948 166.65C46.6948 166.65 39.3247 166.571 40.681 170.555C42.7256 176.566 77.6287 173.519 77.6287 173.519Z" fill="#50BFA5"/>
<path d="M32.4062 155.859C34.28 152.02 44.7084 155.119 44.7084 155.119C44.7084 155.119 41.7778 151.857 45.0069 149.039C48.236 146.221 57.5269 154.653 57.5269 154.653C57.5269 154.653 56.5536 147.699 63.5503 153.825C68.5476 158.201 77.6283 173.517 77.6283 173.517L32.4062 155.859Z" fill="#96D9C9"/>
<path d="M64.1715 130.706L64.6688 130.365C55.6457 116.652 52.8879 100.372 52.166 89.1279C51.3827 76.927 52.7583 67.8587 52.7717 67.7682L52.1555 67.5881C52.1411 67.6844 50.7559 76.8086 51.5421 89.0826C52.2687 100.422 55.0496 116.847 64.1715 130.706Z" fill="#96D9C9"/>
<path d="M54.5482 65.6324C54.5683 68.3865 53.6152 70.6639 52.0947 72.0303C50.4649 69.9136 49.5686 67.3208 49.5423 64.6463C49.5231 61.8912 50.4753 59.6138 51.9958 58.2473C53.6261 60.3642 54.5224 62.9574 54.5482 65.6324V65.6324Z" fill="#96D9C9"/>
<path d="M49.6593 71.8242C51.1951 74.2596 51.8296 76.9944 51.579 79.3412C49.4673 78.7384 47.3411 77.1081 45.8024 74.6727C44.2637 72.2374 43.633 69.5025 43.8826 67.1548C45.9953 67.7576 48.1205 69.3879 49.6593 71.8242Z" fill="#96D9C9"/>
<path d="M47.1938 79.2217C49.3581 80.756 50.9561 82.9651 51.739 85.5051C49.7923 86.0511 47.4194 85.6014 45.2116 84.0607C43.0456 82.5272 41.4462 80.318 40.6626 77.7773C42.6112 77.2303 44.9793 77.6762 47.1938 79.2217Z" fill="#96D9C9"/>
<path d="M50.0821 92.1371C51.0317 92.7175 51.7619 93.5983 52.1574 94.6408C51.3645 94.9374 50.3682 94.8334 49.4025 94.2499C48.4523 93.6699 47.7218 92.7889 47.3262 91.7461C48.1191 91.4495 49.1155 91.5584 50.0821 92.1371Z" fill="#96D9C9"/>
<path d="M50.8657 96.9214C51.8155 97.5018 52.5459 98.3826 52.942 99.4251C52.1491 99.7208 51.1518 99.612 50.1861 99.0342C49.2364 98.4537 48.506 97.5729 48.1099 96.5304C48.9027 96.2348 49.9001 96.3436 50.8657 96.9214Z" fill="#96D9C9"/>
<path d="M54.8525 77.5559C56.6341 76.5409 58.7228 76.5563 60.5697 77.3902C60.2596 79.4577 59.1481 81.2864 57.3636 82.3014C55.5791 83.3164 53.4933 83.3058 51.6426 82.467C51.9565 80.3986 53.068 78.5699 54.8525 77.5559Z" fill="#96D9C9"/>
<path d="M55.2085 84.7627C56.993 83.7487 59.0788 83.7593 60.9305 84.598C60.6195 86.6655 59.5079 88.4942 57.7244 89.5091C55.9409 90.5241 53.8531 90.5125 52.0024 89.6738C52.3144 87.6063 53.4241 85.7767 55.2085 84.7627Z" fill="#96D9C9"/>
<path d="M54.8549 95.0781C56.0164 94.4185 57.3746 94.4252 58.5793 94.9712C58.3768 96.3194 57.654 97.5067 56.4925 98.1673C55.331 98.8279 53.9727 98.8202 52.7681 98.2742C52.9696 96.9289 53.6934 95.7387 54.8549 95.0781Z" fill="#96D9C9"/>
<path d="M182.215 135.743C183.264 135.915 183.202 136.086 183.337 136.105C183.497 136.126 185.39 135.172 185.39 135.172C185.39 135.172 190.989 132.4 191.285 132.239L195.326 127.135L198.44 128.58C198.44 128.58 193.9 134.002 193.612 134.238C193.324 134.474 185.297 137.302 184.599 137.574C184.599 137.574 183.895 138.219 183.44 138.609C182.985 138.999 182.375 139.153 182.23 139.242C181.839 139.44 181.424 139.586 180.996 139.676C180.385 139.81 180.894 139.393 180.894 139.393C180.894 139.393 181.976 138.935 181.923 138.852C181.882 138.787 181.307 139.074 180.631 139.229C180.459 139.269 180.287 139.308 180.129 139.342C179.715 139.432 179.532 139.194 179.949 139.028C180.136 138.95 180.328 138.885 180.525 138.836C180.725 138.793 180.894 138.687 181.057 138.626C181.379 138.502 181.616 138.417 181.603 138.406C181.589 138.395 181.633 138.319 181.446 138.356C181.223 138.4 180.774 138.602 180.438 138.639C180.246 138.661 179.857 138.735 179.857 138.735C179.857 138.735 179.162 138.802 179.157 138.705C179.146 138.491 179.574 138.372 179.837 138.377C180.025 138.307 180.22 138.259 180.418 138.232C180.418 138.232 181.224 137.912 181.177 137.793C181.158 137.745 180.671 137.819 180.152 137.854C179.605 137.892 179.21 137.892 179.18 137.785C179.134 137.616 179.57 137.553 179.57 137.553C179.57 137.553 179.954 137.497 180.079 137.468C180.226 137.434 180.655 137.298 180.655 137.298C180.655 137.298 182.136 136.752 182.084 136.643C182.031 136.534 181.785 136.303 181.68 136.304C181.576 136.305 181.393 136.409 181.285 136.41C181.178 136.411 180.956 136.39 180.939 136.258C180.923 136.126 181.504 135.853 181.504 135.853C181.504 135.853 181.913 135.694 182.215 135.743Z" fill="#F8A492"/>
<path d="M192.514 130.298C192.514 130.298 193.523 131.216 193.942 131.519C194.291 131.77 195.989 132.592 195.989 132.592C195.989 132.592 197.679 129.992 198.419 128.693C199.315 127.113 199.936 124.765 199.724 124.701C199.129 124.522 198.311 124.412 197.555 124.761C194.94 125.964 192.514 130.298 192.514 130.298Z" fill="#355389"/>
<path d="M183.196 137.1C182.746 137.171 182.287 137.085 182.089 136.674C182.045 137.162 182.783 137.404 183.196 137.1Z" fill="#FE875E"/>
<path d="M57.8824 118.888C57.9448 117.377 57.724 115.883 57.0531 114.476C56.4771 113.265 55.0459 112.577 53.7424 112.576C49.6032 112.57 49.0763 118.081 46.4413 120.206C45.6369 120.855 44.7365 121.384 43.9753 122.085C41.1618 124.67 42.4289 129.457 45.012 131.725C46.8042 133.298 49.6196 134.192 51.8273 132.961C52.9792 132.32 53.8556 131.253 54.4796 130.083C55.3646 128.424 55.9348 126.509 56.5645 124.74C57.2422 122.858 57.8037 120.898 57.8824 118.888Z" fill="#13375B"/>
<path d="M58.5627 126.21C57.2697 122.275 55.563 122.337 55.563 122.337L56.9414 130.715C57.74 130.496 58.7796 130.009 59.5773 129.783C59.3133 128.538 58.8804 127.179 58.5627 126.21Z" fill="#F7CC7F"/>
<path d="M65.0967 139.631L60.3702 136.014C60.3702 136.014 59.8902 132.639 59.2577 129.645C58.46 129.87 57.74 130.498 56.9414 130.717L58.1442 137.423L64.3384 140.63L66.0883 142.885L66.4867 140.574L65.0967 139.631Z" fill="#F48C7F"/>
<path d="M108.181 133.979C109.595 133.978 110.984 134.346 112.213 135.046C112.37 135.135 112.533 135.214 112.701 135.282C116.333 136.779 120.307 134.007 120.307 130.068V110.696H101.001C97.0743 110.696 94.3117 106.708 95.8033 103.065C95.8711 102.897 95.9497 102.733 96.0385 102.575C96.759 101.297 97.1247 99.8479 97.0976 98.3797C97.0705 96.9115 96.6516 95.4774 95.8844 94.2268C95.1173 92.9762 94.0299 91.9547 92.7357 91.2688C91.4414 90.5829 89.9875 90.2576 88.5253 90.3267C84.273 90.5193 80.8461 94.0284 80.73 98.2973C80.6864 99.7558 81.0328 101.2 81.7331 102.479C81.8205 102.639 81.8981 102.805 81.9654 102.975C83.4455 106.679 80.6388 110.7 76.6609 110.7H57.5166V154.842C57.5166 165.255 65.9311 173.695 76.3106 173.695H120.312V154.388C120.312 150.429 116.324 147.64 112.67 149.132C112.502 149.2 112.338 149.278 112.179 149.366C111.087 149.977 109.871 150.328 108.622 150.394C107.374 150.46 106.127 150.238 104.977 149.746C103.827 149.253 102.805 148.503 101.989 147.553C101.173 146.603 100.585 145.478 100.27 144.264C99.9542 143.051 99.9201 141.781 100.17 140.552C100.42 139.323 100.947 138.168 101.71 137.175C102.474 136.182 103.455 135.377 104.576 134.824C105.698 134.27 106.931 133.981 108.181 133.979Z" fill="#F47458"/>
<path d="M150.033 123.233C150.096 121.816 150.526 120.439 151.281 119.239C151.377 119.084 151.463 118.923 151.539 118.758C153.199 115.188 150.625 111.076 146.702 110.892L127.413 109.987L126.511 129.343C126.327 133.277 122.229 135.859 118.67 134.194C118.505 134.118 118.345 134.032 118.19 133.936C116.951 133.153 115.525 132.718 114.061 132.676C112.597 132.634 111.149 132.986 109.867 133.697C108.585 134.407 107.517 135.449 106.773 136.715C106.029 137.981 105.638 139.423 105.639 140.893C105.639 145.163 108.966 148.758 113.21 149.078C114.661 149.189 116.114 148.909 117.421 148.267C117.585 148.187 117.754 148.117 117.927 148.058C121.683 146.747 125.557 149.748 125.37 153.734L124.477 172.918L168.43 174.98C178.797 175.461 187.596 167.428 188.081 157.027L190.135 112.934L170.91 112.032C166.968 111.847 164.006 115.712 165.32 119.447C165.379 119.619 165.449 119.786 165.53 119.949C166.09 121.072 166.385 122.308 166.394 123.564C166.403 124.819 166.125 126.06 165.582 127.191C165.038 128.321 164.243 129.312 163.258 130.087C162.273 130.861 161.125 131.399 159.9 131.659C158.676 131.919 157.409 131.893 156.196 131.585C154.982 131.277 153.856 130.694 152.903 129.88C151.949 129.067 151.194 128.045 150.696 126.894C150.197 125.742 149.969 124.491 150.027 123.237L150.033 123.233Z" fill="#F7CC7F"/>
<path d="M96.2853 92.7642C96.3568 94.1818 96.0591 95.5936 95.4214 96.8606C95.3404 97.0229 95.2699 97.1901 95.2102 97.3614C93.9028 101.076 96.8622 104.919 100.783 104.72L120.07 103.748L119.1 84.3998C118.903 80.466 122.733 77.4972 126.436 78.8088C126.607 78.8683 126.773 78.9388 126.935 79.0197C128.244 79.6803 129.706 79.9762 131.168 79.8766C132.63 79.777 134.039 79.2855 135.247 78.4534C136.456 77.6213 137.419 76.4791 138.037 75.146C138.655 73.813 138.905 72.3379 138.761 70.8748C138.351 66.6243 134.69 63.3694 130.435 63.4648C128.981 63.4951 127.561 63.9154 126.324 64.682C126.169 64.7776 126.009 64.8638 125.844 64.94C122.231 66.6089 118.088 63.9983 117.887 60.0135L116.927 40.832L72.976 43.0449C62.609 43.5678 54.6284 52.4224 55.1496 62.8215L57.3574 106.907L76.5795 105.938C80.5208 105.739 83.0962 101.604 81.4279 98.0172C81.3522 97.8515 81.2663 97.6907 81.1707 97.5357C80.5054 96.4724 80.0919 95.2703 79.962 94.0217C79.832 92.7731 79.9891 91.5113 80.4211 90.3331C80.8531 89.1549 81.5486 88.0917 82.454 87.2252C83.3595 86.3586 84.4509 85.7119 85.6444 85.3345C86.8379 84.9572 88.1018 84.8593 89.3389 85.0483C90.576 85.2374 91.7534 85.7084 92.7808 86.4252C93.8081 87.142 94.658 88.0855 95.2652 89.1832C95.8724 90.2809 96.2207 91.5036 96.2834 92.7574L96.2853 92.7642Z" fill="#50BFA5"/>
<path d="M135.759 82.0855C134.345 82.0869 132.956 81.7192 131.727 81.0186C131.57 80.93 131.407 80.8512 131.24 80.7826C127.607 79.2862 123.633 82.0576 123.633 85.9971V105.369H142.944C146.871 105.369 149.633 109.357 148.141 113.001C148.074 113.169 147.995 113.332 147.906 113.49C147.185 114.768 146.818 116.218 146.844 117.686C146.871 119.155 147.29 120.59 148.057 121.842C148.824 123.093 149.912 124.115 151.207 124.801C152.502 125.487 153.957 125.813 155.419 125.743C159.672 125.55 163.099 122.041 163.215 117.772C163.258 116.314 162.912 114.87 162.212 113.591C162.124 113.431 162.046 113.265 161.979 113.094C160.499 109.391 163.306 105.369 167.283 105.369H186.428V61.2276C186.428 50.815 178.014 42.3745 167.634 42.3745H123.629V61.6821C123.629 65.6409 127.616 68.4296 131.271 66.938C131.439 66.8702 131.603 66.7921 131.761 66.704C132.853 66.0907 134.07 65.7367 135.32 65.6691C136.569 65.6016 137.818 65.8223 138.969 66.3143C140.121 66.8062 141.144 67.5564 141.961 68.5072C142.779 69.458 143.368 70.584 143.684 71.7988C143.999 73.0136 144.033 74.2849 143.783 75.5149C143.533 76.745 143.004 77.9011 142.239 78.8944C141.474 79.8878 140.492 80.6919 139.368 81.2451C138.245 81.7983 137.01 82.0858 135.759 82.0855V82.0855Z" fill="#184655"/>
<path d="M44.9477 167.566C44.9477 167.566 44.6597 169.6 44.1548 170.255C43.9858 170.476 43.6748 170.754 43.4771 171.153C43.1622 171.772 43.336 172.694 43.5683 173.203C43.6873 173.464 43.5596 173.463 43.8303 173.548C44.2209 173.663 44.6399 173.63 45.0081 173.456C45.3764 173.283 45.6684 172.979 45.8289 172.604C46.0655 172.056 46.1983 171.468 46.2205 170.871C46.3059 169.025 46.8771 168.086 46.8771 168.086L44.9477 167.566Z" fill="#F7A491"/>
<path d="M53.7252 168.496C53.7252 168.496 53.9047 170.789 53.7588 171.534C53.6811 171.934 53.2453 172.755 53.4449 173.131C53.6446 173.506 53.873 173.6 53.873 173.6L59.0565 173.684C59.3387 173.688 59.1525 173.506 58.9241 173.338C58.5516 173.062 58.2521 172.88 57.0618 172.302C56.9841 172.264 56.7009 172.083 56.5992 172.021C56.3231 171.837 56.0737 171.615 55.8581 171.363C55.4866 170.946 55.454 168.927 55.454 168.927L53.7252 168.496Z" fill="#F7A491"/>
<path d="M57.7735 138.012C57.7735 138.012 58.4263 141.735 57.9982 144.175C57.57 146.615 55.5139 169.244 55.5139 169.244L53.2284 169.373C53.2284 169.373 52.7485 159.922 52.8358 158.607C52.9232 157.293 53.6037 155.093 53.6037 155.093L53.3705 147.463L56.2502 137.437L57.7735 138.012Z" fill="#355389"/>
<path d="M51.0594 137.228C51.0594 137.228 49.2596 139.952 48.8314 142.205C48.4033 144.458 49.1463 151.383 48.3217 154.338C47.8754 155.936 46.185 158.405 45.9287 160.471C45.6724 162.536 44.6626 167.942 44.6626 167.942L46.9472 168.398L52.2544 154.885L56.4175 142.672L57.484 136.382L51.0594 137.228Z" fill="#466EB6"/>
<path d="M52.5154 121.737C52.5154 121.737 50.1329 121.585 49.1912 122.617C48.2496 123.65 51.2809 131.82 51.4528 133.135C51.6246 134.449 50.5792 137.944 50.5792 137.944C50.5792 137.944 56.1745 139.076 57.7785 138.012C57.7785 138.012 57.9503 128.56 57.7785 127.621C57.6067 126.682 56.1793 122.864 55.8366 122.488C55.4939 122.113 52.5154 121.737 52.5154 121.737Z" fill="#F7CC7F"/>
<path d="M53.3081 118.542C53.3081 118.542 53.2956 118.612 53.2736 118.735C53.167 119.312 52.7581 121.221 52.4816 121.746C52.1486 122.381 53.6249 124.405 55.0465 124.153C55.4698 124.079 54.6894 122.294 54.7268 122.104C54.7988 121.742 54.8958 121.248 54.9956 120.741C55.0513 120.452 55.1089 120.164 55.1626 119.893L55.4381 118.486L53.3081 118.542Z" fill="#F7A491"/>
<path d="M53.2748 118.727C53.2969 118.608 53.3093 118.534 53.3093 118.534L55.4394 118.48L55.1629 119.89C55.1092 120.161 55.0525 120.45 54.9968 120.734C54.6152 120.665 54.2617 120.487 53.9793 120.221C53.6272 119.909 53.3624 119.511 53.2114 119.065C53.2354 118.933 53.2575 118.817 53.2748 118.727Z" fill="#F47458"/>
<path d="M54.7422 113.668C54.7422 113.668 53.7382 113.552 53.1104 114.37C52.4826 115.189 51.803 117.72 53.3657 119.096C54.9284 120.472 56.4739 118.914 56.7033 117.266C56.9327 115.618 57.0181 113.609 54.7422 113.668Z" fill="#F7A491"/>
<path d="M57.1644 117.238C56.9772 117.603 56.6643 117.805 56.4646 117.69C56.265 117.574 56.2544 117.184 56.4406 116.823C56.6268 116.462 56.9407 116.257 57.1404 116.372C57.34 116.488 57.3506 116.873 57.1644 117.238Z" fill="#F7A491"/>
<path d="M54.8543 113.398C54.8543 113.398 53.5104 115.805 52.5505 115.916C51.5906 116.027 51.4658 117.306 51.4658 117.306C51.4658 117.306 51.8085 114.359 52.7588 113.791C53.7091 113.223 54.8543 113.398 54.8543 113.398Z" fill="#13375B"/>
<path d="M45.9841 172.198C44.7362 172.426 43.9106 171.694 43.4796 171.146C43.1638 171.766 43.0093 172.693 43.2416 173.203C43.447 173.653 44.046 173.639 44.5173 173.658C45.0165 173.676 45.4014 173.398 45.649 172.961C45.7858 172.718 45.898 172.463 45.9841 172.198V172.198Z" fill="#F47458"/>
<path d="M56.597 172.021C55.2263 172.374 54.2136 172.133 53.6473 171.904C53.5013 172.32 53.3074 172.843 53.4102 173.143C53.5359 173.512 53.7144 173.596 53.8728 173.6C55.1207 173.633 58.4573 173.678 59.4115 173.69C59.4414 173.691 59.4708 173.683 59.4962 173.667C59.5216 173.651 59.5419 173.628 59.5546 173.601C59.5674 173.574 59.5721 173.544 59.5682 173.514C59.5642 173.484 59.5518 173.456 59.5324 173.433C59.2963 173.149 56.6988 172.083 56.597 172.021Z" fill="#F47458"/>
<path d="M52.8051 116.52C52.8829 116.947 52.7254 117.339 52.4538 117.395C52.1821 117.451 51.899 117.15 51.8212 116.721C51.7435 116.291 51.8999 115.901 52.1716 115.845C52.4432 115.79 52.7264 116.093 52.8051 116.52Z" fill="#F7A491"/>
<path d="M54.3717 118.001L55.583 118.056C55.583 118.056 55.5341 118.515 55.0013 118.507C54.3505 118.496 54.3717 118.001 54.3717 118.001Z" fill="white"/>
<path d="M157.654 21.114C157.804 21.1198 158.218 21.2585 158.822 22.4044C159.59 23.8681 160.722 28.2882 160.722 28.2882L157.355 29.5458L156.922 28.6233L156.21 21.5204C156.21 21.5204 157.616 21.1121 157.654 21.114Z" fill="#DD513A"/>
<path d="M153.201 20.4766C154.161 20.4766 156.546 20.7597 157.652 21.114C157.652 21.114 158.464 28.1177 156.92 33.4401C156.575 34.6313 157.208 38.3782 157.208 38.3782L147.231 38.2463C147.231 38.2463 148.413 29.1876 147.968 27.7239C147.524 26.2602 147.512 21.1612 147.512 21.1612C147.512 21.1612 147.58 21.1506 149.754 20.776C150.893 20.5879 152.046 20.4878 153.201 20.4766V20.4766Z" fill="#F47458"/>
<path d="M152.04 51.3784C152.04 51.3784 152.261 53.9341 152.667 54.6419C153.073 55.3497 152.646 56.5524 152.624 56.7181C152.602 56.8837 151.769 57.1187 150.446 56.9771C149.122 56.8356 149.142 56.5293 149.25 56.0334C149.357 55.5375 150.061 54.901 150.104 54.4291C150.147 53.9572 149.698 52.2595 149.698 52.2595L152.04 51.3784Z" fill="#F7A491"/>
<path d="M156.08 36.2696C156.08 36.2696 162.967 35.8844 164.505 36.8204C166.043 37.7564 163.413 42.3401 163.413 42.3401C163.413 42.3401 158.621 42.1186 149.233 42.6627C147.011 42.7908 146.819 36.8483 147.235 36.3562C147.65 35.8641 156.08 36.2696 156.08 36.2696Z" fill="#E0973F"/>
<path d="M150.28 57.1756C148.916 57.0302 149.085 56.3581 149.195 55.8477C149.264 55.528 149.654 55.1515 149.888 54.7961C150.01 54.8924 150.208 55.0648 150.8 55.241C151.415 55.423 152.259 55.0619 152.795 54.8366C152.935 55.4137 152.996 56.0071 152.977 56.6007C152.955 56.7712 151.643 57.322 150.28 57.1756Z" fill="#DD513A"/>
<path d="M151.033 41.2152C151.308 43.3039 152.671 53.703 152.671 53.703L149.509 54.0959C149.509 54.0959 145.622 40.518 145.821 38.4466C146.02 36.3753 147.476 36.1962 147.476 36.1962C147.476 36.1962 150.305 35.6829 151.033 41.2152Z" fill="#F7CC7F"/>
<path d="M147.403 21.9393C148.336 21.5888 148.793 30.0206 148.918 33.495C150.57 33.6548 153.449 33.495 154.166 33.442C154.503 33.417 155.281 33.131 155.617 33.0877C155.889 33.0404 156.165 33.0271 156.44 33.0482C156.503 33.0588 158.225 33.7656 158.372 33.9206C158.555 34.1132 159.048 34.5947 158.965 34.8066C158.881 35.0184 158.016 34.223 158.016 34.223L157.591 33.9842C158.119 34.5013 159.127 35.1812 158.979 35.4286C158.831 35.6761 157.931 34.9799 157.285 34.51C157.839 35.0117 158.533 35.9111 158.37 36.0507C158.227 36.1769 157.443 35.1359 156.606 34.8364C156.295 34.7257 155.986 35.029 155.742 35.0704C155.563 35.0974 155.286 35.1552 155.11 35.1051L154.204 34.848C153.895 34.8759 153.887 35.0589 153.575 35.1253C153.213 35.2023 152.615 35.2842 152.157 35.3969C149.502 36.0478 148.617 36.3502 147.804 36.3502C145.341 36.3444 145.199 22.7694 147.403 21.9393Z" fill="#F7A491"/>
<path d="M145.632 29.852C145.458 26.2968 145.484 21.9152 147.47 21.168C148.254 20.8723 149.635 22.6461 149.39 29.9243C148.327 30.0158 146.769 30.087 145.632 29.852Z" fill="#DD513A"/>
<path d="M161.284 53.5645C161.284 53.5645 161.008 54.4513 161.502 55.0388C161.995 55.6262 164.048 56.2011 164.318 56.5188C164.588 56.8366 164.567 57.1072 164.567 57.1072L158.807 56.9483L158.87 55.2025L159.135 53.9506L161.284 53.5645Z" fill="#F7A491"/>
<path d="M161.86 55.3306C161.86 55.3306 160.38 55.9315 159.665 55.5761C158.95 55.2208 158.972 55.1216 158.765 55.2545C158.557 55.3874 158.483 57.0235 158.483 57.0235L164.961 57.2161C165.412 57.2055 165.639 56.8723 165.274 56.5873C165.05 56.4286 164.813 56.2879 164.567 56.1665C164.06 55.8727 161.86 55.3306 161.86 55.3306Z" fill="#DD513A"/>
<path d="M161.066 37.9073C161.511 36.9675 162.523 35.7435 164.304 36.4802C166.004 37.1832 166.46 38.9108 165.924 40.6798C165.387 42.4487 161.859 52.8489 161.736 54.2789L158.917 54.2972C158.917 54.2972 159.43 46.0628 159.555 44.0723C159.676 42.157 160.295 39.5338 161.066 37.9073Z" fill="#F7CC7F"/>
<path d="M165.641 28.3289H156.22C156.098 28.3291 155.979 28.3659 155.877 28.4345C155.776 28.5031 155.698 28.6004 155.652 28.714L152.751 35.8352H147.558C147.488 35.8355 147.421 35.8635 147.372 35.9131C147.323 35.9628 147.295 36.03 147.295 36.1C147.295 36.17 147.323 36.2371 147.372 36.2866C147.421 36.3361 147.488 36.3639 147.558 36.3639H162.34C162.54 36.3639 162.735 36.3059 162.902 36.1971C163.069 36.0882 163.201 35.9331 163.282 35.7505L166.202 29.2023C166.245 29.1081 166.263 29.0047 166.255 28.9016C166.248 28.7985 166.215 28.6989 166.159 28.612C166.103 28.5251 166.026 28.4536 165.936 28.4042C165.845 28.3547 165.744 28.3288 165.641 28.3289V28.3289Z" fill="black"/>
<path d="M160.568 32.4755C160.505 32.7952 160.228 33.0089 159.949 32.9569C159.671 32.9049 159.497 32.5958 159.565 32.2761C159.633 31.9564 159.906 31.7427 160.184 31.7947C160.463 31.8467 160.632 32.1558 160.568 32.4755Z" fill="white"/>
<path d="M155.441 11.9226C155.156 11.8282 154.878 11.7163 154.608 11.5875C154.302 11.4401 153.908 11.2668 153.657 11.2283C153.132 11.1464 152.229 11.2013 151.73 11.7435C151.109 12.4175 150.002 11.8658 150.228 15.4076C150.479 19.4164 152.7 18.9763 152.755 18.908C152.81 18.8396 154.736 16.3436 154.736 16.3436C154.736 16.3436 155.408 17.8227 155.408 17.7688C155.408 17.7148 158.851 13.0743 155.441 11.9226Z" fill="#0E2E35"/>
<path d="M153.754 19.2046L153.946 20.6365C153.946 20.6365 154.376 22.7002 153.823 23.0979C153.271 23.4956 151.473 20.5778 151.473 20.5778L151.665 16.9484L153.754 19.2046Z" fill="#F7A491"/>
<path d="M151.601 18.1251C152.058 19.3625 153.145 20.1233 153.917 20.4189L153.754 19.2046L151.664 16.9484L151.601 18.1251Z" fill="#F47458"/>
<path d="M153.641 13.0002C153.916 12.9579 154.196 12.9763 154.463 13.0542C154.729 13.132 154.976 13.2675 155.185 13.451C155.394 13.6345 155.56 13.8616 155.672 14.1165C155.784 14.3713 155.839 14.6477 155.834 14.9262C155.819 15.5414 155.766 16.1551 155.673 16.7635C155.419 18.4169 154.294 19.8729 153.551 19.7429C152.808 19.6129 150.936 18.1868 151.266 15.8342C151.473 14.385 152.412 13.1976 153.641 13.0002Z" fill="#F7A491"/>
<path d="M151.782 16.1183C151.718 16.4823 151.429 16.7346 151.133 16.6836C150.837 16.6325 150.653 16.2984 150.712 15.9315C150.77 15.5646 151.065 15.3152 151.36 15.3662C151.656 15.4173 151.844 15.7553 151.782 16.1183Z" fill="#F7A491"/>
<path d="M151.36 15.3661C151.36 15.3661 152.259 15.5904 152.593 15.0107C152.927 14.431 154.119 13.1811 155.636 13.6973C157.152 14.2134 154.301 12.4358 154.181 12.4358L152.603 12.4252C152.603 12.4252 151.48 13.3515 151.44 13.4536C151.4 13.5557 151.076 14.6641 151.076 14.6641L151.36 15.3661Z" fill="#0E2E35"/>
<path d="M153.009 17.7871L154.641 18.1001C154.641 18.1001 154.485 18.7183 153.761 18.6018C152.879 18.4593 153.009 17.7871 153.009 17.7871Z" fill="white"/>
<path d="M125.333 132.041C125.373 132.193 125.433 132.339 125.512 132.474C126.025 133.411 127.215 134.748 127.215 134.748L128.135 132.667C128.135 132.667 127.986 132.013 127.726 131.079C126.836 131.312 125.989 131.446 125.333 132.041Z" fill="#F8A492"/>
<path d="M130.612 130.236C130.612 130.236 125.477 132.451 125.311 132.412C125.204 132.384 123.199 129.028 123.183 125.87C123.174 124.412 124.683 122.657 126.367 123.005C127.215 123.179 127.202 123.416 128.457 125.245C129.711 127.074 130.612 130.236 130.612 130.236Z" fill="#13375B"/>
<path d="M134.996 170.01C134.996 170.01 134.874 172.032 134.873 172.032C134.828 172.289 134.652 172.924 134.652 173.158C134.652 174.035 138.805 172.412 137.873 172.023C137.789 171.989 137.348 171.723 137.321 171.424C137.277 170.964 137.17 170.033 137.17 170.033L134.996 170.01Z" fill="#F7A491"/>
<path d="M137.864 172.02C137.864 172.02 136.888 172.288 136.389 172.356C135.89 172.423 135.232 171.858 134.878 172.011C134.49 172.178 134.505 173.69 134.505 173.69C134.505 173.69 139.733 174.121 141.203 173.676C141.785 173.499 139.857 172.645 137.864 172.02Z" fill="#DD513A"/>
<path d="M126.502 170.01C126.502 170.01 126.38 172.032 126.379 172.032C126.334 172.289 126.158 172.924 126.158 173.158C126.158 174.035 130.311 172.412 129.38 172.023C129.295 171.989 128.723 171.524 128.695 171.225C128.653 170.766 128.676 170.033 128.676 170.033L126.502 170.01Z" fill="#F7A491"/>
<path d="M129.369 172.02C129.369 172.02 128.395 172.288 127.896 172.356C127.397 172.423 126.738 171.858 126.385 172.011C125.996 172.178 125.981 173.69 125.981 173.69C125.981 173.69 131.233 174.192 132.71 173.676C133.283 173.475 131.363 172.645 129.369 172.02Z" fill="#DD513A"/>
<path d="M127.771 133.163L131.428 128.022C131.443 127.978 131.476 127.886 131.524 127.745C131.708 127.235 132.091 126.174 132.425 125.118V125.107C132.53 124.738 132.752 124.094 132.967 123.469C133.206 122.777 133.503 121.918 133.514 121.772L133.464 121.642C133.33 121.293 133.149 120.461 133.08 120.101C133.039 119.871 132.998 119.31 133.272 119.31C133.701 119.31 133.496 119.87 133.694 120.218C133.82 119.838 133.919 119.449 133.992 119.054L134.064 117.961C134.077 117.879 133.99 117.277 134.291 117.277H134.306C134.575 117.297 134.57 117.937 134.682 119.022C134.717 118.896 134.753 118.746 134.778 118.608C134.796 118.416 134.828 118.224 134.874 118.036C134.82 117.734 134.851 117.257 135.172 117.303C135.333 117.325 135.319 117.99 135.319 117.99C135.319 118.081 135.308 118.784 135.314 118.923C135.346 118.687 135.475 117.681 135.726 117.681C135.935 117.681 135.952 117.952 135.947 118.163C135.947 118.289 135.814 119.379 135.806 119.511C135.902 119.345 136.021 118.385 136.118 118.385C136.525 118.385 136.378 119.75 136.228 120.106C136.209 120.169 136.194 120.233 136.182 120.298C136.121 120.654 136.003 120.997 135.834 121.314C135.578 121.753 135.226 122.45 135.172 122.557C135.133 122.774 135.01 123.557 134.857 124.542C134.79 124.963 134.718 125.425 134.643 125.904C134.63 126.008 134.554 126.337 134.26 127.573C133.864 129.264 133.823 129.337 133.805 129.368C133.634 129.673 129.69 135.044 129.522 135.274L129.426 135.408L127.771 133.163Z" fill="#F7A491"/>
<path d="M134.572 121.176C134.572 121.176 134.276 120.414 133.747 120.412C133.84 120.383 133.938 120.377 134.033 120.393C134.129 120.41 134.219 120.45 134.296 120.508C134.549 120.708 134.572 121.176 134.572 121.176Z" fill="#F47458"/>
<path d="M126.887 119.704L126.417 122.69C126.417 122.69 128.211 124.134 129.256 123.83C130.133 123.574 129.531 122.424 129.531 122.424C129.531 122.424 129.064 120.829 129.208 119.993C129.352 119.157 126.887 119.704 126.887 119.704Z" fill="#F7A491"/>
<path d="M127.226 120.606C127.871 120.896 128.555 121.091 129.256 121.184C129.19 120.765 129.151 120.323 129.208 119.997C129.274 119.611 128.785 119.52 128.239 119.533C127.524 119.594 126.887 119.707 126.887 119.707L126.797 120.285C126.919 120.417 127.064 120.526 127.226 120.606V120.606Z" fill="#FE875E"/>
<path d="M124.623 116.259C124.55 116.259 125.333 119.595 126.543 120.169C127.754 120.743 129.563 120.445 129.903 119.545C130.278 118.551 128.909 115.147 127.206 114.715C125.502 114.283 124.623 116.259 124.623 116.259Z" fill="#F7A491"/>
<path d="M126.026 113.193C125.338 113.593 124.792 114.199 124.464 114.926C124.01 115.143 123.46 115.61 123.196 116.87C122.872 118.421 124.025 119.616 125.248 119.975C126.471 120.334 126.66 121.146 126.66 121.146L126.803 120.275C126.803 120.275 126.532 119.515 126.123 119.133C125.714 118.752 126.315 118.198 126.369 117.746C126.41 117.397 126.154 116.72 126.21 116.148C126.21 116.148 126.89 115.115 127.56 114.86C128.696 114.42 127.268 112.475 126.026 113.193Z" fill="#13375B"/>
<path d="M126.541 118.322C126.7 118.707 126.637 119.092 126.396 119.177C126.155 119.261 125.837 119.021 125.678 118.636C125.52 118.25 125.582 117.865 125.822 117.78C126.062 117.696 126.383 117.936 126.541 118.322Z" fill="#F7A491"/>
<path d="M131.056 133.244L138.11 132.089C138.11 132.089 137.307 130.067 137.02 130.067C136.734 130.067 131.686 132.281 131.686 132.281L131.285 133.089L131.056 133.244Z" fill="#F8A492"/>
<path d="M127.442 138.097C127.442 138.097 126.738 141.51 127.025 144.098C127.312 146.687 127.334 155.878 127.334 155.878L126.24 170.587L128.832 170.644C128.832 170.644 131.911 155.942 131.853 156.319C131.796 156.697 132.886 145.968 132.886 145.968L129.216 137.773L127.442 138.097Z" fill="#184655"/>
<path d="M128.13 137.935C128.13 137.935 127.671 141.008 128.245 142.356C128.819 143.704 133.164 156.929 133.221 158.006C133.278 159.084 134.724 171.007 134.724 171.007L137.743 170.922L138.397 157.671L137.029 141.018L135.701 136.807L128.13 137.935Z" fill="#13375B"/>
<path d="M126.419 122.69C126.419 122.69 127.164 123.181 127.859 123.124C128.554 123.067 129.535 122.425 129.535 122.425L129.398 121.96C129.398 121.96 127.603 121.697 127.556 121.726C127.51 121.755 126.419 122.69 126.419 122.69Z" fill="#F7A491"/>
<path d="M134.352 129.964C134.352 129.964 137.021 132.49 138.225 132.059C139.43 131.628 139.927 130.153 136.989 127.996C134.359 126.066 134.352 129.964 134.352 129.964Z" fill="#F8A492"/>
<path d="M136.16 133.083C135.764 130.92 132.896 124.188 132.662 122.948C132.549 122.345 131 122.331 129.524 122.41C127.965 122.493 126.416 122.691 126.416 122.691C126.416 122.691 125.036 122.919 124.429 123.489C123.823 124.059 123.662 125.638 124.533 128.635C125.222 131.001 126.077 132.3 126.499 134.028C126.585 134.605 126.658 135.176 126.755 135.842C126.911 138.419 126.755 141.822 126.755 141.822C126.755 141.822 134.269 143.386 137.079 141.013C137.074 141.008 136.567 135.298 136.16 133.083Z" fill="#355389"/>
<path d="M138.076 128.431C138.076 128.431 135.128 130.873 134.956 130.873C134.845 130.873 130.749 127.85 129.803 125.366C129.28 123.993 130.379 122.457 131.627 122.462C132.491 122.462 132.882 122.69 134.603 124.145C136.324 125.6 138.076 128.431 138.076 128.431Z" fill="#466EB6"/>
<path d="M86.2135 19.452C86.6935 18.2858 87.1878 17.1178 88.4415 16.5265C89.4561 16.045 90.5158 16.2289 91.4172 16.9117C93.9705 18.8376 91.7454 20.9562 94.653 24.6155C95.5563 25.7508 96.6496 26.6675 97.191 27.9974C97.9483 29.8598 97.046 30.7534 95.5995 31.6461C88.6795 35.9121 85.0521 27.1558 85.1826 25.1461C85.2796 23.6554 85.9025 20.206 86.2135 19.452Z" fill="#13375B"/>
<path d="M79.0319 42.1637C79.3199 42.1174 80.0321 41.608 80.2798 41.5618C80.4717 41.5262 80.8922 41.4655 81.0717 41.4357C81.2896 40.6152 82.4012 36.146 82.5259 34.8354C82.6613 33.416 83.6615 27.2751 83.6615 27.2751L86.2533 27.748C86.2533 27.748 85.1791 32.4723 84.8815 34.7632C84.6262 36.7306 82.4741 41.1545 82.2005 41.6215C82.2005 41.6331 82.2005 41.6437 82.2005 41.6552C82.1593 42.3495 81.8252 42.1184 81.8252 42.1184L81.2838 42.2571C81.2838 42.2571 79.364 42.442 79.2411 42.4882C79.1183 42.5344 78.7401 42.2099 79.0319 42.1637Z" fill="#F7A491"/>
<path d="M85.9228 23.6892C84.0913 24.3123 83.0498 29.3072 83.0498 29.3072C83.0498 29.3072 85.9238 30.1113 86.66 29.6924C86.66 29.6924 87.4961 25.9763 87.7956 26.1063L85.9228 23.6892Z" fill="#6A97CE"/>
<path d="M71.7552 50.7939C71.3795 51.7954 71.0861 52.826 70.8778 53.8755C70.8654 53.9592 70.9825 54.3569 70.9738 54.4532C69.8488 55.994 68.2323 56.3291 66.8462 56.4273C67.5527 55.7359 68.5904 55.0792 68.6403 54.8606C68.9802 53.5296 69.2193 52.1746 69.3554 50.8074C70.2145 51.2051 70.8001 50.8874 71.7552 50.7939Z" fill="#F7A491"/>
<path d="M87.6955 34.2058L90.1701 41.1999C90.1701 41.1999 86.1932 41.951 84.7054 42.2245C83.2175 42.498 74.9144 42.862 74.6993 43.0103C74.5438 43.12 72.8275 48.6918 72.0606 51.7589C71.1909 51.9514 69.7021 51.7203 68.9102 51.4469C69.3383 47.0528 70.8837 40.0925 71.3781 39.3346C72.1844 38.101 87.6955 34.2058 87.6955 34.2058Z" fill="#256653"/>
<path d="M78.0259 53.8601C77.843 54.9151 77.7467 55.9835 77.7379 57.0543C77.7379 57.1381 77.9299 57.5117 77.9366 57.5984C77.1187 59.3221 75.5934 59.9567 74.2505 60.314C74.8149 59.5012 75.7115 58.6625 75.7192 58.4381C75.8053 57.0665 75.7874 55.6903 75.6654 54.3214C76.5898 54.5525 77.1053 54.1317 78.0259 53.8601Z" fill="#F7A491"/>
<path d="M90.5849 34.5708L91.5448 36.2156C91.8877 36.8046 92.0992 37.4613 92.1647 38.1403C92.2302 38.8193 92.1481 39.5044 91.9242 40.1485C91.7003 40.7927 91.3399 41.3804 90.8677 41.8713C90.3955 42.3622 89.8229 42.7445 89.1892 42.992L89.146 43.0093C87.7369 43.5572 79.643 45.4774 79.4644 45.6623C79.331 45.799 78.6859 51.5922 78.5045 54.7527C77.6857 55.1042 76.1796 55.1581 75.3512 55.0416C74.951 50.6456 75.1689 43.5177 75.5135 42.68C76.076 41.3116 90.5849 34.5708 90.5849 34.5708Z" fill="#327F6B"/>
<path d="M77.6159 57.1043C77.8319 56.8655 78.6228 58.1799 78.8206 58.4602C79.0433 58.7751 78.9799 59.0129 78.953 59.062C78.883 59.192 74.7112 61.6544 73.6937 61.8296C73.5863 61.8356 73.4798 61.8073 73.3895 61.7487C72.9911 61.3953 74.8216 58.7876 75.6433 58.4457C76.1751 58.2223 76.6464 58.1761 77.6159 57.1043Z" fill="#13375B"/>
<path d="M70.7449 53.9264C71.0012 53.7338 71.533 55.1724 71.675 55.4844C71.8344 55.8359 71.7278 56.0622 71.6923 56.1017C71.5963 56.2163 67.0416 57.8504 66.0097 57.835C65.9015 57.8214 65.8005 57.7731 65.7217 57.6973C65.3973 57.2765 67.6818 55.0588 68.5534 54.8768C69.1198 54.7535 69.593 54.7978 70.7449 53.9264Z" fill="#13375B"/>
<path d="M87.6602 23.6717C87.5969 23.6674 87.5346 23.6544 87.4749 23.6332C87.1351 23.5726 86.3912 23.483 85.8133 23.7295C85.1087 24.028 84.0183 26.811 84.0855 29.6672C84.1114 30.1044 84.1373 30.4954 84.1604 30.7679C84.3379 32.9259 84.9552 36.9752 84.9888 36.9973C85.8277 37.5395 90.8931 35.4373 91.2415 34.9751C91.59 34.5129 91.7944 28.9036 91.9644 28.6243L92.2965 23.7459C91.7071 23.5697 88.5605 23.665 87.6602 23.6717Z" fill="#9BC1F9"/>
<path d="M89.7132 21.875C89.7132 21.875 89.3868 23.5679 89.4521 24.2352C89.5174 24.9026 89.2035 27.0539 87.7944 27.0596C86.3852 27.0654 87.5275 24.3248 87.66 23.6709C87.7924 23.0171 87.8241 20.9929 87.8241 20.9929L89.7132 21.875Z" fill="#F7A491"/>
<path d="M87.7959 22.0088C87.817 21.4542 87.8247 20.9929 87.8247 20.9929L89.7138 21.875C89.7138 21.875 89.6466 22.2207 89.5794 22.6617C88.7529 22.8283 88.1539 22.5221 87.7959 22.0088Z" fill="#F47458"/>
<path d="M90.4035 17.2044C90.8766 17.5003 91.2289 17.9558 91.397 18.489C91.6629 19.3672 91.3606 21.6321 89.4772 22.1791C87.5939 22.7261 86.7828 20.9272 87.1735 19.53C87.5641 18.1327 88.4069 16.3493 90.4035 17.2044Z" fill="#F7A491"/>
<path d="M86.9384 18.9841C86.9749 19.3606 87.1822 19.6485 87.4011 19.6274C87.6199 19.6062 87.7667 19.2826 87.7303 18.9061C87.6938 18.5296 87.4865 18.2416 87.2676 18.2628C87.0488 18.284 86.901 18.6076 86.9384 18.9841Z" fill="#F7A491"/>
<path d="M90.1826 17.0898C90.1826 17.0898 90.5234 19.6167 91.3345 20.0751C92.1456 20.5334 91.8077 21.6524 91.8077 21.6524C91.8077 21.6524 92.5459 19.0524 91.9037 18.2127C91.2616 17.373 90.1826 17.0898 90.1826 17.0898Z" fill="#13375B"/>
<path d="M90.8557 20.4363C90.6349 20.7657 90.6358 21.1537 90.8557 21.303C91.0755 21.4523 91.4364 21.3078 91.6572 20.9785C91.878 20.6491 91.8771 20.2611 91.6572 20.1118C91.4374 19.9625 91.0765 20.107 90.8557 20.4363Z" fill="#F7A491"/>
<path d="M88.1193 20.5769L89.4449 20.911C89.4449 20.911 89.2856 21.4156 88.6981 21.2856C87.9801 21.1277 88.1193 20.5769 88.1193 20.5769Z" fill="white"/>
<path d="M94.6958 41.9527L100.408 41.6638C100.408 41.6638 98.0641 43.3538 98.0161 43.3538C97.9681 43.3538 96.1491 42.6335 96.0694 42.6335C95.9897 42.6335 94.6958 41.9527 94.6958 41.9527Z" fill="#50BFA5"/>
<path d="M209.067 170.093C209.067 170.093 209.178 172.08 209.179 172.084C209.22 172.336 209.382 172.96 209.382 173.189C209.382 174.056 205.57 172.458 206.424 172.076C206.502 172.042 206.904 171.78 206.932 171.487C206.971 171.034 207.071 170.12 207.071 170.12L209.067 170.093Z" fill="#F7A491"/>
<path d="M206.384 172.083C206.384 172.083 207.28 172.346 207.737 172.412C208.195 172.479 208.8 171.923 209.125 172.073C209.482 172.238 209.467 173.723 209.467 173.723C209.467 173.723 204.668 174.146 203.319 173.709C202.784 173.537 204.555 172.698 206.384 172.083Z" fill="#F7CC7F"/>
<path d="M215.411 169.99C215.411 169.99 215.523 171.977 215.523 171.981C215.564 172.233 215.726 172.858 215.726 173.087C215.726 173.949 211.915 172.355 212.769 171.973C212.846 171.939 213.372 171.482 213.397 171.189C213.436 170.737 213.415 170.018 213.415 170.018L215.411 169.99Z" fill="#F7A491"/>
<path d="M212.777 171.965C213.223 172.098 213.674 172.208 214.131 172.294C214.589 172.36 215.193 171.806 215.517 171.955C215.874 172.121 215.889 173.606 215.889 173.606C215.889 173.606 211.124 173.798 209.711 173.591C209.157 173.508 210.948 172.579 212.777 171.965Z" fill="#F7CC7F"/>
<path d="M214.279 138.418C214.279 138.418 214.925 141.771 214.663 144.313C214.401 146.855 214.375 155.888 214.375 155.888L215.59 170.333L212.998 170.393C212.998 170.393 210.171 155.949 210.224 156.32C210.277 156.692 209.276 146.151 209.276 146.151L212.646 138.099L214.279 138.418Z" fill="#355389"/>
<path d="M213.376 136.252C213.376 136.252 216.302 139.345 215.214 142.722C214.776 144.079 210.697 157.039 210.646 158.099C210.594 159.158 209.266 170.867 209.266 170.867L206.494 170.783L205.899 157.765L206.691 140.224L208.373 137.266L213.376 136.252Z" fill="#466EB6"/>
<path d="M195.609 126.188C196.569 125.115 198.653 123.588 198.653 123.588C198.653 123.588 199.895 122.524 200.402 122.349C201.148 122.091 202.424 121.403 204.271 124.211C205.593 126.221 213.934 136.626 215.302 136.975L206.362 141.268C206.117 139.219 201.699 135.347 201.062 134.624C199.642 133.01 194.702 127.209 195.609 126.188Z" fill="#F47458"/>
<path d="M196.025 121.829L198.809 123.466C198.809 123.466 198.887 125.851 197.977 126.47C197.209 126.99 196.633 125.742 196.633 125.742C196.633 125.742 195.597 124.298 194.809 123.855C194.021 123.412 196.025 121.829 196.025 121.829Z" fill="#F7A491"/>
<path d="M196.492 122.875C196.354 123.514 196.109 124.126 195.769 124.685C195.462 124.351 195.118 124.025 194.81 123.85C194.447 123.643 194.677 123.196 195.031 122.774C195.531 122.252 196.024 121.825 196.024 121.825L196.559 122.139C196.596 122.346 196.528 122.712 196.492 122.875Z" fill="#F47458"/>
<path d="M194.572 117.729C194.619 117.671 196.909 120.53 196.626 121.87C196.344 123.209 194.96 124.434 193.998 124.098C192.934 123.725 190.956 120.36 191.666 118.726C192.375 117.091 194.572 117.729 194.572 117.729Z" fill="#F7A491"/>
<path d="M192.069 116.828C193.066 116.27 194.694 116.11 195.908 116.75C197.404 117.535 197.744 119.511 197.276 120.717C196.809 121.923 197.343 122.604 197.343 122.604L196.55 122.139C196.55 122.139 196.087 121.413 196.026 120.836C195.966 120.258 195.125 120.354 194.714 120.097C194.398 119.895 193.995 119.239 193.484 118.898C193.484 118.898 192.195 118.74 191.564 119.096C190.486 119.704 190.637 117.625 192.069 116.828Z" fill="#13375B"/>
<path d="M195.361 120.579C195.353 121.008 195.553 121.359 195.812 121.363C196.071 121.368 196.282 121.023 196.292 120.593C196.302 120.163 196.1 119.813 195.841 119.809C195.582 119.805 195.368 120.15 195.361 120.579Z" fill="#F7A491"/>
<path d="M193.016 122.855L194.228 121.946C194.228 121.946 194.548 122.438 194.027 122.853C193.391 123.357 193.016 122.855 193.016 122.855Z" fill="white"/>
<path d="M189.972 140.942C190.276 140.497 190.408 139.854 190.828 139.364C191.015 139.164 191.223 138.985 191.449 138.83C193.465 137.644 198.729 134.593 198.936 134.352C199.179 134.071 202.769 128.087 202.769 128.087L199.545 127.354L196.393 132.939C196.13 133.148 191.128 136.858 191.128 136.858C191.128 136.858 190.134 137.637 189.592 138.002C189.346 138.142 189.087 138.258 188.819 138.348C188.525 138.45 187.965 138.734 187.853 138.83C187.721 138.946 187.458 139.194 187.302 139.345C187.145 139.496 186.956 139.668 186.882 139.758C186.796 139.833 186.699 139.894 186.595 139.939C186.561 139.956 186.534 139.983 186.516 140.015C186.498 140.048 186.49 140.086 186.493 140.123C186.497 140.16 186.511 140.195 186.535 140.224C186.559 140.253 186.59 140.274 186.626 140.285C186.779 140.328 186.986 140.232 187.114 140.172C187.476 140.001 187.918 139.54 187.942 139.594C187.966 139.648 187.516 140.638 187.472 140.755C187.428 140.871 186.912 142.022 186.885 142.278C186.858 142.534 187.013 142.594 187.128 142.501C187.224 142.42 188.056 140.883 188.056 140.883C188.056 140.883 188.162 140.69 188.203 140.799C188.245 140.908 187.494 142.308 187.421 142.537C187.348 142.766 187.407 142.954 187.613 142.874C187.869 142.778 188.58 141.237 188.58 141.237C188.58 141.237 188.676 141.045 188.734 141.112C188.793 141.179 188.139 142.356 188.132 142.492C188.126 142.628 188.246 142.762 188.42 142.648C188.629 142.514 189.252 141.134 189.252 141.134C189.252 141.134 189.328 141.043 189.347 141.107C189.367 141.172 188.882 142.216 188.918 142.368C188.921 142.384 188.927 142.4 188.935 142.414C188.944 142.429 188.956 142.441 188.969 142.451C188.983 142.46 188.998 142.467 189.015 142.47C189.031 142.473 189.048 142.473 189.064 142.47C189.332 142.468 189.668 141.387 189.972 140.942Z" fill="#F8A492"/>
<path d="M201.883 131.253C201.883 131.253 200.833 130.918 200.155 130.608C199.705 130.401 197.737 129.419 197.737 129.419C197.737 129.419 198.585 125.829 199.159 124.538C201.263 119.801 203.655 123.068 203.979 123.83C204.709 125.528 201.883 131.253 201.883 131.253Z" fill="#355389"/>
<path d="M128.531 118.843L129.53 118.093C129.53 118.093 129.794 118.499 129.364 118.842C128.844 119.259 128.531 118.843 128.531 118.843Z" fill="white"/>
<path d="M245.849 173.624H13.6784C13.3904 173.624 13.1523 173.925 13.1523 174.298C13.1523 174.67 13.3875 174.972 13.6784 174.972H245.849C246.137 174.972 246.374 174.672 246.374 174.298C246.374 173.921 246.139 173.624 245.849 173.624Z" fill="#184655"/>
<path d="M100.537 41.6591C100.513 41.5984 100.461 41.5975 100.407 41.5955C99.8821 41.5877 99.3584 41.5485 98.8383 41.4781C98.7523 41.4665 98.6679 41.4448 98.5869 41.4135C98.4482 41.359 98.2951 41.3535 98.153 41.3981C98.0742 41.4175 97.9931 41.426 97.912 41.4232C97.649 41.4232 96.8964 41.1651 96.5106 41.0977C96.4674 41.09 96.4273 41.0699 96.3953 41.0398C96.3632 41.0097 96.3406 40.9709 96.3301 40.9282C95.9461 39.4202 95.135 36.0373 95.0285 34.9241C94.8941 33.5018 93.914 27.0864 93.914 27.0864L91.2935 27.8202C91.2935 27.8202 92.3724 32.5551 92.6709 34.8499C92.9003 36.6227 94.6675 40.3851 95.2204 41.4665C95.4911 42.2725 96.0978 42.2947 96.2389 42.312C96.3194 42.3215 96.3934 42.3611 96.4463 42.4227C96.5413 42.5354 96.653 42.6329 96.7774 42.7116C96.8674 42.7702 96.9442 42.847 97.003 42.937C97.1143 43.0997 97.2142 43.2701 97.3121 43.4416C97.3774 43.5542 97.4465 43.5908 97.5434 43.5639C97.5931 43.5509 97.6361 43.5198 97.6641 43.4767C97.6922 43.4336 97.7032 43.3816 97.6951 43.3308C97.6885 43.1473 97.6343 42.9687 97.5377 42.8127C97.4946 42.7586 97.4729 42.6905 97.4768 42.6214C97.4807 42.5523 97.5099 42.487 97.5588 42.4381C97.6136 42.3573 97.678 42.2836 97.7508 42.2186C97.7859 42.1841 97.828 42.1577 97.8742 42.141C97.9204 42.1244 97.9697 42.118 98.0186 42.1223C98.2079 42.171 98.4003 42.2068 98.5945 42.2292L98.7529 42.2619L98.8393 42.2802C98.8527 42.2802 99.1273 42.3139 99.2233 42.3139C99.3001 42.3139 99.4239 42.3197 99.5295 42.3245C99.6324 42.3186 99.7345 42.3035 99.8347 42.2792C99.9253 42.2782 100.012 42.244 100.08 42.1829C100.107 42.1569 100.135 42.1281 100.121 42.0866C100.115 42.0686 100.103 42.0528 100.088 42.0414C100.073 42.0299 100.054 42.0232 100.035 42.0221C99.9064 42.0071 99.7782 41.9856 99.6514 41.9576C99.7474 41.9576 100.051 41.9499 100.148 41.948C100.21 41.9477 100.272 41.9345 100.33 41.9091C100.387 41.8838 100.438 41.8468 100.481 41.8006C100.52 41.7583 100.56 41.7198 100.537 41.6591Z" fill="#F7A491"/>
<path d="M92.3278 23.7343C93.6208 23.4984 94.6873 29.3041 94.6873 29.3041C94.6873 29.3041 91.8142 30.1082 91.078 29.6893C91.078 29.6893 90.2419 25.9732 89.9424 26.1032L92.3278 23.7343Z" fill="#9BC1F9"/>
<path d="M61.0544 128.075C61.1398 127.829 59.9476 127.63 59.8842 127.382C59.8209 127.133 61.3903 127.113 61.446 126.894C61.5497 126.492 59.7259 126.81 59.7614 126.621C59.7969 126.432 61.662 126.012 61.4604 125.689C61.2588 125.365 59.5723 126.327 59.5214 126.109C59.4705 125.89 61.1705 125.356 61.1398 124.874C61.1235 124.617 58.3503 126.156 58.0287 126.016C57.7072 125.877 58.3743 124.668 58.118 124.489C57.8617 124.31 57.1274 126.945 56.9508 127.032C56.7741 127.12 53.0276 129.265 51.6943 129.606C51.5321 129.158 51.1827 128.555 51.0397 128.131C50.2909 128.664 49.7361 128.933 48.9644 129.419C49.523 130.825 50.3197 132.365 50.7095 132.542C51.8959 133.08 56.4843 129.261 57.4 128.609C58.3158 127.956 58.8399 128.167 59.4619 127.96C60.0839 127.752 60.9689 128.324 61.0544 128.075Z" fill="#F7A491"/>
<path d="M48.8042 130.098C48.8042 130.098 47.7771 125.547 47.9547 124.223C48.1323 122.899 49.6969 121.673 50.7807 122.129C51.8644 122.584 52.3559 128.942 52.3559 128.942L48.8042 130.098Z" fill="#F7CC7F"/>
</g>
<defs>
<clipPath id="clip0">
<rect width="250" height="175" fill="white"/>
</clipPath>
</defs>
</svg>
