<svg width="90" height="90" viewBox="0 0 90 90" fill="none" xmlns="http://www.w3.org/2000/svg">
<rect width="90" height="90" rx="15" fill="url(#paint0_linear)"/>
<rect x="5" y="9" width="81" height="81" rx="15" fill="url(#paint1_linear)"/>
<rect x="10" y="19" width="71" height="71" rx="15" fill="url(#paint2_linear)"/>
<path d="M21.2083 24.5886C21.2896 23.0792 21.9465 21.6585 23.0437 20.6188C24.141 19.5792 25.5951 18.9998 27.1067 19H30.1464C31.6575 19.0005 33.111 19.5802 34.2077 20.6197C35.3044 21.6593 35.9609 23.0797 36.0422 24.5886L38.2419 65.2761C38.2851 66.0772 38.1646 66.8786 37.8878 67.6315C37.611 68.3845 37.1837 69.0732 36.6321 69.6555C36.0804 70.2379 35.4158 70.7018 34.679 71.0189C33.9421 71.3361 33.1484 71.4997 32.3462 71.5H24.9069C24.1045 71.5001 23.3105 71.3367 22.5733 71.0197C21.8361 70.7028 21.1713 70.2389 20.6193 69.6565C20.0673 69.0741 19.6398 68.3853 19.3629 67.6322C19.086 66.879 18.9654 66.0774 19.0085 65.2761L21.2083 24.5886V24.5886ZM27.1067 22.9375C26.6027 22.9375 26.1179 23.1307 25.7521 23.4774C25.3863 23.8242 25.1674 24.298 25.1405 24.8013L22.9408 65.4887C22.9265 65.756 22.9669 66.0233 23.0594 66.2744C23.1519 66.5256 23.2947 66.7552 23.479 66.9493C23.6632 67.1433 23.8851 67.2978 24.1311 67.4033C24.377 67.5087 24.6419 67.5629 24.9095 67.5625H32.3462C32.6133 67.5622 32.8777 67.5075 33.123 67.4017C33.3684 67.2959 33.5896 67.1414 33.7733 66.9473C33.957 66.7533 34.0993 66.524 34.1915 66.2732C34.2837 66.0225 34.3239 65.7555 34.3097 65.4887L32.1125 24.8013C32.0856 24.2975 31.8664 23.8233 31.5001 23.4765C31.1337 23.1297 30.6482 22.9368 30.1438 22.9375H27.1093H27.1067Z" fill="white"/>
<path d="M38.5017 71.4999H65.3765C66.9429 71.4999 68.4452 70.8776 69.5528 69.77C70.6604 68.6623 71.2827 67.1601 71.2827 65.5936V29.4999C71.283 29.1136 71.1696 28.7358 70.9568 28.4135C70.7439 28.0912 70.4409 27.8386 70.0855 27.6872C69.7302 27.5358 69.3381 27.4923 68.9582 27.5621C68.5783 27.6319 68.2273 27.812 67.949 28.0798L54.8765 40.6299V29.4999C54.8769 29.1258 54.7708 28.7594 54.5705 28.4435C54.3702 28.1275 54.0841 27.8752 53.7456 27.716C53.4071 27.5568 53.0302 27.4973 52.6592 27.5446C52.2881 27.5918 51.9382 27.7437 51.6503 27.9826L39.4021 38.1204L39.6672 43.0134L50.939 33.6841V45.2499C50.9387 45.6362 51.052 46.014 51.2649 46.3363C51.4778 46.6586 51.7808 46.9112 52.1361 47.0626C52.4915 47.2139 52.8836 47.2574 53.2635 47.1876C53.6434 47.1178 53.9944 46.9378 54.2727 46.67L67.3452 34.1199V65.5936C67.3452 66.1158 67.1378 66.6165 66.7686 66.9858C66.3994 67.355 65.8986 67.5624 65.3765 67.5624H62.7515V55.7499C62.7515 54.5315 62.2675 53.3631 61.406 52.5016C60.5445 51.6401 59.376 51.1561 58.1577 51.1561H47.6577C46.4394 51.1561 45.2709 51.6401 44.4094 52.5016C43.5479 53.3631 43.064 54.5315 43.064 55.7499V67.5624H40.649C40.2975 69.043 39.5561 70.4026 38.5017 71.4999V71.4999ZM58.814 55.7499V66.9061H47.0015V55.7499C47.0015 55.5758 47.0706 55.4089 47.1937 55.2858C47.3167 55.1628 47.4837 55.0936 47.6577 55.0936H58.1577C58.3318 55.0936 58.4987 55.1628 58.6217 55.2858C58.7448 55.4089 58.814 55.5758 58.814 55.7499Z" fill="white"/>
<defs>
<linearGradient id="paint0_linear" x1="45" y1="90" x2="45" y2="-46" gradientUnits="userSpaceOnUse">
<stop stop-color="#00A77B"/>
<stop offset="1" stop-color="#03FDBC" stop-opacity="0"/>
</linearGradient>
<linearGradient id="paint1_linear" x1="45.5" y1="90" x2="45.5" y2="-32.4" gradientUnits="userSpaceOnUse">
<stop stop-color="#00A77B"/>
<stop offset="1" stop-color="#03FDBC" stop-opacity="0"/>
</linearGradient>
<linearGradient id="paint2_linear" x1="45.5" y1="90" x2="45.5" y2="-17.2889" gradientUnits="userSpaceOnUse">
<stop stop-color="#00A77B"/>
<stop offset="1" stop-color="#03FDBC" stop-opacity="0"/>
</linearGradient>
</defs>
</svg>
