<svg width="250" height="175" viewBox="0 0 250 175" fill="none" xmlns="http://www.w3.org/2000/svg">
<g clip-path="url(#clip0)">
<path d="M202.596 119.712C186.447 158.281 143.43 179.887 106.128 174.059C100.058 173.11 83.4161 170.285 68.6822 156.957C40.3165 131.301 34.249 80.4999 57.1311 44.6955C73.7831 18.638 103.635 3.8668 131.999 4.60555C138.109 4.76492 161.525 5.74555 182.102 22.9568C185.125 25.4843 191.793 31.4918 197.8 41.0193C211.907 63.3993 213.12 94.5768 202.596 119.712Z" fill="url(#paint0_linear)"/>
<path d="M38.9584 112.516C41.7155 100.751 50.7321 91.5158 62.21 88.6908C70.1012 86.7489 77.6723 87.7914 84.0712 90.9408C86.1968 91.9845 88.7164 90.8033 89.304 88.4664C94.9608 65.9914 114.87 49.3877 138.564 49.3877C166.659 49.3877 189.435 72.7333 189.435 101.531C189.435 102.295 189.419 103.34 189.407 104.343C189.506 106.497 190.424 107.411 191.793 107.641C202.801 108.813 211.451 118.112 211.929 129.585C212.48 142.757 202.02 153.671 189.157 153.671H70.1756C49.8074 153.671 33.8593 134.272 38.9584 112.516Z" fill="url(#paint1_linear)"/>
<path opacity="0.21" d="M48.1741 116.924C50.6354 106.42 58.6861 98.1744 68.9342 95.6525C75.9802 93.9182 82.7404 94.8488 88.4541 97.6582C90.349 98.59 92.601 97.5332 93.1261 95.4488C98.1771 75.3819 115.953 60.5569 137.109 60.5569C162.194 60.5569 182.53 81.4013 182.53 107.114C182.53 107.796 182.516 108.729 182.505 109.623C182.593 111.546 183.412 112.363 184.635 112.568C194.463 113.616 202.187 121.921 202.616 132.164C203.108 143.926 193.769 153.671 182.284 153.671H76.0465C57.8608 153.671 43.6214 136.35 48.1741 116.924Z" fill="#91B3FA"/>
<path d="M61.9883 167.764C61.9906 168.228 62.1764 168.672 62.5051 169C62.8338 169.328 63.2789 169.513 63.7432 169.514H158.648C159.112 169.513 159.557 169.328 159.886 169C160.215 168.672 160.4 168.228 160.403 167.764L161.192 113.242C161.192 112.278 160.056 110.396 157.974 110.537L65.2231 108.138C64.6241 108.122 64.0281 108.228 63.4714 108.45C62.9146 108.671 62.4087 109.004 61.9843 109.426C61.5599 109.849 61.2259 110.354 61.0025 110.91C60.7791 111.466 60.671 112.061 60.6848 112.66L61.9883 167.764Z" fill="url(#paint2_linear)"/>
<path d="M63.7215 166.082C63.7228 166.522 63.8984 166.944 64.2099 167.255C64.5215 167.566 64.9435 167.741 65.3838 167.742H156.359C156.799 167.741 157.221 167.565 157.532 167.254C157.843 166.943 158.018 166.522 158.019 166.082L158.765 116.587C158.677 113.608 156.064 112.538 154.481 112.601L65.5883 110.217C65.1672 110.206 64.7484 110.28 64.3571 110.436C63.9657 110.592 63.6102 110.826 63.312 111.123C63.0138 111.42 62.7792 111.775 62.6224 112.166C62.4655 112.557 62.3898 112.975 62.3998 113.396L63.7215 166.082Z" fill="#7D97F4"/>
<path d="M157.037 142.568C157.004 142.568 156.972 142.561 156.943 142.548C156.913 142.535 156.886 142.517 156.864 142.493C156.841 142.47 156.824 142.443 156.812 142.413C156.801 142.382 156.795 142.35 156.796 142.318L156.855 138.304C156.856 138.24 156.882 138.179 156.927 138.134C156.973 138.09 157.034 138.064 157.098 138.064V138.064C157.13 138.065 157.162 138.071 157.192 138.084C157.222 138.097 157.248 138.115 157.271 138.139C157.293 138.162 157.311 138.19 157.322 138.22C157.334 138.25 157.34 138.282 157.339 138.314L157.28 142.329C157.279 142.392 157.253 142.453 157.207 142.498C157.162 142.543 157.101 142.568 157.037 142.568Z" fill="white"/>
<path d="M157.18 132.732C157.115 132.731 157.054 132.704 157.009 132.658C156.964 132.612 156.939 132.55 156.94 132.485L157.165 117.11C157.161 116.197 156.884 115.468 156.341 114.948C155.328 113.977 153.72 114.027 153.653 114.031L125.24 113.269C125.208 113.268 125.177 113.261 125.148 113.248C125.119 113.235 125.092 113.216 125.07 113.193C125.048 113.169 125.031 113.142 125.02 113.112C125.008 113.082 125.003 113.051 125.004 113.019C125.003 112.986 125.01 112.954 125.022 112.924C125.035 112.894 125.053 112.867 125.077 112.845C125.1 112.823 125.128 112.806 125.159 112.795C125.189 112.784 125.222 112.78 125.254 112.782L153.65 113.544C153.826 113.533 155.538 113.504 156.679 114.596C157.321 115.211 157.649 116.057 157.654 117.112L157.427 132.491C157.427 132.523 157.42 132.555 157.408 132.584C157.395 132.614 157.377 132.641 157.354 132.663C157.331 132.685 157.303 132.703 157.274 132.715C157.244 132.727 157.212 132.733 157.18 132.732Z" fill="white"/>
<path d="M54.6426 174.043H165.824C166.019 174.043 166.177 173.885 166.177 173.69V169.605C166.177 169.41 166.019 169.252 165.824 169.252H54.6426C54.4476 169.252 54.2894 169.41 54.2894 169.605V173.69C54.2894 173.885 54.4476 174.043 54.6426 174.043Z" fill="url(#paint3_linear)"/>
<path d="M103.191 165.328H68.1624C67.8553 165.328 67.5512 165.267 67.2675 165.15C66.9838 165.032 66.726 164.86 66.5089 164.643C66.2917 164.426 66.1195 164.168 66.002 163.884C65.8846 163.601 65.8241 163.296 65.8242 162.989V117.281C65.8242 116.966 65.8876 116.655 66.0107 116.366C66.1339 116.076 66.3142 115.814 66.5408 115.596C66.7675 115.378 67.0359 115.208 67.3299 115.096C67.6239 114.984 67.9375 114.933 68.2519 114.945L103.28 116.285C103.885 116.308 104.457 116.564 104.877 116.999C105.296 117.435 105.531 118.016 105.531 118.621V162.989C105.531 163.297 105.47 163.601 105.353 163.885C105.235 164.168 105.063 164.426 104.846 164.643C104.628 164.86 104.37 165.033 104.086 165.15C103.802 165.267 103.498 165.328 103.191 165.328V165.328Z" fill="#91B3FA"/>
<path opacity="0.51" d="M96.2245 132.876H73.0217C72.8377 132.876 72.6885 133.025 72.6885 133.209V135.625C72.6885 135.809 72.8377 135.958 73.0217 135.958H96.2245C96.4086 135.958 96.5578 135.809 96.5578 135.625V133.209C96.5578 133.025 96.4086 132.876 96.2245 132.876Z" fill="white"/>
<path opacity="0.51" d="M96.2714 137.798H73.0686C72.8845 137.798 72.7354 137.947 72.7354 138.131V140.547C72.7354 140.731 72.8845 140.881 73.0686 140.881H96.2714C96.4554 140.881 96.6046 140.731 96.6046 140.547V138.131C96.6046 137.947 96.4554 137.798 96.2714 137.798Z" fill="white"/>
<path opacity="0.51" d="M96.4106 142.824H73.2077C73.0237 142.824 72.8745 142.974 72.8745 143.158V145.574C72.8745 145.758 73.0237 145.907 73.2077 145.907H96.4106C96.5946 145.907 96.7438 145.758 96.7438 145.574V143.158C96.7438 142.974 96.5946 142.824 96.4106 142.824Z" fill="white"/>
<path opacity="0.51" d="M96.4579 147.747H73.2551C73.0711 147.747 72.9219 147.896 72.9219 148.08V150.496C72.9219 150.68 73.0711 150.829 73.2551 150.829H96.4579C96.642 150.829 96.7912 150.68 96.7912 150.496V148.08C96.7912 147.896 96.642 147.747 96.4579 147.747Z" fill="white"/>
<path opacity="0.51" d="M147.109 132.872H113.459C113.275 132.872 113.125 133.021 113.125 133.205V135.621C113.125 135.805 113.275 135.954 113.459 135.954H147.109C147.293 135.954 147.442 135.805 147.442 135.621V133.205C147.442 133.021 147.293 132.872 147.109 132.872Z" fill="white"/>
<path opacity="0.51" d="M147.215 137.798H113.565C113.381 137.798 113.231 137.947 113.231 138.131V140.547C113.231 140.731 113.381 140.881 113.565 140.881H147.215C147.399 140.881 147.548 140.731 147.548 140.547V138.131C147.548 137.947 147.399 137.798 147.215 137.798Z" fill="white"/>
<path opacity="0.51" d="M133.233 142.824H113.565C113.381 142.824 113.231 142.974 113.231 143.158V145.574C113.231 145.758 113.381 145.907 113.565 145.907H133.233C133.417 145.907 133.566 145.758 133.566 145.574V143.158C133.566 142.974 133.417 142.824 133.233 142.824Z" fill="white"/>
<g opacity="0.51">
<path opacity="0.51" d="M131.342 121.383H130.819C130.694 121.383 130.575 121.334 130.487 121.246C130.398 121.158 130.349 121.038 130.349 120.913V119.125C130.349 118.818 130.227 118.524 130.01 118.307C129.793 118.09 129.498 117.968 129.191 117.968H125.952C125.645 117.968 125.35 118.09 125.133 118.307C124.916 118.524 124.794 118.818 124.794 119.125V120.911C124.794 121.036 124.744 121.156 124.656 121.244C124.568 121.332 124.449 121.381 124.324 121.381H123.801C123.677 121.381 123.557 121.332 123.469 121.244C123.381 121.156 123.331 121.036 123.331 120.911V119.125C123.331 118.781 123.399 118.441 123.531 118.123C123.662 117.805 123.855 117.516 124.099 117.273C124.342 117.03 124.631 116.837 124.949 116.705C125.267 116.573 125.608 116.506 125.952 116.506H129.191C129.535 116.506 129.876 116.573 130.194 116.705C130.512 116.837 130.801 117.03 131.044 117.273C131.288 117.516 131.481 117.805 131.612 118.123C131.744 118.441 131.812 118.781 131.812 119.125V120.911C131.812 120.973 131.8 121.035 131.777 121.092C131.753 121.149 131.719 121.201 131.675 121.245C131.631 121.289 131.579 121.324 131.522 121.347C131.465 121.371 131.404 121.383 131.342 121.383V121.383Z" fill="white"/>
<path opacity="0.51" d="M131.99 121.805H123.155C122.895 121.805 122.645 121.908 122.461 122.092C122.278 122.276 122.174 122.525 122.174 122.785V129.563C122.174 129.823 122.278 130.072 122.461 130.256C122.645 130.439 122.895 130.543 123.155 130.543H131.99C132.25 130.543 132.5 130.439 132.684 130.256C132.868 130.072 132.971 129.823 132.971 129.563V122.785C132.971 122.525 132.868 122.276 132.684 122.092C132.5 121.908 132.251 121.805 131.99 121.805ZM128.837 128.357C128.85 128.41 128.85 128.466 128.838 128.52C128.827 128.573 128.803 128.623 128.769 128.667C128.735 128.71 128.692 128.745 128.642 128.769C128.593 128.793 128.539 128.805 128.484 128.805H126.661C126.606 128.805 126.552 128.793 126.503 128.769C126.454 128.745 126.41 128.71 126.376 128.667C126.342 128.623 126.318 128.573 126.307 128.52C126.295 128.466 126.295 128.41 126.308 128.357L126.733 126.588C126.425 126.404 126.186 126.124 126.053 125.792C125.919 125.459 125.898 125.092 125.993 124.746C126.089 124.401 126.295 124.096 126.58 123.879C126.865 123.662 127.214 123.544 127.573 123.544C127.931 123.544 128.28 123.662 128.565 123.879C128.85 124.096 129.056 124.401 129.152 124.746C129.247 125.092 129.226 125.459 129.093 125.792C128.959 126.124 128.72 126.404 128.412 126.588L128.837 128.357Z" fill="white"/>
</g>
<path d="M157.064 42.2381C157.029 42.2382 156.993 42.2292 156.962 42.2118C156.914 42.1846 156.878 42.1392 156.862 42.0855C156.847 42.0319 156.854 41.9743 156.881 41.9256C157.016 41.6819 157.147 41.4364 157.275 41.1894C157.288 41.1647 157.305 41.1429 157.326 41.125C157.347 41.1071 157.372 41.0936 157.398 41.0852C157.425 41.0767 157.453 41.0736 157.48 41.0759C157.508 41.0783 157.535 41.086 157.559 41.0987C157.584 41.1115 157.606 41.1289 157.624 41.1501C157.642 41.1713 157.655 41.1958 157.664 41.2222C157.672 41.2486 157.675 41.2764 157.673 41.304C157.67 41.3316 157.663 41.3585 157.65 41.3831C157.521 41.6331 157.387 41.8831 157.25 42.1331C157.231 42.1656 157.204 42.1925 157.171 42.211C157.139 42.2295 157.102 42.2388 157.064 42.2381Z" fill="#91B3FA"/>
<path d="M132.442 56.7258C132.317 56.7258 132.192 56.7258 132.067 56.7258C132.014 56.7228 131.963 56.6994 131.926 56.6603C131.889 56.6211 131.868 56.5693 131.868 56.5154C131.868 56.4616 131.889 56.4097 131.926 56.3706C131.963 56.3315 132.014 56.3081 132.067 56.3051V56.3051C132.612 56.3126 133.162 56.3051 133.705 56.2789C133.761 56.2772 133.815 56.2972 133.856 56.3346C133.897 56.3721 133.922 56.4241 133.925 56.4795C133.927 56.5353 133.908 56.5898 133.87 56.631C133.832 56.6723 133.78 56.6969 133.724 56.6995C133.304 56.7164 132.87 56.7258 132.442 56.7258ZM129.396 56.5626H129.373C128.823 56.5001 128.269 56.4264 127.726 56.3358C127.673 56.3243 127.627 56.2929 127.596 56.2481C127.566 56.2033 127.554 56.1486 127.563 56.0952C127.572 56.0418 127.601 55.994 127.644 55.9615C127.688 55.929 127.742 55.9144 127.795 55.9208C128.331 56.0101 128.877 56.0858 129.421 56.1439C129.474 56.1497 129.524 56.1759 129.559 56.2169C129.593 56.2579 129.611 56.3108 129.608 56.3645C129.605 56.4183 129.582 56.4689 129.543 56.506C129.504 56.5431 129.452 56.5638 129.398 56.5639L129.396 56.5626ZM136.392 56.4495C136.339 56.4486 136.288 56.428 136.25 56.3917C136.212 56.3554 136.189 56.306 136.185 56.2533C136.181 56.2007 136.198 56.1486 136.231 56.1074C136.264 56.0662 136.311 56.0388 136.363 56.0308C136.901 55.9551 137.445 55.862 137.978 55.7551C138.006 55.7481 138.034 55.7467 138.063 55.7511C138.091 55.7556 138.118 55.7657 138.142 55.781C138.166 55.7962 138.187 55.8162 138.204 55.8397C138.22 55.8633 138.231 55.8899 138.237 55.9179C138.242 55.9459 138.242 55.9748 138.236 56.0028C138.23 56.0308 138.219 56.0572 138.202 56.0806C138.186 56.104 138.165 56.1237 138.14 56.1387C138.116 56.1537 138.089 56.1635 138.06 56.1676C137.52 56.2764 136.968 56.3708 136.422 56.4476L136.392 56.4495ZM125.138 55.7695C125.12 55.7695 125.102 55.7669 125.084 55.762C124.551 55.6201 124.015 55.4601 123.491 55.2864C123.44 55.2669 123.399 55.2288 123.376 55.1798C123.353 55.1309 123.35 55.0749 123.367 55.0235C123.384 54.9721 123.42 54.9293 123.468 54.9038C123.516 54.8784 123.571 54.8724 123.623 54.887C124.139 55.0576 124.667 55.2158 125.193 55.3558C125.242 55.3692 125.284 55.4 125.312 55.4424C125.341 55.4847 125.353 55.5359 125.346 55.5863C125.339 55.6368 125.315 55.6831 125.276 55.7168C125.238 55.7505 125.189 55.7692 125.138 55.7695V55.7695ZM140.617 55.5195C140.567 55.5196 140.518 55.5016 140.48 55.4687C140.442 55.4359 140.416 55.3904 140.409 55.3405C140.401 55.2906 140.412 55.2397 140.439 55.1969C140.465 55.1542 140.507 55.1225 140.555 55.1076C141.076 54.9501 141.599 54.7745 142.108 54.587C142.134 54.5763 142.162 54.571 142.191 54.5713C142.219 54.5717 142.247 54.5778 142.273 54.5892C142.299 54.6005 142.322 54.617 142.341 54.6376C142.361 54.6582 142.376 54.6825 142.385 54.7091C142.395 54.7356 142.4 54.7639 142.398 54.7921C142.397 54.8204 142.39 54.848 142.377 54.8735C142.365 54.899 142.348 54.9217 142.327 54.9404C142.305 54.959 142.281 54.9732 142.254 54.982C141.737 55.1726 141.206 55.3501 140.677 55.5108C140.658 55.5155 140.639 55.5176 140.62 55.517L140.617 55.5195ZM121.057 54.3339C121.028 54.3339 120.999 54.3279 120.973 54.3164C120.466 54.0932 119.962 53.8526 119.472 53.6014C119.447 53.5889 119.425 53.5716 119.407 53.5506C119.389 53.5295 119.375 53.5051 119.366 53.4787C119.358 53.4522 119.354 53.4244 119.357 53.3967C119.359 53.3689 119.366 53.3419 119.379 53.3172C119.392 53.2924 119.409 53.2705 119.43 53.2525C119.452 53.2345 119.476 53.2209 119.503 53.2125C119.529 53.204 119.557 53.2009 119.585 53.2033C119.612 53.2057 119.639 53.2135 119.664 53.2264C120.147 53.4764 120.644 53.7107 121.142 53.9301C121.186 53.9497 121.222 53.9838 121.244 54.0268C121.266 54.0697 121.273 54.1189 121.263 54.1661C121.253 54.2133 121.227 54.2556 121.189 54.2861C121.152 54.3165 121.105 54.3331 121.057 54.3333V54.3339ZM144.653 53.9457C144.606 53.9455 144.559 53.9292 144.522 53.8995C144.485 53.8698 144.459 53.8283 144.449 53.782C144.438 53.7356 144.443 53.687 144.464 53.6441C144.485 53.6012 144.519 53.5666 144.562 53.5457C145.051 53.3101 145.541 53.0564 146.017 52.7914C146.041 52.7769 146.068 52.7675 146.096 52.7637C146.124 52.7598 146.152 52.7616 146.179 52.7689C146.207 52.7763 146.232 52.789 146.254 52.8064C146.277 52.8238 146.295 52.8454 146.309 52.8701C146.322 52.8947 146.331 52.9219 146.334 52.9499C146.337 52.978 146.334 53.0063 146.326 53.0333C146.318 53.0603 146.305 53.0854 146.286 53.1071C146.268 53.1287 146.246 53.1466 146.221 53.1595C145.738 53.4282 145.241 53.6857 144.744 53.9251C144.716 53.9389 144.685 53.9459 144.653 53.9457V53.9457ZM117.245 52.2882C117.204 52.2884 117.165 52.2766 117.131 52.2545C116.666 51.957 116.205 51.6414 115.756 51.317C115.711 51.2838 115.681 51.2341 115.672 51.1787C115.664 51.1233 115.678 51.0668 115.711 51.0217C115.744 50.9765 115.794 50.9464 115.849 50.9379C115.904 50.9294 115.961 50.9432 116.006 50.9764C116.444 51.2964 116.9 51.607 117.358 51.9007C117.396 51.9254 117.425 51.9617 117.441 52.0043C117.457 52.0468 117.458 52.0934 117.446 52.1369C117.433 52.1805 117.406 52.2188 117.37 52.246C117.334 52.2733 117.289 52.2881 117.244 52.2882H117.245ZM148.396 51.7707C148.351 51.7706 148.308 51.7562 148.272 51.7296C148.236 51.7029 148.209 51.6655 148.196 51.6227C148.182 51.5799 148.183 51.5339 148.198 51.4915C148.212 51.4492 148.24 51.4125 148.277 51.387C148.724 51.0782 149.169 50.752 149.598 50.4176C149.619 50.3991 149.645 50.3852 149.672 50.3767C149.699 50.3682 149.728 50.3653 149.756 50.3682C149.784 50.371 149.812 50.3796 149.837 50.3934C149.861 50.4071 149.883 50.4258 149.901 50.4482C149.918 50.4707 149.931 50.4964 149.938 50.5239C149.946 50.5514 149.947 50.5801 149.943 50.6083C149.939 50.6365 149.929 50.6635 149.914 50.6878C149.899 50.712 149.88 50.733 149.857 50.7495C149.419 51.0889 148.97 51.4201 148.516 51.7339C148.48 51.758 148.439 51.7708 148.396 51.7707V51.7707ZM113.794 49.6789C113.743 49.6789 113.693 49.6603 113.655 49.6264C113.243 49.2614 112.834 48.8764 112.442 48.4889C112.423 48.4694 112.407 48.4463 112.397 48.4208C112.386 48.3954 112.381 48.3681 112.38 48.3405C112.38 48.3129 112.386 48.2855 112.396 48.26C112.407 48.2345 112.422 48.2112 112.442 48.1917C112.461 48.1721 112.484 48.1565 112.51 48.1459C112.535 48.1353 112.562 48.1297 112.59 48.1296C112.618 48.1296 112.645 48.1349 112.67 48.1454C112.696 48.1559 112.719 48.1713 112.739 48.1907C113.126 48.5745 113.528 48.952 113.934 49.3107C113.965 49.3391 113.988 49.3764 113.998 49.4179C114.008 49.4593 114.006 49.5029 113.991 49.5428C113.976 49.5827 113.949 49.6171 113.914 49.6414C113.878 49.6657 113.837 49.6788 113.794 49.6789V49.6789ZM151.763 49.0476C151.721 49.0476 151.68 49.0349 151.645 49.0112C151.61 48.9875 151.583 48.9539 151.568 48.9147C151.552 48.8755 151.549 48.8326 151.558 48.7914C151.567 48.7503 151.588 48.7128 151.619 48.6839C152.015 48.3089 152.405 47.9207 152.778 47.5264C152.816 47.4883 152.869 47.4668 152.923 47.4663C152.977 47.4658 153.03 47.4863 153.069 47.5236C153.109 47.561 153.133 47.6121 153.135 47.6665C153.138 47.7208 153.12 47.7741 153.084 47.8151C152.709 48.2157 152.31 48.6107 151.908 48.9901C151.869 49.027 151.817 49.0475 151.763 49.0476V49.0476ZM110.78 46.5726C110.749 46.5726 110.719 46.5657 110.691 46.5525C110.663 46.5393 110.638 46.5202 110.618 46.4964C110.266 46.0732 109.92 45.6332 109.592 45.1888C109.561 45.1438 109.548 45.0885 109.557 45.0346C109.566 44.9808 109.596 44.9325 109.64 44.9001C109.684 44.8676 109.739 44.8535 109.793 44.8608C109.847 44.868 109.897 44.896 109.93 44.9388C110.254 45.3763 110.594 45.8101 110.941 46.2276C110.967 46.2582 110.984 46.2956 110.989 46.3353C110.994 46.3749 110.988 46.4153 110.971 46.4515C110.954 46.4878 110.927 46.5184 110.893 46.5399C110.859 46.5613 110.82 46.5727 110.78 46.5726V46.5726ZM154.677 45.8476C154.637 45.8476 154.599 45.8365 154.565 45.8157C154.532 45.7948 154.505 45.7649 154.488 45.7295C154.47 45.6941 154.463 45.6545 154.467 45.6152C154.471 45.576 154.486 45.5387 154.511 45.5076C154.846 45.077 155.171 44.6326 155.479 44.187C155.512 44.1439 155.56 44.1152 155.613 44.1066C155.667 44.098 155.721 44.1103 155.766 44.1409C155.81 44.1715 155.842 44.2181 155.853 44.271C155.864 44.3239 155.854 44.3791 155.826 44.4251C155.513 44.8782 155.183 45.3295 154.843 45.7663C154.823 45.7916 154.798 45.812 154.769 45.8261C154.741 45.8402 154.709 45.8475 154.677 45.8476V45.8476ZM108.272 43.0451C108.235 43.0451 108.2 43.0357 108.168 43.0177C108.136 42.9998 108.11 42.9739 108.091 42.9426C107.805 42.4676 107.532 41.9801 107.278 41.4926C107.266 41.468 107.258 41.4411 107.255 41.4134C107.253 41.3858 107.256 41.358 107.265 41.3315C107.281 41.2781 107.319 41.2337 107.369 41.2079C107.418 41.1821 107.476 41.1772 107.53 41.1941C107.583 41.211 107.628 41.2485 107.653 41.2982C107.904 41.7776 108.174 42.2582 108.455 42.7263C108.474 42.7583 108.484 42.7946 108.485 42.8318C108.485 42.869 108.476 42.9057 108.458 42.938C108.439 42.9704 108.413 42.9974 108.381 43.0162C108.349 43.035 108.312 43.045 108.275 43.0451H108.272ZM106.334 39.1738C106.292 39.1736 106.251 39.1609 106.216 39.1375C106.181 39.114 106.154 39.0808 106.139 39.042C105.93 38.5295 105.735 38.0057 105.559 37.4844C105.549 37.458 105.544 37.4298 105.546 37.4015C105.547 37.3732 105.553 37.3455 105.566 37.3199C105.578 37.2943 105.595 37.2714 105.616 37.2526C105.637 37.2338 105.662 37.2194 105.689 37.2103C105.715 37.2013 105.744 37.1977 105.772 37.1998C105.8 37.2019 105.828 37.2097 105.853 37.2227C105.878 37.2357 105.9 37.2536 105.918 37.2754C105.936 37.2972 105.95 37.3223 105.958 37.3494C106.132 37.8626 106.324 38.3788 106.529 38.8838C106.539 38.9094 106.545 38.9368 106.544 38.9645C106.544 38.9922 106.539 39.0196 106.528 39.045C106.517 39.0705 106.502 39.0937 106.482 39.1131C106.462 39.1325 106.439 39.1478 106.413 39.1582C106.389 39.1682 106.363 39.1735 106.337 39.1738H106.334Z" fill="#91B3FA"/>
<path d="M105.021 35.0387C104.974 35.0388 104.928 35.0229 104.89 34.9935C104.853 34.9641 104.827 34.923 104.816 34.8769C104.751 34.601 104.691 34.325 104.635 34.0487C104.626 33.995 104.638 33.94 104.669 33.8953C104.7 33.8505 104.747 33.8195 104.801 33.8087C104.854 33.7978 104.909 33.8081 104.955 33.8372C105.001 33.8663 105.034 33.9121 105.047 33.965C105.103 34.2375 105.162 34.5083 105.226 34.7775C105.238 34.8314 105.228 34.8878 105.199 34.9346C105.169 34.9813 105.123 35.0147 105.069 35.0275C105.053 35.0328 105.037 35.0366 105.021 35.0387V35.0387Z" fill="#91B3FA"/>
<path d="M108.589 13.5819C108.551 13.5817 108.514 13.5715 108.482 13.5523C108.45 13.5332 108.423 13.5057 108.405 13.4728C108.387 13.4399 108.378 13.4028 108.379 13.3653C108.38 13.3277 108.391 13.2912 108.411 13.2594C108.561 13.0206 108.715 12.7838 108.873 12.5488C108.905 12.5043 108.953 12.474 109.007 12.4643C109.061 12.4546 109.116 12.4662 109.162 12.4968C109.207 12.5274 109.239 12.5744 109.25 12.628C109.262 12.6815 109.252 12.7374 109.223 12.7838C109.067 13.015 108.915 13.2483 108.767 13.4838C108.748 13.5138 108.722 13.5386 108.69 13.5557C108.659 13.5729 108.624 13.5819 108.589 13.5819V13.5819Z" fill="#91B3FA"/>
<path d="M159.459 20.6306C159.413 20.6306 159.369 20.6159 159.333 20.5886C159.296 20.5614 159.269 20.523 159.256 20.4794C159.096 19.9306 158.916 19.3806 158.721 18.8425C158.712 18.8165 158.708 18.789 158.709 18.7614C158.71 18.7338 158.717 18.7067 158.729 18.6818C158.741 18.6568 158.757 18.6343 158.778 18.6158C158.798 18.5972 158.822 18.5828 158.848 18.5734C158.874 18.5641 158.901 18.5599 158.929 18.5612C158.957 18.5625 158.984 18.5692 159.009 18.581C159.034 18.5927 159.056 18.6093 159.075 18.6297C159.093 18.6501 159.108 18.674 159.117 18.7C159.315 19.245 159.497 19.8037 159.661 20.3606C159.669 20.3872 159.671 20.415 159.668 20.4425C159.665 20.47 159.657 20.4966 159.643 20.5209C159.63 20.5452 159.612 20.5666 159.591 20.5839C159.569 20.6012 159.544 20.6141 159.518 20.6219C159.499 20.6278 159.479 20.6308 159.459 20.6306ZM157.828 16.3806C157.789 16.3802 157.75 16.3689 157.717 16.3479C157.684 16.327 157.657 16.2972 157.64 16.2619C157.39 15.7456 157.125 15.2313 156.846 14.7338C156.821 14.6851 156.815 14.6285 156.831 14.5758C156.846 14.5231 156.882 14.4786 156.93 14.4518C156.978 14.425 157.034 14.4179 157.087 14.4322C157.14 14.4464 157.186 14.4809 157.214 14.5281C157.496 15.0331 157.768 15.555 158.02 16.0794C158.032 16.1043 158.039 16.1313 158.04 16.1589C158.042 16.1865 158.038 16.2141 158.029 16.2402C158.019 16.2663 158.005 16.2903 157.987 16.3108C157.968 16.3314 157.946 16.3481 157.921 16.36C157.892 16.375 157.86 16.3829 157.828 16.3831V16.3806ZM155.529 12.4544C155.495 12.4545 155.462 12.4463 155.432 12.4306C155.402 12.415 155.376 12.3922 155.356 12.3644C155.029 11.8969 154.682 11.4325 154.326 10.985C154.295 10.9411 154.281 10.8869 154.289 10.8334C154.296 10.7799 154.324 10.7313 154.366 10.6976C154.408 10.6639 154.462 10.6477 154.515 10.6524C154.569 10.657 154.619 10.6821 154.655 10.7225C155.017 11.1775 155.369 11.6488 155.702 12.1231C155.724 12.1547 155.737 12.1917 155.739 12.2301C155.742 12.2685 155.733 12.3069 155.716 12.341C155.698 12.3752 155.671 12.4038 155.638 12.4238C155.605 12.4438 155.568 12.4543 155.529 12.4544ZM110.737 10.6175C110.697 10.6176 110.658 10.6063 110.624 10.5849C110.59 10.5635 110.563 10.533 110.546 10.4968C110.529 10.4607 110.523 10.4204 110.528 10.3808C110.533 10.3412 110.549 10.3038 110.575 10.2731C110.944 9.82812 111.334 9.3875 111.732 8.96062C111.751 8.93923 111.774 8.92181 111.799 8.9094C111.825 8.89699 111.852 8.88986 111.881 8.88842C111.909 8.88698 111.937 8.89127 111.964 8.90103C111.99 8.91079 112.015 8.92582 112.035 8.94522C112.056 8.96462 112.073 8.98799 112.084 9.01393C112.096 9.03988 112.102 9.06785 112.102 9.0962C112.102 9.12454 112.097 9.15265 112.086 9.17887C112.075 9.20508 112.059 9.22885 112.039 9.24875C111.647 9.66687 111.263 10.1013 110.899 10.5394C110.88 10.564 110.855 10.5841 110.827 10.598C110.799 10.612 110.768 10.6195 110.737 10.62V10.6175ZM152.629 8.94812C152.601 8.94836 152.573 8.94295 152.547 8.93221C152.521 8.92148 152.497 8.90564 152.477 8.88562C152.081 8.47687 151.665 8.07313 151.241 7.68813C151.2 7.6505 151.175 7.59795 151.172 7.54204C151.17 7.48613 151.189 7.43144 151.227 7.39C151.265 7.34856 151.317 7.32376 151.373 7.32107C151.429 7.31837 151.484 7.338 151.525 7.37563C151.955 7.7675 152.377 8.17625 152.779 8.59125C152.808 8.62083 152.828 8.6583 152.836 8.69896C152.843 8.73962 152.839 8.78166 152.823 8.81978C152.807 8.85791 152.78 8.89044 152.745 8.91327C152.711 8.9361 152.67 8.94823 152.629 8.94812V8.94812ZM113.915 7.36125C113.872 7.36117 113.83 7.34807 113.795 7.3237C113.76 7.29933 113.733 7.26483 113.718 7.2248C113.703 7.18477 113.7 7.1411 113.711 7.09961C113.721 7.05811 113.744 7.02075 113.776 6.9925C114.214 6.61 114.669 6.23688 115.128 5.8825C115.172 5.84835 115.228 5.83319 115.283 5.84034C115.339 5.84749 115.389 5.87637 115.423 5.92063C115.458 5.96488 115.473 6.02089 115.466 6.07633C115.458 6.13177 115.43 6.1821 115.385 6.21625C114.933 6.56437 114.485 6.9325 114.053 7.30937C114.015 7.34386 113.966 7.36322 113.915 7.36375V7.36125ZM149.208 5.95C149.163 5.9497 149.12 5.93527 149.083 5.90875C148.625 5.5675 148.149 5.23687 147.671 4.92562C147.648 4.91056 147.628 4.89109 147.612 4.86832C147.597 4.84555 147.586 4.81992 147.58 4.79291C147.574 4.76589 147.574 4.73801 147.579 4.71087C147.584 4.68372 147.594 4.65783 147.609 4.63469C147.624 4.61154 147.644 4.59159 147.667 4.57597C147.689 4.56035 147.715 4.54937 147.742 4.54365C147.769 4.53793 147.797 4.53759 147.824 4.54265C147.851 4.54771 147.877 4.55806 147.9 4.57312C148.386 4.88937 148.869 5.225 149.335 5.57312C149.37 5.59955 149.396 5.63642 149.409 5.67853C149.423 5.72064 149.422 5.76585 149.409 5.80779C149.395 5.84973 149.368 5.88626 149.332 5.91223C149.297 5.93819 149.254 5.95228 149.21 5.9525L149.208 5.95ZM117.573 4.65188C117.528 4.65184 117.483 4.63692 117.447 4.60936C117.41 4.58179 117.384 4.5431 117.371 4.49911C117.358 4.45513 117.361 4.40825 117.377 4.36556C117.393 4.32287 117.423 4.2867 117.462 4.2625C117.954 3.95625 118.462 3.66063 118.974 3.3875C119.024 3.36098 119.081 3.35503 119.135 3.37097C119.188 3.38692 119.233 3.42344 119.26 3.4725C119.286 3.52157 119.292 3.57916 119.276 3.6326C119.26 3.68605 119.224 3.73098 119.175 3.7575C118.671 4.02937 118.169 4.32 117.685 4.6225C117.651 4.64337 117.612 4.65441 117.572 4.65438L117.573 4.65188ZM145.346 3.54625C145.312 3.54633 145.279 3.53817 145.25 3.5225C144.742 3.26125 144.219 3.01187 143.696 2.78187C143.671 2.77079 143.648 2.75484 143.629 2.73493C143.61 2.71502 143.595 2.69154 143.585 2.66583C143.574 2.64012 143.57 2.61268 143.57 2.58509C143.571 2.55749 143.577 2.53028 143.588 2.505C143.599 2.47972 143.615 2.45687 143.635 2.43776C143.655 2.41864 143.678 2.40364 143.704 2.39359C143.73 2.38355 143.757 2.37868 143.785 2.37924C143.812 2.3798 143.839 2.38579 143.865 2.39687C144.396 2.63 144.928 2.88312 145.442 3.14687C145.484 3.16859 145.517 3.20369 145.537 3.24654C145.556 3.2894 145.561 3.33756 145.55 3.38332C145.539 3.42908 145.513 3.46981 145.476 3.499C145.439 3.5282 145.393 3.54417 145.346 3.54437V3.54625ZM121.619 2.57063C121.57 2.57104 121.523 2.55443 121.485 2.52366C121.447 2.49288 121.421 2.44986 121.411 2.402C121.402 2.35414 121.409 2.30442 121.432 2.26139C121.455 2.21837 121.493 2.18472 121.538 2.16625C122.072 1.94375 122.623 1.735 123.173 1.54562C123.225 1.52739 123.283 1.53084 123.333 1.55522C123.384 1.5796 123.422 1.62291 123.44 1.67562C123.458 1.72834 123.455 1.78613 123.431 1.8363C123.406 1.88646 123.363 1.92489 123.31 1.94313C122.768 2.13063 122.226 2.33563 121.7 2.555C121.674 2.56534 121.647 2.57065 121.619 2.57063V2.57063ZM141.149 1.79625C141.128 1.79605 141.107 1.79268 141.086 1.78625C140.543 1.61 139.987 1.44875 139.433 1.30625C139.406 1.29936 139.381 1.28725 139.359 1.27063C139.336 1.254 139.318 1.23318 139.304 1.20936C139.29 1.18553 139.28 1.15917 139.277 1.13178C139.273 1.10438 139.274 1.07649 139.281 1.04969C139.288 1.02289 139.3 0.997712 139.317 0.975592C139.333 0.953473 139.354 0.934844 139.378 0.92077C139.402 0.906697 139.428 0.897453 139.456 0.893567C139.483 0.889682 139.511 0.891231 139.538 0.898125C140.1 1.04312 140.663 1.21063 141.216 1.38625C141.264 1.40148 141.305 1.43316 141.331 1.47562C141.357 1.51808 141.368 1.56852 141.36 1.6179C141.353 1.66728 141.328 1.71236 141.29 1.74505C141.252 1.77774 141.204 1.79589 141.154 1.79625H141.149ZM125.949 1.17125C125.897 1.17191 125.847 1.15327 125.808 1.11896C125.769 1.08464 125.744 1.03707 125.738 0.985457C125.732 0.93384 125.745 0.881836 125.775 0.839501C125.806 0.797165 125.85 0.767503 125.901 0.75625C126.464 0.623125 127.043 0.50625 127.614 0.408125C127.669 0.398677 127.725 0.411444 127.771 0.443618C127.817 0.475792 127.847 0.524738 127.857 0.579687C127.866 0.634637 127.854 0.691089 127.821 0.736625C127.789 0.782162 127.74 0.813052 127.685 0.8225C127.123 0.91875 126.555 1.03437 125.997 1.16562C125.982 1.16931 125.965 1.17119 125.949 1.17125V1.17125ZM136.722 0.75C136.711 0.75093 136.701 0.75093 136.69 0.75C136.127 0.663125 135.55 0.593125 134.98 0.54125C134.953 0.538747 134.926 0.530852 134.901 0.518017C134.877 0.505183 134.855 0.487659 134.838 0.466446C134.82 0.445234 134.807 0.420748 134.798 0.394388C134.79 0.368027 134.787 0.340308 134.79 0.312813C134.792 0.285317 134.8 0.258584 134.813 0.234139C134.826 0.209695 134.843 0.188017 134.865 0.170345C134.886 0.152673 134.91 0.139352 134.937 0.131143C134.963 0.122934 134.991 0.119997 135.018 0.1225C135.596 0.175 136.18 0.2475 136.753 0.334375C136.806 0.341465 136.855 0.36859 136.888 0.410197C136.922 0.451804 136.939 0.504745 136.935 0.55818C136.931 0.611615 136.907 0.661503 136.867 0.697628C136.827 0.733753 136.775 0.753384 136.722 0.7525V0.75ZM130.449 0.48875C130.393 0.490739 130.339 0.470522 130.298 0.432546C130.257 0.39457 130.233 0.341945 130.231 0.28625C130.229 0.230555 130.249 0.17635 130.287 0.135561C130.325 0.0947717 130.378 0.0707391 130.434 0.06875C131.012 0.028125 131.6 0.00625 132.18 0C132.234 0.00293371 132.285 0.0263705 132.322 0.0654899C132.359 0.104609 132.38 0.156437 132.38 0.210313C132.38 0.264188 132.359 0.316016 132.322 0.355135C132.285 0.394254 132.234 0.417691 132.18 0.420625C131.608 0.425625 131.029 0.448125 130.46 0.488125L130.449 0.48875Z" fill="#91B3FA"/>
<path d="M160.259 24.2131C160.209 24.2131 160.16 24.1951 160.122 24.1625C160.084 24.1298 160.059 24.0846 160.051 24.0349C160.009 23.7599 159.962 23.4856 159.91 23.2118C159.9 23.1569 159.912 23.1002 159.944 23.0542C159.975 23.0081 160.024 22.9765 160.078 22.9662C160.133 22.9564 160.19 22.9686 160.236 23C160.282 23.0315 160.313 23.0797 160.324 23.1343C160.376 23.4126 160.424 23.6912 160.467 23.9699C160.476 24.0251 160.462 24.0814 160.429 24.1265C160.396 24.1716 160.347 24.2018 160.292 24.2106C160.281 24.212 160.27 24.2128 160.259 24.2131Z" fill="#91B3FA"/>
<path d="M154.059 27.7336C154.065 27.6635 154.048 27.5935 154.012 27.5332C153.976 27.4729 153.922 27.4254 153.857 27.3973L150.083 25.7586C149.789 23.8334 149.182 21.9692 148.287 20.2392L150.369 16.6955C150.405 16.6349 150.421 16.5647 150.415 16.4946C150.408 16.4246 150.381 16.3583 150.335 16.3048L147.128 12.5548C147.082 12.5014 147.02 12.4635 146.952 12.4466C146.884 12.4297 146.812 12.4345 146.746 12.4605L142.922 13.968C141.351 12.8161 139.603 11.928 137.746 11.3386L136.711 7.35858C136.693 7.29091 136.654 7.23051 136.6 7.18573C136.546 7.14094 136.48 7.11399 136.41 7.10858L131.491 6.72546C131.421 6.7198 131.351 6.73622 131.29 6.77242C131.23 6.80862 131.182 6.86279 131.155 6.92733L129.515 10.6992C127.59 10.9944 125.725 11.601 123.994 12.4955L120.449 10.4136C120.389 10.3782 120.318 10.3625 120.248 10.3688C120.178 10.3751 120.112 10.403 120.059 10.4486L116.307 13.6548C116.254 13.7006 116.216 13.762 116.199 13.8304C116.182 13.8987 116.187 13.9706 116.213 14.0361L117.721 17.8592C116.569 19.4297 115.68 21.1774 115.091 23.0336L111.109 24.068C111.041 24.086 110.981 24.1247 110.936 24.1787C110.891 24.2327 110.864 24.2993 110.859 24.3692L110.476 29.2867C110.47 29.3568 110.487 29.4268 110.523 29.4871C110.559 29.5474 110.613 29.5948 110.678 29.623L114.451 31.2617C114.745 33.1869 115.352 35.0512 116.247 36.7811L114.165 40.3248C114.129 40.3855 114.114 40.4557 114.12 40.5258C114.126 40.5958 114.154 40.6621 114.2 40.7155L117.407 44.4655C117.453 44.5189 117.514 44.5567 117.582 44.5736C117.651 44.5905 117.723 44.5857 117.788 44.5598L121.613 43.0523C123.184 44.2044 124.932 45.0925 126.789 45.6817L127.823 49.6617C127.841 49.7294 127.88 49.7899 127.934 49.8347C127.988 49.8795 128.054 49.9064 128.124 49.9117L133.044 50.2948C133.114 50.3003 133.184 50.2838 133.244 50.2476C133.305 50.2115 133.352 50.1574 133.38 50.093L135.019 46.3211C136.945 46.0265 138.81 45.4198 140.541 44.5248L144.085 46.6067C144.146 46.6421 144.216 46.6578 144.286 46.6515C144.356 46.6452 144.423 46.6173 144.476 46.5717L148.227 43.3655C148.281 43.3197 148.319 43.2585 148.335 43.1903C148.352 43.122 148.348 43.0502 148.322 42.9848L146.814 39.1611C147.966 37.5907 148.854 35.843 149.444 33.9867L153.425 32.9523C153.493 32.9342 153.553 32.8954 153.598 32.8415C153.643 32.7875 153.67 32.721 153.675 32.6511L154.059 27.7336Z" fill="#91B3FA"/>
<path opacity="0.7" d="M132.257 33.2067C131.044 33.2056 129.878 32.7361 129.002 31.8961C128.126 31.056 127.609 29.9104 127.558 28.6984C127.507 27.4863 127.927 26.3014 128.729 25.391C129.531 24.4806 130.654 23.915 131.863 23.8123C133.072 23.7096 134.274 24.0777 135.218 24.8398C136.163 25.6019 136.776 26.6991 136.93 27.9024C137.085 29.1057 136.768 30.3221 136.047 31.2977C135.326 32.2734 134.255 32.9329 133.059 33.1385C132.794 33.1838 132.526 33.2066 132.257 33.2067V33.2067ZM132.276 24.4442C132.043 24.4444 131.811 24.4643 131.581 24.5035C130.655 24.6626 129.812 25.1378 129.197 25.8483C128.581 26.5589 128.232 27.4607 128.207 28.4002C128.182 29.3397 128.484 30.2587 129.061 31.0007C129.638 31.7427 130.454 32.2618 131.371 32.4695C132.288 32.6772 133.248 32.5607 134.089 32.1398C134.93 31.719 135.598 31.0198 135.981 30.1614C136.364 29.303 136.437 28.3385 136.188 27.4322C135.939 26.5259 135.384 25.7338 134.616 25.191V25.191C133.934 24.7058 133.117 24.4448 132.279 24.4442H132.276Z" fill="white"/>
<path opacity="0.7" d="M132.182 40.73C131.86 40.73 131.537 40.7175 131.212 40.6925C128.148 40.4535 125.286 39.0692 123.197 36.8153C121.108 34.5614 119.944 31.6034 119.939 28.5306C119.939 28.2085 119.951 27.8854 119.976 27.5613C120.164 25.1519 121.063 22.8524 122.558 20.9535C124.053 19.0545 126.078 17.6414 128.376 16.8929C130.675 16.1444 133.144 16.094 135.471 16.7482C137.798 17.4024 139.879 18.7317 141.45 20.5681C142.016 21.2285 142.509 21.9472 142.923 22.7119L142.368 23.0119C141.18 20.8086 139.31 19.049 137.039 17.9963C134.767 16.9437 132.216 16.6545 129.766 17.1722C127.316 17.6899 125.1 18.9865 123.449 20.8681C121.798 22.7497 120.8 25.1152 120.606 27.6106C120.582 27.9181 120.57 28.2244 120.57 28.5294C120.576 31.2767 121.557 33.9327 123.34 36.0237C125.123 38.1147 127.59 39.5046 130.303 39.9455C133.015 40.3865 135.796 39.8497 138.15 38.4311C140.503 37.0124 142.276 34.8041 143.152 32.2L143.751 32.4006C142.936 34.8234 141.382 36.9299 139.307 38.4239C137.232 39.918 134.742 40.7245 132.185 40.73H132.182Z" fill="white"/>
<path d="M180.805 49.1451C180.768 49.145 180.732 49.1351 180.7 49.1164C180.668 49.0977 180.641 49.0709 180.623 49.0387C180.604 49.0065 180.595 48.97 180.595 48.9329C180.595 48.8959 180.606 48.8596 180.624 48.8276C180.766 48.5889 180.901 48.3451 181.026 48.1026C181.038 48.078 181.056 48.0561 181.077 48.0382C181.098 48.0203 181.123 48.0068 181.149 47.9983C181.175 47.9899 181.203 47.9867 181.231 47.989C181.258 47.9913 181.285 47.999 181.31 48.0117C181.334 48.0244 181.356 48.0418 181.374 48.0629C181.392 48.084 181.406 48.1085 181.414 48.1349C181.423 48.1613 181.426 48.189 181.424 48.2166C181.421 48.2442 181.413 48.2711 181.401 48.2957C181.272 48.5457 181.133 48.7958 180.987 49.042C180.968 49.0736 180.942 49.0998 180.91 49.1179C180.878 49.136 180.842 49.1454 180.805 49.1451V49.1451Z" fill="#91B3FA"/>
<path d="M167.221 56.1873H167.204C166.631 56.1422 166.062 56.0639 165.499 55.953C165.445 55.9411 165.398 55.9087 165.368 55.8626C165.338 55.8165 165.327 55.7604 165.337 55.7063C165.348 55.6522 165.38 55.6045 165.425 55.5734C165.471 55.5423 165.527 55.5302 165.581 55.5398C166.128 55.6478 166.681 55.7239 167.237 55.768C167.29 55.7736 167.339 55.7992 167.374 55.8396C167.409 55.88 167.427 55.9322 167.425 55.9856C167.423 56.039 167.401 56.0896 167.363 56.1271C167.325 56.1647 167.274 56.1865 167.221 56.188V56.1873ZM169.972 56.143C169.918 56.143 169.866 56.1224 169.827 56.0854C169.787 56.0484 169.764 55.9977 169.761 55.9439C169.758 55.8901 169.776 55.8372 169.811 55.7961C169.846 55.755 169.895 55.7288 169.948 55.723C170.503 55.6609 171.053 55.5668 171.596 55.4411C171.65 55.4284 171.707 55.4378 171.755 55.4672C171.802 55.4967 171.836 55.5437 171.848 55.598C171.861 55.6523 171.852 55.7094 171.822 55.7567C171.793 55.8041 171.746 55.8378 171.691 55.8505C171.132 55.9802 170.566 56.0775 169.995 56.1417L169.972 56.143ZM162.899 55.168C162.872 55.1678 162.845 55.1628 162.82 55.153C162.288 54.9366 161.77 54.6893 161.267 54.4123C161.243 54.399 161.221 54.381 161.204 54.3595C161.187 54.3379 161.174 54.3131 161.167 54.2866C161.159 54.2601 161.156 54.2323 161.16 54.2049C161.163 54.1774 161.171 54.1509 161.184 54.1267C161.198 54.1025 161.216 54.0812 161.237 54.064C161.259 54.0468 161.284 54.034 161.31 54.0263C161.337 54.0186 161.365 54.0163 161.392 54.0194C161.419 54.0224 161.446 54.0309 161.47 54.0442C161.959 54.313 162.462 54.553 162.979 54.763C163.024 54.7811 163.062 54.8146 163.085 54.8576C163.109 54.9005 163.116 54.9503 163.107 54.9984C163.098 55.0464 163.072 55.0896 163.034 55.1206C162.996 55.1515 162.948 55.1683 162.899 55.168V55.168ZM174.254 54.9805C174.206 54.9803 174.159 54.9637 174.122 54.9334C174.085 54.9032 174.059 54.861 174.049 54.814C174.039 54.7669 174.045 54.7179 174.067 54.675C174.088 54.632 174.124 54.5978 174.168 54.578C174.677 54.3506 175.173 54.0933 175.651 53.8073C175.699 53.7808 175.756 53.7739 175.808 53.788C175.861 53.8022 175.906 53.8364 175.935 53.8833C175.963 53.9302 175.971 53.9862 175.959 54.0394C175.946 54.0927 175.914 54.139 175.868 54.1686C175.374 54.4627 174.864 54.7277 174.34 54.9623C174.313 54.9737 174.285 54.9794 174.256 54.9792L174.254 54.9805ZM159.1 52.8848C159.051 52.8847 159.003 52.8675 158.965 52.8361C158.524 52.4683 158.106 52.0751 157.711 51.6586C157.69 51.6388 157.674 51.6151 157.663 51.5889C157.652 51.5627 157.647 51.5346 157.647 51.5062C157.647 51.4778 157.653 51.4497 157.664 51.4237C157.676 51.3976 157.692 51.3741 157.713 51.3546C157.733 51.3351 157.758 51.3199 157.784 51.31C157.811 51.3002 157.839 51.2958 157.868 51.2971C157.896 51.2985 157.924 51.3056 157.95 51.318C157.975 51.3304 157.998 51.3478 158.017 51.3692C158.4 51.7737 158.807 52.1556 159.235 52.513C159.268 52.5407 159.292 52.578 159.303 52.6197C159.314 52.6614 159.312 52.7055 159.298 52.7461C159.283 52.7867 159.256 52.8217 159.221 52.8465C159.185 52.8714 159.143 52.8847 159.1 52.8848V52.8848ZM177.981 52.5673C177.938 52.5675 177.897 52.5547 177.861 52.5307C177.826 52.5066 177.799 52.4723 177.784 52.4325C177.769 52.3927 177.766 52.3491 177.776 52.3077C177.786 52.2662 177.808 52.2288 177.84 52.2005L177.965 52.0886C178.336 51.7503 178.69 51.3929 179.024 51.018C179.062 50.9804 179.113 50.9588 179.166 50.9575C179.22 50.9562 179.271 50.9753 179.311 51.0109C179.351 51.0465 179.376 51.0959 179.381 51.1492C179.385 51.2024 179.369 51.2554 179.336 51.2973C178.993 51.6835 178.629 52.0515 178.247 52.3998L178.122 52.5142C178.083 52.5488 178.033 52.5677 177.981 52.5673ZM156.162 49.5573C156.126 49.5575 156.091 49.5487 156.06 49.5317C156.029 49.5148 156.003 49.4903 155.984 49.4605C155.675 48.9773 155.394 48.4764 155.143 47.9604C155.122 47.9107 155.12 47.8548 155.14 47.8043C155.159 47.7537 155.196 47.7125 155.245 47.689C155.294 47.6655 155.349 47.6615 155.401 47.678C155.452 47.6944 155.495 47.73 155.521 47.7773C155.765 48.2787 156.038 48.7653 156.339 49.2348C156.359 49.2666 156.371 49.3032 156.372 49.341C156.373 49.3787 156.364 49.4161 156.346 49.4493C156.328 49.4824 156.301 49.51 156.269 49.5293C156.236 49.5485 156.199 49.5586 156.162 49.5586V49.5573Z" fill="#91B3FA"/>
<path d="M154.374 45.4893C154.328 45.4892 154.283 45.4738 154.246 45.4454C154.209 45.4171 154.182 45.3773 154.17 45.3324C154.098 45.0624 154.036 44.7793 153.973 44.4999C153.965 44.4462 153.977 44.3912 154.008 44.3464C154.039 44.3017 154.086 44.2707 154.139 44.2598C154.193 44.249 154.248 44.2592 154.294 44.2884C154.34 44.3175 154.373 44.3633 154.386 44.4161C154.441 44.6855 154.505 44.9568 154.574 45.223C154.581 45.2497 154.583 45.2775 154.579 45.3049C154.575 45.3323 154.566 45.3587 154.552 45.3826C154.539 45.4064 154.52 45.4273 154.498 45.444C154.476 45.4608 154.451 45.4729 154.424 45.4799C154.408 45.4851 154.391 45.4883 154.374 45.4893V45.4893Z" fill="#91B3FA"/>
<path d="M156.108 34.0701C156.068 34.0701 156.03 34.0589 155.996 34.0376C155.973 34.0229 155.952 34.0038 155.936 33.9812C155.92 33.9587 155.909 33.9333 155.903 33.9063C155.897 33.8794 155.896 33.8515 155.9 33.8243C155.905 33.797 155.915 33.771 155.93 33.7476C156.081 33.5076 156.242 33.2695 156.406 33.0389C156.422 33.0164 156.442 32.9973 156.466 32.9827C156.489 32.9681 156.515 32.9583 156.543 32.9538C156.57 32.9492 156.598 32.9501 156.625 32.9564C156.651 32.9626 156.677 32.9741 156.699 32.9901C156.722 33.0062 156.741 33.0265 156.755 33.0499C156.77 33.0733 156.78 33.0993 156.784 33.1266C156.789 33.1538 156.788 33.1816 156.782 33.2085C156.776 33.2354 156.764 33.2608 156.748 33.2832C156.589 33.507 156.436 33.7388 156.286 33.9707C156.267 34.001 156.241 34.0261 156.21 34.0435C156.179 34.0608 156.144 34.07 156.108 34.0701V34.0701Z" fill="#91B3FA"/>
<path d="M181.675 36.1164C181.634 36.1165 181.594 36.1043 181.559 36.0815C181.525 36.0588 181.498 36.0263 181.481 35.9883C181.267 35.4835 181.023 34.9916 180.752 34.5151C180.728 34.4669 180.723 34.4112 180.738 34.3595C180.754 34.3077 180.789 34.264 180.836 34.2373C180.883 34.2106 180.938 34.2029 180.991 34.2159C181.043 34.2289 181.089 34.2615 181.118 34.307C181.397 34.7976 181.648 35.3041 181.868 35.8239C181.89 35.8753 181.89 35.9332 181.869 35.985C181.849 36.0368 181.808 36.0782 181.757 36.1001C181.731 36.1108 181.703 36.1163 181.675 36.1164ZM179.379 32.4045C179.349 32.4046 179.318 32.398 179.291 32.3853C179.263 32.3726 179.239 32.3539 179.219 32.3308C179.111 32.2058 179.001 32.0808 178.889 31.9558C178.632 31.6739 178.361 31.4001 178.083 31.1401C178.062 31.1216 178.044 31.0989 178.032 31.0735C178.019 31.048 178.012 31.0203 178.011 30.9921C178.009 30.9638 178.013 30.9355 178.023 30.9089C178.033 30.8823 178.048 30.8579 178.067 30.8373C178.087 30.8166 178.11 30.8 178.136 30.7885C178.162 30.7771 178.19 30.7709 178.218 30.7705C178.246 30.7701 178.274 30.7754 178.301 30.786C178.327 30.7967 178.351 30.8126 178.371 30.8326C178.656 31.1001 178.933 31.3826 179.2 31.672C179.315 31.797 179.429 31.927 179.539 32.057C179.565 32.0875 179.582 32.125 179.588 32.1648C179.593 32.2047 179.587 32.2453 179.57 32.2819C179.554 32.3184 179.527 32.3493 179.493 32.371C179.459 32.3926 179.419 32.404 179.379 32.4039V32.4045ZM158.35 31.3251C158.308 31.3251 158.267 31.3125 158.232 31.2889C158.197 31.2654 158.17 31.232 158.155 31.193C158.139 31.1541 158.136 31.1113 158.144 31.0703C158.153 31.0292 158.174 30.9917 158.204 30.9626C158.29 30.8814 158.376 30.801 158.463 30.7214C158.792 30.4214 159.138 30.1326 159.492 29.8645C159.537 29.8343 159.591 29.8223 159.645 29.8311C159.698 29.8398 159.746 29.8686 159.778 29.9115C159.811 29.9545 159.826 30.0082 159.82 30.0618C159.814 30.1154 159.788 30.1647 159.747 30.1995C159.403 30.4601 159.066 30.7408 158.746 31.032C158.661 31.1095 158.578 31.1883 158.496 31.267C158.457 31.3046 158.404 31.3255 158.35 31.3251V31.3251ZM176.081 29.5408C176.041 29.5407 176.003 29.5294 175.969 29.5083C175.506 29.2156 175.025 28.95 174.531 28.7126C174.484 28.6869 174.448 28.6438 174.431 28.5924C174.415 28.541 174.418 28.4852 174.442 28.4365C174.465 28.3878 174.506 28.3499 174.557 28.3307C174.607 28.3115 174.663 28.3124 174.713 28.3333C175.222 28.5774 175.716 28.851 176.194 29.1526C176.232 29.1769 176.262 29.2131 176.279 29.2558C176.295 29.2985 176.297 29.3453 176.284 29.3892C176.271 29.4331 176.245 29.4717 176.208 29.4991C176.171 29.5264 176.127 29.541 176.081 29.5408V29.5408ZM161.924 28.8126C161.876 28.813 161.83 28.7972 161.792 28.7678C161.755 28.7384 161.728 28.6971 161.717 28.6507C161.707 28.6043 161.712 28.5557 161.732 28.5126C161.753 28.4696 161.787 28.4348 161.83 28.4139C162.336 28.163 162.856 27.9414 163.387 27.7501C163.44 27.7312 163.498 27.7338 163.548 27.7576C163.599 27.7813 163.638 27.8242 163.657 27.8767C163.676 27.9293 163.673 27.9872 163.65 28.0378C163.626 28.0883 163.583 28.1274 163.53 28.1464C163.014 28.3322 162.509 28.5476 162.017 28.7914C161.988 28.8056 161.956 28.8129 161.924 28.8126ZM172.084 27.7945C172.066 27.7945 172.048 27.792 172.03 27.787C171.5 27.6466 170.962 27.5366 170.419 27.4577C170.391 27.4537 170.365 27.4443 170.341 27.4302C170.318 27.416 170.297 27.3973 170.28 27.3751C170.264 27.3529 170.252 27.3277 170.245 27.3009C170.238 27.2741 170.237 27.2462 170.241 27.2189C170.245 27.1914 170.254 27.165 170.268 27.1411C170.282 27.1172 170.3 27.0963 170.323 27.0798C170.345 27.0632 170.37 27.0513 170.397 27.0447C170.424 27.0381 170.452 27.037 170.479 27.0414C171.038 27.1226 171.592 27.2357 172.138 27.3801C172.188 27.3931 172.231 27.4237 172.259 27.4662C172.288 27.5087 172.3 27.5602 172.294 27.611C172.287 27.6618 172.262 27.7085 172.224 27.7422C172.185 27.776 172.135 27.7946 172.084 27.7945ZM166.082 27.4864C166.03 27.4857 165.98 27.4654 165.941 27.4295C165.903 27.3936 165.879 27.3447 165.875 27.2924C165.871 27.2401 165.887 27.1881 165.919 27.1467C165.951 27.1052 165.998 27.0773 166.049 27.0683C166.608 26.9802 167.172 26.924 167.737 26.9002C167.792 26.8998 167.844 26.9207 167.884 26.9583C167.923 26.996 167.947 27.0475 167.949 27.102C167.951 27.1565 167.932 27.2098 167.896 27.2506C167.86 27.2914 167.809 27.3166 167.755 27.3208C167.207 27.3441 166.66 27.3985 166.118 27.4839C166.106 27.4862 166.095 27.4875 166.083 27.4876L166.082 27.4864Z" fill="#91B3FA"/>
<path d="M182.65 39.5313C182.6 39.5312 182.551 39.5132 182.513 39.4806C182.475 39.4479 182.45 39.4028 182.442 39.3532C182.4 39.0813 182.349 38.807 182.29 38.5407C182.279 38.4861 182.289 38.429 182.319 38.3821C182.35 38.3351 182.397 38.3021 182.452 38.2904C182.507 38.2786 182.564 38.289 182.611 38.3193C182.658 38.3496 182.691 38.3973 182.702 38.4519C182.762 38.7288 182.814 39.0113 182.858 39.2907C182.867 39.3459 182.853 39.4022 182.82 39.4473C182.787 39.4923 182.738 39.5226 182.682 39.5313C182.672 39.5319 182.661 39.5319 182.65 39.5313V39.5313Z" fill="#91B3FA"/>
<path d="M179.465 41.2375C179.468 41.2014 179.46 41.1654 179.441 41.1344C179.422 41.1034 179.395 41.0789 179.362 41.0643L177.423 40.2231C177.272 39.2341 176.96 38.2764 176.501 37.3875L177.57 35.5675C177.588 35.5364 177.596 35.5003 177.593 35.4644C177.59 35.4284 177.576 35.3943 177.552 35.3669L175.905 33.4412C175.881 33.4138 175.85 33.3943 175.815 33.3856C175.78 33.3768 175.743 33.3793 175.709 33.3925L173.744 34.1669C172.937 33.5749 172.039 33.1187 171.085 32.8162L170.554 30.7719C170.545 30.7369 170.525 30.7056 170.497 30.6824C170.47 30.6592 170.435 30.6452 170.399 30.6425L167.872 30.4456C167.836 30.4428 167.8 30.4512 167.769 30.4698C167.739 30.4884 167.714 30.5162 167.7 30.5494L166.858 32.4869C165.869 32.6385 164.911 32.9501 164.022 33.4094L162.201 32.34C162.169 32.3218 162.133 32.3138 162.097 32.317C162.061 32.3202 162.027 32.3346 162 32.3581L160.074 34.005C160.046 34.0285 160.027 34.06 160.018 34.095C160.009 34.1301 160.012 34.167 160.025 34.2006L160.8 36.165C160.208 36.9716 159.752 37.8692 159.449 38.8225L157.404 39.3543C157.369 39.3634 157.337 39.3831 157.314 39.4108C157.291 39.4385 157.277 39.4727 157.274 39.5087L157.077 42.035C157.074 42.0709 157.083 42.1069 157.102 42.1378C157.12 42.1687 157.148 42.193 157.181 42.2075L159.119 43.0493C159.271 44.0381 159.582 44.9957 160.042 45.8843L158.975 47.705C158.957 47.7361 158.949 47.7721 158.952 47.8081C158.955 47.8441 158.969 47.8781 158.993 47.9056L160.641 49.8312C160.664 49.8586 160.696 49.878 160.73 49.8868C160.765 49.8955 160.802 49.8931 160.836 49.88L162.801 49.1056C163.608 49.6973 164.506 50.1535 165.46 50.4562L165.991 52.5006C166 52.5356 166.02 52.5668 166.048 52.59C166.075 52.6132 166.11 52.6272 166.146 52.63L168.673 52.8268C168.709 52.8294 168.745 52.8209 168.776 52.8023C168.807 52.7837 168.831 52.7561 168.846 52.7231L169.687 50.7856C170.677 50.6341 171.634 50.3223 172.523 49.8625L174.344 50.9318C174.375 50.9502 174.412 50.9584 174.448 50.9553C174.484 50.9521 174.518 50.9378 174.545 50.9143L176.471 49.2668C176.499 49.2433 176.518 49.2119 176.527 49.1768C176.536 49.1418 176.533 49.1048 176.52 49.0712L175.745 47.1075C176.337 46.3006 176.793 45.4028 177.096 44.4493L179.141 43.9181C179.176 43.9091 179.208 43.8893 179.231 43.8617C179.254 43.834 179.268 43.7997 179.271 43.7637L179.465 41.2375Z" fill="#91B3FA"/>
<path opacity="0.7" d="M168.265 44.2026C167.601 44.2027 166.963 43.9465 166.484 43.4874C166.005 43.0284 165.721 42.402 165.693 41.739C165.664 41.0761 165.893 40.4278 166.332 39.9294C166.77 39.4311 167.384 39.1213 168.045 39.0646C168.706 39.0079 169.364 39.2088 169.881 39.6253C170.398 40.0418 170.734 40.6417 170.818 41.2998C170.903 41.958 170.731 42.6234 170.336 43.1573C169.942 43.6912 169.357 44.0523 168.703 44.1651C168.558 44.1899 168.412 44.2025 168.265 44.2026V44.2026ZM168.273 39.7027C167.812 39.7023 167.365 39.867 167.014 40.167C166.663 40.4671 166.431 40.8827 166.36 41.3387C166.289 41.7948 166.384 42.2612 166.627 42.6537C166.87 43.0463 167.245 43.339 167.685 43.479C168.125 43.619 168.6 43.5971 169.026 43.4173C169.451 43.2374 169.798 42.9114 170.003 42.4982C170.209 42.085 170.26 41.6119 170.148 41.1643C170.035 40.7167 169.766 40.3242 169.389 40.0577C169.063 39.8264 168.673 39.7023 168.273 39.7027Z" fill="white"/>
<path opacity="0.7" d="M168.228 48.067C168.058 48.067 167.888 48.0607 167.717 48.047C166.663 47.965 165.645 47.6242 164.753 47.0549C163.862 46.4856 163.125 45.7053 162.607 44.7831C162.089 43.8609 161.807 42.8252 161.786 41.768C161.764 40.7107 162.003 39.6644 162.483 38.7218C162.962 37.7792 163.667 36.9694 164.534 36.364C165.402 35.7587 166.405 35.3765 167.455 35.2514C168.506 35.1264 169.571 35.2622 170.556 35.6469C171.541 36.0316 172.417 36.6533 173.104 37.457C173.122 37.4776 173.14 37.4988 173.158 37.5195C173.407 37.8187 173.629 38.1397 173.821 38.4788V38.4826L173.829 38.4976L173.844 38.5238C173.846 38.5288 173.849 38.5336 173.852 38.5382L173.876 38.5844L173.321 38.8845C173.125 38.5213 172.89 38.18 172.621 37.8663V37.8663C171.789 36.8939 170.658 36.2243 169.405 35.9619C168.151 35.6995 166.847 35.859 165.694 36.4157C164.541 36.9724 163.604 37.8948 163.031 39.0392C162.457 40.1836 162.279 41.4856 162.523 42.742C162.767 43.9985 163.42 45.1389 164.381 45.9853C165.341 46.8317 166.555 47.3365 167.833 47.4211C169.11 47.5056 170.38 47.1651 171.444 46.4527C172.507 45.7403 173.305 44.6959 173.713 43.4826L174.312 43.6832C173.883 44.9576 173.065 46.0657 171.974 46.852C170.883 47.6382 169.573 48.0631 168.228 48.067Z" fill="white"/>
<path d="M127.241 70.6412C127.498 70.4011 127.803 70.2179 128.135 70.1035C128.467 69.9891 128.82 69.9462 129.17 69.9775C136.746 70.6587 150.881 67.0106 160.117 57.5618C160.759 56.9056 161.93 57.2768 162.664 57.8256C172.937 65.5018 189.967 67.0912 195.878 67.4162C196.471 67.4495 197.032 67.6926 197.461 68.102C197.89 68.5113 198.159 69.0602 198.22 69.65C203.597 121.559 169.788 140.369 162.776 143.689C162.398 143.868 161.982 143.949 161.564 143.925C161.147 143.9 160.742 143.772 160.387 143.551C125.439 121.79 126.936 93.4887 126.452 72.5218C126.444 72.1705 126.51 71.8214 126.646 71.4974C126.782 71.1733 126.985 70.8816 127.241 70.6412V70.6412Z" fill="url(#paint4_linear)"/>
<path opacity="0.61" d="M161.831 139.919C161.672 139.919 161.517 139.874 161.383 139.788C147.985 131.226 139.251 120.991 134.687 108.496C130.609 97.3369 130.41 85.9738 130.233 75.9482L130.21 74.6119C130.207 74.5024 130.227 74.3935 130.267 74.2917C130.308 74.1899 130.368 74.0973 130.445 74.0194C130.523 73.94 130.615 73.8769 130.717 73.834C130.819 73.791 130.929 73.7691 131.04 73.7694V73.7694C139.337 73.7694 151.791 70.1069 160.924 61.925C161.061 61.8028 161.234 61.7293 161.417 61.716C161.599 61.7028 161.781 61.7506 161.934 61.8519C171.97 68.5088 186.286 70.4475 193.927 71.0107C194.122 71.0246 194.307 71.1077 194.446 71.2452C194.586 71.3826 194.673 71.5654 194.69 71.7607C196.466 92.015 192.252 109.142 182.165 122.666C174.631 132.767 165.698 138.03 162.206 139.824C162.09 139.885 161.962 139.917 161.831 139.919V139.919ZM162.053 139.526L162.13 139.677L162.053 139.526C165.523 137.743 174.402 132.511 181.893 122.468C191.929 109.012 196.121 91.9632 194.353 71.795C194.343 71.6795 194.293 71.5712 194.21 71.4898C194.128 71.4083 194.019 71.3589 193.903 71.3507C186.23 70.7882 171.848 68.8363 161.748 62.1363C161.658 62.0767 161.55 62.0486 161.443 62.0564C161.335 62.0642 161.233 62.1075 161.153 62.1794C151.952 70.4213 139.403 74.1107 131.048 74.1107C130.981 74.1096 130.915 74.122 130.853 74.1473C130.791 74.1725 130.735 74.21 130.689 74.2575C130.643 74.3034 130.608 74.3578 130.584 74.4176C130.561 74.4774 130.549 74.5414 130.55 74.6057L130.574 75.9419C130.75 85.9419 130.949 97.2738 135.007 108.379C139.546 120.801 148.233 130.981 161.566 139.504C161.639 139.55 161.722 139.576 161.807 139.579C161.892 139.583 161.977 139.565 162.053 139.526Z" fill="white"/>
<path opacity="0.61" d="M174.047 90.2362H172.467C172.28 90.2363 172.096 90.1996 171.923 90.1283C171.751 90.0569 171.594 89.9523 171.462 89.8203C171.33 89.6884 171.225 89.5317 171.154 89.3594C171.083 89.187 171.046 89.0022 171.046 88.8156V83.4162C171.046 82.488 170.677 81.5977 170.021 80.9414C169.364 80.285 168.473 79.9162 167.545 79.9162H157.753C156.825 79.9162 155.934 80.285 155.278 80.9414C154.621 81.5977 154.252 82.488 154.252 83.4162V88.8156C154.252 89.1924 154.102 89.5537 153.836 89.8201C153.569 90.0866 153.208 90.2362 152.831 90.2362H151.251C151.065 90.2363 150.88 90.1996 150.707 90.1283C150.535 90.0569 150.378 89.9523 150.246 89.8203C150.114 89.6884 150.009 89.5317 149.938 89.3594C149.867 89.187 149.83 89.0022 149.83 88.8156V83.4162C149.83 81.3155 150.665 79.3009 152.151 77.8155C153.637 76.3301 155.652 75.4956 157.753 75.4956H167.545C169.646 75.4956 171.662 76.3301 173.147 77.8155C174.633 79.3009 175.468 81.3155 175.468 83.4162V88.8156C175.468 89.1924 175.318 89.5537 175.052 89.8201C174.785 90.0866 174.424 90.2362 174.047 90.2362V90.2362Z" fill="white"/>
<path opacity="0.61" d="M176.005 91.511H149.291C148.505 91.511 147.751 91.8232 147.195 92.3789C146.639 92.9346 146.327 93.6882 146.327 94.4741V114.97C146.327 115.756 146.639 116.509 147.195 117.065C147.751 117.621 148.505 117.933 149.291 117.933H176.005C176.791 117.933 177.545 117.621 178.101 117.065C178.657 116.509 178.969 115.756 178.969 114.97V94.4741C178.969 93.6882 178.657 92.9346 178.101 92.3789C177.545 91.8232 176.791 91.511 176.005 91.511V91.511ZM166.47 111.32C166.509 111.482 166.511 111.65 166.475 111.812C166.44 111.974 166.368 112.126 166.265 112.256C166.163 112.387 166.032 112.492 165.882 112.564C165.733 112.637 165.569 112.674 165.403 112.674H159.894C159.728 112.674 159.564 112.636 159.415 112.564C159.265 112.491 159.134 112.386 159.031 112.256C158.929 112.125 158.857 111.973 158.821 111.811C158.786 111.649 158.787 111.481 158.826 111.32L160.111 105.971C159.336 105.509 158.702 104.843 158.277 104.047C157.853 103.25 157.654 102.352 157.704 101.451C157.835 98.9672 159.849 96.9335 162.33 96.7797C163.439 96.7087 164.54 97.0126 165.455 97.6425C166.37 98.2725 167.047 99.1918 167.376 100.253C167.705 101.314 167.668 102.454 167.27 103.492C166.872 104.529 166.137 105.402 165.183 105.971L166.47 111.32Z" fill="white"/>
<path d="M60.2493 84.8125C60.2493 84.8125 62.4131 84.9269 62.6782 89.375C62.6782 89.375 57.661 93.8713 50.8845 94.9413C50.3756 95.0219 51.5953 91.4694 51.7791 90.9881C52.6513 88.6988 55.4003 87.2244 60.2493 84.8125Z" fill="url(#paint5_linear)"/>
<path d="M84.6162 79.5788H80.0523C80.0523 79.5788 66.0386 64.1069 56.8476 62.5457C56.8476 62.5457 50.45 70.71 57.1883 85.9651C57.7304 87.1919 59.2465 87.7369 60.3768 87.0151C60.7056 86.8102 60.9609 86.5062 61.1058 86.1469L60.5625 73.125C60.5625 73.125 72.5162 83.5763 74.5937 85.5932C76.6712 87.6101 87.2326 86.3751 84.6162 79.5788Z" fill="#7D97F4"/>
<path d="M40.4751 112.063C42.3882 110.386 45.4366 108.506 49.838 107.966L51.326 108.876C51.326 108.876 50.3769 110.276 48.6433 111.751C47.0496 112.676 44.5889 113.929 42.5495 114.201C40.5632 114.468 40.2738 113.27 40.4751 112.063Z" fill="url(#paint6_linear)"/>
<path d="M51.7793 90.988C52.9577 91.3692 53.476 93.0386 56.4682 91.9348C58.6524 91.1298 60.7209 90.0404 62.6201 88.6948C62.6445 88.9105 62.6651 89.1355 62.6827 89.3748C62.6827 89.3748 57.3929 94.4049 50.6164 95.4755C50.4998 95.4927 50.3808 95.4791 50.2712 95.436C50.1615 95.393 50.0651 95.3219 49.9914 95.23C49.9177 95.1381 49.8694 95.0285 49.8513 94.9121C49.8332 94.7958 49.8458 94.6767 49.888 94.5667C50.3735 93.3027 51.0084 92.1013 51.7793 90.988V90.988Z" fill="#91B3FA"/>
<path d="M39.0334 113.494C39.4828 112.986 39.9644 112.508 40.4751 112.063C40.2738 113.27 40.5657 114.468 42.5495 114.204C44.5889 113.932 47.0509 112.679 48.6432 111.754C46.6426 113.457 43.6073 115.264 39.7717 115.158C38.9202 115.134 38.4707 114.133 39.0334 113.494Z" fill="#91B3FA"/>
<path d="M84.4518 82.8811L63.0701 83.1124C63.0701 83.1124 50.8595 93.2112 48.645 108.612C48.645 108.612 48.2774 109.746 50.4843 109.939C50.4843 109.939 57.8666 105.119 62.68 96.5974C68.5825 86.1486 80.2748 90.8518 80.2748 90.8518C85.8922 92.0911 90.3636 91.6299 93.6352 86.5968L84.4518 82.8811Z" fill="#7D97F4"/>
<path d="M83.9444 65.6624C83.9444 65.6624 81.6424 77.1942 70.3652 81.7561L66.3533 81.2836L65.4067 82.7924L74.8165 83.0924C74.8165 83.0924 82.8603 79.9049 87.1222 71.2292C87.2654 70.9424 89.6099 66.098 83.9444 65.6624Z" fill="url(#paint7_linear)"/>
<path d="M82.7107 82.6925C82.7107 82.6925 85.3272 75.58 85.8898 68.6688C85.8898 68.6688 83.9749 67.0238 82.7776 66.3138C82.5901 66.2031 82.4511 66.0259 82.3885 65.8173C82.326 65.6088 82.3443 65.3843 82.44 65.1888C83.3209 63.3694 88.6407 56.2144 89.0408 56.115C91.2077 55.5744 100.094 51.3506 106.352 59.9081C109.04 63.5806 105.819 74.8863 93.6335 86.5956C89.7129 87.2331 86.0474 86.1038 82.7107 82.6925Z" fill="url(#paint8_linear)"/>
<path d="M92.7964 70.2271C92.7964 70.2271 85.5248 78.8352 76.2288 80.0933C76.2288 80.0933 73.8262 77.9058 72.04 78.6852C70.2538 79.4645 67.8037 82.9183 67.8037 82.9183H79.7387C79.7387 82.9183 91.0265 82.5208 96.667 75.6783C96.2131 73.2839 94.8539 71.8533 92.7964 70.2271Z" fill="url(#paint9_linear)"/>
<path d="M97.0388 50.0774L98.6299 55.3824C98.6661 55.5006 98.6637 55.6273 98.623 55.7441C98.5823 55.8608 98.5055 55.9616 98.4036 56.0318C97.6371 56.5568 95.6353 57.5999 92.8888 56.5861C92.7345 56.5283 92.5999 56.4276 92.5008 56.296C92.4017 56.1644 92.3421 56.0072 92.3292 55.843L91.9541 51.218L97.0388 50.0774Z" fill="url(#paint10_linear)"/>
<path d="M87.7217 45.7805C87.7217 45.7805 88.5044 51.2805 90.6176 52.968C92.7307 54.6555 96.8476 53.3862 98.2387 49.2399L95.4678 42.1543L87.7217 45.7805Z" fill="url(#paint11_linear)"/>
<path d="M95.78 46.7419C95.7424 46.7542 95.7025 46.7582 95.6632 46.7536C95.6239 46.749 95.5861 46.7358 95.5524 46.715C95.5187 46.6942 95.4899 46.6664 95.4681 46.6333C95.4463 46.6003 95.432 46.5629 95.4261 46.5238C95.3492 46.0163 95.1592 45.0113 94.7734 44.3269C94.7734 44.3269 94.9754 43.6056 92.9497 44.6956C90.9241 45.7856 87.8813 47.3831 86.0901 46.4331C84.3439 45.5038 82.5746 40.8256 87.1904 41.6919C87.2313 41.6998 87.2735 41.6982 87.3137 41.6873C87.3539 41.6764 87.3911 41.6564 87.4224 41.6289C87.4537 41.6014 87.4782 41.567 87.4941 41.5286C87.5101 41.4901 87.517 41.4484 87.5143 41.4069C87.4574 40.6381 87.5337 38.8694 89.3274 38.3013C91.0041 37.77 91.9219 38.5269 92.3008 38.9837C92.3266 39.0152 92.3593 39.0405 92.3963 39.0576C92.4333 39.0747 92.4736 39.0833 92.5144 39.0826C92.5551 39.0819 92.5952 39.0721 92.6316 39.0538C92.668 39.0355 92.6998 39.0092 92.7247 38.9769C93.2248 38.3212 94.5909 36.9256 96.6009 37.8106C98.2551 38.5394 98.5121 39.5606 98.4852 40.1925C98.4827 40.2393 98.4925 40.2859 98.5134 40.3278C98.5344 40.3698 98.5659 40.4055 98.6049 40.4316C98.6438 40.4577 98.6889 40.4732 98.7356 40.4766C98.7824 40.4801 98.8292 40.4713 98.8716 40.4513C99.3786 40.2181 100.193 40.0969 100.973 41.0763C102.053 42.4281 100.511 43.6 100.048 43.9075C100.01 43.9319 99.9794 43.9652 99.9576 44.0044C99.9358 44.0436 99.9239 44.0876 99.9231 44.1325C99.9194 44.835 99.8094 47.9013 98.2726 49.6325C98.2415 49.6667 98.2023 49.6924 98.1586 49.7074C98.1149 49.7224 98.0681 49.7262 98.0225 49.7183C97.977 49.7105 97.9342 49.6913 97.898 49.6625C97.8618 49.6338 97.8335 49.5964 97.8156 49.5538L96.6321 46.7344C96.6055 46.6713 96.5563 46.6204 96.494 46.5918C96.4317 46.5632 96.361 46.559 96.2958 46.58L95.78 46.7419Z" fill="url(#paint12_linear)"/>
<path d="M95.7549 47.3125C95.7549 47.3125 96.4776 44.3693 97.5755 45.3249C98.6733 46.2806 97.2891 48.3831 96.0318 48.7844L95.7549 47.3125Z" fill="url(#paint13_linear)"/>
<path d="M68.4019 83.5865L63.0421 65.7164C62.9353 65.3605 62.7226 65.0456 62.4321 64.8136C62.1417 64.5817 61.7875 64.4438 61.4166 64.4183L54.1794 63.9233C54.0098 63.9117 53.8401 63.9424 53.6853 64.0126C53.5306 64.0828 53.3957 64.1904 53.2927 64.3255C53.1898 64.4607 53.1221 64.6193 53.0956 64.7872C53.0691 64.955 53.0847 65.1267 53.1409 65.287L59.1316 82.3527C59.2259 82.6221 59.3952 82.8591 59.6196 83.0356C59.844 83.2122 60.1141 83.3211 60.3982 83.3496L67.5254 84.1402L68.4019 83.5865Z" fill="url(#paint14_linear)"/>
<path d="M58.5163 71.7731C58.9165 72.5806 59.6079 73.0537 60.0599 72.8293C60.512 72.6049 60.5545 71.7668 60.1543 70.9618C59.7542 70.1568 59.0634 69.6812 58.6107 69.9049C58.1581 70.1287 58.1162 70.9656 58.5163 71.7731Z" fill="#91B3FA"/>
<path d="M67.5256 84.14H67.5606L82.7453 83.375C82.8345 83.3705 82.922 83.3485 83.0027 83.3102C83.0835 83.2718 83.1558 83.218 83.2157 83.1517C83.2757 83.0855 83.3219 83.008 83.3519 82.9239C83.3819 82.8397 83.395 82.7505 83.3905 82.6613C83.386 82.572 83.3639 82.4846 83.3256 82.4039C83.2873 82.3232 83.2334 82.2508 83.1671 82.1909C83.1008 82.131 83.0234 82.0848 82.9392 82.0548C82.855 82.0248 82.7657 82.0117 82.6765 82.0163L67.4918 82.7838C67.3136 82.7913 67.1455 82.8685 67.0237 82.9987C66.9019 83.129 66.8361 83.3018 66.8405 83.48C66.845 83.6583 66.9192 83.8277 67.0474 83.9517C67.1755 84.0757 67.3472 84.1445 67.5256 84.1432V84.14Z" fill="url(#paint15_linear)"/>
<path d="M85.8898 68.7737C85.8619 68.7737 85.8352 68.7627 85.8155 68.743C85.7958 68.7233 85.7847 68.6966 85.7847 68.6687C85.7741 65.4643 87.0076 61.2237 87.0201 61.1812C87.024 61.168 87.0304 61.1556 87.039 61.1448C87.0477 61.1341 87.0584 61.1251 87.0705 61.1185C87.0826 61.1118 87.0959 61.1076 87.1096 61.1061C87.1233 61.1046 87.1372 61.1058 87.1505 61.1097C87.1637 61.1135 87.1761 61.1199 87.1869 61.1286C87.1976 61.1372 87.2066 61.1479 87.2133 61.16C87.2199 61.1721 87.2241 61.1854 87.2256 61.1991C87.2271 61.2128 87.2259 61.2267 87.222 61.24C87.2095 61.2825 85.9848 65.495 85.9954 68.6681C85.9954 68.696 85.9844 68.7228 85.9647 68.7426C85.945 68.7623 85.9183 68.7736 85.8904 68.7737H85.8898Z" fill="url(#paint16_linear)"/>
<path d="M92.7965 70.3324C92.7766 70.3325 92.7572 70.327 92.7404 70.3165C92.7235 70.306 92.71 70.291 92.7014 70.2731C92.6928 70.2553 92.6894 70.2354 92.6916 70.2157C92.6938 70.196 92.7016 70.1773 92.714 70.1618C92.7471 70.1199 96.0475 65.9256 97.1772 63.0637C97.1822 63.0507 97.1897 63.0388 97.1993 63.0288C97.2089 63.0188 97.2204 63.0107 97.2332 63.0052C97.2459 62.9997 97.2597 62.9967 97.2736 62.9966C97.2875 62.9964 97.3012 62.9991 97.3141 63.0043C97.3401 63.0146 97.361 63.0348 97.3721 63.0605C97.3833 63.0861 97.3838 63.1151 97.3735 63.1412C96.2319 66.0312 92.9128 70.2499 92.879 70.2924C92.8692 70.3049 92.8567 70.315 92.8424 70.322C92.8281 70.3289 92.8124 70.3325 92.7965 70.3324Z" fill="url(#paint17_linear)"/>
<path d="M97.4754 76.7818L96.8746 75.9331C96.8585 75.9102 96.8522 75.8819 96.857 75.8543C96.8618 75.8268 96.8774 75.8023 96.9002 75.7862C96.9114 75.7782 96.9241 75.7724 96.9376 75.7693C96.951 75.7662 96.965 75.7659 96.9786 75.7682C96.9922 75.7705 97.0052 75.7755 97.0168 75.7829C97.0285 75.7903 97.0386 75.7999 97.0465 75.8112L97.5467 76.5212C102.23 74.4687 105.13 68.8675 105.158 68.8106C105.171 68.7857 105.193 68.7669 105.22 68.7583C105.246 68.7497 105.275 68.752 105.3 68.7647C105.325 68.7773 105.344 68.7994 105.352 68.8259C105.361 68.8525 105.359 68.8814 105.346 68.9062C105.317 68.9643 102.352 74.6937 97.5517 76.7481L97.4754 76.7818Z" fill="url(#paint18_linear)"/>
</g>
<defs>
<linearGradient id="paint0_linear" x1="224.435" y1="176.589" x2="98.7316" y2="66.5631" gradientUnits="userSpaceOnUse">
<stop stop-color="#DAE3FE"/>
<stop offset="1" stop-color="#E9EFFD"/>
</linearGradient>
<linearGradient id="paint1_linear" x1="51.9962" y1="12.4833" x2="186.558" y2="221.351" gradientUnits="userSpaceOnUse">
<stop stop-color="#4F52FF"/>
<stop offset="1" stop-color="#4042E2"/>
</linearGradient>
<linearGradient id="paint2_linear" x1="119.864" y1="165.325" x2="97.4619" y2="98.0988" gradientUnits="userSpaceOnUse">
<stop stop-color="#09005D"/>
<stop offset="1" stop-color="#1A0F91"/>
</linearGradient>
<linearGradient id="paint3_linear" x1="27684.6" y1="12533.5" x2="33369.9" y2="44832.4" gradientUnits="userSpaceOnUse">
<stop stop-color="#09005D"/>
<stop offset="1" stop-color="#1A0F91"/>
</linearGradient>
<linearGradient id="paint4_linear" x1="238.37" y1="17.9455" x2="209.335" y2="46.3589" gradientUnits="userSpaceOnUse">
<stop stop-color="#FF928E"/>
<stop offset="1" stop-color="#FE7062"/>
</linearGradient>
<linearGradient id="paint5_linear" x1="-14534.7" y1="14516.7" x2="-15780.2" y2="16047.1" gradientUnits="userSpaceOnUse">
<stop stop-color="#09005D"/>
<stop offset="1" stop-color="#1A0F91"/>
</linearGradient>
<linearGradient id="paint6_linear" x1="-15094.6" y1="11107.3" x2="-16609.8" y2="13040.6" gradientUnits="userSpaceOnUse">
<stop stop-color="#09005D"/>
<stop offset="1" stop-color="#1A0F91"/>
</linearGradient>
<linearGradient id="paint7_linear" x1="71.6287" y1="69.3649" x2="81.6969" y2="81.3423" gradientUnits="userSpaceOnUse">
<stop stop-color="#FEBBBA"/>
<stop offset="1" stop-color="#FF928E"/>
</linearGradient>
<linearGradient id="paint8_linear" x1="33345.2" y1="20586.4" x2="18094.6" y2="32875.4" gradientUnits="userSpaceOnUse">
<stop stop-color="#FF928E"/>
<stop offset="1" stop-color="#FE7062"/>
</linearGradient>
<linearGradient id="paint9_linear" x1="23882.6" y1="16367.8" x2="26381.7" y2="8592.46" gradientUnits="userSpaceOnUse">
<stop stop-color="#FEBBBA"/>
<stop offset="1" stop-color="#FF928E"/>
</linearGradient>
<linearGradient id="paint10_linear" x1="4300.98" y1="6424.23" x2="4386.04" y2="5684.45" gradientUnits="userSpaceOnUse">
<stop stop-color="#FEBBBA"/>
<stop offset="1" stop-color="#FF928E"/>
</linearGradient>
<linearGradient id="paint11_linear" x1="7358.76" y1="9571.9" x2="6708.04" y2="7615.83" gradientUnits="userSpaceOnUse">
<stop stop-color="#FEBBBA"/>
<stop offset="1" stop-color="#FF928E"/>
</linearGradient>
<linearGradient id="paint12_linear" x1="-10927.5" y1="6249.8" x2="-11356.7" y2="9681.75" gradientUnits="userSpaceOnUse">
<stop stop-color="#09005D"/>
<stop offset="1" stop-color="#1A0F91"/>
</linearGradient>
<linearGradient id="paint13_linear" x1="1510.03" y1="3120.06" x2="1235.56" y2="2569.59" gradientUnits="userSpaceOnUse">
<stop stop-color="#FEBBBA"/>
<stop offset="1" stop-color="#FF928E"/>
</linearGradient>
<linearGradient id="paint14_linear" x1="-16187.9" y1="24013.5" x2="-19941.8" y2="24013.5" gradientUnits="userSpaceOnUse">
<stop stop-color="#09005D"/>
<stop offset="1" stop-color="#1A0F91"/>
</linearGradient>
<linearGradient id="paint15_linear" x1="-18005.5" y1="2830.31" x2="-17376.7" y2="4170.86" gradientUnits="userSpaceOnUse">
<stop stop-color="#09005D"/>
<stop offset="1" stop-color="#1A0F91"/>
</linearGradient>
<linearGradient id="paint16_linear" x1="89.2189" y1="22.9269" x2="84.4866" y2="95.8314" gradientUnits="userSpaceOnUse">
<stop stop-color="#E1473D"/>
<stop offset="1" stop-color="#E9605A"/>
</linearGradient>
<linearGradient id="paint17_linear" x1="4581.67" y1="2819.74" x2="3717.83" y2="11325.1" gradientUnits="userSpaceOnUse">
<stop stop-color="#E1473D"/>
<stop offset="1" stop-color="#E9605A"/>
</linearGradient>
<linearGradient id="paint18_linear" x1="9106.8" y1="3139.3" x2="8532.31" y2="12508.7" gradientUnits="userSpaceOnUse">
<stop stop-color="#E1473D"/>
<stop offset="1" stop-color="#E9605A"/>
</linearGradient>
<clipPath id="clip0">
<rect width="250" height="175" fill="white"/>
</clipPath>
</defs>
</svg>
