<svg width="1975" height="1023" viewBox="0 0 1975 1023" fill="none" xmlns="http://www.w3.org/2000/svg">
<rect y="5" width="1975" height="1018" fill="white"/>
<path d="M1975 886.081C1971.83 944.349 1822.1 622.297 1813.5 857.89C1813.31 863.294 1811.95 868.598 1809.5 873.457C1807.04 878.315 1803.55 882.617 1799.26 886.081C1794.97 889.546 1789.97 892.095 1784.59 893.561C1779.21 895.028 1773.57 895.378 1768.03 894.59H663.774C469.848 888.856 798.968 815.069 903.592 456.568L1011.43 37.3496C1013.95 28.258 1019.51 20.2264 1027.24 14.5C1034.96 8.77361 1044.43 5.67239 1054.16 5.6772L1975 0V886.081Z" fill="#001449"/>
</svg>
