<svg width="566" height="577" viewBox="0 0 566 577" fill="none" xmlns="http://www.w3.org/2000/svg">
<path fill-rule="evenodd" clip-rule="evenodd" d="M350.33 0.830328C383.003 -6.81662 402.486 40.3002 427.371 62.3298C446.719 79.4579 460.887 100.542 481.147 116.636C507.258 137.377 553.848 139.518 563.981 170.849C573.785 201.16 545.691 231.849 526.784 257.732C511.033 279.294 484.164 289.058 464.387 307.187C447.55 322.621 436.427 342.467 418.647 356.858C397.576 373.912 376.569 391.881 350.33 399.501C320.806 408.075 285.667 418.48 259.155 403.177C232.127 387.576 228.98 350.607 216.737 322.39C206.945 299.821 195.477 277.701 194.094 253.229C192.801 230.36 205.218 209.565 209.082 186.974C213.196 162.921 201.544 133.829 217.7 115.224C233.976 96.4804 270.38 110.928 289.244 94.6574C318.057 69.8064 312.936 9.58218 350.33 0.830328Z" fill="#00C894"/>
<path fill-rule="evenodd" clip-rule="evenodd" d="M168.562 214.057C200.915 211.806 235.863 202.86 264.677 216.043C293.5 229.23 310.645 257.375 321.955 284.236C332.137 308.415 318.122 335.635 325.539 360.586C333.281 386.629 364.412 405.068 365.87 431.962C367.36 459.455 356.033 489.276 333.548 508.346C311.067 527.412 274.019 522.082 245.804 533.789C217.903 545.366 199.192 579.896 168.562 576.805C136.616 573.581 125.994 534.94 99.3804 519.013C77.3762 505.844 45.0709 509.047 26.8237 491.982C8.46715 474.814 1.61276 449.72 0.0890369 426.152C-1.35333 403.843 15.1595 384.123 18.4176 361.962C22.0625 337.171 9.77761 311.097 20.4116 287.927C31.7173 263.294 53.2589 241.999 79.4757 228.926C106.123 215.64 138.051 216.179 168.562 214.057Z" fill="#728EB5"/>
</svg>
