<svg width="90" height="90" viewBox="0 0 90 90" fill="none" xmlns="http://www.w3.org/2000/svg">
<rect width="90" height="90" rx="15" fill="url(#paint0_linear)"/>
<rect x="5" y="9" width="81" height="81" rx="15" fill="url(#paint1_linear)"/>
<rect x="10" y="19" width="71" height="71" rx="15" fill="url(#paint2_linear)"/>
<path d="M19 69.875V32.5L44.875 21L70.75 32.5V69.875" stroke="white" stroke-width="4" stroke-linecap="round" stroke-linejoin="round"/>
<path d="M47.75 46.875H59.25V69.875H30.5V52.625H47.75" stroke="white" stroke-width="4" stroke-linecap="round" stroke-linejoin="round"/>
<path d="M47.75 69.875V44C47.75 43.2375 47.4471 42.5062 46.9079 41.9671C46.3688 41.4279 45.6375 41.125 44.875 41.125H39.125C38.3625 41.125 37.6312 41.4279 37.0921 41.9671C36.5529 42.5062 36.25 43.2375 36.25 44V52.625" stroke="white" stroke-width="4" stroke-linecap="round" stroke-linejoin="round"/>
<defs>
<linearGradient id="paint0_linear" x1="45" y1="90" x2="45" y2="-46" gradientUnits="userSpaceOnUse">
<stop stop-color="#00A77B"/>
<stop offset="1" stop-color="#03FDBC" stop-opacity="0"/>
</linearGradient>
<linearGradient id="paint1_linear" x1="45.5" y1="90" x2="45.5" y2="-32.4" gradientUnits="userSpaceOnUse">
<stop stop-color="#00A77B"/>
<stop offset="1" stop-color="#03FDBC" stop-opacity="0"/>
</linearGradient>
<linearGradient id="paint2_linear" x1="45.5" y1="90" x2="45.5" y2="-17.2889" gradientUnits="userSpaceOnUse">
<stop stop-color="#00A77B"/>
<stop offset="1" stop-color="#03FDBC" stop-opacity="0"/>
</linearGradient>
</defs>
</svg>
